<svg width="101" height="101" viewBox="0 0 101 101" fill="none" xmlns="http://www.w3.org/2000/svg">
<path d="M50.5 101C78.397 101 101 78.397 101 50.5C101 22.603 78.397 0 50.5 0C22.603 0 0 22.603 0 50.5C0 78.397 22.603 101 50.5 101ZM23.108 49.4058L71.7984 30.6325C74.0583 29.816 76.032 31.1838 75.2997 34.6009L75.3039 34.5967L67.0135 73.6543C66.3991 76.4233 64.7536 77.0967 62.4517 75.7921L49.8267 66.4875L43.7372 72.3539C43.0639 73.0272 42.4958 73.5953 41.1912 73.5953L42.0875 60.7473L65.4859 39.6088C66.5043 38.7125 65.2586 38.2075 63.9162 39.0996L35.0007 57.3049L22.5356 53.4164C19.8297 52.5579 19.7708 50.7104 23.108 49.4058Z" fill="#FAEDDE"/>
</svg>
