<svg width="103" height="103" viewBox="0 0 103 103" fill="none" xmlns="http://www.w3.org/2000/svg">
<g clip-path="url(#clip0)">
<path d="M99.3738 59.6242C102.447 33.7583 97.8974 17.4285 89.6918 10.0425L89.6961 10.0383C76.452 -2.57496 31.7242 -4.44183 15.8794 10.6048C8.7638 17.965 6.25747 28.7671 5.9828 42.1399C5.70814 55.517 5.38197 80.5761 28.7329 87.3741H28.7544L28.7329 97.7556C28.7329 97.7556 28.5741 101.961 31.2607 102.807C34.3336 103.803 35.7241 101.85 45.2816 90.434C61.2638 91.8203 73.5379 88.6444 74.9327 88.1809C78.1601 87.0994 96.4211 84.6832 99.3738 59.6242ZM46.8566 83.1296C46.8566 83.1296 36.7412 95.7428 33.5954 99.0174C32.5654 100.082 31.4367 99.983 31.4538 97.8715C31.4538 96.4853 31.5311 80.6362 31.5311 80.6362C11.7336 74.9626 12.901 53.6244 13.1156 42.4618C13.3301 31.2949 15.373 22.1493 21.3985 15.9908C35.2992 2.957 74.5122 5.87104 84.5032 15.2612C96.7172 26.0891 92.3698 56.6801 92.3955 57.723C89.8849 78.6405 75.0872 79.9667 72.3663 80.8722C71.2033 81.2585 60.4097 84.0352 46.8566 83.1296Z" fill="#FAEDDE"/>
<path d="M52.4531 18.4414C50.8008 18.4414 50.8008 21.0164 52.4531 21.0379C65.2723 21.1366 75.8298 30.0718 75.9457 46.4617C75.9457 48.1912 78.4778 48.1698 78.4563 46.4402H78.452C78.3147 28.78 66.7873 18.5401 52.4531 18.4414Z" fill="#FAEDDE"/>
<path d="M69.3149 43.7446C69.2762 45.4527 71.804 45.5342 71.8255 43.8047C72.0358 34.0669 66.0317 26.0458 54.7489 25.2003C53.0966 25.0802 52.925 27.6766 54.573 27.7968C64.358 28.5392 69.5123 35.2171 69.3149 43.7446Z" fill="#FAEDDE"/>
<path d="M66.6114 54.8218C64.4913 53.5944 62.3326 54.3583 61.4399 55.5642L59.573 57.9805C58.6246 59.2079 56.8521 59.0448 56.8521 59.0448C43.917 55.6243 40.4579 42.0884 40.4579 42.0884C40.4579 42.0884 40.2991 40.2559 41.4836 39.2731L43.8183 37.3418C44.9856 36.4148 45.7238 34.1832 44.535 31.9901C41.3592 26.2522 39.2262 24.2737 38.1404 22.7545C36.9988 21.3253 35.2822 21.0035 33.4968 21.9691H33.4582C29.7459 24.1407 25.6817 28.2049 26.9821 32.3892C29.2009 36.8011 33.278 50.8649 46.2731 61.491C52.3802 66.5166 62.045 71.6666 66.1479 72.8554L66.1865 72.9155C70.2292 74.263 74.1604 70.04 76.259 66.2162V66.1861C77.1903 64.3364 76.8813 62.5854 75.5209 61.4395C73.1089 59.0877 69.4696 56.4912 66.6114 54.8218Z" fill="#FAEDDE"/>
<path d="M56.5173 34.7799C60.6416 35.0202 62.6415 37.1746 62.8561 41.5993C62.9333 43.3289 65.4439 43.2087 65.3667 41.4792C65.092 35.7026 62.0793 32.4838 56.6546 32.1834C55.0023 32.0847 54.8478 34.6812 56.5173 34.7799Z" fill="#FAEDDE"/>
</g>
<defs>
<clipPath id="clip0">
<rect width="103" height="103" fill="white"/>
</clipPath>
</defs>
</svg>
