<svg width="18" height="172" viewBox="0 0 18 172" fill="none" xmlns="http://www.w3.org/2000/svg">
<path d="M0.982813 0.724999L0.982812 13.475L-0.292188 13.475L-0.292188 0.724999L0.982813 0.724999ZM4.80781 7.1L3.53281 8.375L2.25781 7.1L3.53281 5.825L4.80781 7.1ZM4.80781 4.55L8.63281 0.724999L15.0078 7.1L8.63281 13.475L4.80781 9.65L6.08281 8.375L8.63281 10.925L9.90781 9.65L7.35781 7.1L9.90781 4.55L8.63281 3.275L6.08281 5.825L4.80781 4.55ZM17.5578 0.725L17.5578 13.475L16.2828 13.475L16.2828 0.725L17.5578 0.725ZM4.80781 2L3.53281 3.275L2.25781 2L3.53281 0.724999L4.80781 2ZM15.0078 2L13.7328 3.275L12.4578 2L13.7328 0.725L15.0078 2ZM4.80781 12.2L3.53281 13.475L2.25781 12.2L3.53281 10.925L4.80781 12.2ZM15.0078 12.2L13.7328 13.475L12.4578 12.2L13.7328 10.925L15.0078 12.2ZM11.1828 5.825L9.90781 7.1L11.1828 8.375L12.4578 7.1L11.1828 5.825ZM15.0078 17.2934L8.63281 23.6684L2.25781 17.2934L8.63281 10.9184L15.0078 17.2934ZM8.63281 13.4684L4.80781 17.2934L8.63281 21.1184L12.4578 17.2934L8.63281 13.4684ZM4.80781 22.3934L3.53281 23.6684L2.25781 22.3934L3.53281 21.1184L4.80781 22.3934ZM15.0078 12.1934L13.7328 13.4684L12.4578 12.1934L13.7328 10.9184L15.0078 12.1934ZM4.80781 12.1934L3.53281 13.4684L2.25781 12.1934L3.53281 10.9184L4.80781 12.1934ZM9.90781 17.2934L8.63281 18.5684L7.35781 17.2934L8.63281 16.0184L9.90781 17.2934ZM15.0078 22.3934L13.7328 23.6684L12.4578 22.3934L13.7328 21.1184L15.0078 22.3934ZM17.5578 10.9184L17.5578 23.6684L16.2828 23.6684L16.2828 10.9184L17.5578 10.9184ZM0.982812 10.9184L0.982812 23.6684L-0.292189 23.6684L-0.292188 10.9184L0.982812 10.9184ZM12.4578 24.9699L9.90781 27.5199L11.1828 28.7949L13.7328 26.2449L15.0078 27.5199L11.1828 31.3449L8.63281 28.7949L6.08281 31.3449L2.25781 27.5199L6.08281 23.6949L8.63281 26.2449L11.1828 23.6949L12.4578 24.9699ZM6.08281 26.2449L4.80781 27.5199L6.08281 28.7949L7.35781 27.5199L6.08281 26.2449ZM9.90781 32.6199L8.63281 33.8949L7.35781 32.6199L8.63281 31.3449L9.90781 32.6199ZM9.90781 22.4199L8.63281 23.6949L7.35781 22.4199L8.63281 21.1449L9.90781 22.4199ZM4.80781 22.4199L3.53281 23.6949L2.25781 22.4199L3.53281 21.1449L4.80781 22.4199ZM15.0078 22.4199L13.7328 23.6949L12.4578 22.4199L13.7328 21.1449L15.0078 22.4199ZM4.80781 32.6199L3.53281 33.8949L2.25781 32.6199L3.53281 31.3449L4.80781 32.6199ZM15.0078 32.6199L13.7328 33.8949L12.4578 32.6199L13.7328 31.3449L15.0078 32.6199ZM17.5578 21.1449L17.5578 33.8949L16.2828 33.8949L16.2828 21.1449L17.5578 21.1449ZM0.982812 21.1449L0.982811 33.8949L-0.292189 33.8949L-0.292188 21.1449L0.982812 21.1449ZM4.80781 37.7133L6.08281 38.9883L11.1828 33.8883L15.0078 37.7133L11.1828 41.5383L8.63281 38.9883L6.08281 41.5383L2.25781 37.7133L6.08281 33.8883L7.35781 35.1633L4.80781 37.7133ZM11.1828 36.4383L9.90781 37.7133L11.1828 38.9883L12.4578 37.7133L11.1828 36.4383ZM9.90781 42.8133L8.63281 44.0883L7.35781 42.8133L8.63281 41.5383L9.90781 42.8133ZM9.90781 32.6133L8.63281 33.8883L7.35781 32.6133L8.63281 31.3383L9.90781 32.6133ZM4.80781 32.6133L3.53281 33.8883L2.25781 32.6133L3.53281 31.3383L4.80781 32.6133ZM15.0078 32.6133L13.7328 33.8883L12.4578 32.6133L13.7328 31.3383L15.0078 32.6133ZM4.80781 42.8133L3.53281 44.0883L2.25781 42.8133L3.53281 41.5383L4.80781 42.8133ZM15.0078 42.8133L13.7328 44.0883L12.4578 42.8133L13.7328 41.5383L15.0078 42.8133ZM17.5578 31.3383L17.5578 44.0883L16.2828 44.0883L16.2828 31.3383L17.5578 31.3383ZM0.982811 31.3383L0.982811 44.0883L-0.292189 44.0883L-0.292189 31.3383L0.982811 31.3383ZM9.90781 42.8066L7.35781 45.3566L8.63281 46.6316L11.1828 44.0816L15.0078 47.9066L13.7328 49.1816L11.1828 46.6316L9.90781 47.9066L12.4578 50.4566L8.63281 54.2816L7.35781 53.0066L9.90781 50.4566L8.63281 49.1816L6.08281 51.7316L4.80781 50.4566L7.35781 47.9066L6.08281 46.6316L3.53281 49.1816L2.25781 47.9066L8.63281 41.5316L9.90781 42.8066ZM15.0078 53.0066L13.7328 54.2816L12.4578 53.0066L13.7328 51.7316L15.0078 53.0066ZM4.80781 53.0066L3.53281 54.2816L2.25781 53.0066L3.53281 51.7316L4.80781 53.0066ZM15.0078 42.8066L13.7328 44.0816L12.4578 42.8066L13.7328 41.5316L15.0078 42.8066ZM4.80781 42.8066L3.53281 44.0816L2.25781 42.8066L3.53281 41.5316L4.80781 42.8066ZM17.5578 41.5316L17.5578 54.2816L16.2828 54.2816L16.2828 41.5316L17.5578 41.5316ZM0.982811 41.5316L0.98281 54.2816L-0.29219 54.2816L-0.292189 41.5316L0.982811 41.5316ZM12.4578 60.65L8.63281 64.475L7.35781 63.2L9.90781 60.65L4.80781 55.55L8.63281 51.725L9.90781 53L7.35781 55.55L12.4578 60.65ZM15.0078 58.1L13.7328 59.375L9.90781 55.55L11.1828 54.275L15.0078 58.1ZM7.35781 60.65L6.08281 61.925L2.25781 58.1L3.53281 56.825L7.35781 60.65ZM15.0078 53L13.7328 54.275L12.4578 53L13.7328 51.725L15.0078 53ZM4.80781 53L3.53281 54.275L2.25781 53L3.53281 51.725L4.80781 53ZM4.80781 63.2L3.53281 64.475L2.25781 63.2L3.53281 61.925L4.80781 63.2ZM15.0078 63.2L13.7328 64.475L12.4578 63.2L13.7328 61.925L15.0078 63.2ZM17.5578 51.725L17.5578 64.475L16.2828 64.475L16.2828 51.725L17.5578 51.725ZM0.98281 51.725L0.98281 64.475L-0.29219 64.475L-0.29219 51.725L0.98281 51.725ZM8.63281 69.5684L3.53281 74.6684L2.25781 73.3934L4.80781 70.8434L2.25781 68.2934L4.80781 65.7434L2.25781 63.1934L3.53281 61.9184L8.63281 67.0184L13.7328 61.9184L15.0078 63.1934L12.4578 65.7434L15.0078 68.2934L12.4578 70.8434L15.0078 73.3934L13.7328 74.6684L8.63281 69.5684ZM17.5578 61.9184L17.5578 74.6684L16.2828 74.6684L16.2828 61.9184L17.5578 61.9184ZM0.98281 61.9184L0.982809 74.6684L-0.292191 74.6684L-0.29219 61.9184L0.98281 61.9184ZM9.90781 63.1934L8.63281 64.4684L7.35781 63.1934L8.63281 61.9184L9.90781 63.1934ZM4.80781 68.2934L6.08281 69.5684L7.35781 68.2934L6.08281 67.0184L4.80781 68.2934ZM12.4578 68.2934L11.1828 67.0184L9.90781 68.2934L11.1828 69.5684L12.4578 68.2934ZM9.90781 73.3934L8.63281 74.6684L7.35781 73.3934L8.63281 72.1184L9.90781 73.3934ZM15.0078 78.4867L8.63281 84.8617L2.25781 78.4867L6.08281 74.6617L9.90781 78.4867L8.63281 79.7617L6.08281 77.2117L4.80781 78.4867L8.63281 82.3117L12.4578 78.4867L7.35781 73.3867L8.63281 72.1117L15.0078 78.4867ZM15.0078 83.5867L13.7328 84.8617L12.4578 83.5867L13.7328 82.3117L15.0078 83.5867ZM4.80781 83.5867L3.53281 84.8617L2.25781 83.5867L3.53281 82.3117L4.80781 83.5867ZM15.0078 73.3867L13.7328 74.6617L12.4578 73.3867L13.7328 72.1117L15.0078 73.3867ZM4.80781 73.3867L3.53281 74.6617L2.25781 73.3867L3.53281 72.1117L4.80781 73.3867ZM17.5578 72.1117L17.5578 84.8617L16.2828 84.8617L16.2828 72.1117L17.5578 72.1117ZM0.982809 72.1117L0.982809 84.8617L-0.292191 84.8617L-0.292191 72.1117L0.982809 72.1117ZM15.0078 88.6801L13.7328 89.9551L11.1828 87.4051L8.63281 89.9551L6.08281 87.4051L3.53281 89.9551L2.25781 88.6801L8.63281 82.3051L15.0078 88.6801ZM17.5578 82.3051L17.5578 89.9551L16.2828 89.9551L16.2828 82.3051L17.5578 82.3051ZM0.982809 82.3051L0.982809 89.9551L-0.292191 89.9551L-0.292191 82.3051L0.982809 82.3051ZM15.0078 83.5801L13.7328 84.8551L12.4578 83.5801L13.7328 82.3051L15.0078 83.5801ZM8.63281 84.8551L7.35781 86.1301L8.63281 87.4051L9.90781 86.1301L8.63281 84.8551ZM4.80781 83.5801L3.53281 84.8551L2.25781 83.5801L3.53281 82.3051L4.80781 83.5801ZM4.80781 93.7768L6.08281 95.0518L11.1828 89.9518L15.0078 93.7768L11.1828 97.6018L8.63281 95.0518L6.08281 97.6018L2.25781 93.7768L6.08281 89.9518L7.35781 91.2268L4.80781 93.7768ZM11.1828 92.5018L9.90781 93.7768L11.1828 95.0518L12.4578 93.7768L11.1828 92.5018ZM9.90781 98.8768L8.63281 100.152L7.35781 98.8768L8.63281 97.6018L9.90781 98.8768ZM9.90781 88.6768L8.63281 89.9518L7.35781 88.6768L8.63281 87.4018L9.90781 88.6768ZM4.80781 88.6768L3.53281 89.9518L2.25781 88.6768L3.53281 87.4018L4.80781 88.6768ZM15.0078 88.6768L13.7328 89.9518L12.4578 88.6768L13.7328 87.4018L15.0078 88.6768ZM4.80781 98.8768L3.53281 100.152L2.25781 98.8768L3.53281 97.6018L4.80781 98.8768ZM15.0078 98.8768L13.7328 100.152L12.4578 98.8768L13.7328 97.6018L15.0078 98.8768ZM17.5578 87.4018L17.5578 100.152L16.2828 100.152L16.2828 87.4018L17.5578 87.4018ZM0.982809 87.4018L0.982808 100.152L-0.292192 100.152L-0.292191 87.4018L0.982809 87.4018ZM8.63281 105.245L3.53281 110.345L2.25781 109.07L4.80781 106.52L2.25781 103.97L4.80781 101.42L2.25781 98.8701L3.53281 97.5951L8.63281 102.695L13.7328 97.5951L15.0078 98.8701L12.4578 101.42L15.0078 103.97L12.4578 106.52L15.0078 109.07L13.7328 110.345L8.63281 105.245ZM17.5578 97.5951L17.5578 110.345L16.2828 110.345L16.2828 97.5951L17.5578 97.5951ZM0.982808 97.5951L0.982808 110.345L-0.292192 110.345L-0.292192 97.5951L0.982808 97.5951ZM9.90781 98.8701L8.63281 100.145L7.35781 98.8701L8.63281 97.5951L9.90781 98.8701ZM4.80781 103.97L6.08281 105.245L7.35781 103.97L6.08281 102.695L4.80781 103.97ZM12.4578 103.97L11.1828 102.695L9.90781 103.97L11.1828 105.245L12.4578 103.97ZM9.90781 109.07L8.63281 110.345L7.35781 109.07L8.63281 107.795L9.90781 109.07ZM0.982808 107.788L0.982807 120.538L-0.292193 120.538L-0.292192 107.788L0.982808 107.788ZM4.80781 114.163L3.53281 115.438L2.25781 114.163L3.53281 112.888L4.80781 114.163ZM4.80781 111.613L8.63281 107.788L15.0078 114.163L8.63281 120.538L4.80781 116.713L6.08281 115.438L8.63281 117.988L9.90781 116.713L7.35781 114.163L9.90781 111.613L8.63281 110.338L6.08281 112.888L4.80781 111.613ZM17.5578 107.788L17.5578 120.538L16.2828 120.538L16.2828 107.788L17.5578 107.788ZM4.80781 109.063L3.53281 110.338L2.25781 109.063L3.53281 107.788L4.80781 109.063ZM15.0078 109.063L13.7328 110.338L12.4578 109.063L13.7328 107.788L15.0078 109.063ZM4.80781 119.263L3.53281 120.538L2.25781 119.263L3.53281 117.988L4.80781 119.263ZM15.0078 119.263L13.7328 120.538L12.4578 119.263L13.7328 117.988L15.0078 119.263ZM11.1828 112.888L9.90781 114.163L11.1828 115.438L12.4578 114.163L11.1828 112.888ZM15.0078 124.357L8.63281 130.732L2.25781 124.357L8.63281 117.982L15.0078 124.357ZM8.63281 120.532L4.80781 124.357L8.63281 128.182L12.4578 124.357L8.63281 120.532ZM4.80781 129.457L3.53281 130.732L2.25781 129.457L3.53281 128.182L4.80781 129.457ZM15.0078 119.257L13.7328 120.532L12.4578 119.257L13.7328 117.982L15.0078 119.257ZM4.80781 119.257L3.53281 120.532L2.25781 119.257L3.53281 117.982L4.80781 119.257ZM9.90781 124.357L8.63281 125.632L7.35781 124.357L8.63281 123.082L9.90781 124.357ZM15.0078 129.457L13.7328 130.732L12.4578 129.457L13.7328 128.182L15.0078 129.457ZM17.5578 117.982L17.5578 130.732L16.2828 130.732L16.2828 117.982L17.5578 117.982ZM0.982807 117.982L0.982807 130.732L-0.292193 130.732L-0.292193 117.982L0.982807 117.982ZM12.4578 132.033L9.90781 134.583L11.1828 135.858L13.7328 133.308L15.0078 134.583L11.1828 138.408L8.63281 135.858L6.08281 138.408L2.25781 134.583L6.08281 130.758L8.63281 133.308L11.1828 130.758L12.4578 132.033ZM6.08281 133.308L4.80781 134.583L6.08281 135.858L7.35781 134.583L6.08281 133.308ZM9.90781 139.683L8.63281 140.958L7.35781 139.683L8.63281 138.408L9.90781 139.683ZM9.90781 129.483L8.63281 130.758L7.35781 129.483L8.63281 128.208L9.90781 129.483ZM4.80781 129.483L3.53281 130.758L2.25781 129.483L3.53281 128.208L4.80781 129.483ZM15.0078 129.483L13.7328 130.758L12.4578 129.483L13.7328 128.208L15.0078 129.483ZM4.80781 139.683L3.53281 140.958L2.25781 139.683L3.53281 138.408L4.80781 139.683ZM15.0078 139.683L13.7328 140.958L12.4578 139.683L13.7328 138.408L15.0078 139.683ZM17.5578 128.208L17.5578 140.958L16.2828 140.958L16.2828 128.208L17.5578 128.208ZM0.982807 128.208L0.982806 140.958L-0.292194 140.958L-0.292193 128.208L0.982807 128.208ZM4.80781 144.777L6.08281 146.052L11.1828 140.952L15.0078 144.777L11.1828 148.602L8.63281 146.052L6.08281 148.602L2.25781 144.777L6.08281 140.952L7.35781 142.227L4.80781 144.777ZM11.1828 143.502L9.90781 144.777L11.1828 146.052L12.4578 144.777L11.1828 143.502ZM9.90781 149.877L8.63281 151.152L7.35781 149.877L8.63281 148.602L9.90781 149.877ZM9.90781 139.677L8.63281 140.952L7.35781 139.677L8.63281 138.402L9.90781 139.677ZM4.80781 139.677L3.53281 140.952L2.25781 139.677L3.53281 138.402L4.80781 139.677ZM15.0078 139.677L13.7328 140.952L12.4578 139.677L13.7328 138.402L15.0078 139.677ZM4.80781 149.877L3.53281 151.152L2.25781 149.877L3.53281 148.602L4.80781 149.877ZM15.0078 149.877L13.7328 151.152L12.4578 149.877L13.7328 148.602L15.0078 149.877ZM17.5578 138.402L17.5578 151.152L16.2828 151.152L16.2828 138.402L17.5578 138.402ZM0.982806 138.402L0.982806 151.152L-0.292194 151.152L-0.292194 138.402L0.982806 138.402ZM9.90781 149.87L7.35781 152.42L8.63281 153.695L11.1828 151.145L15.0078 154.97L13.7328 156.245L11.1828 153.695L9.90781 154.97L12.4578 157.52L8.63281 161.345L7.35781 160.07L9.90781 157.52L8.63281 156.245L6.08281 158.795L4.80781 157.52L7.35781 154.97L6.08281 153.695L3.53281 156.245L2.25781 154.97L8.63281 148.595L9.90781 149.87ZM15.0078 160.07L13.7328 161.345L12.4578 160.07L13.7328 158.795L15.0078 160.07ZM4.80781 160.07L3.53281 161.345L2.25781 160.07L3.53281 158.795L4.80781 160.07ZM15.0078 149.87L13.7328 151.145L12.4578 149.87L13.7328 148.595L15.0078 149.87ZM4.80781 149.87L3.53281 151.145L2.25781 149.87L3.53281 148.595L4.80781 149.87ZM17.5578 148.595L17.5578 161.345L16.2828 161.345L16.2828 148.595L17.5578 148.595ZM0.982806 148.595L0.982805 161.345L-0.292195 161.345L-0.292194 148.595L0.982806 148.595ZM12.4578 167.713L8.63281 171.538L7.35781 170.263L9.90781 167.713L4.80781 162.613L8.63281 158.788L9.90781 160.063L7.35781 162.613L12.4578 167.713ZM15.0078 165.163L13.7328 166.438L9.90781 162.613L11.1828 161.338L15.0078 165.163ZM7.35781 167.713L6.08281 168.988L2.25781 165.163L3.53281 163.888L7.35781 167.713ZM15.0078 160.063L13.7328 161.338L12.4578 160.063L13.7328 158.788L15.0078 160.063ZM4.80781 160.063L3.53281 161.338L2.25781 160.063L3.53281 158.788L4.80781 160.063ZM4.80781 170.263L3.53281 171.538L2.25781 170.263L3.53281 168.988L4.80781 170.263ZM15.0078 170.263L13.7328 171.538L12.4578 170.263L13.7328 168.988L15.0078 170.263ZM17.5578 158.788L17.5578 171.538L16.2828 171.538L16.2828 158.788L17.5578 158.788ZM0.982806 158.788L0.982805 171.538L-0.292195 171.538L-0.292194 158.788L0.982806 158.788Z" fill="#FAEDDE"/>
</svg>
