<svg width="62" height="581" viewBox="0 0 62 581" fill="none" xmlns="http://www.w3.org/2000/svg">
<path d="M4.96631 0.672366L4.96631 43.9487L0.638681 43.9487L0.638682 0.672366L4.96631 0.672366ZM17.9492 22.3105L13.6216 26.6382L9.29394 22.3105L13.6216 17.9829L17.9492 22.3105ZM17.9492 13.6553L30.9321 0.672367L52.5703 22.3105L30.9321 43.9487L17.9492 30.9658L22.2768 26.6382L30.9321 35.2934L35.2597 30.9658L26.6045 22.3105L35.2597 13.6553L30.9321 9.32763L22.2768 17.9829L17.9492 13.6553ZM61.2255 0.672368L61.2255 43.9487L56.8979 43.9487L56.8979 0.672368L61.2255 0.672368ZM17.9492 5L13.6216 9.32763L9.29395 5L13.6216 0.672366L17.9492 5ZM52.5703 5L48.2426 9.32763L43.915 5L48.2426 0.672368L52.5703 5ZM17.9492 39.6211L13.6216 43.9487L9.29394 39.621L13.6216 35.2934L17.9492 39.6211ZM52.5703 39.6211L48.2426 43.9487L43.915 39.6211L48.2426 35.2934L52.5703 39.6211ZM39.5874 17.9829L35.2597 22.3105L39.5874 26.6382L43.915 22.3105L39.5874 17.9829ZM52.5703 56.909L30.9321 78.5472L9.29394 56.909L30.9321 35.2709L52.5703 56.909ZM30.9321 43.9261L17.9492 56.909L30.9321 69.8919L43.915 56.909L30.9321 43.9261ZM17.9492 74.2196L13.6216 78.5472L9.29394 74.2196L13.6216 69.8919L17.9492 74.2196ZM52.5703 39.5985L48.2426 43.9261L43.915 39.5985L48.2426 35.2709L52.5703 39.5985ZM17.9492 39.5985L13.6216 43.9261L9.29394 39.5985L13.6216 35.2709L17.9492 39.5985ZM35.2597 56.909L30.9321 61.2367L26.6045 56.909L30.9321 52.5814L35.2597 56.909ZM52.5703 74.2196L48.2426 78.5472L43.915 74.2196L48.2426 69.8919L52.5703 74.2196ZM61.2255 35.2709L61.2255 78.5472L56.8979 78.5472L56.8979 35.2709L61.2255 35.2709ZM4.96631 35.2709L4.96631 78.5472L0.638679 78.5472L0.638681 35.2709L4.96631 35.2709ZM43.915 82.965L35.2597 91.6202L39.5874 95.9479L48.2426 87.2926L52.5703 91.6202L39.5874 104.603L30.9321 95.9479L22.2768 104.603L9.29394 91.6202L22.2768 78.6374L30.9321 87.2926L39.5874 78.6374L43.915 82.965ZM22.2768 87.2926L17.9492 91.6202L22.2768 95.9479L26.6045 91.6202L22.2768 87.2926ZM35.2597 108.931L30.9321 113.258L26.6045 108.931L30.9321 104.603L35.2597 108.931ZM35.2597 74.3097L30.9321 78.6374L26.6045 74.3097L30.9321 69.9821L35.2597 74.3097ZM17.9492 74.3097L13.6216 78.6374L9.29394 74.3097L13.6216 69.9821L17.9492 74.3097ZM52.5703 74.3097L48.2426 78.6374L43.915 74.3097L48.2426 69.9821L52.5703 74.3097ZM17.9492 108.931L13.6216 113.258L9.29394 108.931L13.6216 104.603L17.9492 108.931ZM52.5703 108.931L48.2426 113.258L43.915 108.931L48.2426 104.603L52.5703 108.931ZM61.2255 69.9821L61.2255 113.258L56.8979 113.258L56.8979 69.9821L61.2255 69.9821ZM4.96631 69.9821L4.96631 113.258L0.638677 113.258L0.638679 69.9821L4.96631 69.9821ZM17.9492 126.219L22.2768 130.546L39.5874 113.236L52.5703 126.219L39.5874 139.202L30.9321 130.546L22.2768 139.202L9.29394 126.219L22.2768 113.236L26.6045 117.563L17.9492 126.219ZM39.5874 121.891L35.2597 126.219L39.5874 130.546L43.915 126.219L39.5874 121.891ZM35.2597 143.529L30.9321 147.857L26.6045 143.529L30.9321 139.202L35.2597 143.529ZM35.2597 108.908L30.9321 113.236L26.6045 108.908L30.9321 104.581L35.2597 108.908ZM17.9492 108.908L13.6216 113.236L9.29394 108.908L13.6216 104.581L17.9492 108.908ZM52.5703 108.908L48.2426 113.236L43.915 108.908L48.2426 104.581L52.5703 108.908ZM17.9492 143.529L13.6216 147.857L9.29394 143.529L13.6216 139.202L17.9492 143.529ZM52.5703 143.529L48.2426 147.857L43.915 143.529L48.2426 139.202L52.5703 143.529ZM61.2255 104.581L61.2255 147.857L56.8979 147.857L56.8979 104.581L61.2255 104.581ZM4.96631 104.581L4.96631 147.857L0.638676 147.857L0.638678 104.581L4.96631 104.581ZM35.2597 143.507L26.6045 152.162L30.9321 156.49L39.5874 147.834L52.5703 160.817L48.2426 165.145L39.5874 156.49L35.2597 160.817L43.915 169.473L30.9321 182.455L26.6045 178.128L35.2597 169.473L30.9321 165.145L22.2768 173.8L17.9492 169.473L26.6045 160.817L22.2768 156.49L13.6216 165.145L9.29394 160.817L30.9321 139.179L35.2597 143.507ZM52.5703 178.128L48.2426 182.455L43.915 178.128L48.2426 173.8L52.5703 178.128ZM17.9492 178.128L13.6216 182.455L9.29394 178.128L13.6216 173.8L17.9492 178.128ZM52.5703 143.507L48.2426 147.834L43.915 143.507L48.2426 139.179L52.5703 143.507ZM17.9492 143.507L13.6216 147.834L9.29394 143.507L13.6216 139.179L17.9492 143.507ZM61.2255 139.179L61.2255 182.455L56.8979 182.455L56.8979 139.179L61.2255 139.179ZM4.96631 139.179L4.96631 182.455L0.638674 182.455L0.638676 139.179L4.96631 139.179ZM43.915 204.071L30.9321 217.054L26.6045 212.726L35.2597 204.071L17.9492 186.761L30.9321 173.778L35.2597 178.105L26.6045 186.761L43.915 204.071ZM52.5703 195.416L48.2426 199.743L35.2597 186.761L39.5874 182.433L52.5703 195.416ZM26.6045 204.071L22.2768 208.399L9.29394 195.416L13.6216 191.088L26.6045 204.071ZM52.5703 178.105L48.2426 182.433L43.915 178.105L48.2426 173.778L52.5703 178.105ZM17.9492 178.105L13.6216 182.433L9.29394 178.105L13.6216 173.778L17.9492 178.105ZM17.9492 212.726L13.6216 217.054L9.29394 212.726L13.6216 208.399L17.9492 212.726ZM52.5703 212.726L48.2426 217.054L43.915 212.726L48.2426 208.399L52.5703 212.726ZM61.2255 173.778L61.2255 217.054L56.8979 217.054L56.8979 173.778L61.2255 173.778ZM4.96631 173.778L4.9663 217.054L0.638673 217.054L0.638675 173.778L4.96631 173.778ZM30.9321 234.342L13.6216 251.652L9.29393 247.325L17.9492 238.67L9.29394 230.014L17.9492 221.359L9.29394 212.704L13.6216 208.376L30.9321 225.687L48.2426 208.376L52.5703 212.704L43.915 221.359L52.5703 230.014L43.915 238.67L52.5703 247.325L48.2426 251.652L30.9321 234.342ZM61.2255 208.376L61.2255 251.652L56.8979 251.652L56.8979 208.376L61.2255 208.376ZM4.9663 208.376L4.9663 251.652L0.638671 251.652L0.638673 208.376L4.9663 208.376ZM35.2597 212.704L30.9321 217.031L26.6045 212.704L30.9321 208.376L35.2597 212.704ZM17.9492 230.014L22.2768 234.342L26.6045 230.014L22.2768 225.687L17.9492 230.014ZM43.915 230.014L39.5874 225.687L35.2597 230.014L39.5874 234.342L43.915 230.014ZM35.2597 247.325L30.9321 251.652L26.6045 247.325L30.9321 242.997L35.2597 247.325ZM52.5703 264.613L30.9321 286.251L9.29393 264.613L22.2768 251.63L35.2597 264.613L30.9321 268.94L22.2768 260.285L17.9492 264.613L30.9321 277.596L43.915 264.613L26.6045 247.302L30.9321 242.975L52.5703 264.613ZM52.5703 281.923L48.2426 286.251L43.915 281.923L48.2426 277.596L52.5703 281.923ZM17.9492 281.923L13.6216 286.251L9.29393 281.923L13.6216 277.596L17.9492 281.923ZM52.5703 247.302L48.2426 251.63L43.915 247.302L48.2426 242.975L52.5703 247.302ZM17.9492 247.302L13.6216 251.63L9.29393 247.302L13.6216 242.975L17.9492 247.302ZM61.2255 242.975L61.2255 286.251L56.8979 286.251L56.8979 242.975L61.2255 242.975ZM4.9663 242.975L4.9663 286.251L0.63867 286.251L0.638672 242.975L4.9663 242.975ZM52.5702 299.211L48.2426 303.539L39.5874 294.884L30.9321 303.539L22.2768 294.884L13.6216 303.539L9.29393 299.211L30.9321 277.573L52.5702 299.211ZM61.2255 277.573L61.2255 303.539L56.8979 303.539L56.8979 277.573L61.2255 277.573ZM4.9663 277.573L4.9663 303.539L0.638669 303.539L0.63867 277.573L4.9663 277.573ZM52.5703 281.901L48.2426 286.228L43.915 281.901L48.2426 277.573L52.5703 281.901ZM30.9321 286.228L26.6045 290.556L30.9321 294.884L35.2597 290.556L30.9321 286.228ZM17.9492 281.901L13.6216 286.228L9.29393 281.901L13.6216 277.573L17.9492 281.901ZM17.9492 316.511L22.2768 320.838L39.5874 303.528L52.5702 316.511L39.5874 329.493L30.9321 320.838L22.2768 329.493L9.29393 316.511L22.2768 303.528L26.6045 307.855L17.9492 316.511ZM39.5874 312.183L35.2597 316.511L39.5874 320.838L43.915 316.511L39.5874 312.183ZM35.2597 333.821L30.9321 338.149L26.6045 333.821L30.9321 329.493L35.2597 333.821ZM35.2597 299.2L30.9321 303.528L26.6045 299.2L30.9321 294.872L35.2597 299.2ZM17.9492 299.2L13.6216 303.528L9.29393 299.2L13.6216 294.872L17.9492 299.2ZM52.5702 299.2L48.2426 303.528L43.915 299.2L48.2426 294.872L52.5702 299.2ZM17.9492 333.821L13.6216 338.149L9.29393 333.821L13.6216 329.493L17.9492 333.821ZM52.5702 333.821L48.2426 338.149L43.915 333.821L48.2426 329.493L52.5702 333.821ZM61.2255 294.872L61.2255 338.149L56.8979 338.149L56.8979 294.872L61.2255 294.872ZM4.9663 294.872L4.9663 338.149L0.638668 338.149L0.63867 294.872L4.9663 294.872ZM30.9321 355.437L13.6216 372.747L9.29393 368.42L17.9492 359.764L9.29393 351.109L17.9492 342.454L9.29393 333.799L13.6216 329.471L30.9321 346.781L48.2426 329.471L52.5702 333.799L43.915 342.454L52.5702 351.109L43.915 359.764L52.5702 368.42L48.2426 372.747L30.9321 355.437ZM61.2255 329.471L61.2255 372.747L56.8979 372.747L56.8979 329.471L61.2255 329.471ZM4.9663 329.471L4.9663 372.747L0.638666 372.747L0.638668 329.471L4.9663 329.471ZM35.2597 333.799L30.9321 338.126L26.6045 333.799L30.9321 329.471L35.2597 333.799ZM17.9492 351.109L22.2768 355.437L26.6045 351.109L22.2768 346.781L17.9492 351.109ZM43.915 351.109L39.5874 346.781L35.2597 351.109L39.5874 355.437L43.915 351.109ZM35.2597 368.42L30.9321 372.747L26.6045 368.42L30.9321 364.092L35.2597 368.42ZM4.9663 364.069L4.9663 407.346L0.638665 407.346L0.638667 364.069L4.9663 364.069ZM17.9492 385.708L13.6216 390.035L9.29393 385.708L13.6216 381.38L17.9492 385.708ZM17.9492 377.052L30.9321 364.069L52.5702 385.708L30.9321 407.346L17.9492 394.363L22.2768 390.035L30.9321 398.69L35.2597 394.363L26.6045 385.708L35.2597 377.052L30.9321 372.725L22.2768 381.38L17.9492 377.052ZM61.2255 364.069L61.2255 407.346L56.8979 407.346L56.8979 364.069L61.2255 364.069ZM17.9492 368.397L13.6216 372.725L9.29393 368.397L13.6216 364.069L17.9492 368.397ZM52.5702 368.397L48.2426 372.725L43.915 368.397L48.2426 364.069L52.5702 368.397ZM17.9492 403.018L13.6216 407.346L9.29393 403.018L13.6216 398.69L17.9492 403.018ZM52.5702 403.018L48.2426 407.346L43.915 403.018L48.2426 398.69L52.5702 403.018ZM39.5874 381.38L35.2597 385.708L39.5874 390.035L43.915 385.708L39.5874 381.38ZM52.5702 420.306L30.9321 441.944L9.29393 420.306L30.9321 398.668L52.5702 420.306ZM30.9321 407.323L17.9492 420.306L30.9321 433.289L43.915 420.306L30.9321 407.323ZM17.9492 437.617L13.6216 441.944L9.29393 437.617L13.6216 433.289L17.9492 437.617ZM52.5702 402.996L48.2426 407.323L43.915 402.996L48.2426 398.668L52.5702 402.996ZM17.9492 402.996L13.6216 407.323L9.29393 402.996L13.6216 398.668L17.9492 402.996ZM35.2597 420.306L30.9321 424.634L26.6045 420.306L30.9321 415.978L35.2597 420.306ZM52.5702 437.617L48.2426 441.944L43.915 437.617L48.2426 433.289L52.5702 437.617ZM61.2255 398.668L61.2255 441.944L56.8979 441.944L56.8979 398.668L61.2255 398.668ZM4.9663 398.668L4.96629 441.944L0.638663 441.944L0.638665 398.668L4.9663 398.668ZM43.915 446.362L35.2597 455.017L39.5873 459.345L48.2426 450.69L52.5702 455.017L39.5873 468L30.9321 459.345L22.2768 468L9.29393 455.017L22.2768 442.034L30.9321 450.69L39.5873 442.034L43.915 446.362ZM22.2768 450.69L17.9492 455.017L22.2768 459.345L26.6045 455.017L22.2768 450.69ZM35.2597 472.328L30.9321 476.655L26.6045 472.328L30.9321 468L35.2597 472.328ZM35.2597 437.707L30.9321 442.034L26.6045 437.707L30.9321 433.379L35.2597 437.707ZM17.9492 437.707L13.6216 442.034L9.29393 437.707L13.6216 433.379L17.9492 437.707ZM52.5702 437.707L48.2426 442.034L43.915 437.707L48.2426 433.379L52.5702 437.707ZM17.9492 472.328L13.6216 476.655L9.29392 472.328L13.6216 468L17.9492 472.328ZM52.5702 472.328L48.2426 476.655L43.915 472.328L48.2426 468L52.5702 472.328ZM61.2255 433.379L61.2255 476.655L56.8979 476.655L56.8979 433.379L61.2255 433.379ZM4.9663 433.379L4.96629 476.655L0.638662 476.655L0.638663 433.379L4.9663 433.379ZM17.9492 489.616L22.2768 493.943L39.5873 476.633L52.5702 489.616L39.5873 502.599L30.9321 493.943L22.2768 502.599L9.29392 489.616L22.2768 476.633L26.6045 480.961L17.9492 489.616ZM39.5873 485.288L35.2597 489.616L39.5873 493.943L43.915 489.616L39.5873 485.288ZM35.2597 506.926L30.9321 511.254L26.6044 506.926L30.9321 502.599L35.2597 506.926ZM35.2597 472.305L30.9321 476.633L26.6045 472.305L30.9321 467.978L35.2597 472.305ZM17.9492 472.305L13.6216 476.633L9.29392 472.305L13.6216 467.978L17.9492 472.305ZM52.5702 472.305L48.2426 476.633L43.915 472.305L48.2426 467.978L52.5702 472.305ZM17.9492 506.926L13.6216 511.254L9.29392 506.926L13.6216 502.599L17.9492 506.926ZM52.5702 506.926L48.2426 511.254L43.915 506.926L48.2426 502.599L52.5702 506.926ZM61.2255 467.978L61.2255 511.254L56.8979 511.254L56.8979 467.978L61.2255 467.978ZM4.96629 467.978L4.96629 511.254L0.63866 511.254L0.638662 467.978L4.96629 467.978ZM35.2597 506.904L26.6044 515.559L30.9321 519.887L39.5873 511.231L52.5702 524.214L48.2426 528.542L39.5873 519.887L35.2597 524.214L43.915 532.87L30.9321 545.852L26.6044 541.525L35.2597 532.87L30.9321 528.542L22.2768 537.197L17.9492 532.87L26.6044 524.214L22.2768 519.887L13.6216 528.542L9.29392 524.214L30.9321 502.576L35.2597 506.904ZM52.5702 541.525L48.2426 545.852L43.915 541.525L48.2426 537.197L52.5702 541.525ZM17.9492 541.525L13.6216 545.852L9.29392 541.525L13.6216 537.197L17.9492 541.525ZM52.5702 506.904L48.2426 511.231L43.915 506.904L48.2426 502.576L52.5702 506.904ZM17.9492 506.904L13.6216 511.231L9.29392 506.904L13.6216 502.576L17.9492 506.904ZM61.2255 502.576L61.2255 545.852L56.8979 545.852L56.8979 502.576L61.2255 502.576ZM4.96629 502.576L4.96629 545.852L0.638659 545.852L0.63866 502.576L4.96629 502.576ZM43.915 567.468L30.9321 580.451L26.6044 576.123L35.2597 567.468L17.9492 550.158L30.9321 537.175L35.2597 541.502L26.6044 550.158L43.915 567.468ZM52.5702 558.813L48.2426 563.14L35.2597 550.158L39.5873 545.83L52.5702 558.813ZM26.6044 567.468L22.2768 571.796L9.29392 558.813L13.6216 554.485L26.6044 567.468ZM52.5702 541.502L48.2426 545.83L43.915 541.502L48.2426 537.175L52.5702 541.502ZM17.9492 541.502L13.6216 545.83L9.29392 541.502L13.6216 537.175L17.9492 541.502ZM17.9492 576.123L13.6216 580.451L9.29392 576.123L13.6216 571.796L17.9492 576.123ZM52.5702 576.123L48.2426 580.451L43.915 576.123L48.2426 571.796L52.5702 576.123ZM61.2255 537.175L61.2255 580.451L56.8979 580.451L56.8979 537.175L61.2255 537.175ZM4.96629 537.175L4.96629 580.451L0.638657 580.451L0.638659 537.175L4.96629 537.175Z" fill="#FAEDDE"/>
</svg>
