<svg width="1904" height="58" viewBox="0 0 1904 58" fill="none" xmlns="http://www.w3.org/2000/svg">
<path d="M0.95 53.05H41.45V57.1H0.95V53.05ZM21.2 40.9L25.25 44.95L21.2 49L17.15 44.95L21.2 40.9ZM13.1 40.9L0.95 28.75L21.2 8.5L41.45 28.75L29.3 40.9L25.25 36.85L33.35 28.75L29.3 24.7L21.2 32.8L13.1 24.7L9.05 28.75L17.15 36.85L13.1 40.9ZM0.95 0.399998H41.45V4.45H0.95V0.399998ZM5 40.9L9.05 44.95L5 49L0.95 44.95L5 40.9ZM5 8.5L9.05 12.55L5 16.6L0.95 12.55L5 8.5ZM37.4 40.9L41.45 44.95L37.4 49L33.35 44.95L37.4 40.9ZM37.4 8.5L41.45 12.55L37.4 16.6L33.35 12.55L37.4 8.5ZM17.15 20.65L21.2 24.7L25.25 20.65L21.2 16.6L17.15 20.65ZM53.5789 8.5L73.8289 28.75L53.5789 49L33.3289 28.75L53.5789 8.5ZM41.4289 28.75L53.5789 40.9L65.7289 28.75L53.5789 16.6L41.4289 28.75ZM69.7789 40.9L73.8289 44.95L69.7789 49L65.7289 44.95L69.7789 40.9ZM37.3789 8.5L41.4289 12.55L37.3789 16.6L33.3289 12.55L37.3789 8.5ZM37.3789 40.9L41.4289 44.95L37.3789 49L33.3289 44.95L37.3789 40.9ZM53.5789 24.7L57.6289 28.75L53.5789 32.8L49.5289 28.75L53.5789 24.7ZM69.7789 8.5L73.8289 12.55L69.7789 16.6L65.7289 12.55L69.7789 8.5ZM33.3289 0.399998H73.8289V4.45H33.3289V0.399998ZM33.3289 53.05H73.8289V57.1H33.3289V53.05ZM77.9633 16.6L86.0633 24.7L90.1133 20.65L82.0133 12.55L86.0633 8.5L98.2133 20.65L90.1133 28.75L98.2133 36.85L86.0633 49L73.9133 36.85L82.0133 28.75L73.9133 20.65L77.9633 16.6ZM82.0133 36.85L86.0633 40.9L90.1133 36.85L86.0633 32.8L82.0133 36.85ZM102.263 24.7L106.313 28.75L102.263 32.8L98.2133 28.75L102.263 24.7ZM69.8633 24.7L73.9133 28.75L69.8633 32.8L65.8133 28.75L69.8633 24.7ZM69.8633 40.9L73.9133 44.95L69.8633 49L65.8133 44.95L69.8633 40.9ZM69.8633 8.5L73.9133 12.55L69.8633 16.6L65.8133 12.55L69.8633 8.5ZM102.263 40.9L106.313 44.95L102.263 49L98.2133 44.95L102.263 40.9ZM102.263 8.5L106.313 12.55L102.263 16.6L98.2133 12.55L102.263 8.5ZM65.8133 0.399998H106.313V4.45H65.8133V0.399998ZM65.8133 53.05H106.313V57.1H65.8133V53.05ZM118.442 40.9L122.492 36.85L106.292 20.65L118.442 8.5L130.592 20.65L122.492 28.75L130.592 36.85L118.442 49L106.292 36.85L110.342 32.8L118.442 40.9ZM114.392 20.65L118.442 24.7L122.492 20.65L118.442 16.6L114.392 20.65ZM134.642 24.7L138.692 28.75L134.642 32.8L130.592 28.75L134.642 24.7ZM102.242 24.7L106.292 28.75L102.242 32.8L98.1922 28.75L102.242 24.7ZM102.242 40.9L106.292 44.95L102.242 49L98.1922 44.95L102.242 40.9ZM102.242 8.5L106.292 12.55L102.242 16.6L98.1922 12.55L102.242 8.5ZM134.642 40.9L138.692 44.95L134.642 49L130.592 44.95L134.642 40.9ZM134.642 8.5L138.692 12.55L134.642 16.6L130.592 12.55L134.642 8.5ZM98.1922 0.399998H138.692V4.45H98.1922V0.399998ZM98.1922 53.05H138.692V57.1H98.1922V53.05ZM134.621 24.7L142.721 32.8L146.771 28.75L138.671 20.65L150.821 8.5L154.871 12.55L146.771 20.65L150.821 24.7L158.921 16.6L171.071 28.75L167.021 32.8L158.921 24.7L154.871 28.75L162.971 36.85L158.921 40.9L150.821 32.8L146.771 36.85L154.871 44.95L150.821 49L130.571 28.75L134.621 24.7ZM167.021 8.5L171.071 12.55L167.021 16.6L162.971 12.55L167.021 8.5ZM167.021 40.9L171.071 44.95L167.021 49L162.971 44.95L167.021 40.9ZM134.621 8.5L138.671 12.55L134.621 16.6L130.571 12.55L134.621 8.5ZM134.621 40.9L138.671 44.95L134.621 49L130.571 44.95L134.621 40.9ZM130.571 0.399998H171.071V4.45H130.571V0.399998ZM130.571 53.05H171.071V57.1H130.571V53.05ZM191.3 16.6L203.45 28.75L199.4 32.8L191.3 24.7L175.1 40.9L162.95 28.75L167 24.7L175.1 32.8L191.3 16.6ZM183.2 8.5L187.25 12.55L175.1 24.7L171.05 20.65L183.2 8.5ZM191.3 32.8L195.35 36.85L183.2 49L179.15 44.95L191.3 32.8ZM167 8.5L171.05 12.55L167 16.6L162.95 12.55L167 8.5ZM167 40.9L171.05 44.95L167 49L162.95 44.95L167 40.9ZM199.4 40.9L203.45 44.95L199.4 49L195.35 44.95L199.4 40.9ZM199.4 8.5L203.45 12.55L199.4 16.6L195.35 12.55L199.4 8.5ZM162.95 0.399998H203.45V4.45H162.95V0.399998ZM162.95 53.05H203.45V57.1H162.95V53.05ZM219.629 28.75L235.829 44.95L231.779 49L223.679 40.9L215.579 49L207.479 40.9L199.379 49L195.329 44.95L211.529 28.75L195.329 12.55L199.379 8.5L207.479 16.6L215.579 8.5L223.679 16.6L231.779 8.5L235.829 12.55L219.629 28.75ZM195.329 0.399998H235.829V4.45H195.329V0.399998ZM195.329 53.05H235.829V57.1H195.329V53.05ZM199.379 24.7L203.429 28.75L199.379 32.8L195.329 28.75L199.379 24.7ZM215.579 40.9L219.629 36.85L215.579 32.8L211.529 36.85L215.579 40.9ZM215.579 16.6L211.529 20.65L215.579 24.7L219.629 20.65L215.579 16.6ZM231.779 24.7L235.829 28.75L231.779 32.8L227.729 28.75L231.779 24.7ZM247.958 8.5L268.208 28.75L247.958 49L235.808 36.85L247.958 24.7L252.008 28.75L243.908 36.85L247.958 40.9L260.108 28.75L247.958 16.6L231.758 32.8L227.708 28.75L247.958 8.5ZM264.158 8.5L268.208 12.55L264.158 16.6L260.108 12.55L264.158 8.5ZM264.158 40.9L268.208 44.95L264.158 49L260.108 44.95L264.158 40.9ZM231.758 8.5L235.808 12.55L231.758 16.6L227.708 12.55L231.758 8.5ZM231.758 40.9L235.808 44.95L231.758 49L227.708 44.95L231.758 40.9ZM227.708 0.399998H268.208V4.45H227.708V0.399998ZM227.708 53.05H268.208V57.1H227.708V53.05ZM280.337 8.5L284.387 12.55L276.287 20.65L284.387 28.75L276.287 36.85L284.387 44.95L280.337 49L260.087 28.75L280.337 8.5ZM260.087 0.399998H284.387V4.45H260.087V0.399998ZM260.087 53.05H284.387V57.1H260.087V53.05ZM264.137 8.5L268.187 12.55L264.137 16.6L260.087 12.55L264.137 8.5ZM268.187 28.75L272.237 32.8L276.287 28.75L272.237 24.7L268.187 28.75ZM264.137 40.9L268.187 44.95L264.137 49L260.087 44.95L264.137 40.9ZM296.526 40.9L300.576 36.85L284.376 20.65L296.526 8.5L308.676 20.65L300.576 28.75L308.676 36.85L296.526 49L284.376 36.85L288.426 32.8L296.526 40.9ZM292.476 20.65L296.526 24.7L300.576 20.65L296.526 16.6L292.476 20.65ZM312.726 24.7L316.776 28.75L312.726 32.8L308.676 28.75L312.726 24.7ZM280.326 24.7L284.376 28.75L280.326 32.8L276.276 28.75L280.326 24.7ZM280.326 40.9L284.376 44.95L280.326 49L276.276 44.95L280.326 40.9ZM280.326 8.5L284.376 12.55L280.326 16.6L276.276 12.55L280.326 8.5ZM312.726 40.9L316.776 44.95L312.726 49L308.676 44.95L312.726 40.9ZM312.726 8.5L316.776 12.55L312.726 16.6L308.676 12.55L312.726 8.5ZM276.276 0.399998H316.776V4.45H276.276V0.399998ZM276.276 53.05H316.776V57.1H276.276V53.05ZM332.955 28.75L349.155 44.95L345.105 49L337.005 40.9L328.905 49L320.805 40.9L312.705 49L308.655 44.95L324.855 28.75L308.655 12.55L312.705 8.5L320.805 16.6L328.905 8.5L337.005 16.6L345.105 8.5L349.155 12.55L332.955 28.75ZM308.655 0.399998H349.155V4.45H308.655V0.399998ZM308.655 53.05H349.155V57.1H308.655V53.05ZM312.705 24.7L316.755 28.75L312.705 32.8L308.655 28.75L312.705 24.7ZM328.905 40.9L332.955 36.85L328.905 32.8L324.855 36.85L328.905 40.9ZM328.905 16.6L324.855 20.65L328.905 24.7L332.955 20.65L328.905 16.6ZM345.105 24.7L349.155 28.75L345.105 32.8L341.055 28.75L345.105 24.7ZM341.034 53.05H381.534V57.1H341.034V53.05ZM361.284 40.9L365.334 44.95L361.284 49L357.234 44.95L361.284 40.9ZM353.184 40.9L341.034 28.75L361.284 8.5L381.534 28.75L369.384 40.9L365.334 36.85L373.434 28.75L369.384 24.7L361.284 32.8L353.184 24.7L349.134 28.75L357.234 36.85L353.184 40.9ZM341.034 0.399998H381.534V4.45H341.034V0.399998ZM345.084 40.9L349.134 44.95L345.084 49L341.034 44.95L345.084 40.9ZM345.084 8.5L349.134 12.55L345.084 16.6L341.034 12.55L345.084 8.5ZM377.484 40.9L381.534 44.95L377.484 49L373.434 44.95L377.484 40.9ZM377.484 8.5L381.534 12.55L377.484 16.6L373.434 12.55L377.484 8.5ZM357.234 20.65L361.284 24.7L365.334 20.65L361.284 16.6L357.234 20.65ZM393.663 8.5L413.913 28.75L393.663 49L373.413 28.75L393.663 8.5ZM381.513 28.75L393.663 40.9L405.813 28.75L393.663 16.6L381.513 28.75ZM409.863 40.9L413.913 44.95L409.863 49L405.813 44.95L409.863 40.9ZM377.463 8.5L381.513 12.55L377.463 16.6L373.413 12.55L377.463 8.5ZM377.463 40.9L381.513 44.95L377.463 49L373.413 44.95L377.463 40.9ZM393.663 24.7L397.713 28.75L393.663 32.8L389.613 28.75L393.663 24.7ZM409.863 8.5L413.913 12.55L409.863 16.6L405.813 12.55L409.863 8.5ZM373.413 0.399998H413.913V4.45H373.413V0.399998ZM373.413 53.05H413.913V57.1H373.413V53.05ZM418.047 16.6L426.147 24.7L430.197 20.65L422.097 12.55L426.147 8.5L438.297 20.65L430.197 28.75L438.297 36.85L426.147 49L413.997 36.85L422.097 28.75L413.997 20.65L418.047 16.6ZM422.097 36.85L426.147 40.9L430.197 36.85L426.147 32.8L422.097 36.85ZM442.347 24.7L446.397 28.75L442.347 32.8L438.297 28.75L442.347 24.7ZM409.947 24.7L413.997 28.75L409.947 32.8L405.897 28.75L409.947 24.7ZM409.947 40.9L413.997 44.95L409.947 49L405.897 44.95L409.947 40.9ZM409.947 8.5L413.997 12.55L409.947 16.6L405.897 12.55L409.947 8.5ZM442.347 40.9L446.397 44.95L442.347 49L438.297 44.95L442.347 40.9ZM442.347 8.5L446.397 12.55L442.347 16.6L438.297 12.55L442.347 8.5ZM405.897 0.399998H446.397V4.45H405.897V0.399998ZM405.897 53.05H446.397V57.1H405.897V53.05ZM458.526 40.9L462.576 36.85L446.376 20.65L458.526 8.5L470.676 20.65L462.576 28.75L470.676 36.85L458.526 49L446.376 36.85L450.426 32.8L458.526 40.9ZM454.476 20.65L458.526 24.7L462.576 20.65L458.526 16.6L454.476 20.65ZM474.726 24.7L478.776 28.75L474.726 32.8L470.676 28.75L474.726 24.7ZM442.326 24.7L446.376 28.75L442.326 32.8L438.276 28.75L442.326 24.7ZM442.326 40.9L446.376 44.95L442.326 49L438.276 44.95L442.326 40.9ZM442.326 8.5L446.376 12.55L442.326 16.6L438.276 12.55L442.326 8.5ZM474.726 40.9L478.776 44.95L474.726 49L470.676 44.95L474.726 40.9ZM474.726 8.5L478.776 12.55L474.726 16.6L470.676 12.55L474.726 8.5ZM438.276 0.399998H478.776V4.45H438.276V0.399998ZM438.276 53.05H478.776V57.1H438.276V53.05ZM474.705 24.7L482.805 32.8L486.855 28.75L478.755 20.65L490.905 8.5L494.955 12.55L486.855 20.65L490.905 24.7L499.005 16.6L511.155 28.75L507.105 32.8L499.005 24.7L494.955 28.75L503.055 36.85L499.005 40.9L490.905 32.8L486.855 36.85L494.955 44.95L490.905 49L470.655 28.75L474.705 24.7ZM507.105 8.5L511.155 12.55L507.105 16.6L503.055 12.55L507.105 8.5ZM507.105 40.9L511.155 44.95L507.105 49L503.055 44.95L507.105 40.9ZM474.705 8.5L478.755 12.55L474.705 16.6L470.655 12.55L474.705 8.5ZM474.705 40.9L478.755 44.95L474.705 49L470.655 44.95L474.705 40.9ZM470.655 0.399998H511.155V4.45H470.655V0.399998ZM470.655 53.05H511.155V57.1H470.655V53.05ZM531.384 16.6L543.534 28.75L539.484 32.8L531.384 24.7L515.184 40.9L503.034 28.75L507.084 24.7L515.184 32.8L531.384 16.6ZM523.284 8.5L527.334 12.55L515.184 24.7L511.134 20.65L523.284 8.5ZM531.384 32.8L535.434 36.85L523.284 49L519.234 44.95L531.384 32.8ZM507.084 8.5L511.134 12.55L507.084 16.6L503.034 12.55L507.084 8.5ZM507.084 40.9L511.134 44.95L507.084 49L503.034 44.95L507.084 40.9ZM539.484 40.9L543.534 44.95L539.484 49L535.434 44.95L539.484 40.9ZM539.484 8.5L543.534 12.55L539.484 16.6L535.434 12.55L539.484 8.5ZM503.034 0.399998H543.534V4.45H503.034V0.399998ZM503.034 53.05H543.534V57.1H503.034V53.05ZM559.713 28.75L575.913 44.95L571.863 49L563.763 40.9L555.663 49L547.563 40.9L539.463 49L535.413 44.95L551.613 28.75L535.413 12.55L539.463 8.5L547.563 16.6L555.663 8.5L563.763 16.6L571.863 8.5L575.913 12.55L559.713 28.75ZM535.413 0.399998H575.913V4.45H535.413V0.399998ZM535.413 53.05H575.913V57.1H535.413V53.05ZM539.463 24.7L543.513 28.75L539.463 32.8L535.413 28.75L539.463 24.7ZM555.663 40.9L559.713 36.85L555.663 32.8L551.613 36.85L555.663 40.9ZM555.663 16.6L551.613 20.65L555.663 24.7L559.713 20.65L555.663 16.6ZM571.863 24.7L575.913 28.75L571.863 32.8L567.813 28.75L571.863 24.7ZM588.042 8.5L608.292 28.75L588.042 49L575.892 36.85L588.042 24.7L592.092 28.75L583.992 36.85L588.042 40.9L600.192 28.75L588.042 16.6L571.842 32.8L567.792 28.75L588.042 8.5ZM604.242 8.5L608.292 12.55L604.242 16.6L600.192 12.55L604.242 8.5ZM604.242 40.9L608.292 44.95L604.242 49L600.192 44.95L604.242 40.9ZM571.842 8.5L575.892 12.55L571.842 16.6L567.792 12.55L571.842 8.5ZM571.842 40.9L575.892 44.95L571.842 49L567.792 44.95L571.842 40.9ZM567.792 0.399998H608.292V4.45H567.792V0.399998ZM567.792 53.05H608.292V57.1H567.792V53.05ZM620.421 8.5L624.471 12.55L616.371 20.65L624.471 28.75L616.371 36.85L624.471 44.95L620.421 49L600.171 28.75L620.421 8.5ZM600.171 0.399998H624.471V4.45H600.171V0.399998ZM600.171 53.05H624.471V57.1H600.171V53.05ZM604.221 8.5L608.271 12.55L604.221 16.6L600.171 12.55L604.221 8.5ZM608.271 28.75L612.321 32.8L616.371 28.75L612.321 24.7L608.271 28.75ZM604.221 40.9L608.271 44.95L604.221 49L600.171 44.95L604.221 40.9ZM636.61 40.9L640.66 36.85L624.46 20.65L636.61 8.5L648.76 20.65L640.66 28.75L648.76 36.85L636.61 49L624.46 36.85L628.51 32.8L636.61 40.9ZM632.56 20.65L636.61 24.7L640.66 20.65L636.61 16.6L632.56 20.65ZM652.81 24.7L656.86 28.75L652.81 32.8L648.76 28.75L652.81 24.7ZM620.41 24.7L624.46 28.75L620.41 32.8L616.36 28.75L620.41 24.7ZM620.41 40.9L624.46 44.95L620.41 49L616.36 44.95L620.41 40.9ZM620.41 8.5L624.46 12.55L620.41 16.6L616.36 12.55L620.41 8.5ZM652.81 40.9L656.86 44.95L652.81 49L648.76 44.95L652.81 40.9ZM652.81 8.5L656.86 12.55L652.81 16.6L648.76 12.55L652.81 8.5ZM616.36 0.399998H656.86V4.45H616.36V0.399998ZM616.36 53.05H656.86V57.1H616.36V53.05ZM673.039 28.75L689.239 44.95L685.189 49L677.089 40.9L668.989 49L660.889 40.9L652.789 49L648.739 44.95L664.939 28.75L648.739 12.55L652.789 8.5L660.889 16.6L668.989 8.5L677.089 16.6L685.189 8.5L689.239 12.55L673.039 28.75ZM648.739 0.399998H689.239V4.45H648.739V0.399998ZM648.739 53.05H689.239V57.1H648.739V53.05ZM652.789 24.7L656.839 28.75L652.789 32.8L648.739 28.75L652.789 24.7ZM668.989 40.9L673.039 36.85L668.989 32.8L664.939 36.85L668.989 40.9ZM668.989 16.6L664.939 20.65L668.989 24.7L673.039 20.65L668.989 16.6ZM685.189 24.7L689.239 28.75L685.189 32.8L681.139 28.75L685.189 24.7ZM681.118 53.05H721.618V57.1H681.118V53.05ZM701.368 40.9L705.418 44.95L701.368 49L697.318 44.95L701.368 40.9ZM693.268 40.9L681.118 28.75L701.368 8.5L721.618 28.75L709.468 40.9L705.418 36.85L713.518 28.75L709.468 24.7L701.368 32.8L693.268 24.7L689.218 28.75L697.318 36.85L693.268 40.9ZM681.118 0.399998H721.618V4.45H681.118V0.399998ZM685.168 40.9L689.218 44.95L685.168 49L681.118 44.95L685.168 40.9ZM685.168 8.5L689.218 12.55L685.168 16.6L681.118 12.55L685.168 8.5ZM717.568 40.9L721.618 44.95L717.568 49L713.518 44.95L717.568 40.9ZM717.568 8.5L721.618 12.55L717.568 16.6L713.518 12.55L717.568 8.5ZM697.318 20.65L701.368 24.7L705.418 20.65L701.368 16.6L697.318 20.65ZM733.747 8.5L753.997 28.75L733.747 49L713.497 28.75L733.747 8.5ZM721.597 28.75L733.747 40.9L745.897 28.75L733.747 16.6L721.597 28.75ZM749.947 40.9L753.997 44.95L749.947 49L745.897 44.95L749.947 40.9ZM717.547 8.5L721.597 12.55L717.547 16.6L713.497 12.55L717.547 8.5ZM717.547 40.9L721.597 44.95L717.547 49L713.497 44.95L717.547 40.9ZM733.747 24.7L737.797 28.75L733.747 32.8L729.697 28.75L733.747 24.7ZM749.947 8.5L753.997 12.55L749.947 16.6L745.897 12.55L749.947 8.5ZM713.497 0.399998H753.997V4.45H713.497V0.399998ZM713.497 53.05H753.997V57.1H713.497V53.05ZM758.131 16.6L766.231 24.7L770.281 20.65L762.181 12.55L766.231 8.5L778.381 20.65L770.281 28.75L778.381 36.85L766.231 49L754.081 36.85L762.181 28.75L754.081 20.65L758.131 16.6ZM762.181 36.85L766.231 40.9L770.281 36.85L766.231 32.8L762.181 36.85ZM782.431 24.7L786.481 28.75L782.431 32.8L778.381 28.75L782.431 24.7ZM750.031 24.7L754.081 28.75L750.031 32.8L745.981 28.75L750.031 24.7ZM750.031 40.9L754.081 44.95L750.031 49L745.981 44.95L750.031 40.9ZM750.031 8.5L754.081 12.55L750.031 16.6L745.981 12.55L750.031 8.5ZM782.431 40.9L786.481 44.95L782.431 49L778.381 44.95L782.431 40.9ZM782.431 8.5L786.481 12.55L782.431 16.6L778.381 12.55L782.431 8.5ZM745.981 0.399998H786.481V4.45H745.981V0.399998ZM745.981 53.05H786.481V57.1H745.981V53.05ZM798.61 40.9L802.66 36.85L786.46 20.65L798.61 8.5L810.76 20.65L802.66 28.75L810.76 36.85L798.61 49L786.46 36.85L790.51 32.8L798.61 40.9ZM794.56 20.65L798.61 24.7L802.66 20.65L798.61 16.6L794.56 20.65ZM814.81 24.7L818.86 28.75L814.81 32.8L810.76 28.75L814.81 24.7ZM782.41 24.7L786.46 28.75L782.41 32.8L778.36 28.75L782.41 24.7ZM782.41 40.9L786.46 44.95L782.41 49L778.36 44.95L782.41 40.9ZM782.41 8.5L786.46 12.55L782.41 16.6L778.36 12.55L782.41 8.5ZM814.81 40.9L818.86 44.95L814.81 49L810.76 44.95L814.81 40.9ZM814.81 8.5L818.86 12.55L814.81 16.6L810.76 12.55L814.81 8.5ZM778.36 0.399998H818.86V4.45H778.36V0.399998ZM778.36 53.05H818.86V57.1H778.36V53.05ZM814.789 24.7L822.889 32.8L826.939 28.75L818.839 20.65L830.989 8.5L835.039 12.55L826.939 20.65L830.989 24.7L839.089 16.6L851.239 28.75L847.189 32.8L839.089 24.7L835.039 28.75L843.139 36.85L839.089 40.9L830.989 32.8L826.939 36.85L835.039 44.95L830.989 49L810.739 28.75L814.789 24.7ZM847.189 8.5L851.239 12.55L847.189 16.6L843.139 12.55L847.189 8.5ZM847.189 40.9L851.239 44.95L847.189 49L843.139 44.95L847.189 40.9ZM814.789 8.5L818.839 12.55L814.789 16.6L810.739 12.55L814.789 8.5ZM814.789 40.9L818.839 44.95L814.789 49L810.739 44.95L814.789 40.9ZM810.739 0.399998H851.239V4.45H810.739V0.399998ZM810.739 53.05H851.239V57.1H810.739V53.05ZM871.468 16.6L883.618 28.75L879.568 32.8L871.468 24.7L855.268 40.9L843.118 28.75L847.168 24.7L855.268 32.8L871.468 16.6ZM863.368 8.5L867.418 12.55L855.268 24.7L851.218 20.65L863.368 8.5ZM871.468 32.8L875.518 36.85L863.368 49L859.318 44.95L871.468 32.8ZM847.168 8.5L851.218 12.55L847.168 16.6L843.118 12.55L847.168 8.5ZM847.168 40.9L851.218 44.95L847.168 49L843.118 44.95L847.168 40.9ZM879.568 40.9L883.618 44.95L879.568 49L875.518 44.95L879.568 40.9ZM879.568 8.5L883.618 12.55L879.568 16.6L875.518 12.55L879.568 8.5ZM843.118 0.399998H883.618V4.45H843.118V0.399998ZM843.118 53.05H883.618V57.1H843.118V53.05ZM899.797 28.75L915.997 44.95L911.947 49L903.847 40.9L895.747 49L887.647 40.9L879.547 49L875.497 44.95L891.697 28.75L875.497 12.55L879.547 8.5L887.647 16.6L895.747 8.5L903.847 16.6L911.947 8.5L915.997 12.55L899.797 28.75ZM875.497 0.399998H915.997V4.45H875.497V0.399998ZM875.497 53.05H915.997V57.1H875.497V53.05ZM879.547 24.7L883.597 28.75L879.547 32.8L875.497 28.75L879.547 24.7ZM895.747 40.9L899.797 36.85L895.747 32.8L891.697 36.85L895.747 40.9ZM895.747 16.6L891.697 20.65L895.747 24.7L899.797 20.65L895.747 16.6ZM911.947 24.7L915.997 28.75L911.947 32.8L907.897 28.75L911.947 24.7ZM928.126 8.5L948.376 28.75L928.126 49L915.976 36.85L928.126 24.7L932.176 28.75L924.076 36.85L928.126 40.9L940.276 28.75L928.126 16.6L911.926 32.8L907.876 28.75L928.126 8.5ZM944.326 8.5L948.376 12.55L944.326 16.6L940.276 12.55L944.326 8.5ZM944.326 40.9L948.376 44.95L944.326 49L940.276 44.95L944.326 40.9ZM911.926 8.5L915.976 12.55L911.926 16.6L907.876 12.55L911.926 8.5ZM911.926 40.9L915.976 44.95L911.926 49L907.876 44.95L911.926 40.9ZM907.876 0.399998H948.376V4.45H907.876V0.399998ZM907.876 53.05H948.376V57.1H907.876V53.05ZM960.505 8.5L964.555 12.55L956.455 20.65L964.555 28.75L956.455 36.85L964.555 44.95L960.505 49L940.255 28.75L960.505 8.5ZM940.255 0.399998H964.555V4.45H940.255V0.399998ZM940.255 53.05H964.555V57.1H940.255V53.05ZM944.305 8.5L948.355 12.55L944.305 16.6L940.255 12.55L944.305 8.5ZM948.355 28.75L952.405 32.8L956.455 28.75L952.405 24.7L948.355 28.75ZM944.305 40.9L948.355 44.95L944.305 49L940.255 44.95L944.305 40.9ZM976.694 40.9L980.744 36.85L964.544 20.65L976.694 8.5L988.844 20.65L980.744 28.75L988.844 36.85L976.694 49L964.544 36.85L968.594 32.8L976.694 40.9ZM972.644 20.65L976.694 24.7L980.744 20.65L976.694 16.6L972.644 20.65ZM992.894 24.7L996.944 28.75L992.894 32.8L988.844 28.75L992.894 24.7ZM960.494 24.7L964.544 28.75L960.494 32.8L956.444 28.75L960.494 24.7ZM960.494 40.9L964.544 44.95L960.494 49L956.444 44.95L960.494 40.9ZM960.494 8.5L964.544 12.55L960.494 16.6L956.444 12.55L960.494 8.5ZM992.894 40.9L996.944 44.95L992.894 49L988.844 44.95L992.894 40.9ZM992.894 8.5L996.944 12.55L992.894 16.6L988.844 12.55L992.894 8.5ZM956.444 0.399998H996.944V4.45H956.444V0.399998ZM956.444 53.05H996.944V57.1H956.444V53.05ZM1013.12 28.75L1029.32 44.95L1025.27 49L1017.17 40.9L1009.07 49L1000.97 40.9L992.873 49L988.823 44.95L1005.02 28.75L988.823 12.55L992.873 8.5L1000.97 16.6L1009.07 8.5L1017.17 16.6L1025.27 8.5L1029.32 12.55L1013.12 28.75ZM988.823 0.399998H1029.32V4.45H988.823V0.399998ZM988.823 53.05H1029.32V57.1H988.823V53.05ZM992.873 24.7L996.923 28.75L992.873 32.8L988.823 28.75L992.873 24.7ZM1009.07 40.9L1013.12 36.85L1009.07 32.8L1005.02 36.85L1009.07 40.9ZM1009.07 16.6L1005.02 20.65L1009.07 24.7L1013.12 20.65L1009.07 16.6ZM1025.27 24.7L1029.32 28.75L1025.27 32.8L1021.22 28.75L1025.27 24.7ZM1021.2 53.05H1061.7V57.1H1021.2V53.05ZM1041.45 40.9L1045.5 44.95L1041.45 49L1037.4 44.95L1041.45 40.9ZM1033.35 40.9L1021.2 28.75L1041.45 8.5L1061.7 28.75L1049.55 40.9L1045.5 36.85L1053.6 28.75L1049.55 24.7L1041.45 32.8L1033.35 24.7L1029.3 28.75L1037.4 36.85L1033.35 40.9ZM1021.2 0.399998H1061.7V4.45H1021.2V0.399998ZM1025.25 40.9L1029.3 44.95L1025.25 49L1021.2 44.95L1025.25 40.9ZM1025.25 8.5L1029.3 12.55L1025.25 16.6L1021.2 12.55L1025.25 8.5ZM1057.65 40.9L1061.7 44.95L1057.65 49L1053.6 44.95L1057.65 40.9ZM1057.65 8.5L1061.7 12.55L1057.65 16.6L1053.6 12.55L1057.65 8.5ZM1037.4 20.65L1041.45 24.7L1045.5 20.65L1041.45 16.6L1037.4 20.65ZM1073.83 8.5L1094.08 28.75L1073.83 49L1053.58 28.75L1073.83 8.5ZM1061.68 28.75L1073.83 40.9L1085.98 28.75L1073.83 16.6L1061.68 28.75ZM1090.03 40.9L1094.08 44.95L1090.03 49L1085.98 44.95L1090.03 40.9ZM1057.63 8.5L1061.68 12.55L1057.63 16.6L1053.58 12.55L1057.63 8.5ZM1057.63 40.9L1061.68 44.95L1057.63 49L1053.58 44.95L1057.63 40.9ZM1073.83 24.7L1077.88 28.75L1073.83 32.8L1069.78 28.75L1073.83 24.7ZM1090.03 8.5L1094.08 12.55L1090.03 16.6L1085.98 12.55L1090.03 8.5ZM1053.58 0.399998H1094.08V4.45H1053.58V0.399998ZM1053.58 53.05H1094.08V57.1H1053.58V53.05ZM1098.22 16.6L1106.32 24.7L1110.37 20.65L1102.27 12.55L1106.32 8.5L1118.47 20.65L1110.37 28.75L1118.47 36.85L1106.32 49L1094.17 36.85L1102.27 28.75L1094.17 20.65L1098.22 16.6ZM1102.27 36.85L1106.32 40.9L1110.37 36.85L1106.32 32.8L1102.27 36.85ZM1122.52 24.7L1126.57 28.75L1122.52 32.8L1118.47 28.75L1122.52 24.7ZM1090.12 24.7L1094.17 28.75L1090.12 32.8L1086.07 28.75L1090.12 24.7ZM1090.12 40.9L1094.17 44.95L1090.12 49L1086.07 44.95L1090.12 40.9ZM1090.12 8.5L1094.17 12.55L1090.12 16.6L1086.07 12.55L1090.12 8.5ZM1122.52 40.9L1126.57 44.95L1122.52 49L1118.47 44.95L1122.52 40.9ZM1122.52 8.5L1126.57 12.55L1122.52 16.6L1118.47 12.55L1122.52 8.5ZM1086.07 0.399998H1126.57V4.45H1086.07V0.399998ZM1086.07 53.05H1126.57V57.1H1086.07V53.05ZM1138.69 40.9L1142.74 36.85L1126.54 20.65L1138.69 8.5L1150.84 20.65L1142.74 28.75L1150.84 36.85L1138.69 49L1126.54 36.85L1130.59 32.8L1138.69 40.9ZM1134.64 20.65L1138.69 24.7L1142.74 20.65L1138.69 16.6L1134.64 20.65ZM1154.89 24.7L1158.94 28.75L1154.89 32.8L1150.84 28.75L1154.89 24.7ZM1122.49 24.7L1126.54 28.75L1122.49 32.8L1118.44 28.75L1122.49 24.7ZM1122.49 40.9L1126.54 44.95L1122.49 49L1118.44 44.95L1122.49 40.9ZM1122.49 8.5L1126.54 12.55L1122.49 16.6L1118.44 12.55L1122.49 8.5ZM1154.89 40.9L1158.94 44.95L1154.89 49L1150.84 44.95L1154.89 40.9ZM1154.89 8.5L1158.94 12.55L1154.89 16.6L1150.84 12.55L1154.89 8.5ZM1118.44 0.399998H1158.94V4.45H1118.44V0.399998ZM1118.44 53.05H1158.94V57.1H1118.44V53.05ZM1154.87 24.7L1162.97 32.8L1167.02 28.75L1158.92 20.65L1171.07 8.5L1175.12 12.55L1167.02 20.65L1171.07 24.7L1179.17 16.6L1191.32 28.75L1187.27 32.8L1179.17 24.7L1175.12 28.75L1183.22 36.85L1179.17 40.9L1171.07 32.8L1167.02 36.85L1175.12 44.95L1171.07 49L1150.82 28.75L1154.87 24.7ZM1187.27 8.5L1191.32 12.55L1187.27 16.6L1183.22 12.55L1187.27 8.5ZM1187.27 40.9L1191.32 44.95L1187.27 49L1183.22 44.95L1187.27 40.9ZM1154.87 8.5L1158.92 12.55L1154.87 16.6L1150.82 12.55L1154.87 8.5ZM1154.87 40.9L1158.92 44.95L1154.87 49L1150.82 44.95L1154.87 40.9ZM1150.82 0.399998H1191.32V4.45H1150.82V0.399998ZM1150.82 53.05H1191.32V57.1H1150.82V53.05ZM1211.55 16.6L1223.7 28.75L1219.65 32.8L1211.55 24.7L1195.35 40.9L1183.2 28.75L1187.25 24.7L1195.35 32.8L1211.55 16.6ZM1203.45 8.5L1207.5 12.55L1195.35 24.7L1191.3 20.65L1203.45 8.5ZM1211.55 32.8L1215.6 36.85L1203.45 49L1199.4 44.95L1211.55 32.8ZM1187.25 8.5L1191.3 12.55L1187.25 16.6L1183.2 12.55L1187.25 8.5ZM1187.25 40.9L1191.3 44.95L1187.25 49L1183.2 44.95L1187.25 40.9ZM1219.65 40.9L1223.7 44.95L1219.65 49L1215.6 44.95L1219.65 40.9ZM1219.65 8.5L1223.7 12.55L1219.65 16.6L1215.6 12.55L1219.65 8.5ZM1183.2 0.399998H1223.7V4.45H1183.2V0.399998ZM1183.2 53.05H1223.7V57.1H1183.2V53.05ZM1239.88 28.75L1256.08 44.95L1252.03 49L1243.93 40.9L1235.83 49L1227.73 40.9L1219.63 49L1215.58 44.95L1231.78 28.75L1215.58 12.55L1219.63 8.5L1227.73 16.6L1235.83 8.5L1243.93 16.6L1252.03 8.5L1256.08 12.55L1239.88 28.75ZM1215.58 0.399998H1256.08V4.45H1215.58V0.399998ZM1215.58 53.05H1256.08V57.1H1215.58V53.05ZM1219.63 24.7L1223.68 28.75L1219.63 32.8L1215.58 28.75L1219.63 24.7ZM1235.83 40.9L1239.88 36.85L1235.83 32.8L1231.78 36.85L1235.83 40.9ZM1235.83 16.6L1231.78 20.65L1235.83 24.7L1239.88 20.65L1235.83 16.6ZM1252.03 24.7L1256.08 28.75L1252.03 32.8L1247.98 28.75L1252.03 24.7ZM1268.21 8.5L1288.46 28.75L1268.21 49L1256.06 36.85L1268.21 24.7L1272.26 28.75L1264.16 36.85L1268.21 40.9L1280.36 28.75L1268.21 16.6L1252.01 32.8L1247.96 28.75L1268.21 8.5ZM1284.41 8.5L1288.46 12.55L1284.41 16.6L1280.36 12.55L1284.41 8.5ZM1284.41 40.9L1288.46 44.95L1284.41 49L1280.36 44.95L1284.41 40.9ZM1252.01 8.5L1256.06 12.55L1252.01 16.6L1247.96 12.55L1252.01 8.5ZM1252.01 40.9L1256.06 44.95L1252.01 49L1247.96 44.95L1252.01 40.9ZM1247.96 0.399998H1288.46V4.45H1247.96V0.399998ZM1247.96 53.05H1288.46V57.1H1247.96V53.05ZM1300.59 8.5L1304.64 12.55L1296.54 20.65L1304.64 28.75L1296.54 36.85L1304.64 44.95L1300.59 49L1280.34 28.75L1300.59 8.5ZM1280.34 0.399998H1304.64V4.45H1280.34V0.399998ZM1280.34 53.05H1304.64V57.1H1280.34V53.05ZM1284.39 8.5L1288.44 12.55L1284.39 16.6L1280.34 12.55L1284.39 8.5ZM1288.44 28.75L1292.49 32.8L1296.54 28.75L1292.49 24.7L1288.44 28.75ZM1284.39 40.9L1288.44 44.95L1284.39 49L1280.34 44.95L1284.39 40.9ZM1316.78 40.9L1320.83 36.85L1304.63 20.65L1316.78 8.5L1328.93 20.65L1320.83 28.75L1328.93 36.85L1316.78 49L1304.63 36.85L1308.68 32.8L1316.78 40.9ZM1312.73 20.65L1316.78 24.7L1320.83 20.65L1316.78 16.6L1312.73 20.65ZM1332.98 24.7L1337.03 28.75L1332.98 32.8L1328.93 28.75L1332.98 24.7ZM1300.58 24.7L1304.63 28.75L1300.58 32.8L1296.53 28.75L1300.58 24.7ZM1300.58 40.9L1304.63 44.95L1300.58 49L1296.53 44.95L1300.58 40.9ZM1300.58 8.5L1304.63 12.55L1300.58 16.6L1296.53 12.55L1300.58 8.5ZM1332.98 40.9L1337.03 44.95L1332.98 49L1328.93 44.95L1332.98 40.9ZM1332.98 8.5L1337.03 12.55L1332.98 16.6L1328.93 12.55L1332.98 8.5ZM1296.53 0.399998H1337.03V4.45H1296.53V0.399998ZM1296.53 53.05H1337.03V57.1H1296.53V53.05ZM1353.21 28.75L1369.41 44.95L1365.36 49L1357.26 40.9L1349.16 49L1341.06 40.9L1332.96 49L1328.91 44.95L1345.11 28.75L1328.91 12.55L1332.96 8.5L1341.06 16.6L1349.16 8.5L1357.26 16.6L1365.36 8.5L1369.41 12.55L1353.21 28.75ZM1328.91 0.399998H1369.41V4.45H1328.91V0.399998ZM1328.91 53.05H1369.41V57.1H1328.91V53.05ZM1332.96 24.7L1337.01 28.75L1332.96 32.8L1328.91 28.75L1332.96 24.7ZM1349.16 40.9L1353.21 36.85L1349.16 32.8L1345.11 36.85L1349.16 40.9ZM1349.16 16.6L1345.11 20.65L1349.16 24.7L1353.21 20.65L1349.16 16.6ZM1365.36 24.7L1369.41 28.75L1365.36 32.8L1361.31 28.75L1365.36 24.7ZM1361.29 53.05H1401.79V57.1H1361.29V53.05ZM1381.54 40.9L1385.59 44.95L1381.54 49L1377.49 44.95L1381.54 40.9ZM1373.44 40.9L1361.29 28.75L1381.54 8.5L1401.79 28.75L1389.64 40.9L1385.59 36.85L1393.69 28.75L1389.64 24.7L1381.54 32.8L1373.44 24.7L1369.39 28.75L1377.49 36.85L1373.44 40.9ZM1361.29 0.399998H1401.79V4.45H1361.29V0.399998ZM1365.34 40.9L1369.39 44.95L1365.34 49L1361.29 44.95L1365.34 40.9ZM1365.34 8.5L1369.39 12.55L1365.34 16.6L1361.29 12.55L1365.34 8.5ZM1397.74 40.9L1401.79 44.95L1397.74 49L1393.69 44.95L1397.74 40.9ZM1397.74 8.5L1401.79 12.55L1397.74 16.6L1393.69 12.55L1397.74 8.5ZM1377.49 20.65L1381.54 24.7L1385.59 20.65L1381.54 16.6L1377.49 20.65ZM1413.91 8.5L1434.16 28.75L1413.91 49L1393.66 28.75L1413.91 8.5ZM1401.76 28.75L1413.91 40.9L1426.06 28.75L1413.91 16.6L1401.76 28.75ZM1430.11 40.9L1434.16 44.95L1430.11 49L1426.06 44.95L1430.11 40.9ZM1397.71 8.5L1401.76 12.55L1397.71 16.6L1393.66 12.55L1397.71 8.5ZM1397.71 40.9L1401.76 44.95L1397.71 49L1393.66 44.95L1397.71 40.9ZM1413.91 24.7L1417.96 28.75L1413.91 32.8L1409.86 28.75L1413.91 24.7ZM1430.11 8.5L1434.16 12.55L1430.11 16.6L1426.06 12.55L1430.11 8.5ZM1393.66 0.399998H1434.16V4.45H1393.66V0.399998ZM1393.66 53.05H1434.16V57.1H1393.66V53.05ZM1438.3 16.6L1446.4 24.7L1450.45 20.65L1442.35 12.55L1446.4 8.5L1458.55 20.65L1450.45 28.75L1458.55 36.85L1446.4 49L1434.25 36.85L1442.35 28.75L1434.25 20.65L1438.3 16.6ZM1442.35 36.85L1446.4 40.9L1450.45 36.85L1446.4 32.8L1442.35 36.85ZM1462.6 24.7L1466.65 28.75L1462.6 32.8L1458.55 28.75L1462.6 24.7ZM1430.2 24.7L1434.25 28.75L1430.2 32.8L1426.15 28.75L1430.2 24.7ZM1430.2 40.9L1434.25 44.95L1430.2 49L1426.15 44.95L1430.2 40.9ZM1430.2 8.5L1434.25 12.55L1430.2 16.6L1426.15 12.55L1430.2 8.5ZM1462.6 40.9L1466.65 44.95L1462.6 49L1458.55 44.95L1462.6 40.9ZM1462.6 8.5L1466.65 12.55L1462.6 16.6L1458.55 12.55L1462.6 8.5ZM1426.15 0.399998H1466.65V4.45H1426.15V0.399998ZM1426.15 53.05H1466.65V57.1H1426.15V53.05ZM1478.78 40.9L1482.83 36.85L1466.63 20.65L1478.78 8.5L1490.93 20.65L1482.83 28.75L1490.93 36.85L1478.78 49L1466.63 36.85L1470.68 32.8L1478.78 40.9ZM1474.73 20.65L1478.78 24.7L1482.83 20.65L1478.78 16.6L1474.73 20.65ZM1494.98 24.7L1499.03 28.75L1494.98 32.8L1490.93 28.75L1494.98 24.7ZM1462.58 24.7L1466.63 28.75L1462.58 32.8L1458.53 28.75L1462.58 24.7ZM1462.58 40.9L1466.63 44.95L1462.58 49L1458.53 44.95L1462.58 40.9ZM1462.58 8.5L1466.63 12.55L1462.58 16.6L1458.53 12.55L1462.58 8.5ZM1494.98 40.9L1499.03 44.95L1494.98 49L1490.93 44.95L1494.98 40.9ZM1494.98 8.5L1499.03 12.55L1494.98 16.6L1490.93 12.55L1494.98 8.5ZM1458.53 0.399998H1499.03V4.45H1458.53V0.399998ZM1458.53 53.05H1499.03V57.1H1458.53V53.05ZM1494.96 24.7L1503.06 32.8L1507.11 28.75L1499.01 20.65L1511.16 8.5L1515.21 12.55L1507.11 20.65L1511.16 24.7L1519.26 16.6L1531.41 28.75L1527.36 32.8L1519.26 24.7L1515.21 28.75L1523.31 36.85L1519.26 40.9L1511.16 32.8L1507.11 36.85L1515.21 44.95L1511.16 49L1490.91 28.75L1494.96 24.7ZM1527.36 8.5L1531.41 12.55L1527.36 16.6L1523.31 12.55L1527.36 8.5ZM1527.36 40.9L1531.41 44.95L1527.36 49L1523.31 44.95L1527.36 40.9ZM1494.96 8.5L1499.01 12.55L1494.96 16.6L1490.91 12.55L1494.96 8.5ZM1494.96 40.9L1499.01 44.95L1494.96 49L1490.91 44.95L1494.96 40.9ZM1490.91 0.399998H1531.41V4.45H1490.91V0.399998ZM1490.91 53.05H1531.41V57.1H1490.91V53.05ZM1551.64 16.6L1563.79 28.75L1559.74 32.8L1551.64 24.7L1535.44 40.9L1523.29 28.75L1527.34 24.7L1535.44 32.8L1551.64 16.6ZM1543.54 8.5L1547.59 12.55L1535.44 24.7L1531.39 20.65L1543.54 8.5ZM1551.64 32.8L1555.69 36.85L1543.54 49L1539.49 44.95L1551.64 32.8ZM1527.34 8.5L1531.39 12.55L1527.34 16.6L1523.29 12.55L1527.34 8.5ZM1527.34 40.9L1531.39 44.95L1527.34 49L1523.29 44.95L1527.34 40.9ZM1559.74 40.9L1563.79 44.95L1559.74 49L1555.69 44.95L1559.74 40.9ZM1559.74 8.5L1563.79 12.55L1559.74 16.6L1555.69 12.55L1559.74 8.5ZM1523.29 0.399998H1563.79V4.45H1523.29V0.399998ZM1523.29 53.05H1563.79V57.1H1523.29V53.05ZM1579.96 28.75L1596.16 44.95L1592.11 49L1584.01 40.9L1575.91 49L1567.81 40.9L1559.71 49L1555.66 44.95L1571.86 28.75L1555.66 12.55L1559.71 8.5L1567.81 16.6L1575.91 8.5L1584.01 16.6L1592.11 8.5L1596.16 12.55L1579.96 28.75ZM1555.66 0.399998H1596.16V4.45H1555.66V0.399998ZM1555.66 53.05H1596.16V57.1H1555.66V53.05ZM1559.71 24.7L1563.76 28.75L1559.71 32.8L1555.66 28.75L1559.71 24.7ZM1575.91 40.9L1579.96 36.85L1575.91 32.8L1571.86 36.85L1575.91 40.9ZM1575.91 16.6L1571.86 20.65L1575.91 24.7L1579.96 20.65L1575.91 16.6ZM1592.11 24.7L1596.16 28.75L1592.11 32.8L1588.06 28.75L1592.11 24.7ZM1608.29 8.5L1628.54 28.75L1608.29 49L1596.14 36.85L1608.29 24.7L1612.34 28.75L1604.24 36.85L1608.29 40.9L1620.44 28.75L1608.29 16.6L1592.09 32.8L1588.04 28.75L1608.29 8.5ZM1624.49 8.5L1628.54 12.55L1624.49 16.6L1620.44 12.55L1624.49 8.5ZM1624.49 40.9L1628.54 44.95L1624.49 49L1620.44 44.95L1624.49 40.9ZM1592.09 8.5L1596.14 12.55L1592.09 16.6L1588.04 12.55L1592.09 8.5ZM1592.09 40.9L1596.14 44.95L1592.09 49L1588.04 44.95L1592.09 40.9ZM1588.04 0.399998H1628.54V4.45H1588.04V0.399998ZM1588.04 53.05H1628.54V57.1H1588.04V53.05ZM1640.67 8.5L1644.72 12.55L1636.62 20.65L1644.72 28.75L1636.62 36.85L1644.72 44.95L1640.67 49L1620.42 28.75L1640.67 8.5ZM1620.42 0.399998H1644.72V4.45H1620.42V0.399998ZM1620.42 53.05H1644.72V57.1H1620.42V53.05ZM1624.47 8.5L1628.52 12.55L1624.47 16.6L1620.42 12.55L1624.47 8.5ZM1628.52 28.75L1632.57 32.8L1636.62 28.75L1632.57 24.7L1628.52 28.75ZM1624.47 40.9L1628.52 44.95L1624.47 49L1620.42 44.95L1624.47 40.9ZM1656.86 40.9L1660.91 36.85L1644.71 20.65L1656.86 8.5L1669.01 20.65L1660.91 28.75L1669.01 36.85L1656.86 49L1644.71 36.85L1648.76 32.8L1656.86 40.9ZM1652.81 20.65L1656.86 24.7L1660.91 20.65L1656.86 16.6L1652.81 20.65ZM1673.06 24.7L1677.11 28.75L1673.06 32.8L1669.01 28.75L1673.06 24.7ZM1640.66 24.7L1644.71 28.75L1640.66 32.8L1636.61 28.75L1640.66 24.7ZM1640.66 40.9L1644.71 44.95L1640.66 49L1636.61 44.95L1640.66 40.9ZM1640.66 8.5L1644.71 12.55L1640.66 16.6L1636.61 12.55L1640.66 8.5ZM1673.06 40.9L1677.11 44.95L1673.06 49L1669.01 44.95L1673.06 40.9ZM1673.06 8.5L1677.11 12.55L1673.06 16.6L1669.01 12.55L1673.06 8.5ZM1636.61 0.399998H1677.11V4.45H1636.61V0.399998ZM1636.61 53.05H1677.11V57.1H1636.61V53.05ZM1693.29 28.75L1709.49 44.95L1705.44 49L1697.34 40.9L1689.24 49L1681.14 40.9L1673.04 49L1668.99 44.95L1685.19 28.75L1668.99 12.55L1673.04 8.5L1681.14 16.6L1689.24 8.5L1697.34 16.6L1705.44 8.5L1709.49 12.55L1693.29 28.75ZM1668.99 0.399998H1709.49V4.45H1668.99V0.399998ZM1668.99 53.05H1709.49V57.1H1668.99V53.05ZM1673.04 24.7L1677.09 28.75L1673.04 32.8L1668.99 28.75L1673.04 24.7ZM1689.24 40.9L1693.29 36.85L1689.24 32.8L1685.19 36.85L1689.24 40.9ZM1689.24 16.6L1685.19 20.65L1689.24 24.7L1693.29 20.65L1689.24 16.6ZM1705.44 24.7L1709.49 28.75L1705.44 32.8L1701.39 28.75L1705.44 24.7ZM1701.37 53.05H1741.87V57.1H1701.37V53.05ZM1721.62 40.9L1725.67 44.95L1721.62 49L1717.57 44.95L1721.62 40.9ZM1713.52 40.9L1701.37 28.75L1721.62 8.5L1741.87 28.75L1729.72 40.9L1725.67 36.85L1733.77 28.75L1729.72 24.7L1721.62 32.8L1713.52 24.7L1709.47 28.75L1717.57 36.85L1713.52 40.9ZM1701.37 0.399998H1741.87V4.45H1701.37V0.399998ZM1705.42 40.9L1709.47 44.95L1705.42 49L1701.37 44.95L1705.42 40.9ZM1705.42 8.5L1709.47 12.55L1705.42 16.6L1701.37 12.55L1705.42 8.5ZM1737.82 40.9L1741.87 44.95L1737.82 49L1733.77 44.95L1737.82 40.9ZM1737.82 8.5L1741.87 12.55L1737.82 16.6L1733.77 12.55L1737.82 8.5ZM1717.57 20.65L1721.62 24.7L1725.67 20.65L1721.62 16.6L1717.57 20.65ZM1754 8.5L1774.25 28.75L1754 49L1733.75 28.75L1754 8.5ZM1741.85 28.75L1754 40.9L1766.15 28.75L1754 16.6L1741.85 28.75ZM1770.2 40.9L1774.25 44.95L1770.2 49L1766.15 44.95L1770.2 40.9ZM1737.8 8.5L1741.85 12.55L1737.8 16.6L1733.75 12.55L1737.8 8.5ZM1737.8 40.9L1741.85 44.95L1737.8 49L1733.75 44.95L1737.8 40.9ZM1754 24.7L1758.05 28.75L1754 32.8L1749.95 28.75L1754 24.7ZM1770.2 8.5L1774.25 12.55L1770.2 16.6L1766.15 12.55L1770.2 8.5ZM1733.75 0.399998H1774.25V4.45H1733.75V0.399998ZM1733.75 53.05H1774.25V57.1H1733.75V53.05ZM1778.38 16.6L1786.48 24.7L1790.53 20.65L1782.43 12.55L1786.48 8.5L1798.63 20.65L1790.53 28.75L1798.63 36.85L1786.48 49L1774.33 36.85L1782.43 28.75L1774.33 20.65L1778.38 16.6ZM1782.43 36.85L1786.48 40.9L1790.53 36.85L1786.48 32.8L1782.43 36.85ZM1802.68 24.7L1806.73 28.75L1802.68 32.8L1798.63 28.75L1802.68 24.7ZM1770.28 24.7L1774.33 28.75L1770.28 32.8L1766.23 28.75L1770.28 24.7ZM1770.28 40.9L1774.33 44.95L1770.28 49L1766.23 44.95L1770.28 40.9ZM1770.28 8.5L1774.33 12.55L1770.28 16.6L1766.23 12.55L1770.28 8.5ZM1802.68 40.9L1806.73 44.95L1802.68 49L1798.63 44.95L1802.68 40.9ZM1802.68 8.5L1806.73 12.55L1802.68 16.6L1798.63 12.55L1802.68 8.5ZM1766.23 0.399998H1806.73V4.45H1766.23V0.399998ZM1766.23 53.05H1806.73V57.1H1766.23V53.05ZM1818.86 40.9L1822.91 36.85L1806.71 20.65L1818.86 8.5L1831.01 20.65L1822.91 28.75L1831.01 36.85L1818.86 49L1806.71 36.85L1810.76 32.8L1818.86 40.9ZM1814.81 20.65L1818.86 24.7L1822.91 20.65L1818.86 16.6L1814.81 20.65ZM1835.06 24.7L1839.11 28.75L1835.06 32.8L1831.01 28.75L1835.06 24.7ZM1802.66 24.7L1806.71 28.75L1802.66 32.8L1798.61 28.75L1802.66 24.7ZM1802.66 40.9L1806.71 44.95L1802.66 49L1798.61 44.95L1802.66 40.9ZM1802.66 8.5L1806.71 12.55L1802.66 16.6L1798.61 12.55L1802.66 8.5ZM1835.06 40.9L1839.11 44.95L1835.06 49L1831.01 44.95L1835.06 40.9ZM1835.06 8.5L1839.11 12.55L1835.06 16.6L1831.01 12.55L1835.06 8.5ZM1798.61 0.399998H1839.11V4.45H1798.61V0.399998ZM1798.61 53.05H1839.11V57.1H1798.61V53.05ZM1835.04 24.7L1843.14 32.8L1847.19 28.75L1839.09 20.65L1851.24 8.5L1855.29 12.55L1847.19 20.65L1851.24 24.7L1859.34 16.6L1871.49 28.75L1867.44 32.8L1859.34 24.7L1855.29 28.75L1863.39 36.85L1859.34 40.9L1851.24 32.8L1847.19 36.85L1855.29 44.95L1851.24 49L1830.99 28.75L1835.04 24.7ZM1867.44 8.5L1871.49 12.55L1867.44 16.6L1863.39 12.55L1867.44 8.5ZM1867.44 40.9L1871.49 44.95L1867.44 49L1863.39 44.95L1867.44 40.9ZM1835.04 8.5L1839.09 12.55L1835.04 16.6L1830.99 12.55L1835.04 8.5ZM1835.04 40.9L1839.09 44.95L1835.04 49L1830.99 44.95L1835.04 40.9ZM1830.99 0.399998H1871.49V4.45H1830.99V0.399998ZM1830.99 53.05H1871.49V57.1H1830.99V53.05ZM1891.72 16.6L1903.87 28.75L1899.82 32.8L1891.72 24.7L1875.52 40.9L1863.37 28.75L1867.42 24.7L1875.52 32.8L1891.72 16.6ZM1883.62 8.5L1887.67 12.55L1875.52 24.7L1871.47 20.65L1883.62 8.5ZM1891.72 32.8L1895.77 36.85L1883.62 49L1879.57 44.95L1891.72 32.8ZM1867.42 8.5L1871.47 12.55L1867.42 16.6L1863.37 12.55L1867.42 8.5ZM1867.42 40.9L1871.47 44.95L1867.42 49L1863.37 44.95L1867.42 40.9ZM1899.82 40.9L1903.87 44.95L1899.82 49L1895.77 44.95L1899.82 40.9ZM1899.82 8.5L1903.87 12.55L1899.82 16.6L1895.77 12.55L1899.82 8.5ZM1863.37 0.399998H1903.87V4.45H1863.37V0.399998ZM1863.37 53.05H1903.87V57.1H1863.37V53.05Z" fill="#610000"/>
</svg>
