<svg width="1904" height="58" viewBox="0 0 1904 58" fill="none" xmlns="http://www.w3.org/2000/svg">
<path d="M0.949023 53.05H41.449V57.1H0.949023V53.05ZM21.199 40.9L25.249 44.95L21.199 49L17.149 44.95L21.199 40.9ZM13.099 40.9L0.949023 28.75L21.199 8.5L41.449 28.75L29.299 40.9L25.249 36.85L33.349 28.75L29.299 24.7L21.199 32.8L13.099 24.7L9.04902 28.75L17.149 36.85L13.099 40.9ZM0.949023 0.399998H41.449V4.45H0.949023V0.399998ZM4.99902 40.9L9.04902 44.95L4.99902 49L0.949023 44.95L4.99902 40.9ZM4.99902 8.5L9.04902 12.55L4.99902 16.6L0.949023 12.55L4.99902 8.5ZM37.399 40.9L41.449 44.95L37.399 49L33.349 44.95L37.399 40.9ZM37.399 8.5L41.449 12.55L37.399 16.6L33.349 12.55L37.399 8.5ZM17.149 20.65L21.199 24.7L25.249 20.65L21.199 16.6L17.149 20.65ZM53.5779 8.5L73.8279 28.75L53.5779 49L33.3279 28.75L53.5779 8.5ZM41.4279 28.75L53.5779 40.9L65.7279 28.75L53.5779 16.6L41.4279 28.75ZM69.7779 40.9L73.8279 44.95L69.7779 49L65.7279 44.95L69.7779 40.9ZM37.3779 8.5L41.4279 12.55L37.3779 16.6L33.3279 12.55L37.3779 8.5ZM37.3779 40.9L41.4279 44.95L37.3779 49L33.3279 44.95L37.3779 40.9ZM53.5779 24.7L57.6279 28.75L53.5779 32.8L49.5279 28.75L53.5779 24.7ZM69.7779 8.5L73.8279 12.55L69.7779 16.6L65.7279 12.55L69.7779 8.5ZM33.3279 0.399998H73.8279V4.45H33.3279V0.399998ZM33.3279 53.05H73.8279V57.1H33.3279V53.05ZM77.9623 16.6L86.0623 24.7L90.1123 20.65L82.0123 12.55L86.0623 8.5L98.2123 20.65L90.1123 28.75L98.2123 36.85L86.0623 49L73.9123 36.85L82.0123 28.75L73.9123 20.65L77.9623 16.6ZM82.0123 36.85L86.0623 40.9L90.1123 36.85L86.0623 32.8L82.0123 36.85ZM102.262 24.7L106.312 28.75L102.262 32.8L98.2123 28.75L102.262 24.7ZM69.8623 24.7L73.9123 28.75L69.8623 32.8L65.8123 28.75L69.8623 24.7ZM69.8623 40.9L73.9123 44.95L69.8623 49L65.8123 44.95L69.8623 40.9ZM69.8623 8.5L73.9123 12.55L69.8623 16.6L65.8123 12.55L69.8623 8.5ZM102.262 40.9L106.312 44.95L102.262 49L98.2123 44.95L102.262 40.9ZM102.262 8.5L106.312 12.55L102.262 16.6L98.2123 12.55L102.262 8.5ZM65.8123 0.399998H106.312V4.45H65.8123V0.399998ZM65.8123 53.05H106.312V57.1H65.8123V53.05ZM118.441 40.9L122.491 36.85L106.291 20.65L118.441 8.5L130.591 20.65L122.491 28.75L130.591 36.85L118.441 49L106.291 36.85L110.341 32.8L118.441 40.9ZM114.391 20.65L118.441 24.7L122.491 20.65L118.441 16.6L114.391 20.65ZM134.641 24.7L138.691 28.75L134.641 32.8L130.591 28.75L134.641 24.7ZM102.241 24.7L106.291 28.75L102.241 32.8L98.1912 28.75L102.241 24.7ZM102.241 40.9L106.291 44.95L102.241 49L98.1912 44.95L102.241 40.9ZM102.241 8.5L106.291 12.55L102.241 16.6L98.1912 12.55L102.241 8.5ZM134.641 40.9L138.691 44.95L134.641 49L130.591 44.95L134.641 40.9ZM134.641 8.5L138.691 12.55L134.641 16.6L130.591 12.55L134.641 8.5ZM98.1912 0.399998H138.691V4.45H98.1912V0.399998ZM98.1912 53.05H138.691V57.1H98.1912V53.05ZM134.62 24.7L142.72 32.8L146.77 28.75L138.67 20.65L150.82 8.5L154.87 12.55L146.77 20.65L150.82 24.7L158.92 16.6L171.07 28.75L167.02 32.8L158.92 24.7L154.87 28.75L162.97 36.85L158.92 40.9L150.82 32.8L146.77 36.85L154.87 44.95L150.82 49L130.57 28.75L134.62 24.7ZM167.02 8.5L171.07 12.55L167.02 16.6L162.97 12.55L167.02 8.5ZM167.02 40.9L171.07 44.95L167.02 49L162.97 44.95L167.02 40.9ZM134.62 8.5L138.67 12.55L134.62 16.6L130.57 12.55L134.62 8.5ZM134.62 40.9L138.67 44.95L134.62 49L130.57 44.95L134.62 40.9ZM130.57 0.399998H171.07V4.45H130.57V0.399998ZM130.57 53.05H171.07V57.1H130.57V53.05ZM191.299 16.6L203.449 28.75L199.399 32.8L191.299 24.7L175.099 40.9L162.949 28.75L166.999 24.7L175.099 32.8L191.299 16.6ZM183.199 8.5L187.249 12.55L175.099 24.7L171.049 20.65L183.199 8.5ZM191.299 32.8L195.349 36.85L183.199 49L179.149 44.95L191.299 32.8ZM166.999 8.5L171.049 12.55L166.999 16.6L162.949 12.55L166.999 8.5ZM166.999 40.9L171.049 44.95L166.999 49L162.949 44.95L166.999 40.9ZM199.399 40.9L203.449 44.95L199.399 49L195.349 44.95L199.399 40.9ZM199.399 8.5L203.449 12.55L199.399 16.6L195.349 12.55L199.399 8.5ZM162.949 0.399998H203.449V4.45H162.949V0.399998ZM162.949 53.05H203.449V57.1H162.949V53.05ZM219.628 28.75L235.828 44.95L231.778 49L223.678 40.9L215.578 49L207.478 40.9L199.378 49L195.328 44.95L211.528 28.75L195.328 12.55L199.378 8.5L207.478 16.6L215.578 8.5L223.678 16.6L231.778 8.5L235.828 12.55L219.628 28.75ZM195.328 0.399998H235.828V4.45H195.328V0.399998ZM195.328 53.05H235.828V57.1H195.328V53.05ZM199.378 24.7L203.428 28.75L199.378 32.8L195.328 28.75L199.378 24.7ZM215.578 40.9L219.628 36.85L215.578 32.8L211.528 36.85L215.578 40.9ZM215.578 16.6L211.528 20.65L215.578 24.7L219.628 20.65L215.578 16.6ZM231.778 24.7L235.828 28.75L231.778 32.8L227.728 28.75L231.778 24.7ZM247.957 8.5L268.207 28.75L247.957 49L235.807 36.85L247.957 24.7L252.007 28.75L243.907 36.85L247.957 40.9L260.107 28.75L247.957 16.6L231.757 32.8L227.707 28.75L247.957 8.5ZM264.157 8.5L268.207 12.55L264.157 16.6L260.107 12.55L264.157 8.5ZM264.157 40.9L268.207 44.95L264.157 49L260.107 44.95L264.157 40.9ZM231.757 8.5L235.807 12.55L231.757 16.6L227.707 12.55L231.757 8.5ZM231.757 40.9L235.807 44.95L231.757 49L227.707 44.95L231.757 40.9ZM227.707 0.399998H268.207V4.45H227.707V0.399998ZM227.707 53.05H268.207V57.1H227.707V53.05ZM280.336 8.5L284.386 12.55L276.286 20.65L284.386 28.75L276.286 36.85L284.386 44.95L280.336 49L260.086 28.75L280.336 8.5ZM260.086 0.399998H284.386V4.45H260.086V0.399998ZM260.086 53.05H284.386V57.1H260.086V53.05ZM264.136 8.5L268.186 12.55L264.136 16.6L260.086 12.55L264.136 8.5ZM268.186 28.75L272.236 32.8L276.286 28.75L272.236 24.7L268.186 28.75ZM264.136 40.9L268.186 44.95L264.136 49L260.086 44.95L264.136 40.9ZM296.525 40.9L300.575 36.85L284.375 20.65L296.525 8.5L308.675 20.65L300.575 28.75L308.675 36.85L296.525 49L284.375 36.85L288.425 32.8L296.525 40.9ZM292.475 20.65L296.525 24.7L300.575 20.65L296.525 16.6L292.475 20.65ZM312.725 24.7L316.775 28.75L312.725 32.8L308.675 28.75L312.725 24.7ZM280.325 24.7L284.375 28.75L280.325 32.8L276.275 28.75L280.325 24.7ZM280.325 40.9L284.375 44.95L280.325 49L276.275 44.95L280.325 40.9ZM280.325 8.5L284.375 12.55L280.325 16.6L276.275 12.55L280.325 8.5ZM312.725 40.9L316.775 44.95L312.725 49L308.675 44.95L312.725 40.9ZM312.725 8.5L316.775 12.55L312.725 16.6L308.675 12.55L312.725 8.5ZM276.275 0.399998H316.775V4.45H276.275V0.399998ZM276.275 53.05H316.775V57.1H276.275V53.05ZM332.954 28.75L349.154 44.95L345.104 49L337.004 40.9L328.904 49L320.804 40.9L312.704 49L308.654 44.95L324.854 28.75L308.654 12.55L312.704 8.5L320.804 16.6L328.904 8.5L337.004 16.6L345.104 8.5L349.154 12.55L332.954 28.75ZM308.654 0.399998H349.154V4.45H308.654V0.399998ZM308.654 53.05H349.154V57.1H308.654V53.05ZM312.704 24.7L316.754 28.75L312.704 32.8L308.654 28.75L312.704 24.7ZM328.904 40.9L332.954 36.85L328.904 32.8L324.854 36.85L328.904 40.9ZM328.904 16.6L324.854 20.65L328.904 24.7L332.954 20.65L328.904 16.6ZM345.104 24.7L349.154 28.75L345.104 32.8L341.054 28.75L345.104 24.7ZM341.033 53.05H381.533V57.1H341.033V53.05ZM361.283 40.9L365.333 44.95L361.283 49L357.233 44.95L361.283 40.9ZM353.183 40.9L341.033 28.75L361.283 8.5L381.533 28.75L369.383 40.9L365.333 36.85L373.433 28.75L369.383 24.7L361.283 32.8L353.183 24.7L349.133 28.75L357.233 36.85L353.183 40.9ZM341.033 0.399998H381.533V4.45H341.033V0.399998ZM345.083 40.9L349.133 44.95L345.083 49L341.033 44.95L345.083 40.9ZM345.083 8.5L349.133 12.55L345.083 16.6L341.033 12.55L345.083 8.5ZM377.483 40.9L381.533 44.95L377.483 49L373.433 44.95L377.483 40.9ZM377.483 8.5L381.533 12.55L377.483 16.6L373.433 12.55L377.483 8.5ZM357.233 20.65L361.283 24.7L365.333 20.65L361.283 16.6L357.233 20.65ZM393.662 8.5L413.912 28.75L393.662 49L373.412 28.75L393.662 8.5ZM381.512 28.75L393.662 40.9L405.812 28.75L393.662 16.6L381.512 28.75ZM409.862 40.9L413.912 44.95L409.862 49L405.812 44.95L409.862 40.9ZM377.462 8.5L381.512 12.55L377.462 16.6L373.412 12.55L377.462 8.5ZM377.462 40.9L381.512 44.95L377.462 49L373.412 44.95L377.462 40.9ZM393.662 24.7L397.712 28.75L393.662 32.8L389.612 28.75L393.662 24.7ZM409.862 8.5L413.912 12.55L409.862 16.6L405.812 12.55L409.862 8.5ZM373.412 0.399998H413.912V4.45H373.412V0.399998ZM373.412 53.05H413.912V57.1H373.412V53.05ZM418.046 16.6L426.146 24.7L430.196 20.65L422.096 12.55L426.146 8.5L438.296 20.65L430.196 28.75L438.296 36.85L426.146 49L413.996 36.85L422.096 28.75L413.996 20.65L418.046 16.6ZM422.096 36.85L426.146 40.9L430.196 36.85L426.146 32.8L422.096 36.85ZM442.346 24.7L446.396 28.75L442.346 32.8L438.296 28.75L442.346 24.7ZM409.946 24.7L413.996 28.75L409.946 32.8L405.896 28.75L409.946 24.7ZM409.946 40.9L413.996 44.95L409.946 49L405.896 44.95L409.946 40.9ZM409.946 8.5L413.996 12.55L409.946 16.6L405.896 12.55L409.946 8.5ZM442.346 40.9L446.396 44.95L442.346 49L438.296 44.95L442.346 40.9ZM442.346 8.5L446.396 12.55L442.346 16.6L438.296 12.55L442.346 8.5ZM405.896 0.399998H446.396V4.45H405.896V0.399998ZM405.896 53.05H446.396V57.1H405.896V53.05ZM458.525 40.9L462.575 36.85L446.375 20.65L458.525 8.5L470.675 20.65L462.575 28.75L470.675 36.85L458.525 49L446.375 36.85L450.425 32.8L458.525 40.9ZM454.475 20.65L458.525 24.7L462.575 20.65L458.525 16.6L454.475 20.65ZM474.725 24.7L478.775 28.75L474.725 32.8L470.675 28.75L474.725 24.7ZM442.325 24.7L446.375 28.75L442.325 32.8L438.275 28.75L442.325 24.7ZM442.325 40.9L446.375 44.95L442.325 49L438.275 44.95L442.325 40.9ZM442.325 8.5L446.375 12.55L442.325 16.6L438.275 12.55L442.325 8.5ZM474.725 40.9L478.775 44.95L474.725 49L470.675 44.95L474.725 40.9ZM474.725 8.5L478.775 12.55L474.725 16.6L470.675 12.55L474.725 8.5ZM438.275 0.399998H478.775V4.45H438.275V0.399998ZM438.275 53.05H478.775V57.1H438.275V53.05ZM474.704 24.7L482.804 32.8L486.854 28.75L478.754 20.65L490.904 8.5L494.954 12.55L486.854 20.65L490.904 24.7L499.004 16.6L511.154 28.75L507.104 32.8L499.004 24.7L494.954 28.75L503.054 36.85L499.004 40.9L490.904 32.8L486.854 36.85L494.954 44.95L490.904 49L470.654 28.75L474.704 24.7ZM507.104 8.5L511.154 12.55L507.104 16.6L503.054 12.55L507.104 8.5ZM507.104 40.9L511.154 44.95L507.104 49L503.054 44.95L507.104 40.9ZM474.704 8.5L478.754 12.55L474.704 16.6L470.654 12.55L474.704 8.5ZM474.704 40.9L478.754 44.95L474.704 49L470.654 44.95L474.704 40.9ZM470.654 0.399998H511.154V4.45H470.654V0.399998ZM470.654 53.05H511.154V57.1H470.654V53.05ZM531.383 16.6L543.533 28.75L539.483 32.8L531.383 24.7L515.183 40.9L503.033 28.75L507.083 24.7L515.183 32.8L531.383 16.6ZM523.283 8.5L527.333 12.55L515.183 24.7L511.133 20.65L523.283 8.5ZM531.383 32.8L535.433 36.85L523.283 49L519.233 44.95L531.383 32.8ZM507.083 8.5L511.133 12.55L507.083 16.6L503.033 12.55L507.083 8.5ZM507.083 40.9L511.133 44.95L507.083 49L503.033 44.95L507.083 40.9ZM539.483 40.9L543.533 44.95L539.483 49L535.433 44.95L539.483 40.9ZM539.483 8.5L543.533 12.55L539.483 16.6L535.433 12.55L539.483 8.5ZM503.033 0.399998H543.533V4.45H503.033V0.399998ZM503.033 53.05H543.533V57.1H503.033V53.05ZM559.712 28.75L575.912 44.95L571.862 49L563.762 40.9L555.662 49L547.562 40.9L539.462 49L535.412 44.95L551.612 28.75L535.412 12.55L539.462 8.5L547.562 16.6L555.662 8.5L563.762 16.6L571.862 8.5L575.912 12.55L559.712 28.75ZM535.412 0.399998H575.912V4.45H535.412V0.399998ZM535.412 53.05H575.912V57.1H535.412V53.05ZM539.462 24.7L543.512 28.75L539.462 32.8L535.412 28.75L539.462 24.7ZM555.662 40.9L559.712 36.85L555.662 32.8L551.612 36.85L555.662 40.9ZM555.662 16.6L551.612 20.65L555.662 24.7L559.712 20.65L555.662 16.6ZM571.862 24.7L575.912 28.75L571.862 32.8L567.812 28.75L571.862 24.7ZM588.041 8.5L608.291 28.75L588.041 49L575.891 36.85L588.041 24.7L592.091 28.75L583.991 36.85L588.041 40.9L600.191 28.75L588.041 16.6L571.841 32.8L567.791 28.75L588.041 8.5ZM604.241 8.5L608.291 12.55L604.241 16.6L600.191 12.55L604.241 8.5ZM604.241 40.9L608.291 44.95L604.241 49L600.191 44.95L604.241 40.9ZM571.841 8.5L575.891 12.55L571.841 16.6L567.791 12.55L571.841 8.5ZM571.841 40.9L575.891 44.95L571.841 49L567.791 44.95L571.841 40.9ZM567.791 0.399998H608.291V4.45H567.791V0.399998ZM567.791 53.05H608.291V57.1H567.791V53.05ZM620.42 8.5L624.47 12.55L616.37 20.65L624.47 28.75L616.37 36.85L624.47 44.95L620.42 49L600.17 28.75L620.42 8.5ZM600.17 0.399998H624.47V4.45H600.17V0.399998ZM600.17 53.05H624.47V57.1H600.17V53.05ZM604.22 8.5L608.27 12.55L604.22 16.6L600.17 12.55L604.22 8.5ZM608.27 28.75L612.32 32.8L616.37 28.75L612.32 24.7L608.27 28.75ZM604.22 40.9L608.27 44.95L604.22 49L600.17 44.95L604.22 40.9ZM636.609 40.9L640.659 36.85L624.459 20.65L636.609 8.5L648.759 20.65L640.659 28.75L648.759 36.85L636.609 49L624.459 36.85L628.509 32.8L636.609 40.9ZM632.559 20.65L636.609 24.7L640.659 20.65L636.609 16.6L632.559 20.65ZM652.809 24.7L656.859 28.75L652.809 32.8L648.759 28.75L652.809 24.7ZM620.409 24.7L624.459 28.75L620.409 32.8L616.359 28.75L620.409 24.7ZM620.409 40.9L624.459 44.95L620.409 49L616.359 44.95L620.409 40.9ZM620.409 8.5L624.459 12.55L620.409 16.6L616.359 12.55L620.409 8.5ZM652.809 40.9L656.859 44.95L652.809 49L648.759 44.95L652.809 40.9ZM652.809 8.5L656.859 12.55L652.809 16.6L648.759 12.55L652.809 8.5ZM616.359 0.399998H656.859V4.45H616.359V0.399998ZM616.359 53.05H656.859V57.1H616.359V53.05ZM673.038 28.75L689.238 44.95L685.188 49L677.088 40.9L668.988 49L660.888 40.9L652.788 49L648.738 44.95L664.938 28.75L648.738 12.55L652.788 8.5L660.888 16.6L668.988 8.5L677.088 16.6L685.188 8.5L689.238 12.55L673.038 28.75ZM648.738 0.399998H689.238V4.45H648.738V0.399998ZM648.738 53.05H689.238V57.1H648.738V53.05ZM652.788 24.7L656.838 28.75L652.788 32.8L648.738 28.75L652.788 24.7ZM668.988 40.9L673.038 36.85L668.988 32.8L664.938 36.85L668.988 40.9ZM668.988 16.6L664.938 20.65L668.988 24.7L673.038 20.65L668.988 16.6ZM685.188 24.7L689.238 28.75L685.188 32.8L681.138 28.75L685.188 24.7ZM681.117 53.05H721.617V57.1H681.117V53.05ZM701.367 40.9L705.417 44.95L701.367 49L697.317 44.95L701.367 40.9ZM693.267 40.9L681.117 28.75L701.367 8.5L721.617 28.75L709.467 40.9L705.417 36.85L713.517 28.75L709.467 24.7L701.367 32.8L693.267 24.7L689.217 28.75L697.317 36.85L693.267 40.9ZM681.117 0.399998H721.617V4.45H681.117V0.399998ZM685.167 40.9L689.217 44.95L685.167 49L681.117 44.95L685.167 40.9ZM685.167 8.5L689.217 12.55L685.167 16.6L681.117 12.55L685.167 8.5ZM717.567 40.9L721.617 44.95L717.567 49L713.517 44.95L717.567 40.9ZM717.567 8.5L721.617 12.55L717.567 16.6L713.517 12.55L717.567 8.5ZM697.317 20.65L701.367 24.7L705.417 20.65L701.367 16.6L697.317 20.65ZM733.746 8.5L753.996 28.75L733.746 49L713.496 28.75L733.746 8.5ZM721.596 28.75L733.746 40.9L745.896 28.75L733.746 16.6L721.596 28.75ZM749.946 40.9L753.996 44.95L749.946 49L745.896 44.95L749.946 40.9ZM717.546 8.5L721.596 12.55L717.546 16.6L713.496 12.55L717.546 8.5ZM717.546 40.9L721.596 44.95L717.546 49L713.496 44.95L717.546 40.9ZM733.746 24.7L737.796 28.75L733.746 32.8L729.696 28.75L733.746 24.7ZM749.946 8.5L753.996 12.55L749.946 16.6L745.896 12.55L749.946 8.5ZM713.496 0.399998H753.996V4.45H713.496V0.399998ZM713.496 53.05H753.996V57.1H713.496V53.05ZM758.13 16.6L766.23 24.7L770.28 20.65L762.18 12.55L766.23 8.5L778.38 20.65L770.28 28.75L778.38 36.85L766.23 49L754.08 36.85L762.18 28.75L754.08 20.65L758.13 16.6ZM762.18 36.85L766.23 40.9L770.28 36.85L766.23 32.8L762.18 36.85ZM782.43 24.7L786.48 28.75L782.43 32.8L778.38 28.75L782.43 24.7ZM750.03 24.7L754.08 28.75L750.03 32.8L745.98 28.75L750.03 24.7ZM750.03 40.9L754.08 44.95L750.03 49L745.98 44.95L750.03 40.9ZM750.03 8.5L754.08 12.55L750.03 16.6L745.98 12.55L750.03 8.5ZM782.43 40.9L786.48 44.95L782.43 49L778.38 44.95L782.43 40.9ZM782.43 8.5L786.48 12.55L782.43 16.6L778.38 12.55L782.43 8.5ZM745.98 0.399998H786.48V4.45H745.98V0.399998ZM745.98 53.05H786.48V57.1H745.98V53.05ZM798.609 40.9L802.659 36.85L786.459 20.65L798.609 8.5L810.759 20.65L802.659 28.75L810.759 36.85L798.609 49L786.459 36.85L790.509 32.8L798.609 40.9ZM794.559 20.65L798.609 24.7L802.659 20.65L798.609 16.6L794.559 20.65ZM814.809 24.7L818.859 28.75L814.809 32.8L810.759 28.75L814.809 24.7ZM782.409 24.7L786.459 28.75L782.409 32.8L778.359 28.75L782.409 24.7ZM782.409 40.9L786.459 44.95L782.409 49L778.359 44.95L782.409 40.9ZM782.409 8.5L786.459 12.55L782.409 16.6L778.359 12.55L782.409 8.5ZM814.809 40.9L818.859 44.95L814.809 49L810.759 44.95L814.809 40.9ZM814.809 8.5L818.859 12.55L814.809 16.6L810.759 12.55L814.809 8.5ZM778.359 0.399998H818.859V4.45H778.359V0.399998ZM778.359 53.05H818.859V57.1H778.359V53.05ZM814.788 24.7L822.888 32.8L826.938 28.75L818.838 20.65L830.988 8.5L835.038 12.55L826.938 20.65L830.988 24.7L839.088 16.6L851.238 28.75L847.188 32.8L839.088 24.7L835.038 28.75L843.138 36.85L839.088 40.9L830.988 32.8L826.938 36.85L835.038 44.95L830.988 49L810.738 28.75L814.788 24.7ZM847.188 8.5L851.238 12.55L847.188 16.6L843.138 12.55L847.188 8.5ZM847.188 40.9L851.238 44.95L847.188 49L843.138 44.95L847.188 40.9ZM814.788 8.5L818.838 12.55L814.788 16.6L810.738 12.55L814.788 8.5ZM814.788 40.9L818.838 44.95L814.788 49L810.738 44.95L814.788 40.9ZM810.738 0.399998H851.238V4.45H810.738V0.399998ZM810.738 53.05H851.238V57.1H810.738V53.05ZM871.467 16.6L883.617 28.75L879.567 32.8L871.467 24.7L855.267 40.9L843.117 28.75L847.167 24.7L855.267 32.8L871.467 16.6ZM863.367 8.5L867.417 12.55L855.267 24.7L851.217 20.65L863.367 8.5ZM871.467 32.8L875.517 36.85L863.367 49L859.317 44.95L871.467 32.8ZM847.167 8.5L851.217 12.55L847.167 16.6L843.117 12.55L847.167 8.5ZM847.167 40.9L851.217 44.95L847.167 49L843.117 44.95L847.167 40.9ZM879.567 40.9L883.617 44.95L879.567 49L875.517 44.95L879.567 40.9ZM879.567 8.5L883.617 12.55L879.567 16.6L875.517 12.55L879.567 8.5ZM843.117 0.399998H883.617V4.45H843.117V0.399998ZM843.117 53.05H883.617V57.1H843.117V53.05ZM899.796 28.75L915.996 44.95L911.946 49L903.846 40.9L895.746 49L887.646 40.9L879.546 49L875.496 44.95L891.696 28.75L875.496 12.55L879.546 8.5L887.646 16.6L895.746 8.5L903.846 16.6L911.946 8.5L915.996 12.55L899.796 28.75ZM875.496 0.399998H915.996V4.45H875.496V0.399998ZM875.496 53.05H915.996V57.1H875.496V53.05ZM879.546 24.7L883.596 28.75L879.546 32.8L875.496 28.75L879.546 24.7ZM895.746 40.9L899.796 36.85L895.746 32.8L891.696 36.85L895.746 40.9ZM895.746 16.6L891.696 20.65L895.746 24.7L899.796 20.65L895.746 16.6ZM911.946 24.7L915.996 28.75L911.946 32.8L907.896 28.75L911.946 24.7ZM928.125 8.5L948.375 28.75L928.125 49L915.975 36.85L928.125 24.7L932.175 28.75L924.075 36.85L928.125 40.9L940.275 28.75L928.125 16.6L911.925 32.8L907.875 28.75L928.125 8.5ZM944.325 8.5L948.375 12.55L944.325 16.6L940.275 12.55L944.325 8.5ZM944.325 40.9L948.375 44.95L944.325 49L940.275 44.95L944.325 40.9ZM911.925 8.5L915.975 12.55L911.925 16.6L907.875 12.55L911.925 8.5ZM911.925 40.9L915.975 44.95L911.925 49L907.875 44.95L911.925 40.9ZM907.875 0.399998H948.375V4.45H907.875V0.399998ZM907.875 53.05H948.375V57.1H907.875V53.05ZM960.504 8.5L964.554 12.55L956.454 20.65L964.554 28.75L956.454 36.85L964.554 44.95L960.504 49L940.254 28.75L960.504 8.5ZM940.254 0.399998H964.554V4.45H940.254V0.399998ZM940.254 53.05H964.554V57.1H940.254V53.05ZM944.304 8.5L948.354 12.55L944.304 16.6L940.254 12.55L944.304 8.5ZM948.354 28.75L952.404 32.8L956.454 28.75L952.404 24.7L948.354 28.75ZM944.304 40.9L948.354 44.95L944.304 49L940.254 44.95L944.304 40.9ZM976.693 40.9L980.743 36.85L964.543 20.65L976.693 8.5L988.843 20.65L980.743 28.75L988.843 36.85L976.693 49L964.543 36.85L968.593 32.8L976.693 40.9ZM972.643 20.65L976.693 24.7L980.743 20.65L976.693 16.6L972.643 20.65ZM992.893 24.7L996.943 28.75L992.893 32.8L988.843 28.75L992.893 24.7ZM960.493 24.7L964.543 28.75L960.493 32.8L956.443 28.75L960.493 24.7ZM960.493 40.9L964.543 44.95L960.493 49L956.443 44.95L960.493 40.9ZM960.493 8.5L964.543 12.55L960.493 16.6L956.443 12.55L960.493 8.5ZM992.893 40.9L996.943 44.95L992.893 49L988.843 44.95L992.893 40.9ZM992.893 8.5L996.943 12.55L992.893 16.6L988.843 12.55L992.893 8.5ZM956.443 0.399998H996.943V4.45H956.443V0.399998ZM956.443 53.05H996.943V57.1H956.443V53.05ZM1013.12 28.75L1029.32 44.95L1025.27 49L1017.17 40.9L1009.07 49L1000.97 40.9L992.872 49L988.822 44.95L1005.02 28.75L988.822 12.55L992.872 8.5L1000.97 16.6L1009.07 8.5L1017.17 16.6L1025.27 8.5L1029.32 12.55L1013.12 28.75ZM988.822 0.399998H1029.32V4.45H988.822V0.399998ZM988.822 53.05H1029.32V57.1H988.822V53.05ZM992.872 24.7L996.922 28.75L992.872 32.8L988.822 28.75L992.872 24.7ZM1009.07 40.9L1013.12 36.85L1009.07 32.8L1005.02 36.85L1009.07 40.9ZM1009.07 16.6L1005.02 20.65L1009.07 24.7L1013.12 20.65L1009.07 16.6ZM1025.27 24.7L1029.32 28.75L1025.27 32.8L1021.22 28.75L1025.27 24.7ZM1021.2 53.05H1061.7V57.1H1021.2V53.05ZM1041.45 40.9L1045.5 44.95L1041.45 49L1037.4 44.95L1041.45 40.9ZM1033.35 40.9L1021.2 28.75L1041.45 8.5L1061.7 28.75L1049.55 40.9L1045.5 36.85L1053.6 28.75L1049.55 24.7L1041.45 32.8L1033.35 24.7L1029.3 28.75L1037.4 36.85L1033.35 40.9ZM1021.2 0.399998H1061.7V4.45H1021.2V0.399998ZM1025.25 40.9L1029.3 44.95L1025.25 49L1021.2 44.95L1025.25 40.9ZM1025.25 8.5L1029.3 12.55L1025.25 16.6L1021.2 12.55L1025.25 8.5ZM1057.65 40.9L1061.7 44.95L1057.65 49L1053.6 44.95L1057.65 40.9ZM1057.65 8.5L1061.7 12.55L1057.65 16.6L1053.6 12.55L1057.65 8.5ZM1037.4 20.65L1041.45 24.7L1045.5 20.65L1041.45 16.6L1037.4 20.65ZM1073.83 8.5L1094.08 28.75L1073.83 49L1053.58 28.75L1073.83 8.5ZM1061.68 28.75L1073.83 40.9L1085.98 28.75L1073.83 16.6L1061.68 28.75ZM1090.03 40.9L1094.08 44.95L1090.03 49L1085.98 44.95L1090.03 40.9ZM1057.63 8.5L1061.68 12.55L1057.63 16.6L1053.58 12.55L1057.63 8.5ZM1057.63 40.9L1061.68 44.95L1057.63 49L1053.58 44.95L1057.63 40.9ZM1073.83 24.7L1077.88 28.75L1073.83 32.8L1069.78 28.75L1073.83 24.7ZM1090.03 8.5L1094.08 12.55L1090.03 16.6L1085.98 12.55L1090.03 8.5ZM1053.58 0.399998H1094.08V4.45H1053.58V0.399998ZM1053.58 53.05H1094.08V57.1H1053.58V53.05ZM1098.21 16.6L1106.31 24.7L1110.36 20.65L1102.26 12.55L1106.31 8.5L1118.46 20.65L1110.36 28.75L1118.46 36.85L1106.31 49L1094.16 36.85L1102.26 28.75L1094.16 20.65L1098.21 16.6ZM1102.26 36.85L1106.31 40.9L1110.36 36.85L1106.31 32.8L1102.26 36.85ZM1122.51 24.7L1126.56 28.75L1122.51 32.8L1118.46 28.75L1122.51 24.7ZM1090.11 24.7L1094.16 28.75L1090.11 32.8L1086.06 28.75L1090.11 24.7ZM1090.11 40.9L1094.16 44.95L1090.11 49L1086.06 44.95L1090.11 40.9ZM1090.11 8.5L1094.16 12.55L1090.11 16.6L1086.06 12.55L1090.11 8.5ZM1122.51 40.9L1126.56 44.95L1122.51 49L1118.46 44.95L1122.51 40.9ZM1122.51 8.5L1126.56 12.55L1122.51 16.6L1118.46 12.55L1122.51 8.5ZM1086.06 0.399998H1126.56V4.45H1086.06V0.399998ZM1086.06 53.05H1126.56V57.1H1086.06V53.05ZM1138.69 40.9L1142.74 36.85L1126.54 20.65L1138.69 8.5L1150.84 20.65L1142.74 28.75L1150.84 36.85L1138.69 49L1126.54 36.85L1130.59 32.8L1138.69 40.9ZM1134.64 20.65L1138.69 24.7L1142.74 20.65L1138.69 16.6L1134.64 20.65ZM1154.89 24.7L1158.94 28.75L1154.89 32.8L1150.84 28.75L1154.89 24.7ZM1122.49 24.7L1126.54 28.75L1122.49 32.8L1118.44 28.75L1122.49 24.7ZM1122.49 40.9L1126.54 44.95L1122.49 49L1118.44 44.95L1122.49 40.9ZM1122.49 8.5L1126.54 12.55L1122.49 16.6L1118.44 12.55L1122.49 8.5ZM1154.89 40.9L1158.94 44.95L1154.89 49L1150.84 44.95L1154.89 40.9ZM1154.89 8.5L1158.94 12.55L1154.89 16.6L1150.84 12.55L1154.89 8.5ZM1118.44 0.399998H1158.94V4.45H1118.44V0.399998ZM1118.44 53.05H1158.94V57.1H1118.44V53.05ZM1154.87 24.7L1162.97 32.8L1167.02 28.75L1158.92 20.65L1171.07 8.5L1175.12 12.55L1167.02 20.65L1171.07 24.7L1179.17 16.6L1191.32 28.75L1187.27 32.8L1179.17 24.7L1175.12 28.75L1183.22 36.85L1179.17 40.9L1171.07 32.8L1167.02 36.85L1175.12 44.95L1171.07 49L1150.82 28.75L1154.87 24.7ZM1187.27 8.5L1191.32 12.55L1187.27 16.6L1183.22 12.55L1187.27 8.5ZM1187.27 40.9L1191.32 44.95L1187.27 49L1183.22 44.95L1187.27 40.9ZM1154.87 8.5L1158.92 12.55L1154.87 16.6L1150.82 12.55L1154.87 8.5ZM1154.87 40.9L1158.92 44.95L1154.87 49L1150.82 44.95L1154.87 40.9ZM1150.82 0.399998H1191.32V4.45H1150.82V0.399998ZM1150.82 53.05H1191.32V57.1H1150.82V53.05ZM1211.55 16.6L1223.7 28.75L1219.65 32.8L1211.55 24.7L1195.35 40.9L1183.2 28.75L1187.25 24.7L1195.35 32.8L1211.55 16.6ZM1203.45 8.5L1207.5 12.55L1195.35 24.7L1191.3 20.65L1203.45 8.5ZM1211.55 32.8L1215.6 36.85L1203.45 49L1199.4 44.95L1211.55 32.8ZM1187.25 8.5L1191.3 12.55L1187.25 16.6L1183.2 12.55L1187.25 8.5ZM1187.25 40.9L1191.3 44.95L1187.25 49L1183.2 44.95L1187.25 40.9ZM1219.65 40.9L1223.7 44.95L1219.65 49L1215.6 44.95L1219.65 40.9ZM1219.65 8.5L1223.7 12.55L1219.65 16.6L1215.6 12.55L1219.65 8.5ZM1183.2 0.399998H1223.7V4.45H1183.2V0.399998ZM1183.2 53.05H1223.7V57.1H1183.2V53.05ZM1239.88 28.75L1256.08 44.95L1252.03 49L1243.93 40.9L1235.83 49L1227.73 40.9L1219.63 49L1215.58 44.95L1231.78 28.75L1215.58 12.55L1219.63 8.5L1227.73 16.6L1235.83 8.5L1243.93 16.6L1252.03 8.5L1256.08 12.55L1239.88 28.75ZM1215.58 0.399998H1256.08V4.45H1215.58V0.399998ZM1215.58 53.05H1256.08V57.1H1215.58V53.05ZM1219.63 24.7L1223.68 28.75L1219.63 32.8L1215.58 28.75L1219.63 24.7ZM1235.83 40.9L1239.88 36.85L1235.83 32.8L1231.78 36.85L1235.83 40.9ZM1235.83 16.6L1231.78 20.65L1235.83 24.7L1239.88 20.65L1235.83 16.6ZM1252.03 24.7L1256.08 28.75L1252.03 32.8L1247.98 28.75L1252.03 24.7ZM1268.21 8.5L1288.46 28.75L1268.21 49L1256.06 36.85L1268.21 24.7L1272.26 28.75L1264.16 36.85L1268.21 40.9L1280.36 28.75L1268.21 16.6L1252.01 32.8L1247.96 28.75L1268.21 8.5ZM1284.41 8.5L1288.46 12.55L1284.41 16.6L1280.36 12.55L1284.41 8.5ZM1284.41 40.9L1288.46 44.95L1284.41 49L1280.36 44.95L1284.41 40.9ZM1252.01 8.5L1256.06 12.55L1252.01 16.6L1247.96 12.55L1252.01 8.5ZM1252.01 40.9L1256.06 44.95L1252.01 49L1247.96 44.95L1252.01 40.9ZM1247.96 0.399998H1288.46V4.45H1247.96V0.399998ZM1247.96 53.05H1288.46V57.1H1247.96V53.05ZM1300.59 8.5L1304.64 12.55L1296.54 20.65L1304.64 28.75L1296.54 36.85L1304.64 44.95L1300.59 49L1280.34 28.75L1300.59 8.5ZM1280.34 0.399998H1304.64V4.45H1280.34V0.399998ZM1280.34 53.05H1304.64V57.1H1280.34V53.05ZM1284.39 8.5L1288.44 12.55L1284.39 16.6L1280.34 12.55L1284.39 8.5ZM1288.44 28.75L1292.49 32.8L1296.54 28.75L1292.49 24.7L1288.44 28.75ZM1284.39 40.9L1288.44 44.95L1284.39 49L1280.34 44.95L1284.39 40.9ZM1316.78 40.9L1320.83 36.85L1304.63 20.65L1316.78 8.5L1328.93 20.65L1320.83 28.75L1328.93 36.85L1316.78 49L1304.63 36.85L1308.68 32.8L1316.78 40.9ZM1312.73 20.65L1316.78 24.7L1320.83 20.65L1316.78 16.6L1312.73 20.65ZM1332.98 24.7L1337.03 28.75L1332.98 32.8L1328.93 28.75L1332.98 24.7ZM1300.58 24.7L1304.63 28.75L1300.58 32.8L1296.53 28.75L1300.58 24.7ZM1300.58 40.9L1304.63 44.95L1300.58 49L1296.53 44.95L1300.58 40.9ZM1300.58 8.5L1304.63 12.55L1300.58 16.6L1296.53 12.55L1300.58 8.5ZM1332.98 40.9L1337.03 44.95L1332.98 49L1328.93 44.95L1332.98 40.9ZM1332.98 8.5L1337.03 12.55L1332.98 16.6L1328.93 12.55L1332.98 8.5ZM1296.53 0.399998H1337.03V4.45H1296.53V0.399998ZM1296.53 53.05H1337.03V57.1H1296.53V53.05ZM1353.21 28.75L1369.41 44.95L1365.36 49L1357.26 40.9L1349.16 49L1341.06 40.9L1332.96 49L1328.91 44.95L1345.11 28.75L1328.91 12.55L1332.96 8.5L1341.06 16.6L1349.16 8.5L1357.26 16.6L1365.36 8.5L1369.41 12.55L1353.21 28.75ZM1328.91 0.399998H1369.41V4.45H1328.91V0.399998ZM1328.91 53.05H1369.41V57.1H1328.91V53.05ZM1332.96 24.7L1337.01 28.75L1332.96 32.8L1328.91 28.75L1332.96 24.7ZM1349.16 40.9L1353.21 36.85L1349.16 32.8L1345.11 36.85L1349.16 40.9ZM1349.16 16.6L1345.11 20.65L1349.16 24.7L1353.21 20.65L1349.16 16.6ZM1365.36 24.7L1369.41 28.75L1365.36 32.8L1361.31 28.75L1365.36 24.7ZM1361.28 53.05H1401.78V57.1H1361.28V53.05ZM1381.53 40.9L1385.58 44.95L1381.53 49L1377.48 44.95L1381.53 40.9ZM1373.43 40.9L1361.28 28.75L1381.53 8.5L1401.78 28.75L1389.63 40.9L1385.58 36.85L1393.68 28.75L1389.63 24.7L1381.53 32.8L1373.43 24.7L1369.38 28.75L1377.48 36.85L1373.43 40.9ZM1361.28 0.399998H1401.78V4.45H1361.28V0.399998ZM1365.33 40.9L1369.38 44.95L1365.33 49L1361.28 44.95L1365.33 40.9ZM1365.33 8.5L1369.38 12.55L1365.33 16.6L1361.28 12.55L1365.33 8.5ZM1397.73 40.9L1401.78 44.95L1397.73 49L1393.68 44.95L1397.73 40.9ZM1397.73 8.5L1401.78 12.55L1397.73 16.6L1393.68 12.55L1397.73 8.5ZM1377.48 20.65L1381.53 24.7L1385.58 20.65L1381.53 16.6L1377.48 20.65ZM1413.91 8.5L1434.16 28.75L1413.91 49L1393.66 28.75L1413.91 8.5ZM1401.76 28.75L1413.91 40.9L1426.06 28.75L1413.91 16.6L1401.76 28.75ZM1430.11 40.9L1434.16 44.95L1430.11 49L1426.06 44.95L1430.11 40.9ZM1397.71 8.5L1401.76 12.55L1397.71 16.6L1393.66 12.55L1397.71 8.5ZM1397.71 40.9L1401.76 44.95L1397.71 49L1393.66 44.95L1397.71 40.9ZM1413.91 24.7L1417.96 28.75L1413.91 32.8L1409.86 28.75L1413.91 24.7ZM1430.11 8.5L1434.16 12.55L1430.11 16.6L1426.06 12.55L1430.11 8.5ZM1393.66 0.399998H1434.16V4.45H1393.66V0.399998ZM1393.66 53.05H1434.16V57.1H1393.66V53.05ZM1438.3 16.6L1446.4 24.7L1450.45 20.65L1442.35 12.55L1446.4 8.5L1458.55 20.65L1450.45 28.75L1458.55 36.85L1446.4 49L1434.25 36.85L1442.35 28.75L1434.25 20.65L1438.3 16.6ZM1442.35 36.85L1446.4 40.9L1450.45 36.85L1446.4 32.8L1442.35 36.85ZM1462.6 24.7L1466.65 28.75L1462.6 32.8L1458.55 28.75L1462.6 24.7ZM1430.2 24.7L1434.25 28.75L1430.2 32.8L1426.15 28.75L1430.2 24.7ZM1430.2 40.9L1434.25 44.95L1430.2 49L1426.15 44.95L1430.2 40.9ZM1430.2 8.5L1434.25 12.55L1430.2 16.6L1426.15 12.55L1430.2 8.5ZM1462.6 40.9L1466.65 44.95L1462.6 49L1458.55 44.95L1462.6 40.9ZM1462.6 8.5L1466.65 12.55L1462.6 16.6L1458.55 12.55L1462.6 8.5ZM1426.15 0.399998H1466.65V4.45H1426.15V0.399998ZM1426.15 53.05H1466.65V57.1H1426.15V53.05ZM1478.78 40.9L1482.83 36.85L1466.63 20.65L1478.78 8.5L1490.93 20.65L1482.83 28.75L1490.93 36.85L1478.78 49L1466.63 36.85L1470.68 32.8L1478.78 40.9ZM1474.73 20.65L1478.78 24.7L1482.83 20.65L1478.78 16.6L1474.73 20.65ZM1494.98 24.7L1499.03 28.75L1494.98 32.8L1490.93 28.75L1494.98 24.7ZM1462.58 24.7L1466.63 28.75L1462.58 32.8L1458.53 28.75L1462.58 24.7ZM1462.58 40.9L1466.63 44.95L1462.58 49L1458.53 44.95L1462.58 40.9ZM1462.58 8.5L1466.63 12.55L1462.58 16.6L1458.53 12.55L1462.58 8.5ZM1494.98 40.9L1499.03 44.95L1494.98 49L1490.93 44.95L1494.98 40.9ZM1494.98 8.5L1499.03 12.55L1494.98 16.6L1490.93 12.55L1494.98 8.5ZM1458.53 0.399998H1499.03V4.45H1458.53V0.399998ZM1458.53 53.05H1499.03V57.1H1458.53V53.05ZM1494.96 24.7L1503.06 32.8L1507.11 28.75L1499.01 20.65L1511.16 8.5L1515.21 12.55L1507.11 20.65L1511.16 24.7L1519.26 16.6L1531.41 28.75L1527.36 32.8L1519.26 24.7L1515.21 28.75L1523.31 36.85L1519.26 40.9L1511.16 32.8L1507.11 36.85L1515.21 44.95L1511.16 49L1490.91 28.75L1494.96 24.7ZM1527.36 8.5L1531.41 12.55L1527.36 16.6L1523.31 12.55L1527.36 8.5ZM1527.36 40.9L1531.41 44.95L1527.36 49L1523.31 44.95L1527.36 40.9ZM1494.96 8.5L1499.01 12.55L1494.96 16.6L1490.91 12.55L1494.96 8.5ZM1494.96 40.9L1499.01 44.95L1494.96 49L1490.91 44.95L1494.96 40.9ZM1490.91 0.399998H1531.41V4.45H1490.91V0.399998ZM1490.91 53.05H1531.41V57.1H1490.91V53.05ZM1551.63 16.6L1563.78 28.75L1559.73 32.8L1551.63 24.7L1535.43 40.9L1523.28 28.75L1527.33 24.7L1535.43 32.8L1551.63 16.6ZM1543.53 8.5L1547.58 12.55L1535.43 24.7L1531.38 20.65L1543.53 8.5ZM1551.63 32.8L1555.68 36.85L1543.53 49L1539.48 44.95L1551.63 32.8ZM1527.33 8.5L1531.38 12.55L1527.33 16.6L1523.28 12.55L1527.33 8.5ZM1527.33 40.9L1531.38 44.95L1527.33 49L1523.28 44.95L1527.33 40.9ZM1559.73 40.9L1563.78 44.95L1559.73 49L1555.68 44.95L1559.73 40.9ZM1559.73 8.5L1563.78 12.55L1559.73 16.6L1555.68 12.55L1559.73 8.5ZM1523.28 0.399998H1563.78V4.45H1523.28V0.399998ZM1523.28 53.05H1563.78V57.1H1523.28V53.05ZM1579.96 28.75L1596.16 44.95L1592.11 49L1584.01 40.9L1575.91 49L1567.81 40.9L1559.71 49L1555.66 44.95L1571.86 28.75L1555.66 12.55L1559.71 8.5L1567.81 16.6L1575.91 8.5L1584.01 16.6L1592.11 8.5L1596.16 12.55L1579.96 28.75ZM1555.66 0.399998H1596.16V4.45H1555.66V0.399998ZM1555.66 53.05H1596.16V57.1H1555.66V53.05ZM1559.71 24.7L1563.76 28.75L1559.71 32.8L1555.66 28.75L1559.71 24.7ZM1575.91 40.9L1579.96 36.85L1575.91 32.8L1571.86 36.85L1575.91 40.9ZM1575.91 16.6L1571.86 20.65L1575.91 24.7L1579.96 20.65L1575.91 16.6ZM1592.11 24.7L1596.16 28.75L1592.11 32.8L1588.06 28.75L1592.11 24.7ZM1608.29 8.5L1628.54 28.75L1608.29 49L1596.14 36.85L1608.29 24.7L1612.34 28.75L1604.24 36.85L1608.29 40.9L1620.44 28.75L1608.29 16.6L1592.09 32.8L1588.04 28.75L1608.29 8.5ZM1624.49 8.5L1628.54 12.55L1624.49 16.6L1620.44 12.55L1624.49 8.5ZM1624.49 40.9L1628.54 44.95L1624.49 49L1620.44 44.95L1624.49 40.9ZM1592.09 8.5L1596.14 12.55L1592.09 16.6L1588.04 12.55L1592.09 8.5ZM1592.09 40.9L1596.14 44.95L1592.09 49L1588.04 44.95L1592.09 40.9ZM1588.04 0.399998H1628.54V4.45H1588.04V0.399998ZM1588.04 53.05H1628.54V57.1H1588.04V53.05ZM1640.67 8.5L1644.72 12.55L1636.62 20.65L1644.72 28.75L1636.62 36.85L1644.72 44.95L1640.67 49L1620.42 28.75L1640.67 8.5ZM1620.42 0.399998H1644.72V4.45H1620.42V0.399998ZM1620.42 53.05H1644.72V57.1H1620.42V53.05ZM1624.47 8.5L1628.52 12.55L1624.47 16.6L1620.42 12.55L1624.47 8.5ZM1628.52 28.75L1632.57 32.8L1636.62 28.75L1632.57 24.7L1628.52 28.75ZM1624.47 40.9L1628.52 44.95L1624.47 49L1620.42 44.95L1624.47 40.9ZM1656.86 40.9L1660.91 36.85L1644.71 20.65L1656.86 8.5L1669.01 20.65L1660.91 28.75L1669.01 36.85L1656.86 49L1644.71 36.85L1648.76 32.8L1656.86 40.9ZM1652.81 20.65L1656.86 24.7L1660.91 20.65L1656.86 16.6L1652.81 20.65ZM1673.06 24.7L1677.11 28.75L1673.06 32.8L1669.01 28.75L1673.06 24.7ZM1640.66 24.7L1644.71 28.75L1640.66 32.8L1636.61 28.75L1640.66 24.7ZM1640.66 40.9L1644.71 44.95L1640.66 49L1636.61 44.95L1640.66 40.9ZM1640.66 8.5L1644.71 12.55L1640.66 16.6L1636.61 12.55L1640.66 8.5ZM1673.06 40.9L1677.11 44.95L1673.06 49L1669.01 44.95L1673.06 40.9ZM1673.06 8.5L1677.11 12.55L1673.06 16.6L1669.01 12.55L1673.06 8.5ZM1636.61 0.399998H1677.11V4.45H1636.61V0.399998ZM1636.61 53.05H1677.11V57.1H1636.61V53.05ZM1693.29 28.75L1709.49 44.95L1705.44 49L1697.34 40.9L1689.24 49L1681.14 40.9L1673.04 49L1668.99 44.95L1685.19 28.75L1668.99 12.55L1673.04 8.5L1681.14 16.6L1689.24 8.5L1697.34 16.6L1705.44 8.5L1709.49 12.55L1693.29 28.75ZM1668.99 0.399998H1709.49V4.45H1668.99V0.399998ZM1668.99 53.05H1709.49V57.1H1668.99V53.05ZM1673.04 24.7L1677.09 28.75L1673.04 32.8L1668.99 28.75L1673.04 24.7ZM1689.24 40.9L1693.29 36.85L1689.24 32.8L1685.19 36.85L1689.24 40.9ZM1689.24 16.6L1685.19 20.65L1689.24 24.7L1693.29 20.65L1689.24 16.6ZM1705.44 24.7L1709.49 28.75L1705.44 32.8L1701.39 28.75L1705.44 24.7ZM1701.37 53.05H1741.87V57.1H1701.37V53.05ZM1721.62 40.9L1725.67 44.95L1721.62 49L1717.57 44.95L1721.62 40.9ZM1713.52 40.9L1701.37 28.75L1721.62 8.5L1741.87 28.75L1729.72 40.9L1725.67 36.85L1733.77 28.75L1729.72 24.7L1721.62 32.8L1713.52 24.7L1709.47 28.75L1717.57 36.85L1713.52 40.9ZM1701.37 0.399998H1741.87V4.45H1701.37V0.399998ZM1705.42 40.9L1709.47 44.95L1705.42 49L1701.37 44.95L1705.42 40.9ZM1705.42 8.5L1709.47 12.55L1705.42 16.6L1701.37 12.55L1705.42 8.5ZM1737.82 40.9L1741.87 44.95L1737.82 49L1733.77 44.95L1737.82 40.9ZM1737.82 8.5L1741.87 12.55L1737.82 16.6L1733.77 12.55L1737.82 8.5ZM1717.57 20.65L1721.62 24.7L1725.67 20.65L1721.62 16.6L1717.57 20.65ZM1754 8.5L1774.25 28.75L1754 49L1733.75 28.75L1754 8.5ZM1741.85 28.75L1754 40.9L1766.15 28.75L1754 16.6L1741.85 28.75ZM1770.2 40.9L1774.25 44.95L1770.2 49L1766.15 44.95L1770.2 40.9ZM1737.8 8.5L1741.85 12.55L1737.8 16.6L1733.75 12.55L1737.8 8.5ZM1737.8 40.9L1741.85 44.95L1737.8 49L1733.75 44.95L1737.8 40.9ZM1754 24.7L1758.05 28.75L1754 32.8L1749.95 28.75L1754 24.7ZM1770.2 8.5L1774.25 12.55L1770.2 16.6L1766.15 12.55L1770.2 8.5ZM1733.75 0.399998H1774.25V4.45H1733.75V0.399998ZM1733.75 53.05H1774.25V57.1H1733.75V53.05ZM1778.38 16.6L1786.48 24.7L1790.53 20.65L1782.43 12.55L1786.48 8.5L1798.63 20.65L1790.53 28.75L1798.63 36.85L1786.48 49L1774.33 36.85L1782.43 28.75L1774.33 20.65L1778.38 16.6ZM1782.43 36.85L1786.48 40.9L1790.53 36.85L1786.48 32.8L1782.43 36.85ZM1802.68 24.7L1806.73 28.75L1802.68 32.8L1798.63 28.75L1802.68 24.7ZM1770.28 24.7L1774.33 28.75L1770.28 32.8L1766.23 28.75L1770.28 24.7ZM1770.28 40.9L1774.33 44.95L1770.28 49L1766.23 44.95L1770.28 40.9ZM1770.28 8.5L1774.33 12.55L1770.28 16.6L1766.23 12.55L1770.28 8.5ZM1802.68 40.9L1806.73 44.95L1802.68 49L1798.63 44.95L1802.68 40.9ZM1802.68 8.5L1806.73 12.55L1802.68 16.6L1798.63 12.55L1802.68 8.5ZM1766.23 0.399998H1806.73V4.45H1766.23V0.399998ZM1766.23 53.05H1806.73V57.1H1766.23V53.05ZM1818.86 40.9L1822.91 36.85L1806.71 20.65L1818.86 8.5L1831.01 20.65L1822.91 28.75L1831.01 36.85L1818.86 49L1806.71 36.85L1810.76 32.8L1818.86 40.9ZM1814.81 20.65L1818.86 24.7L1822.91 20.65L1818.86 16.6L1814.81 20.65ZM1835.06 24.7L1839.11 28.75L1835.06 32.8L1831.01 28.75L1835.06 24.7ZM1802.66 24.7L1806.71 28.75L1802.66 32.8L1798.61 28.75L1802.66 24.7ZM1802.66 40.9L1806.71 44.95L1802.66 49L1798.61 44.95L1802.66 40.9ZM1802.66 8.5L1806.71 12.55L1802.66 16.6L1798.61 12.55L1802.66 8.5ZM1835.06 40.9L1839.11 44.95L1835.06 49L1831.01 44.95L1835.06 40.9ZM1835.06 8.5L1839.11 12.55L1835.06 16.6L1831.01 12.55L1835.06 8.5ZM1798.61 0.399998H1839.11V4.45H1798.61V0.399998ZM1798.61 53.05H1839.11V57.1H1798.61V53.05ZM1835.04 24.7L1843.14 32.8L1847.19 28.75L1839.09 20.65L1851.24 8.5L1855.29 12.55L1847.19 20.65L1851.24 24.7L1859.34 16.6L1871.49 28.75L1867.44 32.8L1859.34 24.7L1855.29 28.75L1863.39 36.85L1859.34 40.9L1851.24 32.8L1847.19 36.85L1855.29 44.95L1851.24 49L1830.99 28.75L1835.04 24.7ZM1867.44 8.5L1871.49 12.55L1867.44 16.6L1863.39 12.55L1867.44 8.5ZM1867.44 40.9L1871.49 44.95L1867.44 49L1863.39 44.95L1867.44 40.9ZM1835.04 8.5L1839.09 12.55L1835.04 16.6L1830.99 12.55L1835.04 8.5ZM1835.04 40.9L1839.09 44.95L1835.04 49L1830.99 44.95L1835.04 40.9ZM1830.99 0.399998H1871.49V4.45H1830.99V0.399998ZM1830.99 53.05H1871.49V57.1H1830.99V53.05ZM1891.72 16.6L1903.87 28.75L1899.82 32.8L1891.72 24.7L1875.52 40.9L1863.37 28.75L1867.42 24.7L1875.52 32.8L1891.72 16.6ZM1883.62 8.5L1887.67 12.55L1875.52 24.7L1871.47 20.65L1883.62 8.5ZM1891.72 32.8L1895.77 36.85L1883.62 49L1879.57 44.95L1891.72 32.8ZM1867.42 8.5L1871.47 12.55L1867.42 16.6L1863.37 12.55L1867.42 8.5ZM1867.42 40.9L1871.47 44.95L1867.42 49L1863.37 44.95L1867.42 40.9ZM1899.82 40.9L1903.87 44.95L1899.82 49L1895.77 44.95L1899.82 40.9ZM1899.82 8.5L1903.87 12.55L1899.82 16.6L1895.77 12.55L1899.82 8.5ZM1863.37 0.399998H1903.87V4.45H1863.37V0.399998ZM1863.37 53.05H1903.87V57.1H1863.37V53.05Z" fill="#610000"/>
</svg>
