<svg width="464" height="428" viewBox="0 0 464 428" fill="none" xmlns="http://www.w3.org/2000/svg">
<path d="M458.508 10.7669C454.778 9.90089 451.048 9.03493 447.567 8.16898C435.88 5.5711 423.945 2.97322 412.258 0.375348C408.777 -0.49061 405.793 0.086699 402.809 2.68457C397.09 7.59167 391.371 12.4988 385.652 17.4059C370.733 30.1066 355.814 42.8073 340.895 55.508C340.149 56.0853 338.905 56.6626 338.159 56.374C337.662 56.0853 337.165 54.3534 337.165 53.1988C337.165 48.5804 337.165 43.9619 337.165 39.6321C337.165 34.725 335.922 32.9931 331.694 31.8385C327.467 30.9725 322.992 29.8179 318.764 28.952C307.326 26.3541 295.888 23.4676 284.45 20.8697C281.964 20.2924 279.975 20.8697 277.737 22.6016C259.336 37.3229 240.687 52.0442 222.287 66.7655C220.795 67.9201 219.552 69.0747 218.308 70.2293C218.557 70.518 218.557 70.8066 218.806 71.0953C220.049 70.518 221.541 69.652 222.784 68.7861C223.53 68.4974 224.027 67.3428 224.525 67.3428C227.757 68.2088 229.746 66.1882 231.736 63.879C232.482 63.013 233.725 62.4357 234.72 62.147C238.947 60.9924 243.174 60.1265 247.401 59.2605L242.179 65.0336C240.687 65.0336 239.444 65.3222 238.201 65.8995C235.714 67.0541 234.968 69.9407 235.714 72.2499L228.503 80.3322C227.26 80.3322 226.017 80.0435 224.773 80.3322C223.53 80.3322 222.038 80.3322 221.292 79.4662C218.806 77.157 216.816 78.8889 215.325 80.9095C213.584 83.5074 211.595 82.9301 209.606 82.3527C208.611 82.0641 208.114 80.3322 206.87 78.6003C179.27 100.827 151.421 123.053 123.571 145.568C123.82 145.856 123.82 146.145 124.069 146.434C126.555 145.279 129.29 144.413 131.777 143.258C132.772 142.97 133.518 142.104 134.263 141.527C136.501 139.795 139.237 138.929 140.977 136.619C143.712 133.156 146.448 130.558 150.923 129.692C155.15 128.826 159.129 125.362 162.859 122.475C165.842 120.166 168.578 116.991 172.556 116.125C173.053 116.125 173.799 115.548 174.048 114.971C175.789 111.218 179.27 110.352 182.005 108.331C185.237 106.311 188.967 104.579 190.459 99.9606C190.956 98.5173 191.951 97.94 193.692 98.2286C194.686 98.5173 196.427 98.2286 197.173 97.3627C199.659 95.3421 201.649 92.7442 204.384 91.0123C207.616 88.7031 211.097 84.662 215.076 88.9918C216.071 87.8371 216.816 86.1052 217.811 85.8166C219.303 85.5279 220.795 86.1052 222.784 86.1052C222.038 86.6825 221.541 87.2598 220.795 87.8372C220.049 88.7031 218.806 89.2804 218.308 90.435C217.065 92.4556 216.071 94.7648 214.827 96.4967C213.584 97.94 212.092 99.0946 210.849 100.538C209.357 101.981 207.865 102.558 205.876 100.827C205.876 102.27 205.876 103.424 205.627 104.29C203.389 105.156 201.4 106.022 199.659 106.888C198.665 107.466 197.919 108.909 197.173 110.063C196.676 110.929 196.178 112.084 195.681 112.661C193.692 114.682 191.702 116.125 189.713 118.146C188.221 119.589 186.481 120.455 184.492 119.589C183.248 119.012 181.508 119.3 180.762 120.166C178.772 122.475 177.032 125.073 175.291 127.671C174.297 129.403 173.799 131.424 172.556 132.867C169.324 137.197 165.842 141.238 161.615 144.413C159.129 146.145 156.642 148.166 154.156 150.186C153.907 149.898 153.658 149.609 153.41 149.32C154.156 148.166 154.404 146.434 155.399 145.568C157.637 142.393 160.123 139.506 162.61 136.619C164.599 134.599 166.588 132.578 168.578 130.558C170.567 128.537 172.307 126.228 174.048 123.919C174.297 123.63 174.297 122.764 174.297 122.187C171.81 122.764 169.572 123.053 167.334 123.341H167.086C162.859 124.207 160.123 129.115 155.399 129.115L155.15 129.403C149.431 133.733 143.712 137.774 137.993 141.815C136.253 142.97 134.263 144.124 132.274 145.279C125.312 149.897 118.35 154.516 111.139 159.134C110.641 159.423 109.895 159.712 109.149 160C108.901 159.712 108.901 159.423 108.652 159.134C113.128 155.093 117.604 151.341 122.328 147.3C122.079 147.011 122.079 146.722 121.831 146.434C109.398 155.959 96.9654 165.773 84.5327 175.299C84.7814 175.588 85.0301 176.165 85.0301 176.454C86.7706 175.299 88.5112 174.433 90.5004 172.99C90.2518 173.856 90.2518 174.144 90.2518 174.144C84.5328 179.051 78.8137 183.67 72.846 188.288C72.3487 188.577 71.6028 188.288 71.1055 188.288C73.8406 186.268 76.5758 184.536 78.3164 181.649C78.0677 181.361 77.8191 181.072 77.5704 180.783C73.3433 184.247 69.1162 187.711 64.8891 191.175C65.1378 191.464 65.1378 191.752 65.3864 192.041C67.127 191.175 68.8676 190.309 71.1055 189.443C67.3756 194.35 62.4026 197.814 59.6674 197.814C58.6728 201.278 44.7482 212.824 41.0184 212.824C42.013 211.669 42.7589 211.092 43.5049 210.515C44.0022 209.937 44.4995 209.071 44.9968 208.205C44.7482 208.205 44.7482 207.917 44.4995 207.917C37.7859 213.112 31.0722 218.308 23.8613 224.081C25.3532 224.37 26.3478 224.37 27.0938 224.659C29.8289 225.525 32.5641 226.39 35.2993 226.968C36.0453 227.256 36.7913 226.679 37.5372 226.39C39.0291 225.525 40.5211 224.37 42.2616 223.504C42.5103 223.793 42.7589 223.793 43.0076 224.081C42.5103 224.947 42.2616 226.102 41.5157 226.679C40.5211 227.256 39.5264 227.256 38.2832 227.256C38.2832 227.545 38.2832 227.834 38.2832 228.122C40.5211 228.7 42.7589 229.277 44.9968 229.854C44.9968 229.566 44.9968 229.277 45.2455 229.277C44.4995 228.988 43.7536 228.7 42.7589 228.411C43.7536 226.39 44.2509 224.659 45.9914 223.215C48.478 221.483 51.9591 220.04 52.4564 215.71C52.4564 215.133 53.451 214.556 53.9483 214.556C57.6782 213.69 60.1647 210.803 62.1539 207.339C60.9107 207.917 59.6674 208.494 57.9268 209.071C58.1755 207.917 58.1755 206.473 58.6728 206.185C60.9107 204.164 63.3972 202.144 65.8837 200.412C67.3756 199.257 68.8676 198.103 70.3595 197.237C72.1001 196.082 73.8406 194.639 75.8299 193.484C75.8299 195.216 72.846 196.371 75.5812 198.68C76.5758 196.659 77.3218 195.216 78.0677 193.484C81.5489 192.329 85.2787 191.175 89.2572 189.732C87.5166 188.577 87.2679 187.422 89.0085 186.268C90.0031 185.402 90.7491 184.247 91.7437 183.381C91.4951 183.093 90.9977 182.804 90.2518 182.227C91.7437 181.072 92.987 180.495 94.2302 182.227C95.7222 184.247 96.9654 183.959 98.2087 181.361C98.4574 180.783 98.706 179.917 99.2033 179.34C100.198 178.474 101.193 177.897 102.436 177.32C102.436 178.474 102.187 179.629 102.187 181.361C103.182 181.072 104.425 180.783 105.917 180.495C105.171 185.113 99.7006 185.402 98.9547 190.309C98.2087 190.309 97.4627 190.02 96.2195 190.02C96.2195 191.752 96.2195 193.195 96.2195 195.216C92.987 193.773 90.9977 195.793 89.5058 198.68C90.7491 198.103 91.7437 197.525 92.987 196.948C93.2356 197.237 93.2356 197.525 93.4843 197.814C88.7599 201.566 84.0354 205.319 79.0624 209.36C79.0624 207.628 78.8137 206.762 78.8137 205.319C77.8191 206.762 77.0731 208.783 76.3272 208.783C73.0947 208.783 71.3541 211.669 69.1162 213.69C66.8783 215.71 64.8891 217.731 62.8999 219.751C62.6512 220.04 62.6512 220.329 62.6512 220.617C63.1485 220.906 63.6458 221.195 64.3918 222.061C61.9053 224.081 59.916 226.39 57.6782 227.834C55.4403 229.277 52.9537 230.143 50.7159 231.009C50.7159 231.298 50.9645 231.586 50.9645 231.586C53.2024 232.452 55.1916 233.318 56.9322 233.895C57.9268 232.741 58.4241 231.586 59.1701 231.009C67.6243 223.793 75.8299 216.576 84.2841 209.36C90.2518 204.453 96.4681 199.546 102.436 194.35C105.42 191.752 108.403 189.443 111.139 186.845C112.133 185.979 113.128 185.113 114.123 184.247C114.371 184.536 114.62 184.824 114.868 185.113C114.371 185.979 113.874 187.134 113.128 187.711C110.89 189.732 108.652 191.464 106.663 193.484C105.171 194.927 104.176 196.948 102.684 198.68C101.441 200.123 100.198 200.989 98.706 202.144C98.706 202.432 98.9547 202.432 98.9547 202.721C99.7006 202.721 100.198 202.721 101.441 202.432C95.7222 207.051 90.7491 211.381 85.5274 215.71C85.2787 214.844 85.0301 214.267 84.7814 213.401C82.2949 216.865 77.8191 217.442 77.0731 222.927C76.8245 224.081 75.3326 224.947 74.0893 225.813C71.3541 227.834 69.3649 231.586 65.6351 231.298C65.3864 231.298 65.1378 232.452 64.8891 233.03C63.8945 233.607 63.1485 233.895 62.1539 234.473C62.1539 234.761 62.1539 235.339 62.4026 235.627C64.1432 235.916 66.1324 236.493 67.873 236.782C69.8622 237.937 71.8514 239.091 74.338 239.38C78.3164 239.957 82.0462 241.4 85.776 243.132C87.0193 243.71 88.5112 246.019 88.7599 247.751C89.0085 251.215 89.0085 254.967 89.0085 258.72C87.2679 259.874 85.776 261.317 84.0354 262.472C83.2895 261.606 82.7922 260.74 82.7922 260.74C82.7922 260.74 85.0301 261.029 85.2787 260.452C85.5274 259.874 88.5112 248.617 82.2949 244.864C75.8299 241.112 24.1099 226.39 24.1099 226.39C24.1099 226.39 20.6288 288.74 22.3693 291.915C22.8666 293.069 29.8289 296.822 39.0291 301.729C38.5318 302.018 38.0345 302.018 37.5372 302.018C37.2886 304.615 23.1153 315.873 19.6342 316.162C20.6288 315.007 21.3747 314.43 22.1207 313.852C22.618 313.275 23.1153 312.409 23.6126 311.543C23.364 311.543 23.364 311.254 23.1153 311.254C16.4017 316.45 9.68801 321.646 2.47705 327.419C3.96897 327.708 4.96359 327.708 5.70955 327.996C8.44474 328.862 11.1799 329.728 13.9151 330.305C14.6611 330.594 15.407 330.017 16.153 329.728C17.6449 328.862 19.1368 327.708 20.8774 326.842C21.1261 327.13 21.3747 327.13 21.6234 327.419C21.1261 328.285 20.8774 329.44 20.1315 330.017C19.3855 330.594 18.1422 330.594 17.1476 330.594C17.1476 330.883 17.1476 331.171 17.1476 331.46C19.3855 332.037 21.6234 332.615 23.8613 333.192C23.8613 332.903 23.8613 332.615 24.1099 332.615C23.364 332.326 22.618 332.037 21.6234 331.749C22.618 329.728 23.1153 327.996 24.8559 326.553C27.3424 324.821 30.8236 323.378 31.3209 319.048C31.3209 318.471 32.3155 317.893 32.8128 317.893C36.5426 317.027 39.0291 314.141 41.0184 310.677C39.7751 311.254 38.5318 311.832 36.7912 312.409C37.0399 311.254 37.0399 309.811 37.5372 309.522C39.5264 307.791 41.7643 306.059 43.7536 304.327C47.732 306.347 51.9591 308.368 56.1862 310.388C55.6889 311.254 55.1916 311.832 54.6943 311.832C51.4618 311.832 49.7212 314.718 47.4834 316.739C45.2455 318.759 43.2562 320.78 41.267 322.801C41.0184 323.089 41.0184 323.378 41.0184 323.666C41.5157 323.955 42.013 324.244 42.7589 325.11C40.2724 327.13 38.2832 329.44 36.0453 330.883C33.8074 332.326 31.3209 333.192 29.083 334.058C29.083 334.347 29.3316 334.635 29.3316 334.635C31.5695 335.501 33.5588 336.367 35.2993 336.945C36.2939 335.79 36.7913 334.635 37.5372 334.058C45.7428 327.13 53.6997 320.203 61.9053 313.275C63.8945 314.141 65.8837 315.007 67.873 315.873C66.6297 317.027 65.3864 317.893 64.3918 319.048C64.1432 318.182 63.8945 317.605 63.6458 316.739C61.1593 320.203 56.6835 320.78 55.9376 326.264C55.6889 327.419 54.197 328.285 52.9537 329.151C50.2185 331.171 48.2293 334.924 44.4995 334.635C44.2509 334.635 44.0022 335.79 43.7536 336.367C42.7589 336.945 42.013 337.233 41.0184 337.81C41.0184 338.099 41.0184 338.676 41.267 338.965C43.0076 339.254 44.9968 339.831 46.7374 340.12C48.7266 341.274 50.7159 342.429 53.2024 342.718C57.1808 343.295 60.9107 344.738 64.6405 346.47C65.8837 347.047 67.3756 349.357 67.6243 351.088C68.1216 355.13 67.873 359.459 67.873 364.078C68.1216 364.367 68.6189 364.655 68.8676 364.655C68.3703 365.521 67.873 366.387 67.873 366.964C67.873 371.583 67.6243 376.201 67.873 380.82C67.873 385.438 68.3703 390.345 68.6189 394.964C68.6189 395.83 68.3703 396.984 68.3703 397.85C68.3703 401.603 68.8676 405.644 68.6189 409.396C68.3703 411.706 68.6189 413.438 70.1108 414.592C68.8676 417.19 67.3756 419.499 69.3649 422.674C69.6135 422.963 69.1162 424.118 68.8676 424.695C68.6189 425.272 67.873 425.272 67.3756 425.85C67.6243 426.138 67.8729 426.716 68.3703 427.004C90.0031 407.953 111.387 388.902 133.518 369.274C133.766 377.645 133.02 385.15 136.004 393.232C137.496 394.098 139.983 395.83 142.469 396.696C148.188 398.716 153.907 400.159 159.377 401.891C163.107 403.046 166.588 405.067 170.816 404.489C171.313 404.489 171.81 405.067 172.307 405.644C174.297 407.376 177.032 406.798 177.778 403.912C178.027 404.201 178.524 404.489 178.772 404.778C179.021 407.664 180.513 408.53 182.751 408.819C183.248 408.819 183.746 409.108 184.492 409.108C188.719 410.262 192.697 411.706 196.924 412.86C198.665 413.438 200.157 412.86 200.405 410.262C200.405 409.685 200.903 409.108 201.4 408.242L201.649 408.53C201.649 409.685 201.4 410.84 201.151 412.572C202.395 411.417 203.141 411.128 203.638 410.551C207.616 406.51 211.843 402.757 215.822 398.716C231.487 383.706 247.401 368.696 263.066 353.686C275.747 341.563 288.18 329.151 300.861 317.027C326.224 292.781 351.587 268.534 376.701 244.287C395.847 225.813 414.496 207.339 433.642 189.154C438.367 184.824 440.356 179.917 440.356 172.99C440.605 155.959 441.599 139.217 442.345 122.187C442.594 116.991 441.599 115.259 437.124 114.105C434.14 113.239 431.405 112.661 428.421 112.084C437.372 103.424 446.324 94.7648 455.275 86.1052C460 81.7754 461.989 76.8683 461.989 69.9407C462.238 52.9102 463.232 36.1683 463.978 19.1378C463.729 13.3647 462.984 11.9215 458.508 10.7669ZM108.404 178.185C108.155 178.185 106.663 176.454 106.166 175.588C109.149 173.856 111.387 172.701 113.625 171.258C113.874 171.546 114.123 171.835 114.123 172.124C112.382 174.433 110.641 176.454 108.404 178.185ZM114.868 211.381C116.609 210.226 118.101 209.071 119.593 207.917C119.344 208.783 119.344 209.36 118.847 210.226C118.101 211.958 117.106 213.112 114.868 211.381ZM119.842 207.917C121.085 206.473 122.328 205.319 123.82 203.587C123.82 206.762 122.825 207.628 119.842 207.917ZM128.793 200.412C130.782 197.237 133.518 195.505 136.004 193.195C135.258 194.35 134.761 195.793 133.766 196.659C132.523 198.103 130.782 199.546 128.793 200.412ZM136.253 192.907C137.745 191.464 139.485 190.309 141.226 188.577C140.977 191.464 138.988 193.195 136.253 192.907ZM242.925 77.4456C245.163 78.0229 247.401 78.3116 249.639 78.023C248.395 78.8889 246.904 80.0435 245.66 81.1981C238.449 84.662 231.736 89.2804 225.519 95.0535C224.525 90.435 228.006 89.2804 229.498 86.6825C230.244 85.5279 231.238 84.3733 232.233 83.5074C234.968 82.3528 238.449 80.6208 242.925 77.4456ZM187.973 307.502C187.724 308.079 187.475 308.945 186.978 309.234C186.232 310.1 185.486 310.966 184.492 311.832C184.243 312.12 183.497 312.12 183 312.409C183 311.832 183 310.966 183.248 310.677C184.492 309.522 185.735 308.368 186.978 307.213C187.475 307.213 187.724 307.213 187.973 307.502ZM181.508 302.306C181.259 302.018 181.259 301.729 181.01 301.44C181.508 300.863 182.005 299.997 182.502 299.131C183 299.42 183.746 299.708 184.243 299.708C183.248 300.863 182.502 301.729 181.508 302.306ZM158.383 223.215C156.891 221.195 155.399 219.174 153.907 217.154C157.14 216.865 159.377 219.463 158.88 222.927C158.632 222.927 158.383 222.927 158.383 223.215ZM88.0139 301.729C88.5112 301.44 89.0085 301.152 89.5058 300.863C89.5058 301.44 89.5058 302.018 89.5058 302.595C88.5112 303.749 87.5166 304.904 86.522 306.059C86.522 304.904 86.522 304.038 86.522 302.595C87.0193 302.306 87.5166 302.018 88.0139 301.729ZM98.4574 280.946C97.7114 282.389 96.7168 283.544 95.9708 285.276C95.7222 285.276 95.2249 285.276 94.7276 284.987C94.9762 284.41 95.2249 284.121 95.4735 283.832C96.4681 282.966 97.4627 282.1 98.4574 280.946ZM95.7222 302.018C96.7168 301.44 97.7114 300.863 98.706 300.286C97.4627 301.44 96.2195 302.595 94.9762 304.038C94.7275 303.749 94.4789 303.461 94.2302 303.172C94.9762 302.595 95.4735 302.306 95.7222 302.018ZM102.684 277.193C102.684 277.771 102.684 278.637 102.436 279.214C101.69 280.369 100.695 280.657 99.7006 279.791C100.447 279.214 101.441 278.348 102.684 277.193C102.436 277.482 102.436 277.193 102.684 277.193ZM92.241 286.719C92.4897 287.008 92.7383 287.296 92.987 287.585C92.987 287.874 92.7383 287.874 92.7383 288.162C92.241 288.451 91.495 288.451 90.7491 288.451C90.7491 288.451 90.7491 288.162 90.5004 288.162C91.2464 287.585 91.7437 287.296 92.241 286.719ZM232.979 95.6308C233.974 93.8989 235.217 92.1669 236.709 90.7237C235.714 92.4556 234.72 94.1875 233.974 95.9194C233.725 95.9194 233.476 95.9194 232.979 95.6308ZM256.352 69.3634C256.104 68.7861 255.606 68.2088 255.358 67.9201C255.855 67.6315 256.104 67.3428 256.601 66.7655C257.098 67.9201 257.347 69.0747 257.844 70.2293C257.596 70.2293 257.347 70.518 257.098 70.518C256.601 70.518 256.601 69.9407 256.352 69.3634ZM258.59 67.3428C258.342 66.7655 257.844 66.4768 257.596 65.8995C258.093 65.3222 258.839 64.7449 259.336 64.1676C260.331 66.1882 261.077 67.9201 261.077 69.9407C260.331 70.518 259.834 71.0953 259.088 71.6726C259.585 69.9407 259.585 68.7861 258.59 67.3428ZM262.569 68.4974C261.574 66.7655 261.077 65.0336 262.32 62.147C263.066 63.879 263.812 65.0336 264.558 66.4768C264.061 67.3428 263.315 67.9201 262.569 68.4974ZM266.05 62.4357C265.553 62.1471 265.304 61.5698 264.807 60.9924C265.304 60.7038 265.801 60.1265 266.299 60.1265C266.547 60.1265 267.045 60.7038 267.79 61.2811C266.796 62.1471 266.299 62.7244 266.05 62.4357ZM210.103 192.329C207.865 194.061 205.627 195.793 203.638 197.814C205.378 194.927 206.87 192.329 210.103 192.329ZM231.238 191.752C232.482 190.886 233.476 190.02 234.471 188.866C234.72 188.288 235.714 188.288 236.46 188.288C235.714 190.309 233.476 192.041 231.238 191.752ZM219.552 196.371C219.303 196.082 219.303 195.793 219.054 195.505C220.049 194.927 220.795 194.061 221.79 193.484C222.038 193.773 222.038 194.061 222.287 194.35C221.541 194.927 220.546 195.505 219.552 196.371ZM229.001 182.804C228.255 182.515 227.757 182.227 226.514 181.649C226.763 181.361 227.011 181.072 227.509 180.783C230.492 180.495 233.228 179.34 235.466 176.742C235.714 177.031 235.714 177.031 235.963 177.32C233.476 179.051 231.238 180.495 228.752 182.227C229.001 182.227 229.001 182.515 229.001 182.804ZM235.963 173.278C235.714 173.278 235.465 173.567 235.217 173.567C235.465 173.278 235.714 173.278 235.963 173.278C235.963 172.99 235.963 172.99 235.963 173.278ZM194.935 216.576C193.194 218.886 191.205 221.195 189.216 223.504C189.216 222.927 189.216 222.349 188.967 221.772C188.967 221.483 189.216 220.617 189.713 220.329C191.454 218.886 193.194 217.442 195.184 215.999C195.184 216.288 195.184 216.576 194.935 216.576ZM193.194 214.844C190.459 218.02 187.724 221.483 185.237 224.37C184.989 224.081 184.989 224.081 184.74 223.793C187.475 220.329 189.216 216.576 193.194 214.844ZM241.682 176.165C241.185 177.031 240.936 177.608 240.439 178.474C239.693 179.051 238.947 179.917 238.201 180.495C235.714 181.649 233.725 183.093 231.984 185.113C230.99 185.69 230.244 185.979 229.746 185.979C233.228 181.938 236.709 178.763 240.439 175.588C240.936 175.876 241.433 175.876 241.682 176.165ZM88.7599 276.039C88.7599 276.327 88.7599 276.616 88.7599 277.193C88.7599 277.771 88.7599 278.348 88.7599 278.925C88.0139 279.503 87.2679 280.369 86.522 280.946C86.522 280.946 86.2733 280.657 86.0247 280.369C86.0247 279.503 86.0247 278.348 85.776 277.482C87.0193 277.193 88.0139 276.616 88.7599 276.039ZM89.2572 289.317C89.5058 289.894 89.5058 290.76 89.5058 291.337C89.5058 291.626 89.5058 291.626 89.5058 291.915C88.5112 292.781 87.5166 293.647 86.522 294.513C86.522 293.647 86.522 292.781 86.522 291.915C87.5166 291.049 88.2626 290.183 89.2572 289.317ZM86.0247 312.698C86.2733 312.12 86.2733 311.254 86.522 310.1C87.5166 309.234 88.5112 308.657 89.5058 307.791C89.5058 309.234 90.0031 310.388 91.2464 311.254C89.5058 312.986 87.5166 314.43 85.776 316.162C85.2787 315.296 85.2787 313.852 86.0247 312.698ZM178.027 321.646C179.27 319.914 181.01 318.471 183.248 319.914C183.746 322.223 183 323.378 180.513 323.666C179.767 323.666 179.021 324.244 178.027 324.821C177.778 323.667 177.529 322.223 178.027 321.646ZM183.248 319.914C183 319.337 182.502 319.048 182.502 318.759C184.492 316.739 185.983 314.718 187.973 313.275C188.967 312.409 190.211 312.409 191.702 312.12C191.702 309.234 195.93 305.77 199.908 306.636C197.67 308.368 195.681 310.1 193.94 311.832C193.692 312.12 193.692 312.986 193.443 313.275C192.2 314.43 190.957 315.584 189.465 316.45C188.719 317.027 187.724 317.316 187.227 318.182C186.232 320.491 184.989 320.78 183.248 319.914ZM308.321 126.805C309.813 127.96 309.813 129.403 308.57 130.558C307.575 131.424 306.58 132.578 305.586 133.444C304.591 133.156 303.348 132.867 302.353 132.578C303.845 131.135 305.337 129.98 306.829 128.537C307.078 128.249 307.575 127.383 308.321 126.805ZM215.325 111.795C215.822 111.507 216.568 111.795 217.065 112.084C216.816 112.661 216.816 113.527 216.568 114.105C213.833 117.568 210.849 121.032 207.865 124.785C206.87 124.207 206.373 123.63 205.13 123.053C208.611 119.012 210.6 113.527 215.325 111.795ZM186.232 139.795C187.475 138.063 188.47 135.465 190.957 136.908C189.962 138.351 189.216 139.795 188.47 140.949C187.973 141.815 187.227 142.104 186.481 142.681C186.232 142.681 185.735 142.393 185.735 142.393C185.735 141.527 185.735 140.372 186.232 139.795ZM179.767 145.568C180.762 148.454 174.545 154.227 170.07 154.227C173.302 151.052 176.286 148.454 179.767 145.568ZM153.907 168.083C154.156 168.371 154.404 168.66 154.653 168.66C154.653 169.237 154.653 170.103 154.404 170.392C152.415 171.546 151.918 175.299 148.934 174.722C148.685 174.722 148.188 175.299 147.939 175.588C146.199 177.897 144.707 180.206 142.718 181.938C140.728 183.959 137.993 185.113 135.755 186.556C135.507 186.268 135.507 186.268 135.258 185.979C139.983 178.185 147.691 173.856 153.907 168.083ZM127.301 186.268C126.058 187.422 124.815 188.577 123.571 189.732C122.328 190.598 121.085 191.464 119.344 192.618C119.842 190.309 135.258 176.165 137.993 174.722C139.237 176.165 138.491 177.608 137.247 178.474C134.015 181.072 130.534 183.67 127.301 186.268ZM133.269 166.062C134.761 164.619 136.501 165.485 138.739 167.505C136.253 169.237 134.015 170.392 132.026 172.124C129.788 174.144 127.798 176.454 125.312 179.051L125.063 178.763C122.079 180.783 119.344 182.804 116.36 184.536C116.112 184.536 115.863 184.247 115.863 184.247C116.36 183.093 116.609 181.938 117.106 181.361C122.577 176.165 127.798 170.969 133.269 166.062ZM115.863 165.485C116.112 164.619 116.858 163.464 117.355 162.31C119.842 166.351 119.842 166.351 123.074 166.639C122.328 168.083 119.842 168.949 115.117 168.949C115.117 167.794 115.366 166.639 115.863 165.485ZM117.106 191.752C116.858 193.484 117.106 194.639 116.609 194.927C115.614 195.793 114.371 196.371 113.128 196.948C113.128 196.659 112.879 196.371 112.879 196.082C114.123 194.639 115.366 193.484 117.106 191.752ZM90.9977 214.844C95.7222 210.515 100.695 206.473 105.42 202.144C106.912 200.989 108.155 199.834 109.647 198.68C110.393 198.103 111.139 197.814 111.885 197.525C111.885 197.814 112.133 198.103 112.133 198.103C109.647 200.989 107.409 203.587 104.922 206.473C104.674 206.762 104.176 207.339 103.679 207.339C102.187 207.917 100.944 208.783 99.452 210.226C96.7168 213.112 93.2356 214.844 89.5058 216.576C90.2518 216.288 90.5004 215.422 90.9977 214.844ZM68.6189 234.184C73.0947 230.432 77.8191 226.679 82.2949 222.927C84.0354 221.483 85.5274 219.463 87.5166 218.02C87.2679 221.195 85.2787 222.061 83.5381 223.793C82.0462 225.236 80.5543 227.256 79.0624 228.988C77.3218 230.72 75.5812 231.875 73.592 233.318C71.8514 234.473 69.8622 235.627 67.873 236.782C68.1216 235.627 68.1216 234.473 68.6189 234.184ZM86.522 228.988C86.2733 229.277 85.776 229.277 85.776 229.566C84.5327 233.607 80.8029 234.473 78.5651 237.071C77.0731 238.803 75.3326 238.225 73.592 236.205C80.3056 230.72 87.0193 225.236 93.4843 219.751C99.9493 214.267 106.166 208.205 113.128 203.876C114.371 202.432 115.366 200.7 116.858 199.834C118.598 198.391 120.588 197.814 122.577 196.659C123.074 196.371 123.571 195.793 123.82 195.505C127.053 192.329 130.036 189.443 133.269 186.268C133.518 185.979 134.015 186.268 134.512 186.268C134.512 186.556 134.761 186.845 134.512 187.134C132.523 190.02 130.534 192.907 128.296 195.793C127.798 196.371 127.301 196.659 126.804 196.948C125.809 197.525 124.566 198.103 123.571 198.968C121.085 201.278 118.598 203.587 116.112 205.896C112.879 208.783 109.647 211.958 106.414 214.556C105.171 215.71 103.43 215.999 101.938 216.865C100.695 217.442 99.7006 218.308 98.706 219.174C94.4789 222.638 90.5004 225.813 86.522 228.988ZM88.2626 235.05C88.0139 234.761 87.7653 234.473 87.7653 234.184C89.0085 233.03 90.5004 231.875 91.7437 231.009C91.9924 231.298 92.241 231.586 92.4897 231.875C91.2464 233.029 89.7545 233.895 88.2626 235.05ZM89.0085 260.452C89.2572 260.74 89.7545 260.74 89.7545 261.029C89.5058 261.606 89.0085 262.183 89.0085 262.761C89.0085 262.761 88.7599 262.761 88.7599 263.049C88.2626 263.338 87.5166 263.627 86.7706 263.915C86.522 263.627 86.522 263.338 86.2733 263.049C87.2679 262.183 88.2626 261.317 89.0085 260.452ZM57.1808 311.832C57.1808 311.254 57.1808 310.966 57.1808 310.388C57.6782 310.677 57.9268 310.677 58.4241 310.966C57.6782 311.254 57.4295 311.543 57.1808 311.832ZM72.5974 317.605C71.1054 318.471 69.6135 319.048 68.1216 319.914C68.6189 319.048 68.8676 318.182 69.3649 317.605C69.8622 317.316 70.1108 317.027 70.6081 316.739C71.1055 317.027 71.8514 317.316 72.5974 317.605ZM46.986 336.656C51.4618 332.903 56.1862 329.151 60.662 325.398C62.4026 323.955 63.8945 321.935 65.8837 320.491C65.6351 323.667 63.6458 324.532 61.9053 326.264C60.4133 327.708 58.9214 329.728 57.4295 331.46C55.6889 333.192 53.9483 334.347 51.9591 335.79C50.2185 336.945 48.2293 338.099 46.2401 339.254C46.4887 338.099 46.4887 337.233 46.986 336.656ZM64.6405 331.749C64.3918 332.037 63.8945 332.037 63.8945 332.326C62.6512 336.367 58.9214 337.233 56.6835 339.831C55.1916 341.563 53.451 340.986 51.7105 338.965C58.4241 333.481 65.1378 327.996 71.6028 322.512C73.0947 321.357 74.3379 320.203 75.8299 318.759C76.8245 319.337 78.0677 319.625 78.8137 319.914C78.0677 320.491 77.3218 321.069 76.5758 321.646C72.5974 325.11 68.6189 328.574 64.6405 331.749ZM66.6297 337.81C66.381 337.522 66.1324 337.233 66.1324 336.945C67.3756 335.79 68.8676 334.635 70.1108 333.769C70.3595 334.058 70.6081 334.347 70.8568 334.635C69.3649 335.501 68.1216 336.656 66.6297 337.81ZM69.1162 391.211C68.8676 390.923 68.8676 390.634 68.8676 390.634C69.3649 389.479 69.8622 388.036 70.8568 387.17C72.5974 385.727 74.5866 384.284 76.5758 383.129C76.5758 383.418 76.8245 383.706 76.8245 383.995C76.0785 385.438 75.0839 386.593 74.338 388.325C74.0893 388.325 73.3433 388.036 72.5974 388.036C72.5974 390.634 71.1055 391.211 69.1162 391.211ZM69.6135 417.479C69.3649 417.19 69.3649 416.901 69.1162 416.613C71.6028 414.303 74.0893 411.994 76.5758 409.396C76.8245 409.685 77.0731 409.974 77.0731 410.262C74.5866 412.86 72.1001 415.169 69.6135 417.479ZM73.3433 406.51C73.0947 406.221 72.846 405.933 72.5974 405.644C74.3379 403.912 76.0785 402.469 77.8191 400.737C78.0678 401.025 78.0677 401.025 78.3164 401.314C76.8245 403.335 75.0839 405.067 73.3433 406.51ZM80.5543 381.974C79.5597 383.129 78.5651 383.706 77.3218 381.974C78.5651 381.397 79.5597 380.82 81.0516 379.954C80.8029 380.531 80.8029 381.397 80.5543 381.974ZM136.999 326.553C135.258 324.244 133.766 322.223 132.026 319.625C135.755 319.337 137.993 322.512 136.999 326.553ZM157.637 321.646C159.129 319.914 160.372 318.471 161.864 317.027C163.107 315.873 163.356 312.409 166.588 314.718C164.102 317.316 162.113 319.914 159.626 322.512C159.378 322.512 158.632 322.223 157.637 321.646ZM161.367 324.244C163.605 319.914 169.572 315.873 171.562 317.605C168.826 320.78 166.091 324.244 163.605 327.13C162.859 326.264 162.113 325.11 161.367 324.244ZM166.837 334.058C166.091 333.769 165.594 333.192 164.848 332.615C165.345 329.728 168.578 327.996 167.334 324.532C167.334 324.244 167.583 323.378 168.08 323.089C170.318 321.069 172.556 319.337 174.794 317.605C176.286 319.914 174.545 320.203 173.551 320.78C172.059 321.935 170.816 323.089 171.064 324.244C169.572 327.996 168.329 330.883 166.837 334.058ZM171.81 337.233C170.07 337.81 170.07 337.81 169.821 335.501C169.821 335.213 169.572 334.635 169.075 334.058C170.07 334.347 170.816 334.635 171.064 334.635C172.059 332.326 172.805 330.017 173.799 327.419C173.799 327.419 173.302 326.842 172.805 325.976C173.799 325.11 174.545 324.244 175.291 323.666C177.529 325.687 178.027 329.728 176.286 333.192C175.54 335.213 175.043 338.388 171.81 337.233ZM183 343.584C182.254 343.006 181.756 341.852 181.01 340.986C181.259 340.697 181.259 340.697 181.508 340.408C182.005 340.697 182.502 340.697 182.502 340.697C183.497 336.656 184.243 332.903 185.237 329.151C185.735 329.151 185.983 328.862 186.481 328.862C186.978 330.305 187.973 331.749 187.724 333.192C187.227 336.367 185.983 339.254 184.989 342.14C184.74 342.718 183.497 343.872 183 343.584ZM187.475 343.006C188.719 344.449 188.221 345.604 187.475 347.047C185.983 350.223 185.735 350.511 183.746 350.511C184.243 349.068 184.492 347.625 184.989 345.893C185.237 345.893 185.735 345.893 186.232 345.893C186.232 344.738 184.989 342.718 187.475 343.006C187.227 342.429 186.978 341.563 187.227 340.986C188.221 338.388 189.216 335.501 190.211 332.903C190.459 332.326 190.211 331.46 190.459 330.594C190.708 331.171 191.454 331.749 191.454 332.037C190.956 335.213 190.211 338.676 189.465 341.852C189.465 342.429 188.221 342.718 187.475 343.006ZM190.957 342.14C191.205 342.14 191.454 342.14 191.702 342.14C192.2 340.986 192.697 340.12 193.194 339.254C193.443 338.676 193.94 338.099 194.438 337.233C194.686 338.099 195.184 338.676 195.432 339.542C195.681 339.831 195.681 340.697 195.432 340.986C194.686 342.429 193.94 343.872 193.194 345.027C192.448 344.161 191.702 343.006 190.957 342.14ZM191.454 329.728C192.946 328.574 193.94 326.553 195.681 326.553C195.681 326.842 195.93 327.13 195.93 327.419C194.438 328.574 193.194 329.44 191.702 330.594C191.702 330.306 191.702 330.017 191.454 329.728ZM195.681 349.934C195.184 349.645 194.438 349.068 194.686 349.068C195.681 345.315 196.924 341.852 197.919 338.099C198.167 338.099 198.665 338.388 198.913 338.388C197.67 342.14 196.676 345.893 195.681 349.934ZM200.654 322.801C200.405 322.512 200.157 322.223 200.157 322.223C201.151 321.069 202.395 320.203 203.389 319.048C203.886 319.914 203.389 320.491 200.654 322.801ZM204.135 308.945C204.384 311.254 195.681 319.625 193.194 319.337C192.448 322.801 185.983 327.996 182.751 327.708C184.492 331.749 182.254 335.213 181.259 338.676C181.01 339.831 180.264 340.697 179.518 341.852C176.535 346.47 175.789 346.47 172.556 342.14C174.048 338.676 175.789 342.718 177.778 342.14C177.032 340.697 176.286 339.542 175.043 337.81C176.286 337.522 177.529 336.944 178.524 336.656C177.529 334.635 178.524 328.574 181.01 326.264C184.492 323.089 188.221 319.914 191.951 316.739C195.432 313.852 198.913 311.254 202.395 308.368C203.389 307.502 204.135 306.925 204.881 306.059C205.876 306.347 206.87 306.636 207.865 306.925C206.622 308.079 205.13 308.945 204.135 308.945ZM220.546 311.543C217.562 310.1 216.816 313.852 215.076 315.007C214.579 315.296 214.081 315.296 213.584 315.584C213.833 315.007 213.584 314.43 214.081 314.141C215.325 312.698 216.816 311.543 218.308 310.388C218.557 310.388 218.806 310.1 219.054 310.1C219.303 310.1 219.552 310.1 219.8 310.1C220.298 310.1 220.795 310.1 221.292 309.811C221.292 310.1 221.541 310.388 221.541 310.677C221.044 310.677 220.546 311.543 220.546 311.543Z" fill="#FAEDDE"/>
<path d="M40.5206 309.815C40.5206 309.815 40.271 310.065 40.5206 309.815C40.5206 310.065 40.5206 310.065 40.5206 309.815Z" fill="#FAEDDE"/>
<path d="M63.3968 366.959C62.6508 365.804 60.9102 363.206 60.9102 363.206C60.9102 363.206 63.1481 363.495 63.3968 362.917C63.6454 362.34 66.6292 351.083 60.4129 347.33C53.9479 343.578 2.22794 328.857 2.22794 328.857C2.22794 328.857 -1.25321 391.205 0.487361 394.38C2.22794 397.555 61.9048 426.998 64.1427 424.977C66.3806 422.957 62.4021 419.782 64.1427 415.452C66.1319 411.122 64.1427 368.113 63.3968 366.959Z" fill="#FAEDDE"/>
</svg>
