<svg width="88" height="88" viewBox="0 0 88 88" fill="none" xmlns="http://www.w3.org/2000/svg">
<path d="M75.1081 12.8826C57.9225 -4.29784 30.0631 -4.29372 12.8826 12.8921C-4.29784 30.0778 -4.29372 57.9371 12.8921 75.1175C30.0778 92.298 57.9371 92.2938 75.1175 75.1081C83.3685 66.8545 88.0026 55.6611 88.0001 43.9906C87.9977 32.322 83.3603 21.1323 75.1081 12.8826ZM66.6365 61.2915C66.6346 61.2934 66.6327 61.2955 66.6307 61.2974V61.2828L64.4013 63.4974C61.5181 66.417 57.319 67.6183 53.3279 66.6654C49.3069 65.5891 45.4844 63.8759 42.0053 61.5908C38.773 59.525 35.7776 57.1102 33.0733 54.3894C30.585 51.9194 28.3496 49.2072 26.3999 46.2934C24.2673 43.158 22.5793 39.7425 21.3839 36.144C20.0135 31.9166 21.1491 27.2778 24.3173 24.1614L26.9279 21.5508C27.6537 20.8217 28.8331 20.8191 29.562 21.5449C29.5639 21.5468 29.566 21.5487 29.5679 21.5508L37.8105 29.7934C38.5396 30.5192 38.5422 31.6986 37.8163 32.4276C37.8145 32.4294 37.8126 32.4313 37.8105 32.4334L32.9705 37.2734C31.5818 38.647 31.4071 40.8298 32.5599 42.4068C34.3104 44.8093 36.2476 47.0699 38.3533 49.1682C40.7009 51.526 43.2531 53.6708 45.9799 55.5776C47.5555 56.6765 49.6915 56.4912 51.0545 55.1376L55.7331 50.3856C56.4589 49.6565 57.6383 49.6539 58.3673 50.3797C58.3692 50.3816 58.371 50.3835 58.3731 50.3856L66.6305 58.6576C67.3598 59.3832 67.3623 60.5625 66.6365 61.2915Z" fill="url(#paint0_linear)"/>
<defs>
<linearGradient id="paint0_linear" x1="44" y1="0" x2="44" y2="88.0001" gradientUnits="userSpaceOnUse">
<stop stop-color="#FAEDDE"/>
<stop offset="1" stop-color="#EDD1B0"/>
</linearGradient>
</defs>
</svg>
