<svg width="95" height="96" viewBox="0 0 95 96" fill="none" xmlns="http://www.w3.org/2000/svg">
<path fill-rule="evenodd" clip-rule="evenodd" d="M1.30859 91.736L0 95.6558C1.32031 95.2156 2.41211 94.8519 3.48438 94.5074L7.97656 93.0705C13.6055 91.271 19.2402 89.469 24.8633 87.655C25.5332 87.4253 26.0508 87.5019 26.6621 87.8273C30.4141 89.8562 34.3965 91.3492 38.5684 92.1531C52.4453 94.8519 65.1738 92.1913 76.5234 83.6163C84.6973 77.453 90.1914 69.3566 93.0625 59.5375C95.3203 51.7855 95.5312 43.957 93.6934 36.0902C91.416 26.3284 86.4961 18.1171 78.9551 11.5136C70.8594 4.4124 61.3652 0.488573 50.627 0.0483873C35.9648 -0.564161 23.5625 4.64214 13.6289 15.4949C7.59961 22.0984 3.86719 29.8695 2.39258 38.655C0.650391 49.0292 2.14453 59.0015 7.1582 68.3038C8.07812 70.0265 8.30664 71.4046 7.58008 73.2421C6.59961 75.7493 5.76367 78.3118 4.92969 80.872C4.56055 82.0058 4.19141 83.1391 3.80859 84.2671L1.30859 91.736ZM12.3496 83.5965L12.1152 83.6546C12.502 82.4963 12.875 81.3511 13.2441 80.217C14.1387 77.4719 15.0117 74.7923 16.002 72.1511C16.6914 70.3327 16.7285 68.9737 15.5801 67.1937C9.87695 58.3316 8.30664 48.6081 10.4316 38.3296C11.9238 31.1519 15.3516 24.912 20.4609 19.6292C26.4141 13.4659 33.6309 9.6187 42.0703 8.27886C51.8711 6.72844 61.0586 8.58507 69.4043 14.0593C79.0312 20.3948 84.8496 29.3144 86.6504 40.6648C88.0664 49.5843 86.4961 58.0636 81.9219 65.9112C76.582 75.0796 68.7715 81.1472 58.5898 83.9991C50.0527 86.3726 41.6113 85.8175 33.4199 82.3531C31.4297 81.5108 29.5723 80.3624 27.6387 79.4054C27.2363 79.214 26.6621 79.0992 26.2422 79.2331C24.1523 79.8765 22.0645 80.5324 19.9805 81.193C17.5996 81.9474 15.2207 82.7081 12.8438 83.4632C12.7109 83.5074 12.5781 83.5402 12.3496 83.5965ZM67.125 68.3037C70.6465 66.5427 72.3887 63.729 72.4473 60.0349C72.5801 59.0396 72.3887 58.3506 71.623 57.9294L70.4902 57.3357C67.6172 55.8309 64.7539 54.3312 61.8613 52.8763C60.7324 52.3021 60.3105 52.4935 59.4688 53.4697C58.168 55.001 56.8281 56.4939 55.5078 58.006C54.8945 58.7142 54.1289 58.7717 53.3438 58.3888C50.6641 57.0873 48.0801 55.69 45.7461 53.8142C42.2051 50.9623 39.5254 47.4404 37.3242 43.5166C36.8262 42.6553 36.959 41.9279 37.707 41.2197C38.6055 40.3775 39.4297 39.4396 40.2129 38.4634C41.1328 37.315 41.5723 36.0708 40.8652 34.5779C40.4941 33.7999 40.2109 32.9821 39.9277 32.1656C39.7715 31.7165 39.6172 31.2678 39.4473 30.8263C38.7402 28.9697 38.0703 27.1322 37.3242 25.2947C37.0371 24.6056 36.5762 24.0123 35.7344 23.9357C35.4805 23.9166 35.2266 23.8927 34.9727 23.8688C34.2129 23.797 33.4512 23.7251 32.6914 23.7826C31.9062 23.8591 30.9883 24.0697 30.375 24.529C27.3125 26.8833 25.4941 30.0033 25.1113 33.9079C24.748 37.583 25.7812 40.9326 27.4844 44.0908C29.877 48.5505 32.7871 52.7232 36.2129 56.4748C39.3145 59.8627 42.7012 62.9252 46.8359 64.9732C49.5742 66.326 52.4297 67.4456 55.2754 68.5609L56.5215 69.0502C60.1387 70.4665 63.6602 70.0264 67.125 68.3037Z" fill="#FAEDDE"/>
</svg>
