<svg width="88" height="65" viewBox="0 0 88 65" fill="none" xmlns="http://www.w3.org/2000/svg">
<path d="M0.661079 19.2624C0.661079 18.8547 0.661079 18.4841 0.661079 18.0764C0.697364 17.9652 0.697372 17.8911 0.733665 17.7799C1.06028 16.038 2.22156 14.5926 4.14495 14.5555C4.83446 14.5555 5.56027 14.815 6.24979 14.9261C6.39495 14.9632 6.61269 14.9632 6.72156 14.8891C7.19334 14.4443 7.66511 13.9625 8.1006 13.4807C8.39092 13.1472 8.39092 12.9989 7.95544 12.8136C7.3385 12.5171 6.90301 12.0724 6.61269 11.4423C6.54011 11.3311 6.35867 11.257 6.2135 11.2199C6.14092 11.1829 6.03205 11.2199 5.95946 11.2199C5.95946 11.1829 5.92318 11.1458 5.92318 11.1088C7.81028 10.3305 9.69737 9.55215 11.5482 8.73678C11.5482 8.66266 11.5482 8.62559 11.5482 8.55147C11.2579 8.36616 10.9312 8.14379 10.6409 7.95848C10.1329 7.66198 9.5885 7.40255 9.08044 7.06899C8.79012 6.88368 8.57237 6.62424 8.39092 6.32775C8.20947 6.03125 8.28205 5.84594 8.60867 5.69769C9.26189 5.36413 9.91512 5.03057 10.5683 4.69701C11.8748 4.0299 13.1812 3.69634 14.5966 4.25227C14.5966 4.25227 14.6329 4.21521 14.6691 4.21521C14.1974 2.17679 14.1974 2.17679 14.4877 1.76911C14.8506 2.43623 15.5038 2.47329 16.1208 2.58448C16.4474 2.62154 16.8103 2.6586 17.1006 2.80685C18.7337 3.47397 20.403 3.32572 22.0361 2.9551C24.395 2.43623 26.7175 1.80617 29.0401 1.25024C30.3466 0.916684 31.653 0.768436 32.9958 1.02787C33.2498 1.06493 33.5401 1.02787 33.7942 1.02787C34.0845 1.06493 34.4111 1.06493 34.7014 1.17612C34.9554 1.25024 35.1369 1.47262 35.3546 1.62086C35.4998 1.69499 35.7175 1.76911 35.8264 1.69499C36.2256 1.47262 36.5885 1.54674 36.9514 1.76911C37.8224 2.25092 38.6571 2.69566 39.528 3.17747C39.7095 3.28866 39.8546 3.39984 39.9998 3.51103C40.2175 3.65928 40.399 3.88165 40.6167 4.0299C41.2337 4.40052 41.8506 4.69702 42.4675 5.03057C43.6288 5.66063 44.8264 6.29069 45.8425 7.21724C47.7296 9.03328 49.3264 11.0717 50.8506 13.1842C51.9756 14.7408 52.774 16.4828 53.645 18.1876C54.0442 18.9289 54.4796 19.6701 54.9151 20.4113C55.024 20.5966 55.278 20.7078 55.4232 20.8561C55.4595 20.819 55.5321 20.819 55.5683 20.782C55.5321 20.4855 55.5321 20.1519 55.4595 19.8554C55.2417 19.1512 54.9877 18.41 54.7337 17.7058C54.4071 16.8163 54.1893 15.9268 54.3345 14.9632C54.4071 14.4814 54.6248 14.1108 54.9877 13.8143C55.0966 13.7402 55.1692 13.5549 55.1692 13.4437C55.2054 12.5171 55.3506 11.6276 55.7498 10.7752C56.149 9.88571 56.8022 9.4039 57.7821 9.44096C57.8909 9.44096 58.0724 9.32978 58.1087 9.21859C58.5079 8.40322 59.0159 7.73611 59.6329 7.10605C60.7579 5.99419 62.1369 5.25295 63.5885 4.77114C64.278 4.51171 65.0401 4.40052 65.7659 4.21521C65.4756 4.58583 64.9312 4.3264 64.6772 4.73408C64.8587 5.14176 65.2216 5.1047 65.5119 5.1047C65.6933 5.1047 65.8748 4.95645 66.0562 4.91939C66.8909 4.8082 67.653 5.14176 68.4151 5.47532C68.5603 5.54944 68.7054 5.62357 68.8869 5.69769C69.2498 5.883 69.649 5.99419 69.9393 6.25362C70.3748 6.58718 70.7014 7.03193 71.1006 7.43961C71.1369 7.47667 71.1369 7.51374 71.1369 7.5508C71.2458 7.73611 71.3183 7.95848 71.4635 8.14379C71.4998 8.21791 71.645 8.29204 71.6812 8.25498C71.8264 8.18085 71.9716 8.0326 72.0804 7.92142C72.0804 7.92142 71.9716 7.73611 71.899 7.66198C71.8264 7.58786 71.6812 7.5508 71.6812 7.51374C71.7175 7.03193 71.2821 6.88368 71.1006 6.58718C71.028 6.476 70.9917 6.21656 70.9192 6.21656C70.52 6.1795 70.4111 5.883 70.2659 5.62357C70.1933 5.51238 70.0482 5.36413 69.903 5.32707C69.5038 5.14176 69.1046 4.91939 68.7054 4.8082C68.1611 4.62289 67.6167 4.40052 67.0361 4.43758C66.8183 4.43758 66.6006 4.40052 66.3466 4.40052C66.4192 4.3264 66.4554 4.25227 66.528 4.28933C67.2538 4.3264 68.0159 4.25227 68.7417 4.40052C72.7337 5.21589 73.6046 8.92209 73.0603 11.4794C72.5522 13.9996 70.1208 16.2974 67.5079 16.5198C67.2538 16.5569 67.145 16.6681 67.1087 16.8904C67.1087 17.0387 67.0724 17.224 67.0361 17.3722C66.8909 18.41 66.7821 19.4848 66.6369 20.5596C66.8909 20.6337 66.9272 20.9302 66.8546 21.1526C66.7458 21.4861 66.5643 21.7826 66.3829 22.0421C66.2377 22.3015 66.02 22.5239 65.8385 22.7462C65.6571 22.9686 65.4756 23.191 65.2579 23.3763C64.7861 23.784 64.2417 24.0805 63.77 24.5252C63.3345 24.9329 63.0079 25.4888 62.9716 26.2301C63.0804 26.1189 63.1167 26.0818 63.153 26.0448C63.9877 25.1553 65.0038 24.4882 66.1288 24.0064C66.3466 23.8952 66.6369 23.9693 66.8909 23.9322C67.0361 23.9322 67.1812 23.9693 67.3264 23.9322C67.7982 23.784 68.2337 23.5245 68.7054 23.4875C69.5764 23.4134 70.4474 23.4504 71.3183 23.4504C71.4998 23.4504 71.645 23.4875 71.8264 23.5616C72.0442 23.6357 72.0804 23.784 71.9353 24.0064C71.6813 24.414 71.3909 24.7847 71.2095 25.2294C70.9192 25.8224 70.7377 26.4525 70.4474 27.0454C70.1571 27.7126 69.6853 28.1573 68.9958 28.3797C68.8506 28.4167 68.7054 28.5279 68.5966 28.6021C68.9232 29.195 68.9232 29.3804 68.4877 29.8622C68.27 30.1216 68.0159 30.381 67.7256 30.5663C66.9272 31.0852 66.1288 31.6041 65.3304 32.123C65.149 32.2341 64.9312 32.3824 64.6772 32.5306C65.3667 32.8642 65.9474 33.1977 66.528 33.4572C66.0563 33.939 65.5845 34.3096 65.2579 34.7914C64.8587 35.3474 64.9675 35.755 65.5482 36.1257C65.8022 36.311 65.9474 36.5333 65.9837 36.8669C66.02 37.2746 66.0562 37.6452 66.1288 38.0529C66.2014 38.4235 66.4191 38.5347 66.6732 38.2382C66.9272 37.9788 67.1812 37.6452 67.399 37.3116C68.1611 35.9774 69.1046 34.7914 70.2296 33.7166C72.0804 32.0488 74.1853 30.974 76.653 30.7887C78.7579 30.6034 80.6087 31.3817 82.2054 32.753C82.278 32.8271 82.3869 32.9013 82.3869 32.9754C82.3143 33.3831 82.6409 33.5313 82.895 33.7537C83.4393 34.2355 83.5482 34.6802 83.2579 35.2732C83.1127 35.6068 82.8587 35.8662 82.6772 36.1627C82.6046 36.311 82.5683 36.4592 82.4958 36.6445C82.3869 37.0522 82.3506 37.497 82.1692 37.8305C81.6974 38.72 80.9716 39.313 80.1006 39.7577C78.5038 40.6102 77.4151 40.6472 76.0361 39.3871C75.2014 38.6459 74.3304 37.9417 73.3869 37.3858C71.8264 36.4592 70.8829 37.2746 70.2296 38.4606C70.0482 38.7571 69.8667 39.0906 69.649 39.3501C69.2861 39.7948 68.8506 40.1654 68.778 40.7955C68.778 40.8696 68.7054 40.9437 68.6692 41.0178C68.3788 41.3885 68.2337 41.7962 68.1611 42.278C68.0885 42.7598 67.7982 43.0192 67.3264 43.1304C67.0361 43.2045 66.7458 43.2786 66.4554 43.4269C66.3466 43.4639 66.274 43.5751 66.2377 43.6863C66.02 44.4276 65.8385 45.1688 65.5845 45.91C65.3667 46.5772 64.9312 47.1331 64.278 47.4667C64.2054 47.5037 64.1329 47.5778 64.1329 47.6149C64.1329 48.0967 63.77 48.282 63.4433 48.5044C63.153 48.6897 62.7901 48.838 62.4998 49.0603C61.7377 49.6533 61.0119 50.2463 60.2861 50.8764C60.2135 50.9505 60.1046 51.0246 60.0683 51.0987C59.7417 51.7659 59.1974 52.2847 58.6167 52.7665C57.4917 53.656 56.3304 54.5084 55.2054 55.3979C55.0966 55.4721 54.9877 55.6203 54.8425 55.7686C55.024 55.7686 55.1329 55.8056 55.2054 55.7686C55.7861 55.6203 56.3304 55.4721 56.8748 55.2867C60.903 53.9896 64.895 52.6924 69.0321 51.877C72.6611 51.1729 76.2901 50.6169 79.9917 51.1729C81.2619 51.3582 82.4958 51.6917 83.6933 52.2847C86.9958 53.8784 88.3748 57.5105 87.8667 60.5125C87.5764 62.1062 86.8506 63.4033 85.399 64.2187C84.274 64.8488 83.0764 64.8858 81.8425 64.7376C81.1167 64.6635 80.4998 64.367 79.9554 63.8852C78.903 62.9215 79.0845 61.3279 80.2821 60.6607C80.4635 60.9943 80.645 61.3649 80.8627 61.6614C81.0079 61.8838 81.2619 62.1432 81.5522 61.995C81.77 61.8838 82.024 61.6244 82.0603 61.402C82.1329 60.9202 82.2054 60.4013 82.0966 59.9195C81.8062 58.4 80.9353 57.214 79.774 56.2504C79.7014 56.1762 79.5925 56.1392 79.4837 56.0651C79.2659 55.9539 79.1208 55.9539 79.0482 56.2874C78.9756 56.7322 78.903 57.1769 78.7942 57.6217C78.6853 58.0293 78.4312 58.3629 77.9958 58.4741C77.3788 58.6223 76.4716 58.5482 75.9998 57.6958C75.8546 57.4363 75.6369 57.1769 75.4192 56.9545C75.3466 56.8804 75.2014 56.8434 75.0562 56.8434C74.8385 56.8063 74.6208 56.8434 74.4393 56.7692C74.0764 56.658 73.7498 56.4727 73.3869 56.3986C73.0603 56.3245 72.7337 56.3245 72.4071 56.2874C72.3708 57.0287 72.3708 57.6958 72.2619 58.3258C72.153 58.8447 72.0079 59.3636 71.7175 59.8083C71.2821 60.4754 70.4111 60.4013 69.9756 59.7342C69.8667 59.5859 69.8304 59.4006 69.6853 59.2895C69.5764 59.1783 69.395 59.1041 69.2861 59.1041C69.1772 59.1041 69.0683 59.3265 69.0321 59.4377C68.9595 59.6601 68.9958 59.9195 68.9232 60.1419C68.8143 60.5866 68.5966 60.7719 68.1248 60.7349C67.7619 60.6978 67.399 60.6237 67.0724 60.5125C66.528 60.2901 65.9837 60.0678 65.4756 59.7713C65.1853 59.5859 64.7861 59.3265 64.7135 59.03C64.5683 58.1776 64.0966 57.5846 63.3708 57.214C62.9716 56.9916 62.4998 56.8434 62.1369 56.621C61.7377 56.3986 61.3385 56.3245 60.903 56.3615C60.6853 56.3986 60.3587 56.5098 60.2861 56.658C60.2135 56.8434 60.3224 57.1769 60.4312 57.3622C60.7579 57.7699 61.0845 58.1035 61.2659 58.6223C61.4474 59.1783 61.5562 59.7342 61.4111 60.2901C61.3022 60.7349 61.0119 61.0314 60.5764 61.1426C60.3587 61.2167 60.1772 61.1796 60.0321 60.9202C59.6329 60.1789 59.0159 59.7342 58.2538 59.4377C56.8385 58.8818 55.3869 59.03 53.9353 59.3265C52.52 59.623 51.1772 60.1789 49.8345 60.7349C45.6611 62.5139 41.3062 63.6257 36.8425 64.1075C34.1571 64.404 31.4353 64.404 28.7498 63.9593C26.6812 63.6257 24.7216 62.9586 23.0159 61.7355C22.2901 61.2167 21.6369 60.5866 20.9474 59.9566C20.2216 60.4384 20.2216 60.4384 19.6409 59.8083C18.8425 58.9559 18.1167 57.9923 17.0643 57.4734C16.4111 57.1399 15.9756 56.6951 15.5401 56.1762C14.9232 55.5091 14.27 54.8791 13.653 54.2119C11.7296 52.1735 10.3143 49.8016 9.18931 47.2443C7.95543 44.4276 6.93931 41.5367 6.54011 38.4606C6.06834 34.6802 6.14092 30.937 6.90301 27.2308C7.19334 25.8595 7.48366 24.4882 8.13689 23.2281C8.39092 22.7462 8.68124 22.3386 8.79011 21.8197C8.82641 21.5973 9.00786 21.412 9.15301 21.2267C9.33447 20.9673 9.55221 20.7078 9.73366 20.4113C9.91511 20.1148 10.0966 19.7813 10.278 19.4848C10.4595 19.1883 10.6409 18.9289 10.8224 18.6324C10.9312 18.41 11.0764 18.1135 10.8224 17.7799C10.6046 18.0023 10.4232 18.1876 10.2417 18.3729C9.51592 19.1512 8.82641 19.9666 8.02802 20.6708C6.86673 21.7456 5.56028 22.4497 3.92721 22.3756C2.40302 22.3386 1.16914 21.4491 0.697372 20.0037C0.806243 19.8925 0.733657 19.5589 0.661079 19.2624ZM38.6571 24.0064C38.6571 23.8581 38.6933 23.6728 38.6208 23.5616C38.3304 23.0057 38.0401 22.4497 37.7135 21.9309C37.6409 21.8197 37.4595 21.7456 37.3506 21.7456C36.9151 21.7456 36.4433 21.7826 36.0804 22.1162C36.2619 22.1162 36.4433 22.0791 36.6248 22.0421C37.024 21.9309 37.0603 21.9309 37.024 22.3386C36.9877 23.0798 36.9151 23.8581 36.8062 24.5993C36.6611 25.6 36.3708 26.6007 35.8264 27.4902C35.8264 27.5273 35.8264 27.5643 35.8264 27.6014C35.9716 27.4902 36.0804 27.379 36.153 27.2308C36.4796 26.5636 36.8063 25.8965 37.0603 25.1923C37.2054 24.8217 37.3869 24.4882 37.3506 24.0064C37.278 23.2651 37.4595 23.1169 38.1127 23.0798C38.1853 23.4875 38.0764 23.9693 38.6571 24.0064C38.6208 24.3029 38.403 24.6735 38.5119 24.8588C38.7659 25.2294 38.6933 25.6 38.8022 25.9706C38.9474 26.4154 38.9837 26.9343 39.0563 27.379C39.0925 27.379 39.1288 27.379 39.1651 27.379C39.2014 27.3049 39.2377 27.2678 39.2377 27.1937C39.2014 26.5636 39.2377 25.8965 39.1288 25.2665C39.0562 24.8217 38.8022 24.414 38.6571 24.0064ZM43.1208 38.3494C43.1571 38.3864 43.2296 38.3864 43.2659 38.4235C43.2296 38.5717 43.1933 38.7571 43.0845 38.9053C42.9393 39.0906 42.7579 39.2389 42.6127 39.4242C41.1611 41.2402 39.3103 42.5745 37.278 43.5751C36.8425 43.7975 36.8425 43.7975 36.9877 44.2793C37.4595 44.3534 37.895 44.3905 38.3304 44.5017C38.7659 44.6129 39.0925 44.9094 39.2377 45.4653C38.8022 45.0576 38.8022 45.0576 38.5845 45.1317C38.9837 45.6877 39.3466 46.2807 39.1288 47.059C39.1651 46.9478 39.2377 46.8737 39.274 46.7625C39.7458 46.9107 40.0361 47.3555 39.9272 47.8373C39.8183 48.3191 39.6369 48.8379 39.4192 49.2827C38.6933 50.5799 37.7135 51.6917 36.5885 52.6553C36.4796 52.7295 36.407 52.8036 36.2619 52.9518C36.9877 53.1001 37.6409 53.026 38.2216 52.7665C39.3829 52.2847 40.4716 51.7659 41.6329 51.284C42.5764 50.9134 43.1933 50.2834 43.5562 49.3939C43.6651 49.0974 43.8466 49.0233 44.1369 49.0974C44.4272 49.1715 44.7538 49.1715 44.9353 48.875C45.2619 48.3561 45.5522 47.8743 45.8788 47.3555C46.278 46.6883 46.3506 46.0212 46.0966 45.2429C45.9151 44.687 45.77 44.094 45.6611 43.4639C45.5522 42.871 45.6974 42.7227 46.2054 42.5374C46.3143 42.5003 46.4595 42.3891 46.4958 42.278C46.6772 41.9444 46.7861 41.5738 46.9675 41.2402C47.3667 40.536 47.4393 40.536 48.0925 40.9808C48.1288 40.9808 48.1288 41.0178 48.1651 41.0178C48.3829 41.2032 48.5643 41.1661 48.7458 40.9067C49.2538 40.2395 49.5804 39.4612 49.7982 38.6459C50.27 36.5333 50.524 34.3837 50.524 32.2341C50.524 29.8992 49.6893 27.8979 47.9474 26.3413C47.4756 25.9336 46.9675 25.6 46.3506 25.5259C45.9514 25.4888 45.5522 25.5259 45.2982 25.8595C44.7901 26.4154 44.8264 27.1196 44.899 27.8979C45.1167 27.6384 45.2619 27.4902 45.4433 27.3419C45.5522 27.2678 45.6611 27.1566 45.77 27.1566C46.5321 27.1937 47.149 27.9349 47.0764 28.7132C47.0401 29.5657 46.278 30.5293 45.4071 30.7517C45.1167 30.8258 44.7901 30.7887 44.4998 30.7146C44.2458 30.6405 44.1732 30.7146 44.1006 30.8999C44.0643 31.0111 44.028 31.1593 43.9917 31.3076C43.8466 32.3453 43.774 33.3831 43.5925 34.4208C43.4474 35.4585 43.1933 36.4592 43.0119 37.534C42.7941 37.2005 42.6127 36.8669 42.4312 36.6075C41.9232 35.9033 41.4151 35.1991 40.8708 34.532C40.3627 33.939 39.6006 33.7537 38.8748 33.6796C38.6571 33.6425 38.4393 33.7537 38.2216 33.8278C38.2216 33.8649 38.2216 33.939 38.2216 33.9761C38.3304 34.0131 38.4756 34.0502 38.5845 34.0131C39.3466 33.939 39.9635 34.2726 40.5079 34.7173C40.7256 34.9026 40.7619 35.2362 40.9433 35.4585C41.1974 35.755 41.3062 36.0515 41.0885 36.4222C41.0522 36.4592 41.1248 36.5704 41.1611 36.6816C41.2337 36.6445 41.3062 36.6075 41.3788 36.5333C41.4514 36.4592 41.4514 36.348 41.524 36.2739C41.5603 36.2739 41.5966 36.311 41.6329 36.311C41.5966 36.5333 41.5603 36.7557 41.4877 37.0151C41.9958 36.904 42.1046 37.0151 41.9595 37.534C41.8506 37.8305 41.8143 38.0899 42.2861 38.1641C42.1046 38.2753 41.9232 38.3123 41.778 38.3123C41.6329 38.3123 41.524 38.2011 41.3788 38.127C41.4151 38.0529 41.524 37.9046 41.6329 37.6823C41.2337 37.9788 40.9433 38.2011 40.6167 38.4235C40.5804 38.4606 40.5441 38.5717 40.5441 38.6459C40.5441 38.6829 40.653 38.7571 40.7256 38.7571C41.27 38.7941 41.8506 38.7941 42.395 38.8682C42.8304 38.8682 43.0482 38.7941 43.1208 38.3494ZM50.5966 26.1189C50.6329 26.1189 50.6692 26.0818 50.7054 26.0818C50.7054 25.8965 50.778 25.6741 50.7417 25.4888C50.6692 25.1182 50.5966 24.7476 50.4514 24.414C49.2901 21.3008 47.5119 18.5953 45.2982 16.1492C45.0442 15.8898 44.7538 15.6674 44.4998 15.445C44.2458 15.2226 43.9554 15.1485 43.5925 15.1856C43.3748 15.2226 43.0119 15.2226 42.8667 15.0744C42.5038 14.7038 42.1046 14.6297 41.6329 14.6667C41.3062 14.7038 41.1611 14.5185 41.1611 14.222C41.1611 14.1108 41.1248 13.9996 41.1248 13.8884C41.1248 13.5919 40.9796 13.4066 40.6893 13.3325C40.1813 13.1472 39.6732 12.9619 39.1288 12.8136C38.1127 12.5171 37.0603 12.443 36.0804 12.9619C35.6087 13.2213 35.2095 13.5549 34.774 13.8513C34.52 14.0367 34.2659 14.222 33.9756 14.3332C33.7579 14.4443 33.5401 14.3702 33.5038 14.0367C33.4675 13.8143 33.4312 13.629 33.3587 13.4066C33.3224 13.1842 33.2135 13.1472 32.9958 13.2213C32.524 13.4066 32.1974 13.7402 32.1248 14.222C32.0522 14.7779 32.1248 15.3338 32.0885 15.8898C32.0885 16.038 32.1248 16.1863 32.0522 16.3345C31.5079 17.6687 30.9635 19.04 30.4192 20.3743C30.2377 20.782 30.3466 20.8931 30.7821 20.8931C31.9433 20.8561 33.0683 20.8931 34.1571 21.3008C34.5563 21.4491 34.9554 21.7826 35.3546 21.8197C35.7901 21.8568 36.2256 21.5973 36.6974 21.5232C36.9877 21.4861 37.3506 21.412 37.6046 21.5232C38.149 21.7826 38.6571 22.1533 39.1288 22.5239C39.9998 23.2281 40.6167 24.1546 41.1248 25.1553C41.2337 25.4147 41.3788 25.6371 41.524 25.8965C41.8506 25.563 42.1046 25.2294 42.3587 24.97C44.028 23.2281 46.024 22.8574 48.0563 24.0064C48.8183 24.4511 49.4716 25.1182 50.1974 25.6741C50.3788 25.8965 50.4877 26.0077 50.5966 26.1189ZM13.9796 23.2651C13.7619 23.4875 13.6167 23.821 13.3627 23.8952C12.8183 24.1175 12.6732 24.5623 12.5643 25.0441C12.0562 27.379 12.1651 29.7139 12.528 32.0488C12.7095 33.0866 12.9998 34.0502 13.6167 34.9026C14.2337 35.755 15.032 36.0145 16.0119 35.718C16.5563 35.5697 16.8103 35.1991 16.8103 34.6061C16.8103 34.0502 16.4837 33.6425 15.9393 33.5313C15.6853 33.4942 15.3587 33.4942 15.1046 33.5684C14.8506 33.6425 14.778 33.5684 14.7054 33.346C14.3062 32.1971 14.9595 31.2335 16.157 31.1964C17.3909 31.1593 18.6974 32.0118 19.2054 33.2348C19.2417 33.346 19.3143 33.4942 19.3869 33.6796C19.7135 32.6789 19.9675 31.7523 20.3667 30.8628C20.657 30.1957 20.657 29.6398 20.2941 29.0097C19.9312 28.3797 20.0764 27.8608 20.6208 27.379C20.8022 27.2308 20.9837 27.0825 21.2014 26.8972C21.0562 26.8231 20.9474 26.786 20.8748 26.7489C20.1127 26.3413 19.3506 25.9336 18.6248 25.4888C18.0442 25.1182 17.6812 24.5993 17.6812 23.821C17.6812 22.7092 17.645 21.6344 17.645 20.5225C17.645 19.7442 17.645 19.7442 16.9192 19.5218C16.5563 19.4107 16.4474 19.4477 16.4111 19.8554C16.3385 20.3743 16.3022 20.8931 16.3385 21.412C16.4111 22.2644 16.2296 23.0427 15.9393 23.8581C15.7216 24.4511 15.3587 24.97 14.9232 25.4888C14.524 24.7476 14.6329 23.821 13.9796 23.2651ZM19.3869 35.7921C18.8788 36.311 18.407 36.904 17.8627 37.3487C16.9917 38.127 15.9756 38.4235 14.8506 37.9046C14.3425 37.6823 13.8708 37.3858 13.399 37.1263C13.2538 37.0522 13.0724 36.9781 12.8546 36.8669C12.9998 37.2746 13.145 37.6081 13.2538 37.9417C13.399 38.4606 13.2538 38.7571 12.782 38.9424C12.6369 39.0165 12.4917 39.0906 12.3466 39.1647C11.8748 39.3871 11.8385 39.7207 12.2014 40.0913C12.4554 40.3137 12.7458 40.499 12.9998 40.7213C13.5079 41.129 13.5441 41.5367 13.0724 42.0556C12.9998 42.1297 12.8909 42.2409 12.8183 42.315C12.4917 42.5745 12.4917 42.7598 12.8546 43.0192C12.9635 43.0933 13.0724 43.1674 13.2175 43.2416C13.907 43.6493 14.5603 44.1311 14.9595 44.8352C15.2498 45.3541 15.7216 45.5394 16.1933 45.6877C16.3022 45.7247 16.4111 45.7618 16.52 45.7618C17.4635 45.91 18.3708 46.0953 19.3143 46.2065C19.7861 46.2807 20.1853 46.0212 20.403 45.5765C20.5482 45.28 20.6933 44.9835 20.8748 44.687C21.4554 43.7604 22.2175 43.0933 23.27 42.7227C23.3788 42.6856 23.524 42.6486 23.7054 42.6115C23.5966 42.315 23.524 42.0556 23.3788 41.8332C22.8345 40.8696 22.2538 39.943 21.6732 39.0165C21.6006 38.9053 21.4554 38.8312 21.3466 38.7941C20.8385 38.4606 20.3304 38.1641 19.7861 37.8305C19.6409 37.7193 19.532 37.6081 19.6409 37.3858C20.0764 36.7557 19.9312 36.1998 19.3869 35.7921ZM29.9474 7.47667C30.0562 7.47667 30.1288 7.51373 30.2377 7.51373C31.0361 7.55079 31.8345 7.55079 32.6329 7.66198C35.9353 8.06966 39.1288 8.92209 41.8869 10.9605C42.0683 11.1088 42.2135 11.0717 42.4312 10.9976C42.6127 10.9234 42.8667 10.8493 43.0119 10.9234C43.3022 11.0717 43.5925 11.2941 43.7377 11.5906C43.9192 11.9612 44.1369 12.1094 44.4998 12.2206C44.7175 12.2947 45.0079 12.5171 45.0442 12.7024C45.0804 12.9989 45.1893 13.1472 45.4071 13.3325C45.6248 13.5178 45.8425 13.7402 46.024 13.9625C47.2942 15.5191 48.6006 17.1128 49.8708 18.6694C49.9433 18.7806 50.0885 18.9289 50.1974 18.9289C50.524 18.9659 50.8869 18.9289 51.2498 18.9289C51.2135 18.8177 51.2135 18.7435 51.1772 18.7065C51.0683 18.447 50.9958 18.1876 50.8869 17.9282C49.7256 15.1856 48.0925 12.7395 46.0966 10.5899C44.4998 8.84797 42.6853 7.32842 40.5442 6.32775C40.1812 6.14244 39.7821 5.99419 39.3829 5.95713C38.9111 5.883 38.403 5.92006 37.895 5.84594C37.024 5.73475 36.153 5.58651 35.4272 5.06764C35.028 4.8082 34.6651 4.73408 34.2659 4.99351C33.7941 5.29001 33.5038 5.21589 33.1046 4.8082C33.0321 4.73408 32.9232 4.65995 32.8506 4.65995C32.4877 4.69702 32.0885 4.65995 31.7619 4.77114C30.7458 5.14176 29.9474 6.43893 29.9474 7.47667ZM30.4191 55.9909C29.7296 55.8056 29.0401 55.5462 28.3506 55.3979C26.2458 54.9903 24.1409 54.5084 22.1087 53.7672C20.403 53.1371 18.8425 52.3218 17.5724 50.9505C17.2095 50.5428 16.774 50.1722 16.3385 49.8016C16.2659 49.7274 16.0845 49.6904 15.9756 49.7274C15.5401 49.8016 15.1046 49.8757 14.6691 49.9869C14.5603 50.0239 14.4151 50.1351 14.3788 50.2463C14.1974 50.9134 14.3425 51.5064 14.8506 51.9512C15.032 52.1365 15.2861 52.2477 15.4675 52.433C15.649 52.6183 15.8304 52.8406 15.8667 53.063C15.9393 53.619 16.0845 54.1378 16.6651 54.3973C17.1369 54.6196 17.4998 55.0644 17.9353 55.2867C19.278 55.9539 20.6208 56.5839 21.9998 57.214C22.2901 57.3622 22.4353 57.4363 22.2175 57.7699C22.0361 58.0293 22.1087 58.1776 22.399 58.2888C23.9595 58.7706 25.52 59.1783 27.1167 59.4006C28.0966 59.5489 29.0764 59.586 30.02 59.2524C30.6732 59.03 31.145 58.6223 31.3627 57.9552C31.5804 57.2881 31.145 56.8434 30.4917 56.9545C30.3829 56.9916 30.3103 56.9916 30.1288 57.0287C30.3103 56.621 30.3829 56.3245 30.4191 55.9909ZM60.5038 46.3548C61.2296 46.0212 61.9192 45.7247 62.6087 45.3912C62.7175 45.3541 62.8264 45.317 62.9353 45.2429C63.3345 45.0576 63.5159 44.687 63.4071 44.2052C63.2619 43.4269 63.6248 42.7598 64.024 42.1297C64.1329 41.9073 64.278 41.685 64.3506 41.4626C64.4595 41.129 64.4958 40.7955 64.5321 40.499C64.6046 40.2025 64.7498 39.906 64.7135 39.6095C64.6046 38.5717 64.4232 37.5711 64.2417 36.5333C64.1692 36.1257 63.8788 35.9403 63.5159 35.8662C63.2982 35.8292 63.0442 35.8662 62.8264 35.8292C62.4635 35.7921 62.2821 35.9774 62.2821 36.311C62.2821 36.6075 62.1369 36.7557 61.9192 36.904C61.2296 37.3487 60.5038 37.8305 59.8143 38.3123C58.5079 39.2018 57.2014 40.0913 56.149 41.3514C55.9675 41.5738 55.7498 41.7962 55.8587 42.1668C55.895 42.315 55.7861 42.5003 55.7135 42.6486C55.6772 42.7598 55.6046 42.871 55.5321 43.0192C55.7498 43.0563 55.9312 43.0933 56.1127 43.0933C56.7296 43.1674 57.3103 43.2416 57.9272 43.3157C58.399 43.3898 58.7982 43.7604 58.7619 44.0199C59.7054 44.6499 60.2135 45.4653 60.5038 46.3548ZM28.3143 47.7261C28.3506 47.7261 28.3506 47.689 28.3869 47.689C28.4232 47.8002 28.4958 47.8743 28.4958 47.9855C28.6772 48.7268 28.0603 49.1344 27.8425 49.7274C28.024 49.8386 28.1691 49.9498 28.3506 50.0981C27.4796 50.7281 26.645 51.284 25.8466 51.877C25.8466 51.9512 25.8466 51.9882 25.8829 52.0623C26.1369 52.1735 26.3909 52.3588 26.6812 52.3588C27.2256 52.3588 27.77 52.2847 28.3143 52.2477C28.6409 52.2106 28.7861 51.9882 29.0038 51.7288C29.3304 51.247 29.6933 50.8022 30.1288 50.4316C30.6006 50.0239 31.145 50.0981 31.653 50.5057C31.7256 50.5799 31.8345 50.654 31.907 50.7281C33.032 49.1344 34.0119 47.5037 34.8829 45.7618C34.3385 45.7247 33.8304 45.7247 33.3224 45.6877C31.9433 45.5394 30.6006 45.4282 29.2941 44.8723C28.6409 44.5758 27.9877 44.5758 27.3345 44.8723C26.6812 45.1688 26.028 45.3912 25.4111 44.687C24.9393 47.3184 22.907 48.0226 20.7659 48.6526C21.4191 48.9121 21.9635 49.0233 22.5804 48.9491C23.6329 48.8379 24.5401 48.3932 25.4111 47.8002C25.7014 47.6149 25.8829 47.6149 26.1006 47.9114C26.2095 48.0596 26.3183 48.1708 26.4635 48.3191C26.9353 47.9114 27.4433 47.6149 28.024 47.7261C28.0966 47.9855 28.1691 48.2079 28.2054 48.4303C28.2417 48.4303 28.278 48.4303 28.3506 48.3932C28.3143 48.1708 28.3143 47.9485 28.3143 47.7261ZM50.0885 56.3245C50.4151 56.1392 50.7417 56.028 50.9595 55.8056C51.3587 55.435 51.7579 55.0273 52.1208 54.6196C52.5925 54.1008 53.028 53.5448 53.4998 53.063C53.645 52.9148 53.899 52.8407 54.0804 52.7295C54.1893 52.6553 54.3708 52.6553 54.4071 52.5812C54.7337 52.0623 55.0966 51.5805 55.3506 51.0246C55.9675 49.5421 56.9111 48.3932 58.145 47.4296C58.9071 46.8366 58.9433 46.6142 58.4716 45.7247C58.399 45.5765 58.2901 45.3912 58.145 45.28C57.3829 44.3905 56.0401 44.3905 55.278 45.317C55.1329 45.5024 55.024 45.7247 54.9877 45.9471C54.9151 46.3177 55.024 46.6883 55.3506 46.9478C55.6409 47.1701 55.895 46.9848 56.149 46.8737C56.1853 46.8366 56.2579 46.8366 56.3304 46.7995C56.4393 47.4296 56.2579 47.8743 55.8224 48.2449C55.2054 48.8009 54.4796 48.838 53.7538 48.5044C52.7014 47.9855 52.6288 47.0219 52.8466 45.9842C52.1571 46.3548 49.5441 49.0233 49.1812 49.6533C49.2175 49.6904 49.2538 49.6904 49.2901 49.7274C50.3062 50.2463 50.4877 50.5799 50.27 51.7288C50.1974 52.1365 50.4877 52.3959 50.8143 52.2847C51.2135 52.1365 51.3587 52.2477 51.2861 52.6924C51.2498 52.8406 51.2498 53.026 51.1772 53.1742C50.8506 53.8413 50.524 54.5084 50.1974 55.1756C50.1248 55.435 50.0159 55.7686 50.0885 56.3245ZM22.6167 15.1856C22.4353 15.0373 22.2901 14.7779 22.2175 14.815C22.0724 14.852 21.8909 15.0373 21.8183 15.1856C21.3829 15.9639 21.3466 16.8163 21.6006 17.6687C21.8546 18.4841 22.4716 19.003 23.1974 19.4107C23.5603 19.596 23.9232 19.7813 24.2498 20.0407C24.395 20.1519 24.4312 20.4113 24.4675 20.5966C24.5038 20.782 24.4675 21.0414 24.5038 21.2267C24.6127 21.5603 24.6127 21.8568 24.3587 22.0791C24.1409 22.2644 24.1046 22.4497 24.1409 22.7092C24.1772 22.9686 24.1409 23.191 23.8506 23.3392C23.778 23.3763 23.7054 23.4875 23.6692 23.5987C23.6329 23.8581 23.5966 24.1546 23.5603 24.414C23.5966 24.4511 23.6329 24.4882 23.6329 24.4882C23.8143 24.3399 23.9958 24.2287 24.1409 24.0805C24.7579 23.3763 25.4111 22.8574 26.3909 22.7833C26.4998 22.7833 26.645 22.6351 26.7175 22.5239C26.8627 22.2274 26.9353 21.8568 27.0804 21.5603C27.4071 20.7078 27.9151 20.4484 28.8224 20.5596C29.1853 20.6337 29.5119 20.7078 29.8748 20.782C29.9111 20.7449 29.9474 20.7449 29.9474 20.7078C28.8224 18.8918 27.8425 17.0016 28.5321 14.6667C28.3869 14.7779 28.3506 14.815 28.3143 14.8891C27.8062 15.5562 27.4071 16.2604 27.2256 17.0757C27.1167 17.5576 26.8627 17.7799 26.4635 17.9282C26.1732 18.0394 25.8829 18.2247 25.5925 18.3359C24.5038 18.8547 24.2135 18.6694 23.8506 17.7429C23.5966 17.0757 23.4514 16.3345 23.3062 15.6303C23.1974 15.1485 23.0885 15.0744 22.6167 15.1856ZM61.3385 18.2988C61.5925 18.1135 61.8466 17.8911 62.1369 17.7058C62.4272 17.5205 62.7175 17.3722 63.0079 17.2611C63.4071 17.0757 63.8425 16.9646 64.2417 16.8163C64.3869 16.7422 64.5321 16.631 64.7135 16.5198C63.9514 15.7045 63.4071 14.852 63.153 13.8143C62.8264 12.5542 63.2982 11.5535 64.4595 10.9976C64.7861 10.8493 65.1853 10.7381 65.5119 10.6269C65.6571 10.5899 65.7659 10.5528 66.0562 10.4787C65.8385 10.2193 65.7296 9.95983 65.5482 9.88571C65.2216 9.77452 64.8587 9.66334 64.5321 9.7004C63.2256 9.81158 62.3183 10.5899 61.7014 11.7017C61.52 12.0353 61.3748 12.443 61.1933 12.8507C61.3748 12.8507 61.4111 12.8507 61.4837 12.8507C61.9554 12.8507 62.0643 12.9619 61.9917 13.4437C61.9192 13.7772 61.8466 14.1108 61.774 14.4443C61.5925 15.3338 61.3748 16.2233 61.2296 17.1128C61.1571 17.5576 61.1571 18.0023 61.3385 18.2988ZM76.7256 33.4942C76.2175 33.5684 75.7095 33.5684 75.2014 33.7166C74.7659 33.8278 74.2942 34.0131 73.895 34.2355C73.7498 34.3096 73.6409 34.569 73.6409 34.7173C73.6409 34.8285 73.8587 34.9767 74.0038 35.0509C74.149 35.125 74.3304 35.162 74.4756 35.1991C75.2014 35.4215 75.8546 35.7921 76.3264 36.4592C76.6167 36.8669 77.0159 37.2375 77.4151 37.5711C77.8506 37.9417 78.1772 37.8676 78.5038 37.4228C78.8667 36.9781 79.1571 36.4963 79.4837 36.0145C79.6288 35.755 79.6288 35.5327 79.4474 35.3103C79.2659 35.125 79.1208 34.9026 79.2296 34.6061C79.2296 34.569 79.1933 34.4208 79.1571 34.3837C78.3587 34.0502 77.7054 33.2719 76.7256 33.4942ZM72.4796 32.9383C72.6974 32.8271 72.8063 32.7159 72.9151 32.6789C73.4595 32.4936 74.0038 32.3453 74.5482 32.1971C75.9272 31.7894 77.3062 31.8635 78.6127 32.3824C79.4837 32.753 80.1732 33.2719 80.028 34.3837C79.9554 34.9767 80.1732 35.4956 80.5361 35.9403C80.9353 36.4592 81.8063 36.6445 82.1692 36.311C82.7135 35.8292 83.0038 35.2362 83.0038 34.4949C83.0038 34.1614 82.895 33.939 82.6046 33.7537C82.3869 33.6054 82.1329 33.4572 82.0603 33.2348C81.9514 32.9383 81.8063 32.9383 81.5522 32.8642C81.1893 32.7901 80.7538 32.7159 80.5724 32.4565C80.3183 32.16 80.0643 32.0488 79.774 31.9006C79.6288 31.8265 79.4474 31.7894 79.3022 31.7523C78.1409 31.3076 76.9796 31.0852 75.7821 31.4188C75.4917 31.4929 75.2377 31.567 74.9474 31.6041C74.0764 31.7523 73.3143 32.16 72.6248 32.6789C72.5522 32.7159 72.5522 32.7901 72.4796 32.9383ZM38.7659 57.9923C38.8748 57.6958 38.9474 57.4734 39.0562 57.251C39.274 56.8434 39.4554 56.3986 39.7458 56.028C40.2175 55.435 40.8708 55.5462 41.2337 56.2133C41.3425 56.4357 41.4514 56.6951 41.524 56.9545C41.6329 57.3252 41.7054 57.6958 41.8143 58.1405C42.1046 57.7328 42.4312 57.4363 42.4312 56.9545C42.4312 56.2874 42.4675 56.2133 43.0845 55.9909C43.3385 55.8797 43.4111 55.7686 43.2659 55.5091C42.903 54.7679 42.7579 54.0266 42.8304 53.2113C42.8304 53.1742 42.7941 53.1371 42.8304 53.1742C41.0885 53.8413 39.3829 54.5455 37.6772 55.2126C37.8587 55.6203 38.0764 56.065 38.2579 56.5098C38.403 56.9545 38.5482 57.4363 38.7659 57.9923ZM68.7417 11.8871C68.5603 12.2577 68.4514 12.6283 68.0159 12.7395C67.9433 12.7395 67.9433 12.8877 67.8708 12.9619C67.7619 13.1472 67.6167 13.3325 67.5079 13.4807C67.4353 13.5919 67.3627 13.7402 67.2538 13.8884C67.1813 13.9625 67.145 14.0737 67.0724 14.1478C66.6732 14.5555 66.1651 14.5926 65.6933 14.3332C65.1853 14.0367 64.9675 13.4807 65.149 12.9248C65.2216 12.6283 65.3667 12.3689 65.4393 12.0724C65.4756 11.9612 65.4756 11.8129 65.5119 11.5906C65.2216 11.85 64.9675 12.0353 64.7498 12.2577C64.5683 12.443 64.4232 12.7024 64.3506 12.9619C63.9514 14.222 64.8587 15.445 66.2377 15.4821C67.9796 15.5562 70.0845 14.222 70.774 12.6283C70.8103 12.5171 70.8466 12.443 70.9192 12.2577C70.0845 12.7395 69.3587 12.8507 68.7417 11.8871ZM68.27 9.14447C68.4514 9.66334 68.6329 10.1451 68.8506 10.7752C68.9232 10.6269 68.9232 10.5528 68.9595 10.5158C69.3224 10.1081 69.7942 9.92277 70.3385 10.1081C70.8466 10.2563 71.1369 10.6269 71.2095 11.1829C71.2095 11.257 71.2821 11.3311 71.2821 11.4053C71.3183 11.7388 71.4272 12.1094 71.3546 12.443C71.3183 12.7765 71.1732 13.1101 70.9917 13.4066C70.5925 14.0367 70.1208 14.5926 69.4313 14.9632C69.0683 15.1485 68.8143 15.4821 68.524 15.7415C68.7417 15.7415 68.9232 15.7045 69.1046 15.6303C69.7579 15.3338 70.52 15.1856 70.7377 14.3332C70.7377 14.2961 70.8103 14.2961 70.8466 14.259C71.028 14.0737 71.2458 13.8884 71.3546 13.666C71.6812 12.9989 71.9716 12.3318 72.2619 11.6276C72.3708 11.3311 72.7337 10.9976 72.3345 10.6269C72.3345 10.6269 72.3345 10.5899 72.3345 10.5528C72.5522 10.2563 72.5522 9.88571 72.5159 9.55215C72.4796 9.36684 72.5159 9.18153 72.4071 9.07034C72.2619 8.81091 72.0442 8.58853 71.8627 8.36616C71.7901 8.40322 71.7538 8.40322 71.7538 8.44029C71.7538 8.77385 71.5361 9.14447 71.8264 9.44096C71.8627 9.47802 71.899 9.58921 71.8627 9.66334C71.8264 10.034 71.8264 10.3675 71.7538 10.7381C71.7538 10.8493 71.645 10.9605 71.5724 11.0717C71.5361 11.0717 71.4998 11.0346 71.4635 11.0346C71.7901 9.44096 71.0643 8.25498 69.9756 7.18018C70.0845 8.58853 69.7216 8.95916 68.27 9.14447ZM85.6893 58.3258C85.7256 57.807 85.4716 57.3993 85.2175 57.0287C84.274 55.6944 83.0401 54.6938 81.5522 54.0637C81.2982 53.9525 81.0079 53.8784 80.7538 53.8784C80.4998 53.8413 80.3909 53.9896 80.4998 54.249C80.6087 54.4343 80.7538 54.6196 80.899 54.7679C81.5522 55.3609 82.2417 55.9168 82.895 56.5469C83.403 57.0287 83.7296 57.6217 83.8385 58.2888C83.8748 58.4741 83.9837 58.6594 84.0925 58.9188C84.528 58.2888 85.0361 58.1405 85.6893 58.3258ZM32.7054 56.3986C32.8143 56.9916 32.9232 57.5105 33.0321 58.0293C33.1772 58.0293 33.2861 58.0293 33.5038 58.0293C33.5038 58.6223 33.5038 59.2153 33.5038 59.8824C33.7579 59.7713 33.903 59.6971 34.0119 59.5859C34.4474 59.2524 34.5925 58.7706 34.6651 58.2517C34.7014 58.0293 34.774 57.807 34.8829 57.6217C35.1732 57.1769 35.4998 56.7322 35.7901 56.2874C35.899 56.1021 35.9353 55.8797 36.0441 55.5832C35.7901 55.5832 35.645 55.5832 35.4998 55.5832C35.1369 55.5462 34.8103 55.5091 34.5925 55.9168C34.5562 56.028 34.3385 56.028 34.1933 56.065C33.6853 56.1762 33.2135 56.2874 32.7054 56.3986ZM23.2337 27.5273C23.0522 27.4902 22.907 27.4161 22.7619 27.4531C22.3264 27.5273 21.8909 27.6014 21.4917 27.7126C21.274 27.7867 21.02 27.8608 20.8748 28.0091C20.8022 28.0832 20.9837 28.3426 21.0199 28.5279C21.0562 28.602 21.0563 28.7132 21.0925 28.7874C21.1288 28.8615 21.2377 29.0097 21.274 29.0097C21.6732 28.9356 21.8546 29.2692 22.1087 29.4174C22.399 29.5286 22.5079 29.4545 22.653 29.2692C22.7619 29.0839 22.8345 28.8985 22.9433 28.7132C23.0159 28.602 23.1974 28.4538 23.3062 28.4538C23.6329 28.4909 23.9958 28.5279 24.3224 28.6391C25.0119 28.8615 25.7377 29.0839 26.3909 29.4174C27.2256 29.8251 28.024 30.381 28.8224 30.8258C28.9312 30.8999 29.0401 30.8628 29.1853 30.8999C29.149 30.7517 29.149 30.6405 29.1127 30.4922C29.0764 30.4181 28.9675 30.344 28.8587 30.2698C28.4958 30.0845 28.0966 29.9363 28.0603 29.4915C27.6611 29.3804 27.2982 29.3062 26.9716 29.195C26.7175 29.1209 26.4272 28.9727 26.8264 28.6391C26.899 28.6021 26.8264 28.4167 26.8627 28.3056C26.7538 28.3056 26.645 28.3056 26.5724 28.3426C26.3546 28.4167 26.1732 28.6021 25.9554 28.6021C25.6288 28.6021 25.3022 28.565 25.0119 28.4538C24.8667 28.3797 24.7579 28.1573 24.6127 27.972C24.3224 27.972 23.9958 27.972 23.5966 27.972C23.5966 27.7867 23.5603 27.5272 23.5603 27.2308C23.3788 27.379 23.3062 27.4531 23.2337 27.5273ZM78.649 54.3973C78.649 54.3602 78.6853 54.2861 78.6853 54.249C78.5401 54.1749 78.395 54.1008 78.2135 54.0637C77.5603 53.9525 76.9071 53.8784 76.2175 53.7672C74.4393 53.5078 72.6611 53.5078 70.8829 53.619C69.3224 53.7301 67.7982 54.0266 66.2377 54.2119C63.9514 54.4714 61.774 55.2126 59.524 55.7315C59.4514 55.7315 59.3788 55.8056 59.3062 55.8427C59.3062 55.8797 59.3425 55.9168 59.3425 55.9168C59.778 55.8427 60.2135 55.7315 60.649 55.6574C61.0845 55.5462 61.5562 55.435 61.9917 55.3609C62.0643 55.3609 62.1006 55.3979 62.1732 55.3979C62.3183 55.3979 62.4635 55.3609 62.6087 55.3609C62.8264 55.3238 63.0079 55.2126 63.2256 55.1756C63.4433 55.1385 63.6611 55.1385 63.9151 55.1014C64.7135 54.9161 65.5482 54.7308 66.3466 54.5826C66.9272 54.4714 67.5079 54.3973 68.0885 54.2861C68.5603 54.2119 69.0321 54.1378 69.5038 54.0637C70.0482 53.9896 70.6288 54.2861 71.2095 53.9525C71.3183 53.8784 71.4635 53.9525 71.6087 53.9525C71.7901 53.9525 71.9716 53.9896 72.153 53.9896C72.9151 53.9896 73.6409 53.9896 74.403 54.0266C75.6006 54.1008 76.7982 54.249 77.9595 54.3602C78.2498 54.3602 78.4675 54.3602 78.649 54.3973ZM59.0159 30.381C59.0522 30.381 59.0885 30.4181 59.1611 30.4181C59.1974 30.2698 59.27 30.1216 59.3063 29.9733C59.3425 29.8251 59.3425 29.6769 59.3425 29.5286C59.4877 28.565 59.7054 27.5643 59.778 26.6007C59.8869 25.1553 59.9595 23.7099 59.9958 22.2644C60.0321 21.3379 59.9958 20.4113 60.0321 19.4848C60.0683 18.3359 60.0683 17.1869 60.1409 16.0751C60.1772 15.408 60.3587 14.7408 60.4675 14.0737C60.6853 12.4059 61.3748 11.0717 62.6812 10.034C62.7901 9.95983 62.8627 9.77452 62.9353 9.66333C62.899 9.62627 62.8627 9.58921 62.7901 9.55215C62.6087 9.73746 62.4635 9.92277 62.2821 10.1081C61.6288 10.7011 61.0482 11.3682 60.7942 12.2577C60.5764 12.9248 60.3224 13.5919 60.1409 14.259C60.0321 14.5926 59.9958 14.9261 59.9595 15.2597C59.8869 15.7415 59.8506 16.2233 59.778 16.6681C59.7417 17.0387 59.6692 17.4093 59.6692 17.817C59.6692 18.5212 59.7054 19.1883 59.7417 19.8925C59.7417 20.0407 59.778 20.189 59.8143 20.3372C59.8143 20.4855 59.8143 20.5966 59.778 20.7449C59.778 20.8931 59.7054 21.0414 59.7417 21.1526C59.778 21.6344 59.8869 22.1162 59.8506 22.598C59.778 23.5616 59.8143 24.5623 59.7054 25.5259C59.5603 26.5266 59.5603 27.5643 59.3788 28.565C59.3425 28.7503 59.3788 28.9356 59.3425 29.1209C59.1611 29.5286 59.0885 29.9733 59.0159 30.381ZM27.8062 20.8931C28.024 21.1526 28.2417 21.3008 28.3869 21.5232C28.7498 22.1903 29.0401 22.8574 29.3667 23.5245C29.5482 23.9322 29.7659 24.3399 29.9474 24.7847C30.1288 25.2294 30.3103 25.7112 30.4917 26.156C30.528 26.2301 30.6369 26.3042 30.7095 26.3042C30.7458 26.3042 30.8546 26.156 30.8546 26.156C30.6006 25.7853 30.8909 25.563 30.9998 25.2665C31.0361 25.1923 30.9635 25.0812 30.9272 25.007C30.8183 24.7847 30.7095 24.5623 30.6006 24.3399C30.4554 24.0805 30.3466 23.784 29.9474 23.9693C29.8022 23.3022 29.4756 22.6721 29.5482 21.8938C30.1288 22.1903 30.7095 22.4497 31.2175 22.7462C31.7256 23.0427 32.2337 23.4134 32.7417 23.7469C32.778 23.7099 32.8143 23.6728 32.8143 23.6357C32.524 23.3763 32.2337 23.1169 31.9433 22.8945C31.3627 22.4127 30.8183 21.8197 30.1651 21.4491C29.5482 21.1155 28.7861 21.0414 28.0966 20.8931C28.0603 20.782 27.9514 20.8561 27.8062 20.8931ZM24.903 6.51306C24.9393 6.14244 24.8304 6.03125 24.5038 6.14244C23.27 6.55012 22.2538 7.29136 21.6006 8.47735C21.528 8.62559 21.528 8.81091 21.528 8.95915C21.6732 8.99622 21.8546 9.07034 21.9998 9.03328C22.5442 8.88503 23.0885 8.69972 23.6329 8.51441C24.5401 8.21791 24.9393 7.51373 24.903 6.51306ZM10.6409 42.2038C10.6046 42.2409 10.5683 42.278 10.532 42.278C10.6046 42.6486 10.8224 42.9451 11.1127 43.1674C11.8385 43.7234 12.5643 44.2422 13.2901 44.7982C13.6167 45.0206 13.7619 45.3541 13.7982 45.7247C13.8345 45.9842 13.5804 46.2065 13.399 46.0583C12.9998 45.8359 12.6006 45.5765 12.2377 45.28C11.8385 44.9464 11.5119 44.5017 11.149 44.1311C11.0764 44.0569 10.8587 44.094 10.7135 44.094C10.7498 44.2052 10.7135 44.3905 10.7861 44.4646C11.0764 44.7982 11.3667 45.1688 11.6933 45.4653C12.3103 46.0212 12.9998 46.503 13.907 46.2807C14.3425 46.1695 14.7417 45.6506 14.5603 45.3541C14.27 44.9464 13.9433 44.6129 13.6167 44.2422C13.5441 44.1681 13.4353 44.0569 13.3264 44.0569C12.9272 44.0569 12.6732 43.7604 12.3829 43.5381C11.8022 43.0933 11.2216 42.6486 10.6409 42.2038ZM5.66915 15.7786C5.30624 15.6303 4.97963 15.5191 4.7256 15.3338C4.39899 15.0744 4.14495 15.1485 3.89092 15.3709C3.74576 15.4821 3.63689 15.7044 3.60059 15.9268C3.56431 16.2604 3.81834 16.3345 4.10866 16.4457C4.65302 16.631 4.90705 17.2981 4.54414 17.6687C4.21754 18.0023 4.21754 18.3729 4.29011 18.7435C4.32641 18.8918 4.58044 19.04 4.7256 19.1142C4.79818 19.1512 5.01592 18.9659 5.01592 18.8918C5.05221 18.6694 5.05221 18.41 4.97963 18.1876C4.90705 17.854 5.05221 17.817 5.30624 17.854C5.41511 17.854 5.59656 17.817 5.63286 17.7429C5.70544 17.3722 5.8506 16.9275 5.70544 16.5939C5.66914 16.2604 5.59657 16.038 5.66915 15.7786ZM83.2216 62.2174C83.5482 62.4768 83.8385 62.6621 84.0562 62.9215C84.2377 63.1439 84.3829 63.1439 84.5643 62.9957C85.2901 62.4768 85.7256 61.7726 85.9071 60.8831C85.9433 60.6978 85.9433 60.5125 85.9796 60.2531C85.4353 60.6978 84.9272 60.6608 84.3829 60.3272C83.9837 60.9943 83.5845 61.6614 83.2216 62.2174ZM68.4151 6.29069C68.4151 6.25362 68.4151 6.1795 68.4151 6.14244C67.5804 6.03125 66.7458 5.84594 65.8748 5.80888C65.2942 5.77182 65.0764 6.29069 65.403 6.77249C65.8748 7.43961 66.6006 7.66198 67.2901 7.99554C67.2538 7.10605 67.653 6.58718 68.4151 6.29069ZM49.5079 26.0448C49.4353 25.8595 49.399 25.7853 49.3627 25.7112C48.7821 24.8588 47.9474 24.414 47.0401 24.0805C46.1692 23.784 45.3345 24.0434 44.4998 24.2658C44.3546 24.3029 44.2095 24.4882 44.1006 24.6735C44.0643 24.7105 44.2458 24.8958 44.3546 25.007C44.5361 25.1923 44.645 25.007 44.7901 24.8958C45.2256 24.5993 45.6611 24.377 46.2054 24.4511C47.2216 24.5993 48.0563 25.1182 48.7821 25.8595C48.8909 25.9706 48.9998 26.0818 49.145 26.156C49.2175 26.193 49.3627 26.0818 49.5079 26.0448ZM2.58447 16.7422C2.54818 16.7051 2.51189 16.7051 2.4756 16.6681C2.36673 16.8163 2.22156 16.9275 2.14899 17.0757C1.7135 18.0023 1.3506 18.9288 1.89495 19.9666C2.04011 20.2631 2.14899 20.5966 2.36673 20.8561C3.01995 21.5603 3.70947 21.5973 4.54414 21.1526C4.58044 21.1155 4.58044 21.0414 4.61673 20.9673C3.6006 20.8561 2.87479 20.4484 2.36673 19.4848C1.89495 18.447 2.1127 17.6317 2.58447 16.7422ZM37.6772 28.3426C37.6772 28.3797 37.7135 28.4167 37.7135 28.4538C38.0038 28.4167 38.3667 28.4538 38.5845 28.3426C38.8385 28.1944 39.0562 28.1573 39.3103 28.1202C39.9998 28.0832 40.4353 28.1573 40.6893 28.8615C41.1611 28.7874 41.3425 28.8244 41.5966 29.1209C41.778 29.3062 41.9232 29.4915 42.1409 29.7139C42.1046 29.788 42.0683 29.8992 41.9958 30.0475C42.5401 29.8251 42.649 29.6027 42.4675 29.1209C42.395 28.8985 42.2135 28.7132 42.2135 28.5279C42.2135 28.1944 41.9958 28.0832 41.7417 28.0461C40.9796 27.972 40.2175 27.9349 39.4554 27.7867C38.7296 27.7126 38.2942 28.2314 37.6772 28.3426ZM15.3949 36.904C14.4514 36.4222 13.5804 35.9033 12.9272 35.0509C12.2377 34.1614 12.0925 33.0866 11.6933 32.0859C11.657 32.2712 11.657 32.4565 11.6933 32.6048C11.8022 33.0495 11.9474 33.4942 12.02 33.9761C12.3103 35.3473 13.0724 36.2739 14.3062 36.8298C14.6691 36.941 14.9958 37.1263 15.3949 36.904ZM65.9474 9.44096C66.0562 9.51509 66.0925 9.58921 66.2014 9.66333C66.6369 9.92277 66.8546 10.2563 66.8909 10.7752C66.9272 11.1458 67.0724 11.2199 67.399 11.0717C67.4716 11.0346 67.5804 11.1088 67.653 11.0717C67.9071 10.9976 68.1611 10.9234 68.3425 10.7752C68.4151 10.7011 68.4151 10.4046 68.3425 10.2563C68.1974 9.66334 67.653 9.55215 67.1087 9.62627C67.0361 9.29271 66.3103 9.18153 65.9474 9.44096ZM10.2417 31.7153C10.278 31.7153 10.3506 31.7153 10.3869 31.7523C10.4232 31.4188 10.4595 31.1223 10.4958 30.7887C10.4958 29.8992 10.4595 28.9727 10.532 28.0832C10.5683 27.2678 10.7135 26.4525 10.7861 25.6C10.8224 25.3035 10.8224 24.97 10.8587 24.6735C10.8224 24.6735 10.7861 24.6735 10.7498 24.6735C10.0603 27.0084 9.98769 29.3433 10.2417 31.7153ZM68.5603 6.73543C68.524 6.77249 68.3062 6.84662 68.27 6.9578C68.1974 7.14311 68.2337 7.36549 68.27 7.5508C68.3062 7.77317 68.4151 7.99554 68.524 8.18085C68.6329 8.36616 68.8506 8.73678 68.9232 8.69972C69.1772 8.58853 69.5401 8.44029 69.649 8.21791C69.9756 7.43961 69.5038 6.77249 68.5603 6.73543ZM69.2861 11.8129C69.2498 12.0724 69.5764 12.443 69.9393 12.4801C70.2659 12.5542 70.4474 12.4059 70.5563 12.0353C70.5925 11.9612 70.5925 11.8871 70.6288 11.85C70.8103 11.5164 70.8103 11.1458 70.4837 10.9234C70.2296 10.7381 69.8667 10.664 69.5764 10.7011C69.2861 10.7381 69.2498 11.1088 69.2498 11.3682C69.2861 11.5164 69.2861 11.6647 69.2861 11.8129ZM17.645 33.4201C17.7901 33.0866 18.0079 32.8271 17.9353 32.6789C17.7901 32.3824 17.5361 32.0118 17.2458 31.8635C16.8466 31.7153 16.3748 31.8265 15.9756 32.0859C15.903 32.1229 15.7941 32.3083 15.8304 32.3824C15.8304 32.4936 15.9756 32.6048 16.0845 32.6418C16.7014 32.7901 17.2095 33.1236 17.6812 33.6054C17.8627 33.4942 18.0079 33.3831 18.153 33.2719C18.1167 33.2348 18.1167 33.1977 18.0804 33.1607C17.9716 33.2348 17.8627 33.3089 17.645 33.4201ZM9.33447 33.939C9.29818 33.939 9.26189 33.9761 9.2256 33.9761C9.33446 34.2355 9.44334 34.532 9.5885 34.7544C9.98769 35.5327 10.3506 36.2739 11.0764 36.8298C11.6933 37.3116 12.3103 37.8305 12.9635 38.3494C13.0724 38.0899 12.9998 37.8676 12.782 37.7564C11.7296 37.1634 11.0038 36.2368 10.278 35.2732C9.91511 34.8285 9.62479 34.3837 9.33447 33.939ZM16.0119 12.7395C15.6853 12.9248 15.3224 13.666 15.2861 14.1108C15.2498 14.3702 15.1772 14.6296 15.1046 14.8891C15.0683 15.0744 14.9958 15.2597 14.9958 15.445C14.9958 16.1121 14.9958 16.7792 15.0321 17.4464C15.0321 17.7429 15.0683 18.0394 15.395 18.2247C15.5038 17.9652 15.6127 17.7429 15.7579 17.4834C15.5764 17.4093 15.4675 17.3722 15.3587 17.3352C15.1409 15.7415 15.4312 14.222 16.0119 12.7395ZM14.9958 10.1081C14.9595 10.071 14.9232 10.034 14.8869 10.034C13.399 11.257 12.3103 12.8877 11.0038 14.2961C11.0401 14.3332 11.0764 14.3702 11.1127 14.4073C11.3667 14.1849 11.6571 13.9255 11.9111 13.7031C11.9474 13.629 12.0562 13.666 12.0925 13.629C12.2377 13.3695 12.6369 13.3695 12.6732 12.9619C12.6732 12.8136 12.8183 12.6654 12.9272 12.5542C13.145 12.2947 13.399 12.0724 13.6167 11.85C13.6893 11.7759 13.7256 11.6647 13.7619 11.5535C13.9071 11.3311 14.0159 11.1458 14.1611 10.9605C14.4514 10.664 14.7417 10.4046 14.9958 10.1081ZM80.645 38.6088C80.899 38.4606 81.2619 38.3494 81.2982 38.1641C81.3708 37.8305 81.5522 37.7564 81.8063 37.6823C82.0966 37.5711 82.0603 37.2375 82.024 36.9781C82.024 36.904 81.8425 36.7928 81.7337 36.7928C80.9353 36.7557 80.3183 37.6823 80.645 38.6088ZM51.9756 16.7051C51.903 17.1499 51.9756 17.4464 52.1933 17.7799C52.3748 18.0394 52.4837 18.3359 52.5925 18.5953C52.7014 18.8177 52.9554 18.8547 53.0643 18.6324C53.1006 18.5212 53.0643 18.3729 53.028 18.2617C52.7377 17.7058 52.2296 17.1869 52.2659 16.4828C52.2659 16.4086 52.1933 16.3716 52.1933 16.2974C52.0845 16.3345 51.9756 16.3716 51.8304 16.4086C51.8304 16.1863 51.8304 16.0009 51.7942 15.8156C51.7942 15.7415 51.6853 15.6303 51.6127 15.6303C51.5038 15.6303 51.3587 15.6674 51.2498 15.7415C51.2135 15.7786 51.2135 15.9268 51.2498 16.0009C51.395 16.2604 51.5401 16.4828 51.7216 16.7422C51.8304 16.7422 51.903 16.7051 51.9756 16.7051ZM76.3627 38.3123C76.399 38.2753 76.4353 38.2753 76.4353 38.2382C76.399 38.1641 76.399 38.0899 76.3627 38.0529C76.1087 37.6452 75.8183 37.2375 75.7458 36.6816C75.7458 36.5704 75.6006 36.4222 75.4554 36.3851C75.2014 36.2739 74.9474 36.2739 74.6933 36.1998C74.5119 36.1627 74.3667 36.0886 74.1853 36.0145C74.1853 35.9774 74.1853 35.9774 74.2216 35.9403C74.0038 36.0145 73.8224 36.0515 73.5683 36.1257C74.149 36.4592 74.6933 36.6816 75.1288 37.0522C75.6369 37.3487 75.9998 37.8676 76.3627 38.3123ZM74.6571 51.5435C74.6571 51.5805 74.6571 51.6176 74.6571 51.6917C74.8022 51.7288 74.9111 51.7658 75.0562 51.7658C75.2014 51.7658 75.3829 51.6917 75.528 51.6917C76.653 51.84 77.778 51.9882 78.903 52.1365C79.3385 52.2106 79.774 52.2106 80.2821 52.2847C80.1732 52.1365 80.1369 52.0253 80.0643 52.0253C79.774 51.9512 79.4474 51.877 79.1208 51.8029C78.395 51.6917 77.6692 51.6547 76.9433 51.5435C76.145 51.4323 75.4192 51.4694 74.6571 51.5435ZM35.8264 46.6513C35.8627 46.3548 35.899 46.0953 35.9353 45.7989C35.9353 45.7247 35.899 45.6506 35.8264 45.6135C35.7538 45.6135 35.645 45.6135 35.6087 45.6877C35.4272 45.873 35.3183 46.0953 35.3546 46.4289C35.4998 47.2072 35.6087 47.9855 35.4272 48.8009C35.3909 49.0603 35.3183 49.2827 35.2458 49.5421C35.2821 49.5421 35.2821 49.5421 35.3183 49.5421C35.6087 48.8379 35.8627 48.1338 36.153 47.3925C36.0804 47.3555 35.9716 47.3184 35.8627 47.2813C35.9353 47.059 36.0079 46.8366 36.0804 46.6142C35.9353 46.6142 35.8264 46.6142 35.8264 46.6513ZM16.4474 48.8009C17.0643 48.5044 17.0643 47.8743 16.7377 47.6149C16.3748 47.3184 15.9756 47.1331 15.5038 47.1702C15.3587 47.1702 15.2135 47.1331 15.032 47.096C14.524 46.9478 14.0159 47.0219 13.4353 47.2072C13.8345 47.3184 14.1611 47.4666 14.4877 47.5037C14.9232 47.5778 15.3587 47.5408 15.7941 47.5778C16.4474 47.652 16.7014 48.0967 16.4111 48.6897C16.4111 48.7268 16.4111 48.7638 16.4474 48.8009ZM67.399 57.0287C67.6893 57.2881 67.9433 57.5475 68.2337 57.7699C68.3062 57.807 68.4514 57.807 68.524 57.7699C68.9232 57.6217 69.2498 57.3622 69.3587 56.8804C69.4312 56.5839 69.3587 56.3986 69.0683 56.4727C68.5603 56.5839 68.0159 56.7322 67.5079 56.8804C67.5079 56.8804 67.4716 56.9545 67.399 57.0287ZM45.8788 27.7496C45.8425 27.7496 45.77 27.7867 45.7337 27.7867C45.6248 28.3426 45.2619 28.7132 44.8627 28.9356C44.9716 29.0468 45.1167 29.158 45.1167 29.2321C45.1167 29.3804 45.0079 29.5286 44.9716 29.6398C45.0079 29.6769 45.0442 29.7139 45.0442 29.751C45.1893 29.6769 45.3345 29.6398 45.4433 29.5286C45.6248 29.3433 45.77 29.1209 45.9514 28.9356C46.1329 28.7503 46.3869 28.6021 46.3143 28.3056C46.2417 28.0832 46.024 27.9349 45.8788 27.7496ZM31.3264 30.6034C31.5442 30.6405 31.7256 30.7146 31.8708 30.7517C32.0522 30.7887 32.27 30.7146 32.4151 30.7887C33.3224 31.1593 33.9393 31.8265 34.1571 32.8271C34.1933 32.9754 34.2296 33.1607 34.2659 33.3089C34.3022 33.3089 34.3385 33.3089 34.3748 33.2719C34.4474 32.8642 34.4474 32.4565 34.1933 32.0488C33.9756 31.7153 33.7579 31.3817 33.5401 31.0852C33.4312 30.937 33.3224 30.7517 33.1772 30.7146C32.8506 30.6034 32.524 30.4922 32.1611 30.4552C31.9433 30.4181 31.6167 30.2328 31.3264 30.6034ZM62.7901 8.73678C64.0603 8.51441 65.2579 8.06967 66.5643 8.40322C66.274 7.58786 63.5159 7.95848 62.7901 8.73678ZM43.3022 26.8972C43.0482 27.0825 42.903 27.4161 42.9756 27.6384C43.1933 28.2685 43.5562 28.7874 44.1732 29.0839C44.2458 29.1209 44.4272 29.0097 44.5361 28.9356C44.4635 28.8244 44.4272 28.6762 44.3183 28.6021C44.2095 28.4909 44.028 28.4909 43.9192 28.3797C43.5562 27.972 43.2659 27.5273 43.3022 26.8972ZM11.7296 23.3022C11.8022 23.2651 11.8748 23.191 11.8748 23.1539C11.8022 22.8945 11.8022 22.5239 11.6208 22.3756C11.2942 22.1533 10.8949 22.0421 10.4958 21.9309C10.4232 21.8938 10.3143 21.9679 10.278 22.005C10.2417 22.0421 10.278 22.1533 10.3143 22.1903C10.4958 22.4127 10.6409 22.6721 10.8587 22.8204C11.149 23.0427 11.4393 23.1539 11.7296 23.3022ZM65.149 45.6877C64.8224 45.5765 63.6611 45.7989 63.4433 46.0212C63.4071 46.0954 63.4071 46.2807 63.4796 46.3177C64.0966 46.7625 64.9312 46.4289 65.149 45.6877ZM48.3829 41.5738C48.7095 42.6856 48.6006 43.7975 48.528 44.9835C49.145 44.2793 49.0361 42.1297 48.3829 41.5738ZM67.9433 26.4525C67.9796 26.4895 67.9796 26.5266 68.0159 26.5636C68.3425 26.4154 68.6692 26.2301 69.0321 26.1189C69.395 26.0077 69.7942 25.9706 70.1571 25.8965C70.52 25.8224 70.8103 25.4518 70.8466 25.007C70.8103 25.007 70.7377 25.007 70.7014 25.0441C70.4474 25.1923 70.2296 25.563 69.8304 25.3035C69.7942 25.2665 69.6853 25.3777 69.6127 25.4147C69.3224 25.6 69.0683 25.8224 68.778 25.9706C68.5603 26.156 68.27 26.3042 67.9433 26.4525ZM66.7458 41.685C66.8183 41.6479 66.8909 41.6479 66.9635 41.6108C67.2901 41.3885 67.6167 41.1661 67.9433 40.9437C68.0522 40.8696 68.1974 40.8325 68.3062 40.7584C68.3788 40.7214 68.3788 40.6102 68.4151 40.499C68.3062 40.4619 68.2337 40.3507 68.1611 40.3878C67.9071 40.4249 67.6893 40.536 67.4353 40.6102C66.7095 40.8325 66.7821 40.9437 66.7458 41.685ZM44.3183 50.0239C44.4272 50.2092 44.4998 50.3946 44.6087 50.5428C44.7538 50.7281 44.899 50.9134 45.0804 51.0987C45.153 51.1729 45.2982 51.2099 45.4071 51.284C45.4433 51.1358 45.5159 50.9875 45.4796 50.8764C45.2982 50.5057 45.0804 50.1351 44.8627 49.8016C44.7901 49.6904 44.6087 49.6533 44.4998 49.6533C44.4635 49.6533 44.3909 49.8757 44.3183 50.0239ZM31.6893 34.8655C31.5441 34.7544 31.399 34.6802 31.2901 34.569C31.1812 34.4949 31.0724 34.3837 30.9635 34.2725C30.8183 34.1243 30.7095 33.939 30.5643 33.8278C30.4917 33.7537 30.3466 33.7166 30.3103 33.7537C30.2377 33.7907 30.1651 33.939 30.1651 34.0131C30.1288 34.3837 30.6006 35.0138 30.9635 35.0138C31.1812 35.0509 31.4716 35.2362 31.6893 34.8655ZM21.3466 24.1917C21.3829 24.1546 21.4554 24.1175 21.4917 24.0805C21.3829 23.821 21.274 23.5616 21.1288 23.3022C20.9837 22.9686 20.7659 22.6721 20.6208 22.3756C20.5482 22.2274 20.5482 22.005 20.3304 22.1162C20.2579 22.1533 20.1853 22.4127 20.2216 22.4868C20.403 22.8574 20.5845 23.2281 20.8022 23.5616C20.9474 23.821 21.1651 23.9693 21.3466 24.1917ZM12.2014 50.5428C12.3829 50.8022 12.4917 50.9875 12.6006 51.1729C12.8546 51.5805 13.1087 51.9882 13.3264 52.3959C13.3264 52.3959 13.3264 52.433 13.3627 52.433C13.4353 52.433 13.5441 52.47 13.6167 52.47C13.6167 52.3959 13.653 52.2847 13.6167 52.2106C13.4716 51.9512 13.3264 51.6547 13.1812 51.4323C12.9635 51.1358 12.7458 50.8764 12.528 50.5799C12.4554 50.5057 12.3466 50.5428 12.2014 50.5428ZM36.0442 9.81158C36.0442 9.77452 36.0804 9.7004 36.0804 9.66333C35.7538 9.55215 35.4635 9.4039 35.1369 9.32978C34.6651 9.25565 34.1571 9.21859 33.649 9.18153C33.3224 9.14446 32.9595 9.18153 32.6329 9.18153L32.6329 9.21859C33.7579 9.44096 34.9192 9.62627 36.0442 9.81158ZM69.3224 38.6459C68.7417 38.4976 67.4716 38.9794 67.1812 39.3871C68.0159 39.4983 68.5966 38.9053 69.3224 38.6459ZM22.3264 12.3689C22.9796 11.9982 23.5966 11.5906 24.2498 11.257C24.5038 11.1088 24.5764 10.9605 24.5401 10.6269C23.7054 11.1458 22.9433 11.6647 22.3264 12.3689ZM54.5522 26.4525C55.3143 27.6014 56.2216 28.7132 56.403 30.1587C56.2579 28.6762 55.6409 27.4161 54.5522 26.4525ZM36.3345 39.8689C36.4796 40.9437 36.9151 41.9073 36.6611 42.9451C37.0966 41.9815 36.9514 40.4249 36.3345 39.8689ZM7.99173 14.222C7.95544 14.1849 7.91914 14.1849 7.88286 14.1478C7.62882 14.4814 7.33851 14.815 7.12077 15.1856C7.01189 15.3338 7.01189 15.5562 6.9756 15.7415C7.15705 15.6303 7.3385 15.5191 7.51995 15.408C7.55624 15.3709 7.55624 15.3338 7.59253 15.2968C7.7014 14.9261 7.84656 14.5555 7.99173 14.222ZM15.903 2.88097C15.6127 2.76979 15.2861 2.69566 14.9958 2.58448C14.9595 2.62154 14.9595 2.6586 14.9232 2.69566C15.1772 3.02922 15.4312 3.32572 15.6853 3.69634C15.903 3.47397 16.1208 3.28866 16.3022 3.06628C16.2296 2.99216 16.1933 2.9551 16.1208 2.88097C16.0482 3.06628 15.9756 3.21453 15.903 3.39984C15.8667 3.36278 15.7941 3.32572 15.7579 3.28866C15.8304 3.21453 15.8304 3.06628 15.903 2.88097ZM28.3869 9.47802C29.5482 9.4039 30.6732 9.29271 31.8708 9.21859C31.145 8.99622 28.7861 9.14446 28.3869 9.47802ZM17.2095 17.5576C17.3546 17.4093 17.6087 17.2611 17.6087 17.1499C17.5724 16.8163 17.4635 16.4457 17.3546 16.1121C17.3546 16.0751 17.2095 16.038 17.1369 16.0009C17.1006 16.0751 17.0643 16.1121 17.0643 16.1863C17.0643 16.2604 17.0643 16.3345 17.0643 16.3716C16.9192 16.3716 16.8103 16.3345 16.7377 16.3716C16.7014 16.4086 16.7014 16.5569 16.7014 16.6681C16.8466 16.6681 16.9917 16.6681 17.2095 16.6681C17.6812 16.9275 16.9917 17.1869 17.2095 17.5576ZM11.5845 41.722C11.6208 41.685 11.657 41.6479 11.657 41.6108C11.5482 41.4997 11.403 41.3885 11.2941 41.2402C11.0401 40.9437 10.8224 40.6472 10.532 40.3878C10.4595 40.3137 10.3143 40.3507 10.2417 40.3137C10.2417 40.4249 10.2417 40.5731 10.278 40.6472C10.5683 40.9437 10.8587 41.2402 11.1853 41.4996C11.3304 41.6108 11.4756 41.6479 11.5845 41.722ZM25.2659 7.77317L25.3022 7.77317C26.1006 7.14311 26.899 6.51306 27.6974 5.883C27.6611 5.84594 27.6611 5.80888 27.6248 5.77181C27.4433 5.883 27.2256 5.95713 27.0442 6.10537C26.6087 6.476 26.1369 6.84662 25.7377 7.2543C25.5562 7.36548 25.4111 7.58786 25.2659 7.77317ZM22.145 33.0124C22.1087 33.0495 21.9635 33.0866 21.9272 33.1607C21.8909 33.2348 21.9635 33.4201 21.9998 33.4942C22.145 33.6425 22.2901 33.7907 22.4716 33.8649C22.5441 33.9019 22.7256 33.8278 22.7619 33.7537C22.8708 33.5313 22.5079 33.0124 22.145 33.0124ZM11.657 28.4167C11.6208 28.3426 11.5482 28.1944 11.5119 28.0091C11.4756 27.8237 11.5119 27.6384 11.5119 27.4902C11.4756 27.4902 11.4393 27.4902 11.403 27.4902C11.403 28.3426 11.403 29.195 11.403 30.0475C11.4393 30.0475 11.4393 30.0475 11.4756 30.0475C11.5119 29.5286 11.5845 29.0468 11.657 28.4167ZM30.1651 50.8022C30.5643 50.9134 30.9272 51.0246 31.2901 51.0987C31.3627 51.0987 31.4716 51.0246 31.5079 50.9505C31.5441 50.9134 31.5079 50.7652 31.4716 50.7281C31.2538 50.4687 30.4554 50.4687 30.1651 50.8022ZM19.7861 7.81023C19.1692 8.18085 18.5885 8.58853 18.153 9.21859C18.6974 8.77384 19.4595 8.55147 19.7861 7.81023ZM38.4393 44.9464C38.2216 44.5758 37.9675 44.5387 36.7337 44.687C36.6248 44.687 36.5522 44.7982 36.4796 44.8723C37.1691 44.9094 37.7861 44.9464 38.4393 44.9464ZM59.524 58.8447C59.524 58.8818 59.524 58.9188 59.4877 58.9559C59.6329 59.03 59.7417 59.1412 59.8869 59.1783C60.1409 59.2153 60.395 59.2153 60.649 59.2153C60.7216 59.2153 60.7942 59.1783 60.8667 59.1412C60.8304 59.0671 60.7579 58.9559 60.7216 58.9188C60.395 58.8447 60.0683 58.8076 59.7054 58.7706C59.6692 58.7706 59.5966 58.8076 59.524 58.8447ZM44.8627 7.18018C44.7175 7.03193 44.645 6.88368 44.4998 6.77249C44.3909 6.66131 44.2458 6.55012 44.1006 6.476C44.028 6.43893 43.9192 6.43893 43.8466 6.43893C43.8466 6.51306 43.8103 6.58718 43.8466 6.66131C43.9554 7.14311 44.3546 7.32842 44.8627 7.18018ZM66.4554 57.9552C66.2377 57.4364 65.1127 56.8804 64.5321 56.9175C65.1853 57.2881 65.8022 57.5846 66.4554 57.9552ZM31.0361 18.1876C31.2175 17.8541 31.5442 17.5576 31.2175 17.1499C31.145 17.0387 31.0361 16.9275 30.9272 16.8534C30.8909 17.0016 30.8183 17.1499 30.8183 17.2981C30.8546 17.5946 30.9635 17.8911 31.0361 18.1876ZM16.0119 56.1762C16.1208 55.8797 15.4675 55.1385 15.2861 55.1385C15.2498 55.1385 15.1409 55.1756 15.1409 55.2126C15.1046 55.2867 15.1046 55.3979 15.1409 55.435C15.4312 55.6574 15.7216 55.9168 16.0119 56.1762ZM35.4998 28.0461C35.0643 28.565 34.7014 29.1209 34.4474 29.8622C34.8466 29.5657 35.5724 28.3056 35.4998 28.0461ZM21.528 24.4882C21.7095 24.7105 21.8546 24.97 22.0724 25.1182C22.2175 25.2294 22.4353 25.0812 22.399 24.8217C22.399 24.6364 21.8546 24.3029 21.6732 24.3399C21.6369 24.3399 21.6006 24.414 21.528 24.4882ZM69.3224 23.9322C70.0845 23.9693 70.8466 24.0064 71.6087 24.0434C71.6087 24.0064 71.6087 23.9693 71.6087 23.8952C70.8466 23.8581 70.0845 23.5987 69.3224 23.9322ZM19.8224 21.2267C20.0038 21.0784 20.1853 20.9673 20.3667 20.819C20.4393 20.7449 20.4756 20.5966 20.4393 20.4855C20.403 20.4113 20.2579 20.3372 20.1853 20.3372C19.8587 20.3372 19.6046 20.8931 19.8224 21.2267ZM62.6087 24.0064C61.8829 24.8217 61.5925 25.7853 61.2659 26.7489C61.7014 25.8224 62.1369 24.9329 62.6087 24.0064ZM69.8667 52.0994C69.8667 52.1365 69.8667 52.1735 69.903 52.2106C70.4474 52.0994 71.028 51.9882 71.5724 51.877C71.5724 51.8029 71.5361 51.7658 71.5361 51.6917C70.9917 51.8029 70.3748 51.7288 69.8667 52.0994ZM11.2942 30.2698C11.3667 30.7146 11.403 31.0481 11.4393 31.4558C12.02 31.0111 11.9837 30.7146 11.2942 30.2698ZM15.0683 54.2119C15.4675 54.4343 15.903 54.6196 16.3022 54.842C16.4111 54.3602 15.9393 54.1008 15.0683 54.2119ZM16.3748 4.62289C16.3385 4.58583 16.3385 4.54877 16.3022 4.5117C15.649 4.77114 14.9232 4.77114 14.4151 5.43826C15.1046 5.14176 15.7579 4.88233 16.3748 4.62289ZM68.0885 11.9612C68.1611 11.6647 68.1248 11.4794 67.9071 11.4423C67.6893 11.4053 67.2175 11.6276 67.1812 11.85C67.4353 11.8871 67.7619 11.9241 68.0885 11.9612ZM22.5079 23.4875C22.5442 23.4504 22.5804 23.4134 22.6167 23.3763C22.3264 23.0427 22.0361 22.7462 21.7458 22.4127C21.7095 22.3756 21.6369 22.4127 21.6369 22.4127C21.6006 22.4497 21.5643 22.5609 21.6006 22.5609C21.8546 22.9316 22.1087 23.3392 22.5079 23.4875ZM34.1571 2.10267C34.1933 2.10267 34.1933 2.13973 34.2296 2.13973C34.1571 2.32504 34.0845 2.47329 33.9756 2.6586C34.0119 2.69566 34.0482 2.73273 34.0845 2.76979C34.2659 2.58448 34.4474 2.43623 34.6288 2.25092C34.4837 2.10267 34.4111 1.99148 34.3022 1.91736C34.0845 1.73205 33.8304 1.91736 33.8667 2.25092C33.9756 2.21386 34.0845 2.17679 34.1571 2.10267ZM53.3546 25.4147C53.7175 25.7483 54.0079 26.0448 54.2982 26.3042C54.3345 26.2671 54.3345 26.2671 54.3708 26.2301C54.2619 25.7853 53.7901 25.3777 53.3546 25.4147ZM42.1772 12.4801C42.2498 12.4059 42.2861 12.3689 42.3587 12.2947C42.4312 12.2206 42.5401 12.2206 42.5764 12.1465C42.649 12.0724 42.649 11.9241 42.6853 11.8129C42.5764 11.7759 42.4312 11.7017 42.3587 11.7388C42.1772 11.7759 42.0683 12.2206 42.1772 12.4801ZM22.4716 35.3103C22.4353 35.3844 22.399 35.4215 22.399 35.4956C22.4716 35.5327 22.5804 35.5697 22.6893 35.6068C22.6167 35.718 22.5441 35.755 22.5079 35.8292C22.4716 35.9403 22.4353 36.0515 22.399 36.1256C22.5079 36.0886 22.6167 36.0886 22.6893 36.0145C22.8345 35.8292 22.9433 35.6438 23.0885 35.4585C23.1248 35.4956 23.1611 35.5327 23.1611 35.5697C22.907 35.4585 22.6893 35.3844 22.4716 35.3103ZM17.1006 11.7017C16.5563 11.7759 16.0845 11.7759 15.9393 12.3689C16.2296 12.0353 16.8466 12.2577 17.1006 11.7017ZM17.6087 9.77452C17.1006 10.071 16.52 10.8864 16.5563 11.2941C16.9554 10.7752 17.2821 10.2563 17.6087 9.77452ZM64.7135 6.36481C64.6046 6.51306 64.5321 6.58718 64.5321 6.66131C64.5321 6.77249 64.5683 6.9578 64.6409 7.03193C64.7498 7.10605 64.9313 7.14311 65.0764 7.18018C65.0401 7.03193 65.0401 6.92074 64.9675 6.77249C64.895 6.66131 64.8224 6.55012 64.7135 6.36481ZM12.9635 9.44096C12.9272 9.4039 12.8909 9.4039 12.8909 9.36684C12.528 9.8857 11.9474 10.1451 11.6933 10.7381C11.7296 10.7752 11.7659 10.8123 11.8022 10.8123C12.2014 10.3675 12.5643 9.92277 12.9635 9.44096ZM19.4595 17.3722C19.4958 17.3722 19.5321 17.4093 19.6046 17.4093C19.8224 16.7422 20.0401 16.0751 20.2579 15.445C20.2216 15.445 20.1853 15.408 20.149 15.408C19.895 16.038 19.6772 16.7051 19.4595 17.3722ZM60.903 58.0664C60.649 57.807 60.4675 57.5846 60.2498 57.3993C60.2135 57.4364 60.1409 57.4364 60.1046 57.4734C60.1409 57.6217 60.1409 57.7699 60.2135 57.9182C60.3587 58.0664 60.5401 58.2146 60.903 58.0664ZM44.8264 53.3595C45.0441 53.6931 45.2619 53.9896 45.4796 54.2861C45.5522 53.656 45.3345 53.3225 44.8264 53.3595ZM24.5401 14.7038C24.0321 14.9261 23.7417 15.408 23.9232 15.7415C24.1409 15.408 24.3224 15.0744 24.5401 14.7038ZM57.3103 43.6493C57.02 43.4269 56.4393 43.4639 56.1127 43.7234C56.5119 43.6122 56.9111 43.9828 57.3103 43.6493ZM85.3627 59.4377C85.1813 59.2524 84.9635 59.1412 84.7458 59.2895C84.6732 59.3265 84.7095 59.623 84.7821 59.6601C85.0724 59.8824 85.1813 59.623 85.3627 59.4377ZM21.3103 58.6223C21.4917 58.3629 21.6006 58.1776 21.7458 57.9552C21.4191 57.9552 21.2014 57.9552 20.9837 57.9552C21.0925 58.1405 21.1651 58.3258 21.3103 58.6223ZM9.98769 15.1115C10.4595 15.2597 10.895 14.9632 10.9675 14.5555C10.6409 14.7779 10.3143 14.9261 9.98769 15.1115ZM54.6611 46.9107C54.6248 46.9478 54.5885 46.9478 54.5159 46.9848C54.6248 47.1331 54.6974 47.3184 54.8425 47.4296C54.9514 47.5037 55.1329 47.5037 55.3143 47.5408C55.3143 47.3925 55.278 47.3555 55.278 47.3184C55.0603 47.2072 54.8788 47.059 54.6611 46.9107ZM32.27 8.47735C32.7417 8.55147 33.2135 8.66266 33.649 8.73678C33.649 8.69972 33.649 8.66266 33.649 8.6256C33.2861 8.40322 32.5603 8.3291 32.27 8.47735ZM52.3022 27.3049C51.8667 27.379 51.7942 27.5643 52.0482 27.8608C52.1208 27.9349 52.2296 27.9349 52.3022 27.972C52.3385 27.8979 52.3748 27.7867 52.3385 27.7126C52.3748 27.6014 52.3385 27.4531 52.3022 27.3049ZM31.8708 57.3252C31.9071 57.3252 31.9433 57.3252 31.9433 57.3252C31.9433 56.9545 32.0522 56.5839 31.6893 56.3615C31.6167 56.3245 31.5079 56.3615 31.399 56.3615C31.4353 56.4357 31.4716 56.5469 31.5079 56.5839C31.7256 56.6951 31.8345 56.8804 31.7982 57.1398C31.8345 57.1769 31.8708 57.251 31.8708 57.3252ZM13.3627 48.1708C13.399 48.0967 13.399 48.0226 13.4353 47.9485C13.1087 47.8373 12.782 47.7261 12.4554 47.6149C12.4554 47.652 12.4191 47.7261 12.4191 47.7631C12.7095 47.9114 13.0361 48.0226 13.3627 48.1708ZM12.1651 14.7038C12.3466 14.3332 12.528 13.9625 12.7095 13.5919C12.2014 13.8143 12.0925 14.1849 12.1651 14.7038ZM23.0522 24.2287C23.1248 24.0064 23.2337 23.8952 23.1974 23.821C23.1248 23.6728 23.0159 23.5987 22.9071 23.4875C22.8345 23.5616 22.7256 23.6728 22.7619 23.7469C22.7982 23.8952 22.9071 24.0064 23.0522 24.2287ZM9.40705 13.036C9.40705 13.036 9.44334 13.036 9.44334 13.073C9.62479 12.9989 9.76995 12.8507 9.9514 12.8507C10.3506 12.8507 10.3869 12.8507 10.2417 12.4059C9.95141 12.6283 9.69737 12.8136 9.40705 13.036ZM52.4111 24.7476C52.4111 24.7847 52.3748 24.8588 52.3748 24.8958C52.5563 25.007 52.7014 25.1182 52.8829 25.1923C52.9554 25.2294 53.028 25.1553 53.1369 25.1182C53.1006 25.0441 53.1006 24.9329 53.0643 24.9329C52.8829 24.8958 52.6288 24.8217 52.4111 24.7476ZM54.0442 20.2631C54.0804 20.226 54.0804 20.189 54.1167 20.189C53.9353 20.0037 53.7538 19.8183 53.5724 19.633C53.5361 19.596 53.3909 19.596 53.3183 19.596C53.3546 19.7072 53.3546 19.8183 53.3909 19.8925C53.5724 20.0037 53.8264 20.1148 54.0442 20.2631ZM64.024 9.18153C64.0603 9.21859 64.0966 9.29271 64.1692 9.32978C64.3143 9.21859 64.4958 9.1074 64.6409 8.95916C64.5683 8.88503 64.4958 8.81091 64.4232 8.73678C64.278 8.88503 64.1329 9.03328 64.024 9.18153ZM8.68124 15.9639C8.10059 16.0009 7.81028 16.2604 7.81028 16.6681C8.06431 16.4457 8.39092 16.2233 8.68124 15.9639ZM26.282 48.4303C26.1369 48.282 25.9917 48.1338 25.8829 48.0226C25.8103 48.0967 25.7014 48.2079 25.7014 48.2449C25.8103 48.3932 25.9191 48.5044 26.0643 48.6156C26.0643 48.6156 26.1732 48.5044 26.282 48.4303ZM53.2821 28.8615C53.2458 28.8985 53.2458 28.9356 53.2095 28.9727C53.4635 29.1209 53.6812 29.2692 53.9716 29.4545C53.9716 29.0468 53.6813 28.8244 53.2821 28.8615ZM30.6369 27.3049C30.782 27.1937 30.8909 27.1937 30.9272 27.1196C30.9998 26.9713 31.0361 26.8231 31.0724 26.7119L30.9272 26.6378C30.8546 26.7489 30.7458 26.8601 30.7095 26.9713C30.6369 27.0084 30.6369 27.1196 30.6369 27.3049ZM63.2256 9.29271C63.1167 9.21859 63.0442 9.18153 62.9716 9.14447C62.9716 9.29271 62.9716 9.44096 63.0079 9.62627C63.5159 9.51509 63.5522 9.47802 63.5522 9.18153C63.4433 9.21859 63.2982 9.25565 63.2256 9.29271ZM80.645 55.4721C80.4998 54.9902 80.2821 54.842 79.8103 54.8791C80.1006 55.1014 80.3909 55.2867 80.645 55.4721ZM11.8022 40.3137C11.8385 40.3137 11.8748 40.2766 11.9474 40.2766C11.8748 40.0172 11.8022 39.7577 11.6933 39.4983C11.6933 39.4612 11.5845 39.4612 11.5482 39.4242C11.5119 39.4983 11.4393 39.5724 11.4756 39.6095C11.5845 39.8319 11.6933 40.0913 11.8022 40.3137ZM12.528 40.8696C12.7095 41.2032 12.8546 41.4997 12.9998 41.7591C13.2538 41.3885 13.145 41.1661 12.528 40.8696ZM66.0562 16.5569C66.3103 16.7051 66.4917 16.8163 66.7095 16.9646C66.7821 16.4828 66.6006 16.3716 66.0562 16.5569ZM54.8425 21.2267C54.8788 21.1896 54.9151 21.1526 54.9514 21.1155C54.6611 20.9673 54.7337 20.4484 54.3345 20.3743C54.2982 20.4113 54.2619 20.4484 54.1893 20.4855C54.4071 20.7449 54.6248 21.0043 54.8425 21.2267ZM56.5119 10.1451C56.5482 10.1822 56.5482 10.2563 56.5845 10.2934C56.8748 10.1451 57.1651 10.034 57.4554 9.88571C57.4192 9.81158 57.4192 9.77452 57.3829 9.7004C57.0925 9.88571 56.8022 10.034 56.5119 10.1451ZM43.3022 30.7887C43.2659 30.7887 43.2296 30.7517 43.2296 30.7517C43.0482 31.1964 42.8667 31.6782 42.649 32.1229C42.6853 32.1229 42.7216 32.16 42.7579 32.16C42.9393 31.7153 43.1208 31.2705 43.3022 30.7887ZM22.4716 26.0077C22.5441 26.0077 22.5804 26.0448 22.653 26.0448C22.7256 25.6741 22.8345 25.3406 22.9071 24.97C22.8708 24.97 22.8345 24.9329 22.7982 24.9329C22.6893 25.3035 22.5804 25.6741 22.4716 26.0077ZM29.9837 61.8838C30.7458 62.1432 30.8909 62.1432 31.0361 61.8838C30.6732 61.8838 30.3466 61.8838 29.9837 61.8838ZM9.98769 40.2766C10.0603 40.2395 10.0966 40.2025 10.1691 40.1654C10.1691 40.0542 10.1691 39.906 10.0966 39.7948C10.0603 39.7207 9.95141 39.6465 9.84254 39.6095C9.80624 39.6095 9.73366 39.6836 9.73366 39.6836C9.73366 39.7577 9.76996 39.8689 9.84254 39.943C9.87883 40.0542 9.95141 40.1654 9.98769 40.2766ZM16.0482 23.1539C15.903 23.191 15.7941 23.191 15.7579 23.2281C15.6853 23.3022 15.6127 23.4504 15.5764 23.5616C15.5764 23.5987 15.649 23.6357 15.6853 23.7099C15.7579 23.6357 15.8667 23.5616 15.9393 23.4875C15.9756 23.3763 16.0119 23.2651 16.0482 23.1539ZM10.5683 32.0488C10.532 32.0488 10.4958 32.0488 10.4232 32.0488C10.1691 32.4194 10.6046 32.7159 10.6409 33.0866C10.6046 32.7159 10.6046 32.3824 10.5683 32.0488ZM28.0603 61.439C28.278 61.5132 28.4232 61.5873 28.5683 61.6244C28.6046 61.6244 28.7135 61.6244 28.7135 61.5873C28.7498 61.5502 28.7498 61.4761 28.7135 61.439C28.6409 61.2537 28.278 61.2537 28.0603 61.439ZM20.0401 20.0037C19.8224 20.0778 19.6409 20.0778 19.5321 20.1519C19.4595 20.226 19.5321 20.4113 19.5321 20.5596C19.5683 20.5596 19.6046 20.5966 19.6409 20.5966C19.7861 20.4113 19.895 20.226 20.0401 20.0037ZM17.5724 17.6687C17.1732 17.7058 17.1006 17.817 17.3183 18.447C17.3909 18.1505 17.4998 17.9282 17.5724 17.6687ZM15.1772 9.81158C15.2135 9.84864 15.2135 9.84864 15.2498 9.88571C15.5401 9.62627 15.8304 9.4039 16.1571 9.14446C16.1208 9.1074 16.0845 9.07034 16.0482 9.03328C15.7579 9.29271 15.4675 9.55215 15.1772 9.81158ZM15.1046 48.3191C14.9595 48.2449 14.8506 48.1338 14.7417 48.1338C14.6691 48.1338 14.5966 48.2449 14.524 48.282C14.5966 48.3561 14.7054 48.4673 14.8143 48.5414C14.8506 48.5414 14.9595 48.4303 15.1046 48.3191ZM11.1853 14.6296C11.2216 14.6667 11.2579 14.7038 11.2942 14.7408C11.4756 14.5555 11.9111 14.6296 11.8385 14.1478C11.5845 14.3332 11.403 14.4814 11.1853 14.6296ZM71.8627 51.6917C71.8627 51.7658 71.899 51.8029 71.899 51.877C72.153 51.84 72.4433 51.7659 72.6974 51.7288C72.6974 51.6917 72.6974 51.6547 72.6611 51.6176C72.4071 51.6176 72.1167 51.6547 71.8627 51.6917ZM21.0925 22.3386C21.1288 22.3386 21.1651 22.3386 21.2014 22.3756C21.2377 22.2644 21.3466 22.1162 21.3103 22.0421C21.2377 21.9309 21.0925 21.8197 20.9837 21.7085C20.9474 21.7456 20.9111 21.7826 20.9111 21.7826C20.9474 21.9679 21.02 22.1533 21.0925 22.3386ZM28.4595 8.6256C28.8224 8.6256 29.0038 8.36616 29.0401 7.88435C28.8587 8.10673 28.6772 8.3291 28.4595 8.6256ZM37.4595 56.5098C37.3506 56.2133 37.278 55.9909 37.2054 55.8056C37.1691 55.7315 37.1329 55.6944 37.0966 55.6574C37.0603 55.6574 36.9877 55.6944 36.9514 55.7315C36.9514 55.8056 36.9514 55.8797 36.9877 55.9168C37.0966 56.1021 37.2417 56.2504 37.4595 56.5098ZM57.1288 27.2678C57.1651 27.2678 57.2014 27.2678 57.2377 27.2678C57.2014 26.8972 57.1288 26.5266 57.0925 26.1189C57.0563 26.1189 57.02 26.1189 56.9837 26.1189C57.02 26.4895 57.0563 26.8972 57.1288 27.2678ZM27.0804 61.1055C27.1167 61.0684 27.1167 61.0314 27.153 60.9572C26.899 60.8461 26.645 60.7719 26.3909 60.6607C26.3909 60.6978 26.3546 60.7349 26.3546 60.7719C26.5724 60.9202 26.8264 61.0314 27.0804 61.1055ZM14.8869 52.7295C14.8869 52.7665 14.8506 52.8036 14.8506 52.8406C15.032 52.8777 15.1772 52.9148 15.3587 52.9518C15.3587 52.9518 15.3949 52.8407 15.3949 52.7665C15.2135 52.7665 15.032 52.7665 14.8869 52.7295ZM56.9837 56.4727C56.9837 56.5098 57.02 56.5469 57.02 56.5839C57.3103 56.5098 57.6006 56.4357 57.8909 56.3986C57.8909 56.3615 57.8546 56.2874 57.8546 56.2504C57.5643 56.3245 57.274 56.3986 56.9837 56.4727ZM29.5845 18.8918C29.5119 18.6694 29.403 18.447 29.3304 18.2247C29.2579 18.7435 29.4393 18.8918 29.5845 18.8918ZM64.7861 15.1485C64.7498 15.1856 64.7498 15.2226 64.7135 15.2597C64.8587 15.445 65.0401 15.6303 65.2942 15.5933C65.3304 15.5562 65.3304 15.5191 65.3667 15.4821C65.149 15.408 64.9675 15.2968 64.7861 15.1485ZM59.524 30.7517C59.4877 30.7517 59.4514 30.7146 59.4151 30.7146C59.3062 30.974 59.1974 31.2335 59.0885 31.4929C59.1248 31.53 59.1974 31.53 59.2337 31.567C59.3062 31.3076 59.4151 31.0111 59.524 30.7517ZM42.5038 32.5677C42.4675 32.5306 42.4675 32.5306 42.4312 32.4936C42.2135 32.7901 41.9958 33.0495 41.7417 33.346C41.778 33.3831 41.8143 33.3831 41.8143 33.4201C42.0683 33.1236 42.2861 32.8271 42.5038 32.5677ZM17.3909 50.0981C17.3546 50.1351 17.3183 50.2092 17.282 50.2463C17.3909 50.3204 17.5361 50.4316 17.645 50.5057C17.6812 50.4316 17.7538 50.3575 17.7175 50.3204C17.645 50.2463 17.4998 50.1722 17.3909 50.0981ZM71.7538 33.6796C71.7901 33.7166 71.8264 33.7166 71.8627 33.7537C72.1893 33.5684 72.1893 33.5313 72.0442 33.2348C71.899 33.4201 71.8264 33.5684 71.7538 33.6796ZM25.1208 3.95577C25.1208 3.91871 25.0845 3.88165 25.0845 3.84459C24.7942 3.99284 24.5401 4.10402 24.2498 4.25227C24.2498 4.28933 24.2861 4.28933 24.2861 4.32639C24.5401 4.21521 24.8304 4.06696 25.1208 3.95577ZM65.2216 9.03328C65.4756 9.36684 65.5482 9.36684 65.7659 9.1074C65.5482 9.07034 65.403 9.07034 65.2216 9.03328ZM36.1893 2.54742C36.1167 2.51035 36.0804 2.51035 36.0079 2.47329C35.9353 2.6586 35.8627 2.88097 35.7538 3.06628C35.7901 3.10335 35.8627 3.10335 35.899 3.14041C36.0079 2.9551 36.0804 2.76979 36.1893 2.54742ZM67.5804 54.9532C67.5804 54.8791 67.5804 54.8049 67.5442 54.7679C67.3627 54.8049 67.2175 54.842 67.0361 54.8791C67.0361 54.9161 67.0361 54.9903 67.0724 55.0273C67.2538 54.9903 67.399 54.9903 67.5804 54.9532ZM23.5603 26.156C23.5603 26.193 23.5966 26.2671 23.5966 26.3042C23.778 26.2301 23.9595 26.193 24.1409 26.1189C24.1409 26.0818 24.1046 26.0077 24.1046 25.9706C23.9595 26.0448 23.778 26.1189 23.5603 26.156ZM34.3022 54.1008C34.3385 54.1378 34.3748 54.1749 34.4474 54.2119C34.5562 54.0637 34.7014 53.9525 34.8103 53.8043C34.774 53.7672 34.7014 53.7301 34.6651 53.6931C34.5562 53.8043 34.4111 53.9525 34.3022 54.1008ZM34.7014 61.7726C34.7377 61.8097 34.774 61.8467 34.774 61.9209C34.9917 61.9209 35.1369 61.8097 35.2095 61.6244C35.1732 61.5873 35.1732 61.5502 35.1369 61.5132C34.9917 61.5873 34.8466 61.6614 34.7014 61.7726ZM23.1974 59.4748C23.1974 59.5489 23.1611 59.5859 23.1611 59.6601C23.3062 59.6971 23.4877 59.7342 23.6329 59.7342L23.6691 59.623C23.524 59.5859 23.3425 59.5118 23.1974 59.4748ZM41.0522 5.03057C41.1974 5.1047 41.27 5.17882 41.3788 5.21588C41.4151 5.21588 41.524 5.1047 41.4877 5.06764C41.4514 4.99351 41.3788 4.88233 41.3062 4.8082C41.2337 4.88233 41.1974 4.95645 41.0522 5.03057ZM34.1933 44.1681C34.2296 44.1681 34.2659 44.1681 34.3022 44.2052C34.3748 44.094 34.4474 43.9457 34.52 43.8346C34.4837 43.7975 34.4837 43.7975 34.4474 43.7604C34.3385 43.7975 34.2296 43.7975 34.1933 43.8716C34.157 43.9087 34.1933 44.0569 34.1933 44.1681Z" fill="#610000"/>
</svg>
