<svg width="11" height="11" viewBox="0 0 11 11" fill="none" xmlns="http://www.w3.org/2000/svg">
<path fill-rule="evenodd" clip-rule="evenodd" d="M2.15277 0.990448C1.76135 0.586517 1.12674 0.586517 0.735316 0.990448C0.343897 1.39438 0.343897 2.04928 0.735317 2.45321L3.80665 5.62272L0.734804 8.79625C0.343607 9.2004 0.343607 9.85565 0.734804 10.2598C1.126 10.6639 1.76026 10.6639 2.15145 10.2598L5.22408 7.08545L8.29509 10.2546C8.68651 10.6586 9.32112 10.6586 9.71254 10.2546C10.104 9.85069 10.104 9.19579 9.71254 8.79185L6.64075 5.62188L9.70691 2.45422C10.0981 2.05007 10.0981 1.39482 9.70691 0.990672C9.31572 0.586525 8.68146 0.586525 8.29026 0.990673L5.22332 4.15914L2.15277 0.990448Z" fill="#610000"/>
</svg>
