<svg width="67" height="74" viewBox="0 0 67 74" fill="none" xmlns="http://www.w3.org/2000/svg">
<path d="M65.5387 1.85364C65.0059 1.70492 64.4732 1.55621 63.9759 1.4075C62.3066 0.961367 60.6017 0.515232 58.9324 0.0690974C58.4352 -0.0796141 58.009 0.0195275 57.5828 0.465662C56.7659 1.30836 55.9489 2.15106 55.132 2.99376C53.001 5.17486 50.8699 7.35596 48.7389 9.53706C48.6323 9.6362 48.4547 9.73534 48.3482 9.68577C48.2771 9.6362 48.2061 9.33878 48.2061 9.1405C48.2061 8.34737 48.2061 7.55424 48.2061 6.81069C48.2061 5.96799 48.0285 5.67056 47.4247 5.47228C46.8209 5.32357 46.1816 5.12529 45.5778 4.97658C43.944 4.53044 42.3102 4.03474 40.6764 3.5886C40.3212 3.48946 40.0371 3.5886 39.7174 3.88603C37.0891 6.41412 34.4253 8.94222 31.797 11.4703C31.5839 11.6686 31.4063 11.8669 31.2287 12.0652C31.2642 12.1147 31.2642 12.1643 31.2997 12.2139C31.4773 12.1147 31.6904 11.966 31.868 11.8173C31.9746 11.7677 32.0456 11.5695 32.1166 11.5695C32.5784 11.7182 32.8625 11.3712 33.1466 10.9746C33.2532 10.8259 33.4308 10.7268 33.5729 10.6772C34.1767 10.4789 34.7805 10.3302 35.3843 10.1815L34.6384 11.1729C34.4253 11.1729 34.2477 11.2225 34.0701 11.3216C33.7149 11.5199 33.6084 12.0156 33.7149 12.4122L32.6849 13.8001C32.5073 13.8001 32.3297 13.7506 32.1522 13.8001C31.9746 13.8001 31.7615 13.8001 31.6549 13.6514C31.2997 13.2549 31.0156 13.5523 30.8025 13.8993C30.5539 14.3454 30.2697 14.2463 29.9856 14.1471C29.8435 14.0975 29.7725 13.8001 29.5949 13.5027C25.6524 17.3196 21.6745 21.1366 17.6965 25.0031C17.732 25.0526 17.732 25.1022 17.7675 25.1518C18.1227 24.9535 18.5134 24.8048 18.8686 24.6065C19.0106 24.5569 19.1172 24.4082 19.2237 24.3091C19.5434 24.0116 19.9341 23.8629 20.1827 23.4664C20.5734 22.8715 20.9641 22.4254 21.6034 22.2767C22.2072 22.128 22.7755 21.5331 23.3083 21.0374C23.7345 20.6409 24.1252 20.0956 24.6935 19.9469C24.7645 19.9469 24.871 19.8477 24.9066 19.7486C25.1552 19.1042 25.6524 18.9555 26.0431 18.6085C26.5049 18.2615 27.0376 17.964 27.2507 17.1709C27.3218 16.9231 27.4638 16.8239 27.7125 16.8735C27.8545 16.9231 28.1031 16.8735 28.2097 16.7248C28.5649 16.3778 28.849 15.9317 29.2397 15.6342C29.7014 15.2377 30.1987 14.5437 30.767 15.2872C30.909 15.089 31.0156 14.7915 31.1577 14.742C31.3708 14.6924 31.5839 14.7915 31.868 14.7915C31.7615 14.8907 31.6904 14.9898 31.5839 15.089C31.4773 15.2377 31.2997 15.3368 31.2287 15.5351C31.0511 15.8821 30.909 16.2787 30.7314 16.5761C30.5539 16.8239 30.3408 17.0222 30.1632 17.2701C29.9501 17.5179 29.737 17.6171 29.4528 17.3196C29.4528 17.5675 29.4528 17.7658 29.4173 17.9145C29.0976 18.0632 28.8135 18.2119 28.5649 18.3606C28.4228 18.4598 28.3163 18.7076 28.2097 18.9059C28.1387 19.0546 28.0676 19.2529 27.9966 19.352C27.7125 19.699 27.4283 19.9469 27.1442 20.2939C26.9311 20.5417 26.6824 20.6904 26.3983 20.5417C26.2207 20.4426 25.9721 20.4921 25.8655 20.6409C25.5814 21.0374 25.3328 21.4836 25.0841 21.9297C24.9421 22.2271 24.871 22.5741 24.6935 22.822C24.2317 23.5655 23.7345 24.2595 23.1307 24.8048C22.7755 25.1022 22.4203 25.4492 22.0652 25.7962C22.0296 25.7466 21.9941 25.697 21.9586 25.6475C22.0652 25.4492 22.1007 25.1518 22.2427 25.0031C22.5624 24.4578 22.9176 23.9621 23.2728 23.4664C23.5569 23.1194 23.841 22.7724 24.1252 22.4254C24.4093 22.0784 24.6579 21.6818 24.9066 21.2853C24.9421 21.2357 24.9421 21.087 24.9421 20.9878C24.5869 21.087 24.2672 21.1366 23.9476 21.1861H23.9121C23.3083 21.3348 22.9176 22.1775 22.2427 22.1775L22.2072 22.2271C21.3903 22.9707 20.5734 23.6647 19.7565 24.3586C19.5079 24.5569 19.2237 24.7552 18.9396 24.9535C17.9451 25.7466 16.9506 26.5397 15.9206 27.3329C15.8496 27.3824 15.743 27.432 15.6365 27.4816C15.6009 27.432 15.6009 27.3824 15.5654 27.3329C16.2047 26.6389 16.8441 25.9945 17.5189 25.3005C17.4834 25.2509 17.4834 25.2013 17.4479 25.1518C15.672 26.7876 13.8961 28.473 12.1202 30.1088C12.1557 30.1584 12.1913 30.2575 12.1913 30.3071C12.4399 30.1088 12.6885 29.9601 12.9726 29.7123C12.9371 29.861 12.9371 29.9105 12.9371 29.9105C12.1202 30.7532 11.3033 31.5464 10.4509 32.3395C10.3799 32.3891 10.2733 32.3395 10.2023 32.3395C10.593 31.9925 10.9837 31.6951 11.2323 31.1994C11.1968 31.1498 11.1612 31.1002 11.1257 31.0507C10.5219 31.6455 9.91813 32.2403 9.31433 32.8352C9.34985 32.8848 9.34985 32.9343 9.38537 32.9839C9.63399 32.8352 9.88261 32.6865 10.2023 32.5378C9.66951 33.3805 8.95916 33.9753 8.56846 33.9753C8.42639 34.5702 6.43741 36.553 5.90464 36.553C6.04671 36.3547 6.15327 36.2556 6.25982 36.1564C6.33085 36.0573 6.40189 35.9086 6.47292 35.7599C6.43741 35.7599 6.43741 35.7103 6.40189 35.7103C5.44291 36.6026 4.48394 37.4948 3.45393 38.4862C3.66703 38.5358 3.8091 38.5358 3.91566 38.5854C4.30635 38.7341 4.69704 38.8828 5.08774 38.9819C5.19429 39.0315 5.30084 38.9324 5.4074 38.8828C5.6205 38.7341 5.83361 38.5358 6.08223 38.3871C6.11775 38.4367 6.15327 38.4367 6.18878 38.4862C6.11775 38.6349 6.08223 38.8332 5.97568 38.9324C5.83361 39.0315 5.69154 39.0315 5.51395 39.0315C5.51395 39.0811 5.51395 39.1306 5.51395 39.1802C5.83361 39.2794 6.15327 39.3785 6.47292 39.4776C6.47292 39.4281 6.47292 39.3785 6.50844 39.3785C6.40189 39.3289 6.29534 39.2794 6.15327 39.2298C6.29534 38.8828 6.36637 38.5854 6.61499 38.3375C6.97017 38.0401 7.46742 37.7922 7.53845 37.0487C7.53845 36.9495 7.68052 36.8504 7.75156 36.8504C8.28432 36.7017 8.6395 36.206 8.92364 35.6111C8.74605 35.7103 8.56846 35.8094 8.31984 35.9086C8.35536 35.7103 8.35536 35.4624 8.42639 35.4129C8.74605 35.0659 9.10123 34.7189 9.4564 34.4215C9.66951 34.2232 9.88261 34.0249 10.0957 33.8762C10.3443 33.6779 10.593 33.43 10.8771 33.2318C10.8771 33.5292 10.4509 33.7275 10.8416 34.124C10.9837 33.777 11.0902 33.5292 11.1968 33.2318C11.694 33.0335 12.2268 32.8352 12.7951 32.5873C12.5464 32.3891 12.5109 32.1908 12.7595 31.9925C12.9016 31.8438 13.0082 31.6455 13.1502 31.4968C13.1147 31.4472 13.0437 31.3977 12.9371 31.2985C13.1502 31.1002 13.3278 31.0011 13.5054 31.2985C13.7185 31.6455 13.8961 31.5959 14.0737 31.1498C14.1092 31.0507 14.1447 30.9019 14.2158 30.8028C14.3578 30.6541 14.4999 30.555 14.6775 30.4558C14.6775 30.6541 14.642 30.8524 14.642 31.1498C14.784 31.1002 14.9616 31.0507 15.1747 31.0011C15.0682 31.7942 14.2868 31.8438 14.1802 32.6865C14.0737 32.6865 13.9671 32.6369 13.7896 32.6369C13.7896 32.9343 13.7896 33.1822 13.7896 33.5292C13.3278 33.2813 13.0437 33.6283 12.8306 34.124C13.0082 34.0249 13.1502 33.9257 13.3278 33.8266C13.3633 33.8762 13.3633 33.9257 13.3989 33.9753C12.724 34.6197 12.0492 35.2642 11.3388 35.9581C11.3388 35.6607 11.3033 35.512 11.3033 35.2642C11.1612 35.512 11.0547 35.859 10.9481 35.859C10.4864 35.859 10.2378 36.3547 9.91813 36.7017C9.59847 37.0487 9.31433 37.3957 9.03019 37.7427C8.99467 37.7922 8.99467 37.8418 8.99467 37.8914C9.06571 37.941 9.13674 37.9905 9.2433 38.1392C8.88812 38.4862 8.60398 38.8828 8.28432 39.1306C7.96466 39.3785 7.60949 39.5272 7.28983 39.6759C7.28983 39.7255 7.32535 39.7751 7.32535 39.7751C7.64501 39.9238 7.92915 40.0725 8.17777 40.1716C8.31984 39.9734 8.39087 39.7751 8.49743 39.6759C9.70503 38.4367 10.8771 37.1974 12.0847 35.9581C12.9371 35.1154 13.8251 34.2727 14.6775 33.3805C15.1037 32.9343 15.5299 32.5378 15.9206 32.0916C16.0627 31.9429 16.2047 31.7942 16.3468 31.6455C16.3823 31.6951 16.4179 31.7446 16.4534 31.7942C16.3823 31.9429 16.3113 32.1412 16.2047 32.2404C15.8851 32.5873 15.5654 32.8848 15.2813 33.2318C15.0682 33.4796 14.9261 33.8266 14.713 34.124C14.5354 34.3719 14.3578 34.5206 14.1447 34.7189C14.1447 34.7684 14.1802 34.7684 14.1802 34.818C14.2868 34.818 14.3578 34.818 14.5354 34.7684C13.7185 35.5616 13.0082 36.3051 12.2623 37.0487C12.2268 36.9 12.1913 36.8008 12.1557 36.6521C11.8006 37.247 11.1612 37.3461 11.0547 38.288C11.0192 38.4862 10.8061 38.6349 10.6285 38.7837C10.2378 39.1306 9.95365 39.7751 9.42089 39.7255C9.38537 39.7255 9.34985 39.9238 9.31433 40.0229C9.17226 40.1221 9.06571 40.1716 8.92364 40.2708C8.92364 40.3203 8.92364 40.4195 8.95916 40.4691C9.20778 40.5186 9.49192 40.6178 9.74054 40.6673C10.0247 40.8656 10.3088 41.0639 10.664 41.1135C11.2323 41.2126 11.765 41.4605 12.2978 41.7579C12.4754 41.857 12.6885 42.2536 12.724 42.551C12.7595 43.1459 12.7595 43.7903 12.7595 44.4347C12.5109 44.633 12.2978 44.8808 12.0492 45.0791C11.9426 44.9304 11.8716 44.7817 11.8716 44.7817C11.8716 44.7817 12.1913 44.8313 12.2268 44.7321C12.2623 44.633 12.6885 42.6997 11.8006 42.0553C10.8771 41.4109 3.48945 38.8828 3.48945 38.8828C3.48945 38.8828 2.9922 49.59 3.24082 50.1353C3.31186 50.3336 4.30635 50.978 5.6205 51.8207C5.54947 51.8703 5.47843 51.8703 5.4074 51.8703C5.37188 52.3164 3.34738 54.2497 2.85013 54.2992C2.9922 54.1009 3.09875 54.0018 3.2053 53.9027C3.27634 53.8035 3.34738 53.6548 3.41841 53.5061C3.38289 53.5061 3.38289 53.4565 3.34737 53.4565C2.3884 54.3488 1.42942 55.2411 0.399414 56.2325C0.61252 56.282 0.75459 56.282 0.861143 56.3316C1.25184 56.4803 1.64253 56.629 2.03322 56.7282C2.13978 56.7777 2.24633 56.6786 2.35288 56.629C2.56599 56.4803 2.77909 56.282 3.02772 56.1333C3.06323 56.1829 3.09875 56.1829 3.13427 56.2325C3.06323 56.3812 3.02772 56.5795 2.92116 56.6786C2.81461 56.7777 2.63702 56.7777 2.49495 56.7777C2.49495 56.8273 2.49495 56.8769 2.49495 56.9265C2.81461 57.0256 3.13427 57.1247 3.45393 57.2239C3.45393 57.1743 3.45393 57.1247 3.48945 57.1247C3.38289 57.0752 3.27634 57.0256 3.13427 56.976C3.27634 56.629 3.34738 56.3316 3.596 56.0838C3.95117 55.7863 4.44842 55.5385 4.51946 54.7949C4.51946 54.6958 4.66153 54.5966 4.73256 54.5966C5.26533 54.4479 5.6205 53.9522 5.90464 53.3574C5.72705 53.4565 5.54947 53.5557 5.30084 53.6548C5.33636 53.4565 5.33636 53.2087 5.4074 53.1591C5.69154 52.8617 6.0112 52.5643 6.29534 52.2668C6.86362 52.6138 7.46742 52.9608 8.07122 53.3078C8.00018 53.4565 7.92915 53.5557 7.85811 53.5557C7.39638 53.5557 7.14776 54.0514 6.8281 54.3984C6.50844 54.7454 6.2243 55.0924 5.94016 55.4393C5.90464 55.4889 5.90464 55.5385 5.90464 55.5881C5.97568 55.6376 6.04671 55.6872 6.15327 55.8359C5.79809 56.1829 5.51395 56.5795 5.19429 56.8273C4.87463 57.0752 4.51946 57.2239 4.1998 57.3726C4.1998 57.4222 4.23531 57.4717 4.23531 57.4717C4.55497 57.6204 4.83911 57.7692 5.08774 57.8683C5.22981 57.67 5.30084 57.4717 5.4074 57.3726C6.57948 56.1829 7.71604 54.9932 8.88812 53.8035C9.17226 53.9522 9.4564 54.1009 9.74054 54.2496C9.56296 54.4479 9.38537 54.5966 9.2433 54.7949C9.20778 54.6462 9.17226 54.5471 9.13674 54.3984C8.78157 54.9932 8.14225 55.0924 8.0357 56.0342C8.00018 56.2325 7.78708 56.3812 7.60949 56.5299C7.21879 56.8769 6.93465 57.5213 6.40189 57.4717C6.36637 57.4717 6.33085 57.67 6.29534 57.7692C6.15327 57.8683 6.04671 57.9179 5.90464 58.017C5.90464 58.0666 5.90464 58.1657 5.94016 58.2153C6.18878 58.2649 6.47292 58.364 6.72155 58.4136C7.00569 58.6119 7.28983 58.8101 7.645 58.8597C8.21329 58.9588 8.74605 59.2067 9.27882 59.5041C9.4564 59.6033 9.66951 59.9998 9.70503 60.2972C9.77606 60.9912 9.74054 61.7348 9.74054 62.5279C9.77606 62.5775 9.8471 62.6271 9.88261 62.6271C9.81158 62.7758 9.74054 62.9245 9.74054 63.0236C9.74054 63.8168 9.70503 64.6099 9.74054 65.403C9.74054 66.1961 9.81158 67.0388 9.8471 67.832C9.8471 67.9807 9.81158 68.179 9.81158 68.3277C9.81158 68.9721 9.88261 69.6661 9.8471 70.3105C9.81158 70.7071 9.8471 71.0045 10.0602 71.2028C9.88261 71.6489 9.66951 72.0455 9.95365 72.5907C9.98917 72.6403 9.91813 72.8386 9.88261 72.9377C9.8471 73.0369 9.74054 73.0369 9.66951 73.136C9.70503 73.1856 9.74054 73.2847 9.81158 73.3343C12.9016 70.0626 15.9561 66.791 19.1172 63.4202C19.1527 64.8577 19.0462 66.1466 19.4724 67.5345C19.6855 67.6833 20.0406 67.9807 20.3958 68.1294C21.2127 68.4764 22.0296 68.7242 22.811 69.0217C23.3438 69.2199 23.841 69.5669 24.4448 69.4678C24.5159 69.4678 24.5869 69.5669 24.6579 69.6661C24.9421 69.9635 25.3328 69.8644 25.4393 69.3687C25.4748 69.4182 25.5459 69.4678 25.5814 69.5174C25.6169 70.0131 25.83 70.1618 26.1497 70.2113C26.2207 70.2113 26.2917 70.2609 26.3983 70.2609C27.0021 70.4592 27.5704 70.7071 28.1742 70.9053C28.4228 71.0045 28.6359 70.9053 28.6714 70.4592C28.6714 70.3601 28.7425 70.2609 28.8135 70.1122L28.849 70.1618C28.849 70.3601 28.8135 70.5583 28.778 70.8558C28.9556 70.6575 29.0621 70.6079 29.1332 70.5088C29.7014 69.8148 30.3052 69.1704 30.8735 68.4764C33.1111 65.8987 35.3843 63.3211 37.6219 60.7434C39.4333 58.6614 41.2091 56.5299 43.0205 54.4479C46.6433 50.284 50.2661 46.1201 53.8534 41.9562C56.5883 38.7837 59.2521 35.6111 61.9869 32.4882C62.6618 31.7446 62.9459 30.9019 62.9459 29.7123C62.9814 26.7876 63.1235 23.9125 63.2301 20.9878C63.2656 20.0956 63.1235 19.7982 62.4842 19.5999C62.058 19.4512 61.6673 19.352 61.2411 19.2529C62.5197 17.7658 63.7983 16.2787 65.077 14.7915C65.7518 14.048 66.0359 13.2053 66.0359 12.0156C66.0715 9.09093 66.2135 6.21584 66.3201 3.29118C66.2846 2.29977 66.178 2.05192 65.5387 1.85364ZM15.5299 30.6045C15.4944 30.6045 15.2813 30.3071 15.2103 30.1584C15.6365 29.861 15.9561 29.6627 16.2758 29.4148C16.3113 29.4644 16.3468 29.514 16.3468 29.5635C16.0982 29.9601 15.8496 30.3071 15.5299 30.6045ZM16.4534 36.3051C16.702 36.1068 16.9151 35.9086 17.1282 35.7103C17.0927 35.859 17.0927 35.9581 17.0217 36.1068C16.9151 36.4043 16.773 36.6026 16.4534 36.3051ZM17.1637 35.7103C17.3413 35.4624 17.5189 35.2642 17.732 34.9667C17.732 35.512 17.5899 35.6607 17.1637 35.7103ZM18.4424 34.4215C18.7265 33.8762 19.1172 33.5788 19.4724 33.1822C19.3658 33.3805 19.2948 33.6283 19.1527 33.777C18.9751 34.0249 18.7265 34.2727 18.4424 34.4215ZM19.5079 33.1326C19.721 32.8848 19.9696 32.6865 20.2182 32.3891C20.1827 32.8848 19.8986 33.1822 19.5079 33.1326ZM34.7449 13.3044C35.0646 13.4036 35.3843 13.4531 35.7039 13.4036C35.5263 13.5523 35.3132 13.7506 35.1356 13.9488C34.1056 14.5437 33.1466 15.3368 32.2587 16.3282C32.1166 15.5351 32.6139 15.3368 32.827 14.8907C32.9335 14.6924 33.0756 14.4941 33.2177 14.3454C33.6084 14.1471 34.1056 13.8497 34.7449 13.3044ZM26.8955 52.8121C26.86 52.9113 26.8245 53.06 26.7535 53.1095C26.6469 53.2582 26.5404 53.407 26.3983 53.5557C26.3628 53.6052 26.2562 53.6052 26.1852 53.6548C26.1852 53.5557 26.1852 53.407 26.2207 53.3574C26.3983 53.1591 26.5759 52.9608 26.7535 52.7625C26.8245 52.7625 26.86 52.7625 26.8955 52.8121ZM25.9721 51.9198C25.9366 51.8703 25.9366 51.8207 25.9011 51.7711C25.9721 51.672 26.0431 51.5233 26.1142 51.3746C26.1852 51.4241 26.2917 51.4737 26.3628 51.4737C26.2207 51.672 26.1142 51.8207 25.9721 51.9198ZM22.669 38.3375C22.4558 37.9905 22.2427 37.6435 22.0296 37.2965C22.4914 37.247 22.811 37.6931 22.74 38.288C22.7045 38.288 22.669 38.2879 22.669 38.3375ZM12.6175 51.8207C12.6885 51.7711 12.7595 51.7216 12.8306 51.672C12.8306 51.7711 12.8306 51.8703 12.8306 51.9694C12.6885 52.1677 12.5464 52.366 12.4044 52.5643C12.4044 52.366 12.4044 52.2173 12.4044 51.9694C12.4754 51.9198 12.5464 51.8703 12.6175 51.8207ZM14.1092 48.2516C14.0027 48.4995 13.8606 48.6978 13.754 48.9952C13.7185 48.9952 13.6475 48.9952 13.5764 48.9456C13.612 48.8465 13.6475 48.7969 13.683 48.7473C13.8251 48.5986 13.9671 48.4499 14.1092 48.2516ZM13.7185 51.8703C13.8606 51.7711 14.0027 51.672 14.1447 51.5728C13.9671 51.7711 13.7896 51.9694 13.612 52.2173C13.5764 52.1677 13.5409 52.1181 13.5054 52.0686C13.612 51.9694 13.683 51.9198 13.7185 51.8703ZM14.713 47.6072C14.713 47.7063 14.713 47.8551 14.6775 47.9542C14.5709 48.1525 14.4289 48.202 14.2868 48.0533C14.3934 47.9542 14.5354 47.8055 14.713 47.6072C14.6775 47.6568 14.6775 47.6072 14.713 47.6072ZM13.2213 49.243C13.2568 49.2926 13.2923 49.3422 13.3278 49.3917C13.3278 49.4413 13.2923 49.4413 13.2923 49.4909C13.2213 49.5405 13.1147 49.5405 13.0082 49.5405C13.0082 49.5405 13.0082 49.4909 12.9726 49.4909C13.0792 49.3917 13.1502 49.3422 13.2213 49.243ZM33.3242 16.4274C33.4663 16.1299 33.6439 15.8325 33.857 15.5847C33.7149 15.8821 33.5729 16.1795 33.4663 16.4769C33.4308 16.4769 33.3953 16.4769 33.3242 16.4274ZM36.6629 11.9164C36.6274 11.8173 36.5563 11.7182 36.5208 11.6686C36.5919 11.619 36.6274 11.5695 36.6984 11.4703C36.7694 11.6686 36.805 11.8669 36.876 12.0652C36.8405 12.0652 36.805 12.1147 36.7694 12.1147C36.6984 12.1147 36.6984 12.0156 36.6629 11.9164ZM36.9825 11.5695C36.947 11.4703 36.876 11.4207 36.8405 11.3216C36.9115 11.2225 37.0181 11.1233 37.0891 11.0242C37.2312 11.3712 37.3377 11.6686 37.3377 12.0156C37.2312 12.1147 37.1601 12.2139 37.0536 12.313C37.1246 12.0156 37.1246 11.8173 36.9825 11.5695ZM37.5508 11.7677C37.4088 11.4703 37.3377 11.1729 37.5153 10.6772C37.6219 10.9746 37.7284 11.1729 37.835 11.4207C37.7639 11.5695 37.6574 11.6686 37.5508 11.7677ZM38.0481 10.7268C37.977 10.6772 37.9415 10.578 37.8705 10.4789C37.9415 10.4293 38.0126 10.3302 38.0836 10.3302C38.1191 10.3302 38.1901 10.4293 38.2967 10.5285C38.1546 10.6772 38.0836 10.7763 38.0481 10.7268ZM30.0566 33.0335C29.737 33.3309 29.4173 33.6283 29.1332 33.9753C29.3818 33.4796 29.5949 33.0335 30.0566 33.0335ZM33.0756 32.9343C33.2532 32.7856 33.3953 32.6369 33.5373 32.4386C33.5729 32.3395 33.7149 32.3395 33.8215 32.3395C33.7149 32.6865 33.3953 32.9839 33.0756 32.9343ZM31.4063 33.7275C31.3708 33.6779 31.3708 33.6283 31.3352 33.5788C31.4773 33.4796 31.5839 33.3309 31.7259 33.2318C31.7615 33.2813 31.7615 33.3309 31.797 33.3805C31.6904 33.4796 31.5484 33.5788 31.4063 33.7275ZM32.756 31.3977C32.6494 31.3481 32.5784 31.2985 32.4008 31.1994C32.4363 31.1498 32.4718 31.1002 32.5428 31.0507C32.9691 31.0011 33.3598 30.8028 33.6794 30.3567C33.7149 30.4062 33.7149 30.4062 33.7504 30.4558C33.3953 30.7532 33.0756 31.0011 32.7204 31.2985C32.756 31.2985 32.756 31.3481 32.756 31.3977ZM33.7504 29.7618C33.7149 29.7618 33.6794 29.8114 33.6439 29.8114C33.6794 29.7618 33.7149 29.7618 33.7504 29.7618C33.7504 29.7123 33.7504 29.7123 33.7504 29.7618ZM27.89 37.1974C27.6414 37.594 27.3573 37.9905 27.0731 38.3871C27.0731 38.2879 27.0731 38.1888 27.0376 38.0897C27.0376 38.0401 27.0731 37.8914 27.1442 37.8418C27.3928 37.594 27.6414 37.3461 27.9256 37.0983C27.9256 37.1478 27.9256 37.1974 27.89 37.1974ZM27.6414 36.9C27.2507 37.4453 26.86 38.0401 26.5049 38.5358C26.4693 38.4862 26.4693 38.4862 26.4338 38.4367C26.8245 37.8418 27.0731 37.1974 27.6414 36.9ZM34.5673 30.2575C34.4963 30.4062 34.4608 30.5054 34.3898 30.6541C34.2832 30.7532 34.1767 30.9019 34.0701 31.0011C33.7149 31.1994 33.4308 31.4472 33.1822 31.7942C33.0401 31.8934 32.9335 31.9429 32.8625 31.9429C33.3597 31.2489 33.857 30.7037 34.3898 30.1584C34.4608 30.208 34.5318 30.208 34.5673 30.2575ZM12.724 47.4089C12.724 47.4585 12.724 47.5081 12.724 47.6072C12.724 47.7063 12.724 47.8055 12.724 47.9046C12.6175 48.0038 12.5109 48.1525 12.4044 48.2516C12.4044 48.2516 12.3688 48.2021 12.3333 48.1525C12.3333 48.0038 12.3333 47.8055 12.2978 47.6568C12.4754 47.6072 12.6175 47.5081 12.724 47.4089ZM12.7951 49.6892C12.8306 49.7883 12.8306 49.937 12.8306 50.0362C12.8306 50.0857 12.8306 50.0857 12.8306 50.1353C12.6885 50.284 12.5464 50.4327 12.4044 50.5814C12.4044 50.4327 12.4044 50.284 12.4044 50.1353C12.5464 49.9866 12.653 49.8379 12.7951 49.6892ZM12.3333 53.7044C12.3688 53.6052 12.3688 53.4565 12.4044 53.2582C12.5464 53.1095 12.6885 53.0104 12.8306 52.8617C12.8306 53.1095 12.9016 53.3078 13.0792 53.4565C12.8306 53.7539 12.5464 54.0018 12.2978 54.2992C12.2268 54.1505 12.2268 53.9027 12.3333 53.7044ZM25.4748 55.2411C25.6524 54.9436 25.9011 54.6958 26.2207 54.9436C26.2917 55.3402 26.1852 55.5385 25.83 55.5881C25.7235 55.5881 25.6169 55.6872 25.4748 55.7863C25.4393 55.5881 25.4038 55.3402 25.4748 55.2411ZM26.2207 54.9436C26.1852 54.8445 26.1142 54.7949 26.1142 54.7454C26.3983 54.3984 26.6114 54.0514 26.8955 53.8035C27.0376 53.6548 27.2152 53.6548 27.4283 53.6052C27.4283 53.1095 28.0321 52.5147 28.6004 52.6634C28.2807 52.9608 27.9966 53.2582 27.748 53.5557C27.7125 53.6052 27.7125 53.7539 27.6769 53.8035C27.4993 54.0018 27.3218 54.2001 27.1087 54.3488C27.0021 54.4479 26.86 54.4975 26.789 54.6462C26.6469 55.0428 26.4693 55.0924 26.2207 54.9436ZM44.0861 21.781C44.2992 21.9793 44.2992 22.2271 44.1216 22.4254C43.9795 22.5741 43.8374 22.7724 43.6954 22.9211C43.5533 22.8715 43.3757 22.822 43.2336 22.7724C43.4467 22.5245 43.6599 22.3263 43.873 22.0784C43.9085 22.0288 43.9795 21.8801 44.0861 21.781ZM30.8025 19.2033C30.8735 19.1537 30.9801 19.2033 31.0511 19.2529C31.0156 19.352 31.0156 19.5007 30.9801 19.5999C30.5894 20.1947 30.1632 20.7896 29.737 21.434C29.5949 21.3348 29.5238 21.2357 29.3463 21.1366C29.8435 20.4426 30.1276 19.5007 30.8025 19.2033ZM26.6469 24.0116C26.8245 23.7142 26.9666 23.2681 27.3218 23.5159C27.1797 23.7638 27.0731 24.0116 26.9666 24.2099C26.8955 24.3586 26.789 24.4082 26.6824 24.5074C26.6469 24.5074 26.5759 24.4578 26.5759 24.4578C26.5759 24.3091 26.5759 24.1108 26.6469 24.0116ZM25.7235 25.0031C25.8655 25.4988 24.9776 26.4902 24.3383 26.4902C24.8 25.9449 25.2262 25.4988 25.7235 25.0031ZM22.0296 28.8696C22.0652 28.9191 22.1007 28.9687 22.1362 28.9687C22.1362 29.0678 22.1362 29.2166 22.1007 29.2661C21.8165 29.4644 21.7455 30.1088 21.3193 30.0097C21.2838 30.0097 21.2127 30.1088 21.1772 30.1584C20.9286 30.555 20.7155 30.9515 20.4313 31.2489C20.1472 31.5959 19.7565 31.7942 19.4368 32.0421C19.4013 31.9925 19.4013 31.9925 19.3658 31.9429C20.0406 30.6045 21.1417 29.861 22.0296 28.8696ZM18.2293 31.9925C18.0517 32.1908 17.8741 32.3891 17.6965 32.5873C17.5189 32.7361 17.3413 32.8848 17.0927 33.083C17.1637 32.6865 19.3658 30.2575 19.7565 30.0097C19.9341 30.2575 19.8275 30.5054 19.65 30.6541C19.1882 31.1002 18.691 31.5464 18.2293 31.9925ZM19.0817 28.5226C19.2948 28.2747 19.5434 28.4234 19.8631 28.7704C19.5079 29.0678 19.1882 29.2661 18.9041 29.5635C18.5844 29.9105 18.3003 30.3071 17.9451 30.7532L17.9096 30.7037C17.4834 31.0507 17.0927 31.3976 16.6665 31.6951C16.631 31.6951 16.5954 31.6455 16.5954 31.6455C16.6665 31.4472 16.702 31.2489 16.773 31.1498C17.5544 30.2575 18.3003 29.3653 19.0817 28.5226ZM16.5954 28.4234C16.631 28.2747 16.7375 28.0764 16.8085 27.8781C17.1637 28.5721 17.1637 28.5721 17.6255 28.6217C17.5189 28.8696 17.1637 29.0183 16.4889 29.0183C16.4889 28.82 16.5244 28.6217 16.5954 28.4234ZM16.773 32.9343C16.7375 33.2318 16.773 33.43 16.702 33.4796C16.5599 33.6283 16.3823 33.7275 16.2047 33.8266C16.2047 33.777 16.1692 33.7275 16.1692 33.6779C16.3468 33.43 16.5244 33.2318 16.773 32.9343ZM13.0437 36.9C13.7185 36.1564 14.4289 35.4624 15.1037 34.7189C15.3168 34.5206 15.4944 34.3223 15.7075 34.124C15.8141 34.0249 15.9206 33.9753 16.0272 33.9257C16.0272 33.9753 16.0627 34.0249 16.0627 34.0249C15.7075 34.5206 15.3878 34.9667 15.0327 35.4624C14.9971 35.512 14.9261 35.6111 14.8551 35.6111C14.642 35.7103 14.4644 35.859 14.2513 36.1068C13.8606 36.6026 13.3633 36.9 12.8306 37.1974C12.9371 37.1478 12.9726 36.9991 13.0437 36.9ZM9.8471 40.2212C10.4864 39.5768 11.1612 38.9324 11.8006 38.288C12.0492 38.0401 12.2623 37.6931 12.5464 37.4453C12.5109 37.9905 12.2268 38.1392 11.9782 38.4367C11.765 38.6845 11.5519 39.0315 11.3388 39.3289C11.0902 39.6264 10.8416 39.8246 10.5574 40.0725C10.3088 40.2708 10.0247 40.4691 9.74054 40.6673C9.77606 40.4691 9.77606 40.2708 9.8471 40.2212ZM12.4044 39.3289C12.3688 39.3785 12.2978 39.3785 12.2978 39.4281C12.1202 40.1221 11.5875 40.2708 11.2678 40.7169C11.0547 41.0143 10.8061 40.9152 10.5574 40.5682C11.5164 39.6264 12.4754 38.6845 13.3989 37.7427C14.3223 36.8008 15.2103 35.7599 16.2047 35.0163C16.3823 34.7684 16.5244 34.471 16.7375 34.3223C16.9861 34.0745 17.2703 33.9753 17.5544 33.777C17.6255 33.7275 17.6965 33.6283 17.732 33.5788C18.1937 33.0335 18.6199 32.5378 19.0817 31.9925C19.1172 31.9429 19.1882 31.9925 19.2593 31.9925C19.2593 32.0421 19.2948 32.0916 19.2593 32.1412C18.9751 32.6369 18.691 33.1326 18.3713 33.6283C18.3003 33.7275 18.2292 33.777 18.1582 33.8266C18.0161 33.9257 17.8386 34.0249 17.6965 34.1736C17.3413 34.5702 16.9861 34.9667 16.631 35.3633C16.1692 35.859 15.7075 36.4043 15.2458 36.8504C15.0682 37.0487 14.8196 37.0983 14.6065 37.247C14.4289 37.3461 14.2868 37.4948 14.1447 37.6435C13.5409 38.2384 12.9726 38.7837 12.4044 39.3289ZM12.653 40.3699C12.6175 40.3203 12.582 40.2708 12.582 40.2212C12.7595 40.0229 12.9726 39.8246 13.1502 39.6759C13.1858 39.7255 13.2213 39.7751 13.2568 39.8246C13.0792 40.0229 12.8661 40.1716 12.653 40.3699ZM12.7595 44.7321C12.7951 44.7817 12.8661 44.7817 12.8661 44.8313C12.8306 44.9304 12.7595 45.0295 12.7595 45.1287C12.7595 45.1287 12.724 45.1287 12.724 45.1782C12.653 45.2278 12.5464 45.2774 12.4399 45.327C12.4044 45.2774 12.4044 45.2278 12.3688 45.1782C12.5109 45.0295 12.653 44.8808 12.7595 44.7321ZM8.21329 53.5557C8.21329 53.4565 8.21329 53.407 8.21329 53.3078C8.28432 53.3574 8.31984 53.3574 8.39087 53.407C8.28432 53.4565 8.2488 53.5061 8.21329 53.5557ZM10.4154 54.5471C10.2023 54.6958 9.98917 54.7949 9.77606 54.9436C9.8471 54.7949 9.88261 54.6462 9.95365 54.5471C10.0247 54.4975 10.0602 54.4479 10.1312 54.3984C10.2023 54.4479 10.3088 54.4975 10.4154 54.5471ZM6.75706 57.8187C7.39638 57.1743 8.07122 56.5299 8.71053 55.8855C8.95916 55.6376 9.17226 55.2906 9.4564 55.0428C9.42088 55.5881 9.13674 55.7368 8.88812 56.0342C8.67502 56.282 8.46191 56.629 8.2488 56.9265C8.00018 57.2239 7.75156 57.4222 7.46742 57.67C7.21879 57.8683 6.93465 58.0666 6.65051 58.2649C6.68603 58.0666 6.68603 57.9179 6.75706 57.8187ZM9.27882 56.976C9.2433 57.0256 9.17226 57.0256 9.17226 57.0752C8.99467 57.7692 8.46191 57.9179 8.14225 58.364C7.92915 58.6614 7.68052 58.5623 7.4319 58.2153C8.39087 57.2734 9.34985 56.3316 10.2733 55.3898C10.4864 55.1915 10.664 54.9932 10.8771 54.7454C11.0192 54.8445 11.1968 54.8941 11.3033 54.9436C11.1968 55.0428 11.0902 55.1419 10.9837 55.2411C10.4154 55.8359 9.8471 56.4308 9.27882 56.976ZM9.56296 58.017C9.52744 57.9674 9.49192 57.9179 9.49192 57.8683C9.66951 57.67 9.88261 57.4717 10.0602 57.323C10.0957 57.3726 10.1312 57.4222 10.1668 57.4717C9.95365 57.6204 9.77606 57.8187 9.56296 58.017ZM9.91813 67.1876C9.88261 67.138 9.88261 67.0884 9.88261 67.0884C9.95365 66.8901 10.0247 66.6423 10.1668 66.4936C10.4154 66.2457 10.6995 65.9979 10.9837 65.7996C10.9837 65.8492 11.0192 65.8987 11.0192 65.9483C10.9126 66.1961 10.7706 66.3944 10.664 66.6918C10.6285 66.6918 10.5219 66.6423 10.4154 66.6423C10.4154 67.0884 10.2023 67.1876 9.91813 67.1876ZM9.98917 71.6985C9.95365 71.6489 9.95365 71.5993 9.91813 71.5498C10.2733 71.1532 10.6285 70.7566 10.9837 70.3105C11.0192 70.3601 11.0547 70.4096 11.0547 70.4592C10.6995 70.9053 10.3443 71.3019 9.98917 71.6985ZM10.5219 69.8148C10.4864 69.7652 10.4509 69.7157 10.4154 69.6661C10.664 69.3687 10.9126 69.1208 11.1612 68.8234C11.1968 68.873 11.1968 68.873 11.2323 68.9225C11.0192 69.2695 10.7706 69.5669 10.5219 69.8148ZM11.5519 65.6013C11.4099 65.7996 11.2678 65.8987 11.0902 65.6013C11.2678 65.5022 11.4099 65.403 11.623 65.2543C11.5875 65.3534 11.5875 65.5022 11.5519 65.6013ZM19.6144 56.0838C19.3658 55.6872 19.1527 55.3402 18.9041 54.8941C19.4368 54.8445 19.7565 55.3898 19.6144 56.0838ZM22.5624 55.2411C22.7755 54.9436 22.9531 54.6958 23.1662 54.4479C23.3438 54.2496 23.3793 53.6548 23.841 54.0514C23.4859 54.4975 23.2017 54.9436 22.8465 55.3898C22.811 55.3898 22.7045 55.3402 22.5624 55.2411ZM23.0952 55.6872C23.4148 54.9436 24.2672 54.2497 24.5514 54.5471C24.1607 55.0924 23.77 55.6872 23.4148 56.1829C23.3083 56.0342 23.2017 55.8359 23.0952 55.6872ZM23.8765 57.3726C23.77 57.323 23.699 57.2239 23.5924 57.1247C23.6634 56.629 24.1252 56.3316 23.9476 55.7368C23.9476 55.6872 23.9831 55.5385 24.0541 55.4889C24.3738 55.1419 24.6935 54.8445 25.0131 54.5471C25.2262 54.9436 24.9776 54.9932 24.8355 55.0923C24.6224 55.2906 24.4448 55.4889 24.4804 55.6872C24.2672 56.3316 24.0897 56.8273 23.8765 57.3726ZM24.5869 57.9179C24.3383 58.017 24.3383 58.017 24.3028 57.6204C24.3028 57.5709 24.2672 57.4717 24.1962 57.3726C24.3383 57.4222 24.4448 57.4717 24.4804 57.4717C24.6224 57.0752 24.729 56.6786 24.871 56.2325C24.871 56.2325 24.8 56.1333 24.729 55.9846C24.871 55.8359 24.9776 55.6872 25.0841 55.5881C25.4038 55.935 25.4748 56.629 25.2262 57.2239C25.1197 57.5709 25.0486 58.1162 24.5869 57.9179ZM26.1852 59.0084C26.0786 58.9093 26.0076 58.711 25.9011 58.5623C25.9366 58.5127 25.9366 58.5127 25.9721 58.4631C26.0431 58.5127 26.1142 58.5127 26.1142 58.5127C26.2562 57.8187 26.3628 57.1743 26.5049 56.5299C26.5759 56.5299 26.6114 56.4803 26.6824 56.4803C26.7535 56.7282 26.8955 56.976 26.86 57.2239C26.789 57.7692 26.6114 58.2649 26.4693 58.7606C26.4338 58.8597 26.2562 59.058 26.1852 59.0084ZM26.8245 58.9093C27.0021 59.1571 26.9311 59.3554 26.8245 59.6033C26.6114 60.1485 26.5759 60.1981 26.2917 60.1981C26.3628 59.9503 26.3983 59.7024 26.4693 59.405C26.5049 59.405 26.5759 59.405 26.6469 59.405C26.6469 59.2067 26.4693 58.8597 26.8245 58.9093C26.789 58.8101 26.7535 58.6614 26.789 58.5623C26.9311 58.1161 27.0731 57.6204 27.2152 57.1743C27.2507 57.0752 27.2152 56.9265 27.2507 56.7777C27.2862 56.8769 27.3928 56.976 27.3928 57.0256C27.3218 57.5709 27.2152 58.1657 27.1087 58.711C27.1087 58.8101 26.9311 58.8597 26.8245 58.9093ZM27.3218 58.7606C27.3573 58.7606 27.3928 58.7606 27.4283 58.7606C27.4993 58.5623 27.5704 58.4136 27.6414 58.2649C27.6769 58.1657 27.748 58.0666 27.819 57.9179C27.8545 58.0666 27.9256 58.1657 27.9611 58.3144C27.9966 58.364 27.9966 58.5127 27.9611 58.5623C27.8545 58.8101 27.748 59.058 27.6414 59.2563C27.5349 59.1076 27.4283 58.9093 27.3218 58.7606ZM27.3928 56.629C27.6059 56.4308 27.748 56.0838 27.9966 56.0838C27.9966 56.1333 28.0321 56.1829 28.0321 56.2325C27.819 56.4308 27.6414 56.5795 27.4283 56.7777C27.4283 56.7282 27.4283 56.6786 27.3928 56.629ZM27.9966 60.099C27.9256 60.0494 27.819 59.9503 27.8545 59.9503C27.9966 59.3058 28.1742 58.711 28.3162 58.0666C28.3518 58.0666 28.4228 58.1161 28.4583 58.1161C28.2807 58.7606 28.1387 59.405 27.9966 60.099ZM28.7069 55.4393C28.6714 55.3898 28.6359 55.3402 28.6359 55.3402C28.778 55.1419 28.9556 54.9932 29.0976 54.7949C29.1687 54.9436 29.0976 55.0428 28.7069 55.4393ZM29.2042 53.06C29.2397 53.4565 27.9966 54.8941 27.6414 54.8445C27.5349 55.4393 26.6114 56.3316 26.1497 56.282C26.3983 56.976 26.0786 57.5709 25.9366 58.1657C25.9011 58.364 25.7945 58.5127 25.6879 58.711C25.2617 59.5041 25.1552 59.5041 24.6935 58.7606C24.9066 58.1657 25.1552 58.8597 25.4393 58.7606C25.3328 58.5127 25.2262 58.3144 25.0486 58.017C25.2262 57.9674 25.4038 57.8683 25.5459 57.8187C25.4038 57.4717 25.5459 56.4308 25.9011 56.0342C26.3983 55.4889 26.9311 54.9436 27.4638 54.3984C27.9611 53.9027 28.4583 53.4565 28.9556 52.9608C29.0976 52.8121 29.2042 52.713 29.3107 52.5643C29.4528 52.6138 29.5949 52.6634 29.737 52.713C29.5594 52.9112 29.3463 53.06 29.2042 53.06ZM31.5484 53.5061C31.1221 53.2582 31.0156 53.9027 30.767 54.1009C30.6959 54.1505 30.6249 54.1505 30.5539 54.2001C30.5894 54.1009 30.5539 54.0018 30.6249 53.9522C30.8025 53.7044 31.0156 53.5061 31.2287 53.3078C31.2642 53.3078 31.2997 53.2582 31.3352 53.2582C31.3708 53.2582 31.4063 53.2582 31.4418 53.2582C31.5128 53.2582 31.5839 53.2582 31.6549 53.2087C31.6549 53.2582 31.6904 53.3078 31.6904 53.3574C31.6194 53.3574 31.5484 53.5061 31.5484 53.5061Z" fill="#934343"/>
</svg>
