<svg width="94" height="68" viewBox="0 0 94 68" fill="none" xmlns="http://www.w3.org/2000/svg">
<path d="M0.0614997 19.3961C0.0614997 18.9686 0.0614997 18.58 0.0614998 18.1524C0.100356 18.0359 0.100364 17.9581 0.13922 17.8415C0.488929 16.0149 1.73233 14.4992 3.79171 14.4604C4.52998 14.4604 5.30711 14.7324 6.04538 14.849C6.20081 14.8879 6.43394 14.8879 6.55051 14.8101C7.05564 14.3438 7.56078 13.8385 8.02705 13.3333C8.33791 12.9835 8.3379 12.8281 7.87163 12.6338C7.21107 12.3228 6.74479 11.8565 6.43394 11.1958C6.35623 11.0792 6.16195 11.0015 6.00652 10.9626C5.92881 10.9237 5.81224 10.9626 5.73453 10.9626C5.73453 10.9237 5.69567 10.8849 5.69567 10.846C7.7162 10.0299 9.73673 9.21373 11.7184 8.35872C11.7184 8.281 11.7184 8.24213 11.7184 8.1644C11.4076 7.97008 11.0578 7.7369 10.747 7.54258C10.203 7.23167 9.62016 6.95962 9.07617 6.60984C8.76532 6.41552 8.53219 6.14348 8.33791 5.83256C8.14362 5.52165 8.22133 5.32733 8.57104 5.17188C9.27045 4.8221 9.96987 4.47233 10.6693 4.12255C12.0681 3.423 13.4669 3.07322 14.9823 3.65618C14.9823 3.65618 15.0212 3.61732 15.06 3.61732C14.5549 1.4798 14.5549 1.4798 14.8658 1.0523C15.2543 1.75185 15.9537 1.79071 16.6143 1.9073C16.964 1.94617 17.3526 1.98503 17.6634 2.14049C19.412 2.84004 21.1993 2.68458 22.9479 2.29594C25.4735 1.75185 27.9603 1.09116 30.4471 0.5082C31.846 0.158424 33.2448 0.00296846 34.6825 0.275016C34.9545 0.31388 35.2653 0.275016 35.5373 0.275016C35.8482 0.31388 36.1979 0.31388 36.5087 0.430472C36.7807 0.5082 36.975 0.741384 37.2081 0.89684C37.3636 0.974568 37.5967 1.0523 37.7133 0.974568C38.1407 0.741384 38.5293 0.819112 38.9178 1.0523C39.8504 1.55753 40.7441 2.0239 41.6766 2.52913C41.8709 2.64572 42.0263 2.76231 42.1817 2.8789C42.4149 3.03436 42.6092 3.26754 42.8423 3.423C43.5029 3.81164 44.1634 4.12255 44.824 4.47233C46.0674 5.13301 47.3496 5.7937 48.4376 6.7653C50.4581 8.66964 52.1678 10.8072 53.7998 13.0224C55.0043 14.6547 55.8592 16.4813 56.7917 18.269C57.2191 19.0463 57.6854 19.8236 58.1517 20.6009C58.2683 20.7952 58.5403 20.9118 58.6957 21.0672C58.7345 21.0284 58.8122 21.0284 58.8511 20.9895C58.8122 20.6786 58.8122 20.3288 58.7345 20.0179C58.5014 19.2795 58.2294 18.5022 57.9574 17.7638C57.6077 16.8311 57.3746 15.8983 57.53 14.8879C57.6077 14.3826 57.8408 13.994 58.2294 13.6831C58.346 13.6054 58.4237 13.411 58.4237 13.2945C58.4625 12.3229 58.618 11.3901 59.0454 10.4962C59.4728 9.56351 60.1722 9.05828 61.2213 9.09714C61.3379 9.09714 61.5322 8.98055 61.571 8.86396C61.9985 8.00895 62.5425 7.3094 63.203 6.64871C64.4076 5.48279 65.8841 4.70551 67.4383 4.20028C68.1766 3.92823 68.9926 3.81164 69.7697 3.61732C69.4589 4.00596 68.876 3.73391 68.604 4.16142C68.7983 4.58892 69.1869 4.55006 69.4977 4.55006C69.692 4.55006 69.8863 4.3946 70.0806 4.35574C70.9743 4.23914 71.7903 4.58892 72.6062 4.9387C72.7617 5.01642 72.9171 5.09415 73.1114 5.17188C73.4999 5.3662 73.9274 5.48279 74.2382 5.75484C74.7045 6.10462 75.0542 6.57098 75.4816 6.99849C75.5205 7.03735 75.5205 7.07621 75.5205 7.11508C75.637 7.3094 75.7147 7.54258 75.8702 7.7369C75.909 7.81463 76.0644 7.89236 76.1033 7.85349C76.2587 7.77577 76.4142 7.62031 76.5307 7.50372C76.5307 7.50372 76.4142 7.3094 76.3364 7.23167C76.2587 7.15394 76.1033 7.11508 76.1033 7.07621C76.1422 6.57098 75.6759 6.41553 75.4816 6.10462C75.4039 5.98802 75.365 5.71598 75.2873 5.71598C74.8599 5.67711 74.7433 5.3662 74.5879 5.09415C74.5102 4.97756 74.3548 4.8221 74.1993 4.78324C73.7719 4.58892 73.3445 4.35574 72.9171 4.23914C72.3342 4.04482 71.7514 3.81164 71.1297 3.8505C70.8966 3.8505 70.6634 3.81164 70.3914 3.81164C70.4691 3.73391 70.508 3.65618 70.5857 3.69505C71.3628 3.73391 72.1788 3.65618 72.9559 3.81164C77.2301 4.66665 78.1627 8.55305 77.5798 11.2347C77.0359 13.8774 74.4325 16.287 71.6348 16.5202C71.3628 16.559 71.2463 16.6756 71.2074 16.9088C71.2074 17.0643 71.1686 17.2586 71.1297 17.414C70.9743 18.5022 70.8577 19.6293 70.7023 20.7563C70.9743 20.8341 71.0131 21.145 70.9354 21.3782C70.8188 21.7279 70.6246 22.0388 70.4303 22.3109C70.2749 22.5829 70.0417 22.8161 69.8474 23.0493C69.6532 23.2825 69.4589 23.5157 69.2257 23.71C68.7206 24.1375 68.1378 24.4484 67.6326 24.9148C67.1664 25.3423 66.8166 25.9252 66.7778 26.7025C66.8944 26.5859 66.9332 26.5471 66.9721 26.5082C67.8658 25.5755 68.9537 24.8759 70.1583 24.3707C70.3914 24.2541 70.7023 24.3318 70.9743 24.293C71.1297 24.293 71.2851 24.3318 71.4405 24.293C71.9457 24.1375 72.412 23.8655 72.9171 23.8266C73.8496 23.7489 74.7822 23.7877 75.7147 23.7877C75.909 23.7877 76.0644 23.8266 76.2587 23.9043C76.4919 23.982 76.5307 24.1375 76.3753 24.3707C76.1033 24.7982 75.7925 25.1868 75.5982 25.6532C75.2873 26.275 75.093 26.9357 74.7822 27.5575C74.4713 28.2571 73.9662 28.7235 73.2279 28.9566C73.0725 28.9955 72.9171 29.1121 72.8005 29.1898C73.1502 29.8116 73.1502 30.006 72.6839 30.5112C72.4508 30.7832 72.1788 31.0553 71.868 31.2496C71.0131 31.7937 70.1583 32.3378 69.3035 32.8819C69.1092 32.9985 68.876 33.1539 68.604 33.3094C69.3423 33.6592 69.964 34.009 70.5857 34.281C70.0806 34.7862 69.5754 35.1749 69.2257 35.6801C68.7983 36.2631 68.9149 36.6906 69.5366 37.0792C69.8086 37.2735 69.964 37.5067 70.0029 37.8565C70.0417 38.284 70.0806 38.6726 70.1583 39.1001C70.236 39.4888 70.4691 39.6054 70.7411 39.2945C71.0131 39.0224 71.2851 38.6726 71.5183 38.3229C72.3342 36.9238 73.3445 35.6801 74.5491 34.553C76.5307 32.8042 78.7844 31.6771 81.4266 31.4828C83.6803 31.2885 85.662 32.1046 87.3716 33.5426C87.4493 33.6203 87.5659 33.698 87.5659 33.7758C87.4882 34.2033 87.8379 34.3587 88.1099 34.5919C88.6927 35.0971 88.8093 35.5635 88.4985 36.1853C88.343 36.5351 88.071 36.8072 87.8768 37.1181C87.7991 37.2735 87.7602 37.429 87.6825 37.6233C87.5659 38.0508 87.5271 38.5172 87.3328 38.867C86.8276 39.7997 86.0505 40.4215 85.118 40.8879C83.4083 41.7817 82.2426 41.8206 80.7661 40.4992C79.8724 39.722 78.9398 38.9835 77.9296 38.4006C76.2587 37.429 75.2485 38.284 74.5491 39.5276C74.3548 39.8385 74.1605 40.1883 73.9274 40.4604C73.5388 40.9267 73.0725 41.3154 72.9948 41.9761C72.9948 42.0538 72.9171 42.1315 72.8782 42.2093C72.5674 42.5979 72.412 43.0254 72.3342 43.5306C72.2565 44.0359 71.9457 44.3079 71.4405 44.4245C71.1297 44.5022 70.8188 44.58 70.508 44.7354C70.3914 44.7743 70.3137 44.8909 70.2749 45.0075C70.0417 45.7847 69.8474 46.562 69.5754 47.3393C69.3423 48.0389 68.876 48.6218 68.1766 48.9716C68.0989 49.0105 68.0212 49.0882 68.0212 49.127C68.0212 49.6323 67.6326 49.8266 67.2829 50.0598C66.9721 50.2541 66.5835 50.4096 66.2727 50.6427C65.4567 51.2646 64.6795 51.8864 63.9024 52.5471C63.8247 52.6248 63.7081 52.7025 63.6693 52.7803C63.3196 53.4798 62.7367 54.0239 62.115 54.5291C60.9105 55.4619 59.6671 56.3557 58.4625 57.2885C58.346 57.3662 58.2294 57.5217 58.074 57.6771C58.2683 57.6771 58.3848 57.716 58.4625 57.6771C59.0842 57.5217 59.6671 57.3662 60.2499 57.1719C64.563 55.8116 68.8372 54.4514 73.2668 53.5964C77.1524 52.858 81.0381 52.275 85.0014 52.858C86.3614 53.0523 87.6825 53.4021 88.9647 54.0239C92.5007 55.6951 93.9772 59.5037 93.4332 62.6517C93.1224 64.3229 92.3452 65.6831 90.791 66.5381C89.5864 67.1988 88.3042 67.2377 86.9831 67.0822C86.2059 67.0045 85.5454 66.6936 84.9625 66.1883C83.8357 65.1779 84.03 63.5067 85.3122 62.8072C85.5065 63.1569 85.7008 63.5456 85.9339 63.8565C86.0894 64.0897 86.3614 64.3617 86.6722 64.2063C86.9054 64.0897 87.1773 63.8176 87.2162 63.5844C87.2939 63.0792 87.3716 62.5351 87.2551 62.0299C86.9442 60.4365 86.0117 59.1928 84.7683 58.1824C84.6905 58.1046 84.574 58.0658 84.4574 57.988C84.2243 57.8714 84.0688 57.8714 83.9911 58.2212C83.9134 58.6876 83.8357 59.1539 83.7191 59.6203C83.6026 60.0478 83.3306 60.3976 82.8643 60.5142C82.2037 60.6696 81.2323 60.5919 80.7272 59.698C80.5718 59.426 80.3386 59.1539 80.1055 58.9208C80.0278 58.843 79.8724 58.8042 79.7169 58.8042C79.4838 58.7653 79.2507 58.8042 79.0564 58.7264C78.6678 58.6099 78.3181 58.4155 77.9295 58.3378C77.5798 58.2601 77.2301 58.2601 76.8804 58.2212C76.8416 58.9985 76.8416 59.6981 76.725 60.3587C76.6084 60.9028 76.453 61.4469 76.1422 61.9133C75.6759 62.6128 74.7433 62.5351 74.2771 61.8356C74.1605 61.6801 74.1216 61.4858 73.9662 61.3692C73.8496 61.2526 73.6554 61.1749 73.5388 61.1749C73.4222 61.1749 73.3056 61.4081 73.2668 61.5247C73.1891 61.7578 73.2279 62.0299 73.1502 62.2631C73.0337 62.7294 72.8005 62.9238 72.2954 62.8849C71.9068 62.846 71.5183 62.7683 71.1686 62.6517C70.5857 62.4185 70.0029 62.1853 69.4589 61.8744C69.148 61.6801 68.7206 61.4081 68.6429 61.0972C68.4875 60.2033 67.9823 59.5815 67.2052 59.1928C66.7778 58.9596 66.2727 58.8042 65.8841 58.571C65.4567 58.3378 65.0293 58.2601 64.563 58.2989C64.3298 58.3378 63.9801 58.4544 63.9024 58.6099C63.8247 58.8042 63.9413 59.154 64.0578 59.3483C64.4076 59.7758 64.7573 60.1255 64.9515 60.6696C65.1458 61.2526 65.2624 61.8356 65.107 62.4185C64.9904 62.8849 64.6795 63.1958 64.2133 63.3124C63.9801 63.3901 63.7859 63.3513 63.6304 63.0792C63.203 62.3019 62.5425 61.8356 61.7265 61.5247C60.2111 60.9417 58.6568 61.0972 57.1026 61.4081C55.5872 61.719 54.1495 62.3019 52.7118 62.8849C48.2433 64.7504 43.5806 65.9163 38.8012 66.4215C35.9259 66.7324 33.0117 66.7324 30.1363 66.2661C27.9215 65.9163 25.8232 65.2167 23.997 63.9342C23.2199 63.3901 22.5205 62.7294 21.7822 62.0687C21.0051 62.574 21.0051 62.574 20.3834 61.9133C19.5285 61.0194 18.7514 60.009 17.6246 59.4649C16.9251 59.1151 16.4589 58.6487 15.9926 58.1046C15.332 57.4051 14.6326 56.7444 13.9721 56.0448C11.9127 53.9073 10.3973 51.42 9.19274 48.7384C7.87163 45.7847 6.78365 42.7533 6.35623 39.5276C5.8511 35.5635 5.92881 31.6382 6.7448 27.7518C7.05564 26.3139 7.36649 24.8759 8.0659 23.5545C8.3379 23.0493 8.64875 22.6218 8.76532 22.0777C8.80418 21.8445 8.99846 21.6502 9.15388 21.4559C9.34817 21.1838 9.58131 20.9118 9.77559 20.6009C9.96987 20.29 10.1641 19.9402 10.3584 19.6293C10.5527 19.3184 10.747 19.0463 10.9413 18.7354C11.0578 18.5022 11.2133 18.1913 10.9413 17.8415C10.7081 18.0747 10.5139 18.269 10.3196 18.4634C9.54245 19.2795 8.80418 20.1345 7.94934 20.8729C6.70594 22 5.30711 22.7384 3.55858 22.6607C1.92661 22.6218 0.605491 21.6891 0.100364 20.1734C0.216933 20.0568 0.139213 19.707 0.0614997 19.3961ZM40.7441 24.3707C40.7441 24.2152 40.7829 24.0209 40.7052 23.9043C40.3944 23.3214 40.0835 22.7384 39.7338 22.1943C39.6561 22.0777 39.4618 22 39.3452 22C38.879 22 38.3738 22.0388 37.9853 22.3886C38.1795 22.3886 38.3738 22.3498 38.5681 22.3109C38.9955 22.1943 39.0344 22.1943 38.9955 22.6218C38.9567 23.3991 38.879 24.2152 38.7624 24.9925C38.607 26.0418 38.2961 27.0912 37.7133 28.0239C37.7133 28.0628 37.7133 28.1016 37.7133 28.1405C37.8687 28.0239 37.9853 27.9073 38.063 27.7518C38.4127 27.0523 38.7624 26.3527 39.0344 25.6143C39.1898 25.2257 39.3841 24.8759 39.3452 24.3707C39.2675 23.5934 39.4618 23.4379 40.1612 23.3991C40.2389 23.8266 40.1224 24.3318 40.7441 24.3707C40.7052 24.6816 40.4721 25.0702 40.5886 25.2646C40.8606 25.6532 40.7829 26.0418 40.8995 26.4305C41.0549 26.8968 41.0938 27.4409 41.1715 27.9073C41.2103 27.9073 41.2492 27.9073 41.2881 27.9073C41.3269 27.8296 41.3658 27.7907 41.3658 27.713C41.3269 27.0523 41.3658 26.3527 41.2492 25.6921C41.1715 25.2257 40.8995 24.7982 40.7441 24.3707ZM45.5234 39.411C45.5622 39.4499 45.64 39.4499 45.6788 39.4888C45.64 39.6442 45.6011 39.8385 45.4845 39.994C45.3291 40.1883 45.1348 40.3438 44.9794 40.5381C43.4251 42.4424 41.4435 43.8415 39.2675 44.8909C38.8012 45.1241 38.8012 45.124 38.9567 45.6293C39.4618 45.707 39.9281 45.7459 40.3944 45.8625C40.8606 45.9791 41.2103 46.29 41.3658 46.8729C40.8995 46.4454 40.8995 46.4454 40.6663 46.5232C41.0938 47.1061 41.4823 47.7279 41.2492 48.5441C41.2881 48.4275 41.3658 48.3498 41.4046 48.2332C41.9097 48.3886 42.2206 48.855 42.104 49.3602C41.9875 49.8655 41.7932 50.4096 41.56 50.8759C40.7829 52.2362 39.7338 53.4021 38.5293 54.4125C38.4127 54.4903 38.335 54.568 38.1795 54.7235C38.9567 54.8789 39.6561 54.8012 40.2778 54.5291C41.5212 54.0239 42.6869 53.4798 43.9303 52.9746C44.9405 52.5859 45.6011 51.9252 45.9897 50.9925C46.1062 50.6816 46.3005 50.6039 46.6114 50.6816C46.9222 50.7593 47.2719 50.7593 47.4662 50.4484C47.8159 49.9043 48.1268 49.3991 48.4765 48.855C48.9039 48.1554 48.9816 47.4559 48.7096 46.6397C48.5153 46.0568 48.3599 45.435 48.2433 44.7743C48.1268 44.1525 48.2822 43.997 48.8262 43.8027C48.9427 43.7638 49.0982 43.6472 49.137 43.5306C49.3313 43.1809 49.4479 42.7922 49.6422 42.4424C50.0696 41.704 50.1473 41.704 50.8467 42.1704C50.8856 42.1704 50.8856 42.2093 50.9244 42.2093C51.1576 42.4036 51.3518 42.3647 51.5461 42.0927C52.0901 41.3931 52.4398 40.577 52.6729 39.722C53.1781 37.5067 53.4501 35.2526 53.4501 32.9985C53.4501 30.5501 52.5564 28.4514 50.6913 26.8191C50.1861 26.3916 49.6422 26.0418 48.9816 25.9641C48.5542 25.9252 48.1268 25.9641 47.8548 26.3139C47.3108 26.8968 47.3496 27.6353 47.4273 28.4514C47.6605 28.1794 47.8159 28.0239 48.0102 27.8684C48.1268 27.7907 48.2433 27.6741 48.3599 27.6741C49.1759 27.713 49.8364 28.4903 49.7587 29.3064C49.7199 30.2003 48.9039 31.2107 47.9713 31.4439C47.6605 31.5217 47.3108 31.4828 46.9999 31.4051C46.7279 31.3273 46.6502 31.4051 46.5725 31.5994C46.5337 31.716 46.4948 31.8714 46.4559 32.0269C46.3005 33.1151 46.2228 34.2033 46.0285 35.2915C45.8731 36.3797 45.6011 37.429 45.4068 38.556C45.1737 38.2063 44.9794 37.8565 44.7851 37.5844C44.2411 36.846 43.6971 36.1076 43.1143 35.4081C42.5703 34.7862 41.7543 34.5919 40.9772 34.5142C40.7441 34.4753 40.5109 34.5919 40.2778 34.6696C40.2778 34.7085 40.2778 34.7862 40.2778 34.8251C40.3944 34.864 40.5498 34.9028 40.6663 34.864C41.4823 34.7862 42.1429 35.136 42.7257 35.6024C42.9589 35.7967 42.9977 36.1465 43.192 36.3797C43.464 36.6906 43.5806 37.0015 43.3474 37.3901C43.3086 37.429 43.3863 37.5456 43.4251 37.6622C43.5029 37.6233 43.5806 37.5844 43.6583 37.5067C43.736 37.429 43.736 37.3124 43.8137 37.2347C43.8526 37.2347 43.8914 37.2735 43.9303 37.2735C43.8914 37.5067 43.8526 37.7399 43.7749 38.0119C44.3188 37.8953 44.4354 38.0119 44.28 38.556C44.1634 38.8669 44.1246 39.139 44.6297 39.2167C44.4354 39.3333 44.2411 39.3722 44.0857 39.3722C43.9303 39.3722 43.8137 39.2556 43.6583 39.1779C43.6971 39.1001 43.8137 38.9447 43.9303 38.7115C43.5029 39.0224 43.192 39.2556 42.8423 39.4888C42.8034 39.5276 42.7646 39.6442 42.7646 39.722C42.7646 39.7608 42.8812 39.8385 42.9589 39.8385C43.5417 39.8774 44.1634 39.8774 44.7463 39.9551C45.2125 39.9551 45.4457 39.8774 45.5234 39.411ZM53.5278 26.5859C53.5666 26.5859 53.6055 26.5471 53.6444 26.5471C53.6444 26.3527 53.7221 26.1196 53.6832 25.9252C53.6055 25.5366 53.5278 25.148 53.3724 24.7982C52.129 21.5336 50.225 18.6965 47.8548 16.1315C47.5828 15.8595 47.2719 15.6263 46.9999 15.3931C46.7279 15.1599 46.4171 15.0822 46.0285 15.1211C45.7954 15.1599 45.4068 15.1599 45.2514 15.0045C44.8628 14.6158 44.4354 14.5381 43.9303 14.577C43.5806 14.6158 43.4251 14.4215 43.4251 14.1106C43.4251 13.994 43.3863 13.8774 43.3863 13.7608C43.3863 13.4499 43.2309 13.2556 42.92 13.1779C42.376 12.9835 41.832 12.7892 41.2492 12.6338C40.1612 12.3228 39.0344 12.2451 37.9853 12.7892C37.4801 13.0613 37.0527 13.411 36.5864 13.722C36.3144 13.9163 36.0425 14.1106 35.7316 14.2272C35.4985 14.3438 35.2653 14.266 35.2265 13.9163C35.1876 13.6831 35.1488 13.4888 35.071 13.2556C35.0322 13.0224 34.9156 12.9835 34.6825 13.0613C34.1773 13.2556 33.8276 13.6054 33.7499 14.1106C33.6722 14.6936 33.7499 15.2765 33.7111 15.8595C33.7111 16.0149 33.7499 16.1704 33.6722 16.3258C33.0894 17.7249 32.5065 19.1629 31.9237 20.562C31.7294 20.9895 31.846 21.1061 32.3122 21.1061C33.5556 21.0672 34.7602 21.1061 35.9259 21.5336C36.3533 21.6891 36.7807 22.0388 37.2081 22.0777C37.6744 22.1166 38.1407 21.8445 38.6458 21.7668C38.9567 21.7279 39.3452 21.6502 39.6172 21.7668C40.2001 22.0388 40.7441 22.4275 41.2492 22.8161C42.1817 23.5545 42.8423 24.5261 43.3863 25.5755C43.5029 25.8475 43.6583 26.0807 43.8137 26.3527C44.1634 26.003 44.4354 25.6532 44.7074 25.3811C46.4948 23.5545 48.6319 23.1659 50.8078 24.3707C51.6238 24.8371 52.3232 25.5366 53.1004 26.1196C53.2947 26.3527 53.4112 26.4693 53.5278 26.5859ZM14.3218 23.5934C14.0886 23.8266 13.9332 24.1764 13.6612 24.2541C13.0784 24.4873 12.9229 24.9536 12.8064 25.4589C12.2624 27.9073 12.379 30.3557 12.7675 32.8042C12.9618 33.8924 13.2727 34.9028 13.9332 35.7967C14.5938 36.6906 15.4486 36.9626 16.4977 36.6517C17.0806 36.4962 17.3526 36.1076 17.3526 35.4858C17.3526 34.9028 17.0029 34.4753 16.42 34.3587C16.148 34.3199 15.7983 34.3199 15.5263 34.3976C15.2543 34.4753 15.1766 34.3976 15.0989 34.1644C14.6715 32.9596 15.3709 31.9492 16.6532 31.9103C17.9743 31.8714 19.3731 32.7653 19.9171 34.0478C19.9559 34.1644 20.0336 34.3199 20.1114 34.5142C20.4611 33.4649 20.7331 32.4933 21.1605 31.5605C21.4713 30.861 21.4713 30.278 21.0828 29.6173C20.6942 28.9566 20.8496 28.4125 21.4325 27.9073C21.6268 27.7518 21.821 27.5964 22.0542 27.4021C21.8987 27.3243 21.7822 27.2855 21.7045 27.2466C20.8885 26.8191 20.0725 26.3916 19.2954 25.9252C18.6737 25.5366 18.2851 24.9925 18.2851 24.1764C18.2851 23.0104 18.2463 21.8834 18.2463 20.7175C18.2463 19.9013 18.2463 19.9013 17.4691 19.6681C17.0806 19.5516 16.964 19.5904 16.9251 20.0179C16.8474 20.562 16.8086 21.1061 16.8474 21.6502C16.9251 22.5441 16.7309 23.3602 16.42 24.2152C16.1869 24.837 15.7983 25.3811 15.332 25.9252C14.9046 25.148 15.0212 24.1764 14.3218 23.5934ZM20.1114 36.7294C19.5674 37.2735 19.0622 37.8953 18.4794 38.3617C17.5468 39.1779 16.4589 39.4888 15.2543 38.9447C14.7103 38.7115 14.2052 38.4006 13.7001 38.1285C13.5446 38.0508 13.3504 37.9731 13.1172 37.8565C13.2727 38.284 13.4281 38.6338 13.5446 38.9835C13.7001 39.5276 13.5446 39.8385 13.0395 40.0329C12.8841 40.1106 12.7287 40.1883 12.5732 40.2661C12.0681 40.4992 12.0292 40.849 12.4178 41.2377C12.6898 41.4708 13.0007 41.6652 13.2726 41.8983C13.8166 42.3258 13.8555 42.7533 13.3504 43.2974C13.2726 43.3752 13.1561 43.4918 13.0784 43.5695C12.7287 43.8415 12.7287 44.0359 13.1172 44.3079C13.2338 44.3856 13.3504 44.4634 13.5058 44.5411C14.2441 44.9686 14.9435 45.4738 15.3709 46.2122C15.6817 46.7563 16.1869 46.9507 16.692 47.1061C16.8086 47.145 16.9251 47.1838 17.0417 47.1838C18.052 47.3393 19.0234 47.5336 20.0337 47.6502C20.5388 47.7279 20.9662 47.4559 21.1993 46.9895C21.3548 46.6786 21.5102 46.3677 21.7045 46.0568C22.3262 45.0852 23.1422 44.3856 24.269 43.997C24.3856 43.9581 24.541 43.9193 24.7353 43.8804C24.6187 43.5695 24.541 43.2974 24.3856 43.0643C23.8027 42.0538 23.181 41.0822 22.5593 40.1106C22.4816 39.994 22.3262 39.9163 22.2096 39.8774C21.6656 39.5276 21.1216 39.2167 20.5388 38.8669C20.3834 38.7504 20.2668 38.6338 20.3834 38.4006C20.8496 37.7399 20.6942 37.1569 20.1114 36.7294ZM31.4185 7.03735C31.5351 7.03735 31.6128 7.07621 31.7294 7.07621C32.5842 7.11508 33.4391 7.11508 34.2939 7.23167C37.8298 7.65917 41.2492 8.55304 44.2023 10.6906C44.3966 10.846 44.552 10.8072 44.7851 10.7294C44.9794 10.6517 45.2514 10.574 45.4068 10.6517C45.7177 10.8072 46.0285 11.0403 46.1839 11.3513C46.3782 11.7399 46.6114 11.8953 46.9999 12.0119C47.2331 12.0897 47.5439 12.3229 47.5828 12.5172C47.6216 12.8281 47.7382 12.9835 47.9713 13.1779C48.2045 13.3722 48.4376 13.6054 48.6319 13.8385C49.9919 15.4708 51.3907 17.142 52.7507 18.7743C52.8284 18.8909 52.9838 19.0463 53.1004 19.0463C53.4501 19.0852 53.8386 19.0463 54.2272 19.0463C54.1883 18.9297 54.1883 18.852 54.1495 18.8131C54.0329 18.5411 53.9552 18.269 53.8386 17.997C52.5952 15.1211 50.8467 12.556 48.7096 10.3019C46.9999 8.47532 45.0571 6.88189 42.7646 5.83257C42.376 5.63825 41.9486 5.48279 41.5212 5.44393C41.0161 5.3662 40.4721 5.40506 39.9281 5.32733C38.9955 5.21074 38.063 5.05529 37.2859 4.51119C36.8584 4.23914 36.4699 4.16141 36.0424 4.43346C35.5373 4.74437 35.2265 4.66665 34.799 4.23914C34.7213 4.16141 34.6048 4.08369 34.5271 4.08369C34.1385 4.12255 33.7111 4.08369 33.3614 4.20028C32.2734 4.58892 31.4185 5.94916 31.4185 7.03735ZM31.9237 57.9103C31.1854 57.716 30.4471 57.4439 29.7089 57.2885C27.4552 56.861 25.2015 56.3557 23.0256 55.5785C21.1993 54.9178 19.5285 54.0628 18.1685 52.6248C17.78 52.1973 17.3137 51.8087 16.8474 51.42C16.7697 51.3423 16.5754 51.3034 16.4589 51.3423C15.9926 51.42 15.5263 51.4977 15.06 51.6143C14.9435 51.6532 14.7881 51.7698 14.7492 51.8864C14.5549 52.5859 14.7103 53.2078 15.2543 53.6741C15.4486 53.8684 15.7206 53.985 15.9149 54.1794C16.1092 54.3737 16.3034 54.6069 16.3423 54.84C16.42 55.423 16.5754 55.9671 17.1971 56.2392C17.7023 56.4723 18.0908 56.9387 18.5571 57.1719C19.9948 57.8714 21.4325 58.5321 22.909 59.1928C23.2199 59.3483 23.3753 59.426 23.1422 59.7758C22.9479 60.0478 23.0256 60.2033 23.3364 60.3199C25.0073 60.8251 26.6781 61.2526 28.3878 61.4858C29.4369 61.6412 30.486 61.6801 31.4963 61.3303C32.1957 61.0972 32.7008 60.6696 32.9339 59.9701C33.1671 59.2705 32.7008 58.8042 32.0014 58.9208C31.8848 58.9596 31.8071 58.9596 31.6128 58.9985C31.8071 58.571 31.8848 58.2601 31.9237 57.9103ZM64.1356 47.8057C64.9127 47.4559 65.651 47.145 66.3892 46.7952C66.5058 46.7563 66.6224 46.7175 66.7389 46.6397C67.1664 46.4454 67.3606 46.0568 67.2441 45.5516C67.0886 44.7354 67.4772 44.0359 67.9046 43.3752C68.0212 43.142 68.1766 42.9088 68.2543 42.6756C68.3709 42.3258 68.4098 41.9761 68.4486 41.6652C68.5263 41.3542 68.6818 41.0433 68.6429 40.7324C68.5263 39.6442 68.332 38.5949 68.1378 37.5067C68.06 37.0792 67.7492 36.8849 67.3606 36.8072C67.1275 36.7683 66.8555 36.8072 66.6224 36.7683C66.2338 36.7294 66.0395 36.9238 66.0395 37.2735C66.0395 37.5844 65.8841 37.7399 65.651 37.8954C64.9127 38.3617 64.1356 38.8669 63.3973 39.3722C61.9985 40.3049 60.5996 41.2377 59.4728 42.559C59.2785 42.7922 59.0454 43.0254 59.162 43.414C59.2008 43.5695 59.0842 43.7638 59.0065 43.9193C58.9677 44.0359 58.89 44.1525 58.8122 44.3079C59.0454 44.3468 59.2397 44.3856 59.4339 44.3856C60.0945 44.4634 60.7162 44.5411 61.3768 44.6188C61.8819 44.6965 62.3093 45.0852 62.2705 45.3572C63.2807 46.0179 63.8247 46.8729 64.1356 47.8057ZM29.67 49.2436C29.7089 49.2436 29.7089 49.2048 29.7477 49.2048C29.7866 49.3214 29.8643 49.3991 29.8643 49.5157C30.0586 50.293 29.398 50.7205 29.1649 51.3423C29.3592 51.4589 29.5146 51.5755 29.7089 51.7309C28.7763 52.3916 27.8826 52.9746 27.0278 53.5964C27.0278 53.6741 27.0278 53.713 27.0666 53.7907C27.3386 53.9073 27.6106 54.1016 27.9215 54.1016C28.5043 54.1016 29.0872 54.0239 29.67 53.985C30.0197 53.9462 30.1751 53.713 30.4083 53.4409C30.758 52.9357 31.1466 52.4693 31.6128 52.0807C32.118 51.6532 32.7008 51.7309 33.2448 52.1584C33.3225 52.2362 33.4391 52.3139 33.5168 52.3916C34.7213 50.7205 35.7705 49.0104 36.703 47.1838C36.1202 47.145 35.5762 47.145 35.0322 47.1061C33.5556 46.9507 32.118 46.8341 30.7191 46.2511C30.0197 45.9402 29.3203 45.9402 28.6209 46.2511C27.9215 46.562 27.2221 46.7952 26.5615 46.0568C26.0564 48.8161 23.8804 49.5545 21.5879 50.2152C22.2873 50.4873 22.8702 50.6039 23.5307 50.5261C24.6576 50.4096 25.629 49.9432 26.5615 49.3214C26.8724 49.127 27.0666 49.127 27.2998 49.438C27.4163 49.5934 27.5329 49.71 27.6883 49.8655C28.1935 49.438 28.7375 49.127 29.3592 49.2436C29.4369 49.5157 29.5146 49.7489 29.5534 49.982C29.5923 49.982 29.6312 49.9821 29.7089 49.9432C29.67 49.71 29.67 49.4768 29.67 49.2436ZM52.9838 58.2601C53.3335 58.0658 53.6832 57.9492 53.9164 57.716C54.3438 57.3273 54.7712 56.8998 55.1598 56.4723C55.6649 55.9282 56.1312 55.3453 56.6363 54.84C56.7917 54.6846 57.0637 54.6069 57.258 54.4903C57.3746 54.4125 57.5688 54.4125 57.6077 54.3348C57.9574 53.7907 58.346 53.2855 58.618 52.7025C59.2785 51.148 60.2888 49.9432 61.6099 48.9327C62.4259 48.3109 62.4647 48.0777 61.9596 47.145C61.8819 46.9895 61.7653 46.7952 61.6099 46.6786C60.7939 45.7459 59.3562 45.7459 58.5403 46.7175C58.3848 46.9118 58.2683 47.145 58.2294 47.3782C58.1517 47.7668 58.2683 48.1554 58.618 48.4275C58.9288 48.6607 59.2008 48.4664 59.4728 48.3498C59.5117 48.3109 59.5894 48.3109 59.6671 48.272C59.7837 48.9327 59.5894 49.3991 59.1231 49.7877C58.4625 50.3707 57.6854 50.4096 56.9083 50.0598C55.7815 49.5157 55.7037 48.5052 55.9369 47.417C55.1986 47.8057 52.401 50.6039 52.0124 51.2646C52.0512 51.3034 52.0901 51.3034 52.129 51.3423C53.2169 51.8864 53.4112 52.2362 53.1781 53.4409C53.1004 53.8684 53.4112 54.1405 53.7609 54.0239C54.1883 53.8684 54.3438 53.985 54.2661 54.4514C54.2272 54.6069 54.2272 54.8012 54.1495 54.9566C53.7998 55.6562 53.4501 56.3557 53.1004 57.0553C53.0227 57.3273 52.9061 57.6771 52.9838 58.2601ZM23.5696 15.1211C23.3753 14.9656 23.2199 14.6936 23.1422 14.7324C22.9867 14.7713 22.7924 14.9656 22.7147 15.1211C22.2485 15.9372 22.2096 16.8311 22.4816 17.7249C22.7536 18.58 23.4141 19.124 24.1913 19.5515C24.5798 19.7459 24.9684 19.9402 25.3181 20.2122C25.4735 20.3288 25.5124 20.6009 25.5512 20.7952C25.5901 20.9895 25.5512 21.2616 25.5901 21.4559C25.7067 21.8057 25.7067 22.1166 25.4347 22.3498C25.2015 22.5441 25.1627 22.7384 25.2015 23.0104C25.2404 23.2825 25.2015 23.5157 24.8907 23.6711C24.813 23.71 24.7353 23.8266 24.6964 23.9432C24.6576 24.2152 24.6187 24.5261 24.5798 24.7982C24.6187 24.8371 24.6576 24.8759 24.6576 24.8759C24.8518 24.7205 25.0461 24.6039 25.2015 24.4484C25.8621 23.71 26.5615 23.1659 27.6106 23.0882C27.7272 23.0882 27.8826 22.9327 27.9603 22.8161C28.1158 22.5052 28.1935 22.1166 28.3489 21.8057C28.6986 20.9118 29.2426 20.6397 30.214 20.7563C30.6026 20.8341 30.9523 20.9118 31.3408 20.9895C31.3797 20.9507 31.4185 20.9507 31.4185 20.9118C30.214 19.0075 29.1649 17.0254 29.9032 14.577C29.7477 14.6936 29.7089 14.7324 29.67 14.8101C29.126 15.5097 28.6986 16.2481 28.5043 17.1031C28.3878 17.6083 28.1158 17.8415 27.6883 17.997C27.3775 18.1136 27.0666 18.3079 26.7558 18.4245C25.5901 18.9686 25.2793 18.7743 24.8907 17.8027C24.6187 17.1031 24.4633 16.3258 24.3078 15.5874C24.1913 15.0822 24.0747 15.0045 23.5696 15.1211ZM65.0293 18.3856C65.3013 18.1913 65.5732 17.9581 65.8841 17.7638C66.1949 17.5695 66.5058 17.414 66.8166 17.2974C67.2441 17.1031 67.7103 16.9865 68.1378 16.8311C68.2932 16.7533 68.4486 16.6368 68.6429 16.5202C67.8269 15.6652 67.2441 14.7713 66.9721 13.6831C66.6224 12.3617 67.1275 11.3124 68.3709 10.7294C68.7206 10.574 69.148 10.4574 69.4977 10.3408C69.6532 10.3019 69.7697 10.2631 70.0806 10.1853C69.8474 9.91329 69.7309 9.64124 69.5366 9.56351C69.1869 9.44692 68.7983 9.33033 68.4486 9.36919C67.0498 9.48578 66.0784 10.3019 65.4178 11.4678C65.2235 11.8176 65.0681 12.2451 64.8738 12.6726C65.0681 12.6726 65.107 12.6726 65.1847 12.6726C65.6898 12.6726 65.8064 12.7892 65.7287 13.2945C65.651 13.6442 65.5732 13.994 65.4955 14.3438C65.3012 15.2765 65.0681 16.2093 64.9127 17.142C64.835 17.6084 64.835 18.0747 65.0293 18.3856ZM81.5043 34.3199C80.9603 34.3976 80.4164 34.3976 79.8724 34.553C79.4061 34.6696 78.901 34.864 78.4735 35.0971C78.3181 35.1749 78.2015 35.4469 78.2015 35.6024C78.2015 35.719 78.4347 35.8744 78.5901 35.9522C78.7455 36.0299 78.9398 36.0687 79.0952 36.1076C79.8724 36.3408 80.5718 36.7294 81.0769 37.429C81.3878 37.8565 81.8152 38.2451 82.2426 38.5949C82.7089 38.9835 83.0586 38.9058 83.4083 38.4394C83.7969 37.9731 84.1077 37.4678 84.4574 36.9626C84.6128 36.6906 84.6128 36.4574 84.4186 36.2242C84.2243 36.0299 84.0688 35.7967 84.1854 35.4858C84.1854 35.4469 84.1466 35.2915 84.1077 35.2526C83.2529 34.9028 82.5535 34.0867 81.5043 34.3199ZM76.9581 33.7369C77.1913 33.6203 77.3079 33.5037 77.4244 33.4649C78.0073 33.2705 78.5901 33.1151 79.173 32.9596C80.6495 32.5321 82.126 32.6098 83.5249 33.1539C84.4574 33.5426 85.1957 34.0867 85.0403 35.2526C84.9625 35.8744 85.1957 36.4185 85.5842 36.8849C86.0117 37.429 86.9442 37.6233 87.3328 37.2735C87.9156 36.7683 88.2265 36.1465 88.2265 35.3692C88.2265 35.0194 88.1099 34.7862 87.7991 34.5919C87.5659 34.4365 87.2939 34.281 87.2162 34.0478C87.0996 33.7369 86.9442 33.7369 86.6722 33.6592C86.2837 33.5815 85.8174 33.5037 85.6231 33.2317C85.3511 32.9208 85.0791 32.8042 84.7683 32.6487C84.6128 32.571 84.4186 32.5321 84.2631 32.4933C83.0197 32.0269 81.7763 31.7937 80.4941 32.1435C80.1832 32.2212 79.9112 32.2989 79.6004 32.3378C78.6678 32.4933 77.8518 32.9208 77.1136 33.4649C77.0359 33.5037 77.0359 33.5814 76.9581 33.7369ZM40.8606 60.009C40.9772 59.698 41.0549 59.4649 41.1715 59.2317C41.4046 58.8042 41.5989 58.3378 41.9098 57.9492C42.4149 57.3273 43.1143 57.4439 43.5029 58.1435C43.6194 58.3767 43.736 58.6487 43.8137 58.9208C43.9303 59.3094 44.008 59.698 44.1246 60.1644C44.4354 59.7369 44.7851 59.426 44.7851 58.9208C44.7851 58.2212 44.824 58.1435 45.4845 57.9103C45.7565 57.7937 45.8342 57.6771 45.6788 57.4051C45.2903 56.6278 45.1348 55.8505 45.2125 54.9955C45.2125 54.9566 45.1737 54.9178 45.2125 54.9566C43.3474 55.6562 41.5212 56.3946 39.6949 57.0942C39.8892 57.5217 40.1224 57.988 40.3166 58.4544C40.4721 58.9208 40.6275 59.426 40.8606 60.009ZM72.9559 11.6622C72.7617 12.0508 72.6451 12.4394 72.1788 12.556C72.1011 12.556 72.1011 12.7115 72.0234 12.7892C71.9068 12.9835 71.7514 13.1779 71.6348 13.3333C71.5571 13.4499 71.4794 13.6054 71.3628 13.7608C71.2851 13.8385 71.2463 13.9551 71.1686 14.0329C70.7411 14.4604 70.1971 14.4992 69.692 14.2272C69.148 13.9163 68.9149 13.3333 69.1092 12.7504C69.1869 12.4394 69.3423 12.1674 69.42 11.8565C69.4589 11.7399 69.4589 11.5844 69.4977 11.3513C69.1869 11.6233 68.9149 11.8176 68.6818 12.0508C68.4875 12.2451 68.332 12.5172 68.2543 12.7892C67.8269 14.1106 68.7983 15.3931 70.2749 15.432C72.14 15.5097 74.3936 14.1106 75.1319 12.4394C75.1708 12.3229 75.2096 12.2451 75.2873 12.0508C74.3936 12.556 73.6165 12.6726 72.9559 11.6622ZM72.4508 8.78623C72.6451 9.33033 72.8394 9.83556 73.0725 10.4962C73.1502 10.3408 73.1502 10.2631 73.1891 10.2242C73.5776 9.79669 74.0828 9.60237 74.6656 9.79669C75.2096 9.95215 75.5205 10.3408 75.5982 10.9237C75.5982 11.0015 75.6759 11.0792 75.6759 11.1569C75.7147 11.5067 75.8313 11.8953 75.7536 12.2451C75.7147 12.5949 75.5593 12.9447 75.365 13.2556C74.9376 13.9163 74.4325 14.4992 73.6942 14.8879C73.3057 15.0822 73.0337 15.432 72.7228 15.704C72.9559 15.704 73.1502 15.6652 73.3445 15.5874C74.0439 15.2765 74.8599 15.1211 75.093 14.2272C75.093 14.1883 75.1708 14.1883 75.2096 14.1495C75.4039 13.9551 75.637 13.7608 75.7536 13.5276C76.1033 12.8281 76.4142 12.1285 76.725 11.3901C76.8416 11.0792 77.2301 10.7294 76.8027 10.3408C76.8027 10.3408 76.8027 10.3019 76.8027 10.2631C77.0359 9.95215 77.0359 9.56351 76.997 9.21373C76.9581 9.01941 76.997 8.82509 76.8804 8.7085C76.725 8.43645 76.4919 8.20327 76.2976 7.97009C76.2199 8.00895 76.181 8.00895 76.181 8.04781C76.181 8.39759 75.9479 8.78623 76.2587 9.09714C76.2976 9.13601 76.3364 9.2526 76.2976 9.33033C76.2587 9.71897 76.2587 10.0687 76.181 10.4574C76.181 10.574 76.0644 10.6906 75.9867 10.8072C75.9479 10.8072 75.909 10.7683 75.8702 10.7683C76.2199 9.09714 75.4427 7.85349 74.2771 6.72644C74.3936 8.20327 74.0051 8.59191 72.4508 8.78623ZM91.1018 60.3587C91.1407 59.8146 90.8687 59.3871 90.5967 58.9985C89.5864 57.5994 88.2653 56.5501 86.6722 55.8894C86.4002 55.7728 86.0894 55.6951 85.8174 55.6951C85.5454 55.6562 85.4288 55.8117 85.5454 56.0837C85.662 56.278 85.8174 56.4723 85.9728 56.6278C86.6722 57.2496 87.4105 57.8326 88.1099 58.4933C88.6539 58.9985 89.0036 59.6203 89.1202 60.3199C89.159 60.5142 89.2756 60.7085 89.3922 60.9806C89.8584 60.3199 90.4024 60.1644 91.1018 60.3587ZM34.3716 58.3378C34.4882 58.9596 34.6048 59.5037 34.7213 60.0478C34.8768 60.0478 34.9933 60.0478 35.2265 60.0478C35.2265 60.6696 35.2265 61.2915 35.2265 61.991C35.4985 61.8744 35.6539 61.7967 35.7705 61.6801C36.2367 61.3303 36.3922 60.8251 36.4699 60.281C36.5087 60.0478 36.5864 59.8146 36.703 59.6203C37.0139 59.1539 37.3636 58.6876 37.6744 58.2212C37.791 58.0269 37.8298 57.7937 37.9464 57.4828C37.6744 57.4828 37.519 57.4828 37.3636 57.4828C36.975 57.4439 36.6253 57.4051 36.3922 57.8326C36.3533 57.9492 36.1202 57.9492 35.9647 57.988C35.4207 58.1046 34.9156 58.2212 34.3716 58.3378ZM24.2301 28.0628C24.0358 28.0239 23.8804 27.9462 23.725 27.985C23.2587 28.0628 22.7924 28.1405 22.365 28.2571C22.1319 28.3348 21.8599 28.4125 21.7045 28.568C21.6268 28.6457 21.821 28.9178 21.8599 29.1121C21.8987 29.1898 21.8988 29.3064 21.9376 29.3841C21.9765 29.4619 22.093 29.6173 22.1319 29.6173C22.5593 29.5396 22.7536 29.8894 23.0256 30.0448C23.3364 30.1614 23.453 30.0837 23.6084 29.8894C23.725 29.695 23.8027 29.5007 23.9193 29.3064C23.997 29.1898 24.1913 29.0344 24.3078 29.0344C24.6576 29.0732 25.0461 29.1121 25.3958 29.2287C26.1341 29.4619 26.9112 29.695 27.6106 30.0448C28.5043 30.4723 29.3592 31.0553 30.214 31.5217C30.3306 31.5994 30.4471 31.5605 30.6026 31.5994C30.5637 31.4439 30.5637 31.3273 30.5249 31.1719C30.486 31.0942 30.3694 31.0164 30.2529 30.9387C29.8643 30.7444 29.4369 30.5889 29.398 30.1226C28.9706 30.006 28.582 29.9282 28.2323 29.8116C27.9603 29.7339 27.6495 29.5785 28.0769 29.2287C28.1546 29.1898 28.0769 28.9955 28.1158 28.8789C27.9992 28.8789 27.8826 28.8789 27.8049 28.9178C27.5718 28.9955 27.3775 29.1898 27.1444 29.1898C26.7946 29.1898 26.4449 29.151 26.1341 29.0344C25.9787 28.9566 25.8621 28.7234 25.7067 28.5291C25.3958 28.5291 25.0461 28.5291 24.6187 28.5291C24.6187 28.3348 24.5798 28.0628 24.5798 27.7518C24.3856 27.9073 24.3078 27.985 24.2301 28.0628ZM83.5637 56.2392C83.5637 56.2003 83.6026 56.1226 83.6026 56.0837C83.4471 56.006 83.2917 55.9282 83.0974 55.8894C82.398 55.7728 81.6986 55.6951 80.9603 55.5785C79.0564 55.3064 77.1524 55.3064 75.2485 55.423C73.5776 55.5396 71.9457 55.8505 70.2749 56.0448C67.8269 56.3169 65.4955 57.0942 63.0864 57.6383C63.0087 57.6383 62.931 57.716 62.8533 57.7548C62.8533 57.7937 62.8922 57.8326 62.8922 57.8326C63.3584 57.7549 63.8247 57.6383 64.291 57.5605C64.7573 57.4439 65.2624 57.3273 65.7287 57.2496C65.8064 57.2496 65.8452 57.2885 65.923 57.2885C66.0784 57.2885 66.2338 57.2496 66.3892 57.2496C66.6224 57.2108 66.8166 57.0942 67.0498 57.0553C67.2829 57.0164 67.5161 57.0164 67.7881 56.9776C68.6429 56.7832 69.5366 56.5889 70.3914 56.4335C71.0131 56.3169 71.6348 56.2392 72.2565 56.1226C72.7617 56.0448 73.2668 55.9671 73.7719 55.8894C74.3548 55.8117 74.9765 56.1226 75.5982 55.7728C75.7147 55.6951 75.8702 55.7728 76.0256 55.7728C76.2199 55.7728 76.4142 55.8116 76.6084 55.8116C77.4244 55.8116 78.2015 55.8116 79.0175 55.8505C80.2998 55.9282 81.582 56.0837 82.8254 56.2003C83.1363 56.2003 83.3694 56.2003 83.5637 56.2392ZM62.5425 31.0553C62.5813 31.0553 62.6202 31.0942 62.6979 31.0942C62.7367 30.9387 62.8144 30.7832 62.8533 30.6278C62.8922 30.4723 62.8922 30.3169 62.8922 30.1614C63.0476 29.151 63.2807 28.1016 63.3584 27.0912C63.475 25.5755 63.5527 24.0598 63.5916 22.5441C63.6304 21.5725 63.5916 20.6009 63.6304 19.6293C63.6693 18.4245 63.6693 17.2197 63.747 16.0538C63.7859 15.3542 63.9801 14.6547 64.0967 13.9551C64.3298 12.2063 65.0681 10.8072 66.4669 9.71897C66.5835 9.64124 66.6612 9.44692 66.7389 9.33032C66.7001 9.29146 66.6612 9.2526 66.5835 9.21373C66.3892 9.40805 66.2338 9.60237 66.0395 9.79669C65.3401 10.4185 64.7184 11.1181 64.4464 12.0508C64.2133 12.7504 63.9413 13.4499 63.747 14.1495C63.6304 14.4992 63.5916 14.849 63.5527 15.1988C63.475 15.704 63.4361 16.2093 63.3584 16.6756C63.3196 17.0643 63.2419 17.4529 63.2419 17.8804C63.2419 18.6188 63.2807 19.3184 63.3196 20.0568C63.3196 20.2122 63.3584 20.3677 63.3973 20.5232C63.3973 20.6786 63.3973 20.7952 63.3584 20.9507C63.3584 21.1061 63.2807 21.2616 63.3196 21.3782C63.3584 21.8834 63.475 22.3886 63.4361 22.8939C63.3584 23.9043 63.3973 24.9536 63.2807 25.9641C63.1253 27.0134 63.1253 28.1016 62.931 29.151C62.8922 29.3453 62.931 29.5396 62.8922 29.7339C62.6979 30.1614 62.6202 30.6278 62.5425 31.0553ZM29.126 21.1061C29.3592 21.3782 29.5923 21.5336 29.7477 21.7668C30.1363 22.4663 30.4471 23.1659 30.7968 23.8655C30.9911 24.293 31.2243 24.7205 31.4185 25.1868C31.6128 25.6532 31.8071 26.1584 32.0014 26.6248C32.0403 26.7025 32.1568 26.7802 32.2345 26.7802C32.2734 26.7802 32.39 26.6248 32.39 26.6248C32.118 26.2362 32.4288 26.003 32.5454 25.6921C32.5842 25.6143 32.5065 25.4977 32.4677 25.42C32.3511 25.1868 32.2345 24.9536 32.118 24.7205C31.9625 24.4484 31.846 24.1375 31.4185 24.3318C31.2631 23.6323 30.9134 22.9716 30.9911 22.1554C31.6128 22.4663 32.2345 22.7384 32.7785 23.0493C33.3225 23.3602 33.8665 23.7489 34.4105 24.0986C34.4493 24.0598 34.4882 24.0209 34.4882 23.982C34.1773 23.71 33.8665 23.4379 33.5556 23.2048C32.9339 22.6995 32.3511 22.0777 31.6517 21.6891C30.9911 21.3393 30.1751 21.2616 29.4369 21.1061C29.398 20.9895 29.2815 21.0672 29.126 21.1061ZM26.0175 6.02688C26.0564 5.63825 25.9398 5.52165 25.5901 5.63824C24.269 6.06575 23.181 6.84303 22.4816 8.08668C22.4039 8.24213 22.4039 8.43645 22.4039 8.59191C22.5593 8.63077 22.7536 8.7085 22.909 8.66964C23.4919 8.51418 24.0747 8.31986 24.6576 8.12554C25.629 7.81463 26.0564 7.07621 26.0175 6.02688ZM10.747 43.4529C10.7081 43.4918 10.6693 43.5306 10.6304 43.5306C10.7081 43.9193 10.9413 44.2302 11.2521 44.4634C12.0292 45.0463 12.8064 45.5904 13.5835 46.1734C13.9332 46.4066 14.0886 46.7563 14.1275 47.145C14.1663 47.417 13.8944 47.6502 13.7001 47.4948C13.2726 47.2616 12.8452 46.9895 12.4567 46.6786C12.0292 46.3288 11.6795 45.8625 11.291 45.4738C11.2133 45.3961 10.9801 45.435 10.8247 45.435C10.8636 45.5516 10.8247 45.7459 10.9024 45.8236C11.2133 46.1734 11.5241 46.562 11.8738 46.8729C12.5344 47.4559 13.2726 47.9611 14.2441 47.7279C14.7103 47.6113 15.1378 47.0672 14.9435 46.7563C14.6326 46.3288 14.2829 45.9791 13.9332 45.5904C13.8555 45.5127 13.7389 45.3961 13.6224 45.3961C13.1949 45.3961 12.9229 45.0852 12.6121 44.852C11.9904 44.3856 11.3687 43.9193 10.747 43.4529ZM5.42368 15.7429C5.03512 15.5874 4.68541 15.4708 4.41341 15.2765C4.0637 15.0045 3.79171 15.0822 3.51972 15.3154C3.3643 15.432 3.24773 15.6652 3.20887 15.8983C3.17001 16.2481 3.44201 16.3258 3.75286 16.4424C4.3357 16.6367 4.6077 17.3363 4.21913 17.7249C3.86943 18.0747 3.86943 18.4634 3.94714 18.852C3.986 19.0075 4.25799 19.1629 4.41341 19.2406C4.49113 19.2795 4.72427 19.0852 4.72427 19.0075C4.76312 18.7743 4.76312 18.5022 4.68541 18.269C4.6077 17.9193 4.76312 17.8804 5.03512 17.9193C5.15169 17.9193 5.34597 17.8804 5.38483 17.8027C5.46253 17.414 5.61796 16.9477 5.46253 16.5979C5.42367 16.2481 5.34597 16.0149 5.42368 15.7429ZM88.4596 64.4395C88.8093 64.7115 89.1202 64.9058 89.3533 65.1779C89.5476 65.4111 89.703 65.411 89.8973 65.2556C90.6744 64.7115 91.1407 63.9731 91.335 63.0404C91.3738 62.846 91.3738 62.6517 91.4127 62.3797C90.8298 62.846 90.2859 62.8072 89.703 62.4574C89.2756 63.1569 88.8482 63.8565 88.4596 64.4395ZM72.6062 5.7937C72.6062 5.75484 72.6062 5.67711 72.6062 5.63825C71.7125 5.52166 70.8188 5.32734 69.8863 5.28847C69.2646 5.24961 69.0315 5.7937 69.3812 6.29893C69.8863 6.99849 70.6634 7.23167 71.4017 7.58145C71.3628 6.64871 71.7903 6.10462 72.6062 5.7937ZM52.3621 26.5082C52.2844 26.3139 52.2455 26.2362 52.2067 26.1584C51.585 25.2646 50.6913 24.7982 49.7199 24.4484C48.7873 24.1375 47.8936 24.4095 46.9999 24.6427C46.8445 24.6816 46.6891 24.8759 46.5725 25.0702C46.5337 25.1091 46.7279 25.3034 46.8445 25.42C47.0388 25.6143 47.1554 25.42 47.3108 25.3034C47.7771 24.9925 48.2433 24.7593 48.8262 24.8371C49.9142 24.9925 50.8078 25.5366 51.585 26.3139C51.7015 26.4305 51.8181 26.5471 51.9735 26.6248C52.0512 26.6637 52.2067 26.5471 52.3621 26.5082ZM2.12089 16.7533C2.08204 16.7145 2.04318 16.7145 2.00433 16.6756C1.88776 16.8311 1.73233 16.9477 1.65462 17.1031C1.18834 18.0747 0.799773 19.0463 1.38262 20.1345C1.53805 20.4454 1.65462 20.7952 1.88776 21.0672C2.58716 21.8057 3.32544 21.8445 4.21913 21.3782C4.25799 21.3393 4.25799 21.2616 4.29684 21.1838C3.20887 21.0672 2.43174 20.6397 1.88776 19.6293C1.38262 18.5411 1.61576 17.6861 2.12089 16.7533ZM39.6949 28.9178C39.6949 28.9566 39.7338 28.9955 39.7338 29.0344C40.0446 28.9955 40.4332 29.0344 40.6664 28.9178C40.9383 28.7623 41.1715 28.7234 41.4435 28.6846C42.1817 28.6457 42.648 28.7234 42.92 29.4619C43.4252 29.3841 43.6194 29.423 43.8914 29.7339C44.0857 29.9282 44.2411 30.1226 44.4743 30.3557C44.4354 30.4335 44.3966 30.5501 44.3188 30.7055C44.9017 30.4723 45.0183 30.2391 44.824 29.7339C44.7463 29.5007 44.552 29.3064 44.552 29.1121C44.552 28.7623 44.3188 28.6457 44.0469 28.6069C43.2309 28.5291 42.4149 28.4903 41.5989 28.3348C40.8218 28.2571 40.3555 28.8012 39.6949 28.9178ZM15.8372 37.8953C14.8269 37.3901 13.8944 36.846 13.1949 35.9521C12.4567 35.0194 12.3012 33.8924 11.8738 32.843C11.835 33.0373 11.835 33.2317 11.8738 33.3871C11.9904 33.8535 12.1458 34.3199 12.2235 34.8251C12.5344 36.2631 13.3504 37.2347 14.6715 37.8176C15.06 37.9342 15.4098 38.1285 15.8372 37.8953ZM69.964 9.09714C70.0806 9.17487 70.1194 9.2526 70.236 9.33033C70.7023 9.60237 70.9354 9.95215 70.9743 10.4962C71.0131 10.8849 71.1686 10.9626 71.5183 10.8072C71.596 10.7683 71.7125 10.846 71.7903 10.8072C72.0622 10.7294 72.3342 10.6517 72.5285 10.4962C72.6062 10.4185 72.6062 10.1076 72.5285 9.95215C72.3731 9.33033 71.7903 9.21373 71.2074 9.29146C71.1297 8.94169 70.3526 8.82509 69.964 9.09714ZM10.3196 32.4544C10.3584 32.4544 10.4361 32.4544 10.475 32.4933C10.5139 32.1435 10.5527 31.8326 10.5916 31.4828C10.5916 30.5501 10.5527 29.5785 10.6304 28.6457C10.6693 27.7907 10.8247 26.9357 10.9024 26.0418C10.9413 25.7309 10.9413 25.3811 10.9801 25.0702C10.9413 25.0702 10.9024 25.0702 10.8636 25.0702C10.1253 27.5187 10.0476 29.9671 10.3196 32.4544ZM72.7617 6.26007C72.7228 6.29893 72.4897 6.37666 72.4508 6.49326C72.3731 6.68757 72.412 6.92076 72.4508 7.11508C72.4897 7.34826 72.6062 7.58145 72.7228 7.77577C72.8394 7.97009 73.0725 8.35873 73.1502 8.31986C73.4222 8.20327 73.8108 8.04781 73.9274 7.81463C74.2771 6.99849 73.7719 6.29894 72.7617 6.26007ZM73.5388 11.5844C73.4999 11.8565 73.8496 12.2451 74.2382 12.284C74.5879 12.3617 74.7822 12.2063 74.8988 11.8176C74.9376 11.7399 74.9376 11.6622 74.9765 11.6233C75.1708 11.2735 75.1708 10.8849 74.821 10.6517C74.5491 10.4574 74.1605 10.3797 73.8496 10.4185C73.5388 10.4574 73.4999 10.846 73.4999 11.1181C73.5388 11.2735 73.5388 11.429 73.5388 11.5844ZM18.2463 34.2421C18.4017 33.8924 18.6348 33.6203 18.5571 33.4649C18.4017 33.1539 18.1297 32.7653 17.8188 32.6098C17.3914 32.4544 16.8863 32.571 16.4589 32.843C16.3812 32.8819 16.2646 33.0762 16.3035 33.1539C16.3035 33.2705 16.4589 33.3871 16.5754 33.426C17.236 33.5814 17.78 33.9312 18.2851 34.4365C18.4794 34.3199 18.6348 34.2033 18.7903 34.0867C18.7514 34.0478 18.7514 34.0089 18.7125 33.9701C18.596 34.0478 18.4794 34.1255 18.2463 34.2421ZM9.34817 34.7862C9.30931 34.7862 9.27045 34.8251 9.2316 34.8251C9.34817 35.0971 9.46473 35.4081 9.62015 35.6412C10.0476 36.4574 10.4361 37.2347 11.2133 37.8176C11.8738 38.3228 12.5344 38.8669 13.2338 39.411C13.3504 39.139 13.2726 38.9058 13.0395 38.7892C11.9127 38.1674 11.1356 37.1958 10.3584 36.1853C9.96987 35.719 9.65902 35.2526 9.34817 34.7862ZM16.4977 12.556C16.148 12.7504 15.7595 13.5276 15.7206 13.994C15.6817 14.266 15.604 14.5381 15.5263 14.8101C15.4875 15.0045 15.4098 15.1988 15.4098 15.3931C15.4098 16.0927 15.4098 16.7922 15.4486 17.4918C15.4486 17.8027 15.4875 18.1136 15.8372 18.3079C15.9537 18.0359 16.0703 17.8027 16.2257 17.5306C16.0314 17.4529 15.9149 17.414 15.7983 17.3752C15.5652 15.704 15.876 14.1106 16.4977 12.556ZM15.4098 9.79669C15.3709 9.75783 15.332 9.71896 15.2932 9.71896C13.7001 11.0015 12.5344 12.7115 11.1356 14.1883C11.1744 14.2272 11.2133 14.266 11.2521 14.3049C11.5241 14.0717 11.835 13.7997 12.107 13.5665C12.1458 13.4888 12.2624 13.5276 12.3012 13.4888C12.4567 13.2167 12.8841 13.2167 12.9229 12.7892C12.9229 12.6338 13.0784 12.4783 13.1949 12.3617C13.4281 12.0897 13.7001 11.8565 13.9332 11.6233C14.0109 11.5456 14.0498 11.429 14.0886 11.3124C14.2441 11.0792 14.3606 10.8849 14.5161 10.6906C14.8269 10.3797 15.1378 10.1076 15.4098 9.79669ZM85.7008 39.6831C85.9728 39.5276 86.3614 39.411 86.4002 39.2167C86.4779 38.867 86.6722 38.7892 86.9442 38.7115C87.2551 38.5949 87.2162 38.2451 87.1774 37.9731C87.1774 37.8954 86.9831 37.7788 86.8665 37.7788C86.0117 37.7399 85.3511 38.7115 85.7008 39.6831ZM55.0043 16.7145C54.9266 17.1808 55.0043 17.4918 55.2375 17.8415C55.4318 18.1136 55.5483 18.4245 55.6649 18.6965C55.7815 18.9297 56.0534 18.9686 56.17 18.7354C56.2089 18.6188 56.17 18.4634 56.1312 18.3468C55.8203 17.7638 55.2763 17.2197 55.3152 16.4813C55.3152 16.4036 55.2375 16.3647 55.2375 16.287C55.1209 16.3258 55.0043 16.3647 54.8489 16.4036C54.8489 16.1704 54.8489 15.9761 54.81 15.7817C54.81 15.704 54.6935 15.5874 54.6158 15.5874C54.4992 15.5874 54.3438 15.6263 54.2272 15.704C54.1883 15.7429 54.1883 15.8983 54.2272 15.9761C54.3826 16.2481 54.5381 16.4813 54.7323 16.7533C54.8489 16.7533 54.9266 16.7145 55.0043 16.7145ZM81.1158 39.3722C81.1546 39.3333 81.1935 39.3333 81.1935 39.2945C81.1546 39.2167 81.1546 39.139 81.1158 39.1001C80.8438 38.6726 80.5329 38.2451 80.4552 37.6622C80.4552 37.5456 80.2998 37.3901 80.1444 37.3513C79.8724 37.2347 79.6004 37.2347 79.3284 37.1569C79.1341 37.1181 78.9787 37.0403 78.7844 36.9626C78.7844 36.9238 78.7844 36.9238 78.8232 36.8849C78.5901 36.9626 78.3958 37.0015 78.1238 37.0792C78.7455 37.429 79.3284 37.6622 79.7947 38.0508C80.3386 38.3617 80.7272 38.9058 81.1158 39.3722ZM79.2895 53.2466C79.2895 53.2855 79.2895 53.3244 79.2895 53.4021C79.4449 53.4409 79.5615 53.4798 79.7169 53.4798C79.8724 53.4798 80.0666 53.4021 80.2221 53.4021C81.4266 53.5575 82.6312 53.713 83.8357 53.8684C84.302 53.9462 84.7683 53.9462 85.3122 54.0239C85.1957 53.8684 85.1568 53.7519 85.0791 53.7519C84.7683 53.6741 84.4186 53.5964 84.0688 53.5187C83.2917 53.4021 82.5146 53.3632 81.7375 53.2466C80.8826 53.13 80.1055 53.1689 79.2895 53.2466ZM37.7133 48.1166C37.7521 47.8057 37.791 47.5336 37.8298 47.2227C37.8298 47.145 37.791 47.0673 37.7133 47.0284C37.6356 47.0284 37.519 47.0284 37.4801 47.1061C37.2859 47.3004 37.1693 47.5336 37.2081 47.8834C37.3636 48.6995 37.4801 49.5157 37.2859 50.3707C37.247 50.6427 37.1693 50.8759 37.0916 51.148C37.1304 51.148 37.1304 51.148 37.1693 51.148C37.4801 50.4096 37.7521 49.6711 38.063 48.8939C37.9853 48.855 37.8687 48.8161 37.7521 48.7773C37.8298 48.5441 37.9075 48.3109 37.9853 48.0777C37.8298 48.0777 37.7133 48.0777 37.7133 48.1166ZM16.964 50.3707C17.6246 50.0598 17.6246 49.3991 17.2749 49.127C16.8863 48.8161 16.4589 48.6218 15.9537 48.6607C15.7983 48.6607 15.6429 48.6218 15.4486 48.5829C14.9046 48.4275 14.3606 48.5052 13.7389 48.6995C14.1663 48.8161 14.5161 48.9716 14.8658 49.0104C15.332 49.0882 15.7983 49.0493 16.2646 49.0882C16.964 49.1659 17.236 49.6323 16.9251 50.2541C16.9251 50.293 16.9251 50.3318 16.964 50.3707ZM71.5183 58.9985C71.8291 59.2705 72.1011 59.5426 72.412 59.7758C72.4897 59.8146 72.6451 59.8146 72.7228 59.7758C73.1502 59.6203 73.4999 59.3483 73.6165 58.843C73.6942 58.5321 73.6165 58.3378 73.3057 58.4155C72.7617 58.5321 72.1788 58.6876 71.6348 58.843C71.6348 58.843 71.596 58.9208 71.5183 58.9985ZM48.4765 28.2959C48.4376 28.2959 48.3599 28.3348 48.321 28.3348C48.2045 28.9178 47.8159 29.3064 47.3885 29.5396C47.5051 29.6562 47.6605 29.7728 47.6605 29.8505C47.6605 30.006 47.5439 30.1614 47.5051 30.278C47.5439 30.3169 47.5828 30.3557 47.5828 30.3946C47.7382 30.3169 47.8936 30.278 48.0102 30.1614C48.2045 29.9671 48.3599 29.7339 48.5542 29.5396C48.7485 29.3453 49.0205 29.1898 48.9427 28.8789C48.865 28.6457 48.6319 28.4903 48.4765 28.2959ZM32.8951 31.2885C33.1282 31.3273 33.3225 31.4051 33.4779 31.4439C33.6722 31.4828 33.9054 31.4051 34.0608 31.4828C35.0322 31.8714 35.6927 32.571 35.9259 33.6203C35.9647 33.7758 36.0036 33.9701 36.0424 34.1255C36.0813 34.1255 36.1202 34.1255 36.159 34.0867C36.2367 33.6592 36.2367 33.2317 35.9647 32.8042C35.7316 32.4544 35.4985 32.1046 35.2653 31.7937C35.1488 31.6382 35.0322 31.4439 34.8768 31.4051C34.5271 31.2885 34.1773 31.1719 33.7888 31.133C33.5556 31.0942 33.2059 30.8998 32.8951 31.2885ZM66.5835 8.35873C67.9435 8.12554 69.2257 7.65917 70.6246 8.00895C70.3137 7.15394 67.3606 7.54258 66.5835 8.35873ZM45.7177 27.4021C45.4457 27.5964 45.2902 27.9462 45.368 28.1794C45.6011 28.84 45.9897 29.3841 46.6502 29.695C46.7279 29.7339 46.9222 29.6173 47.0388 29.5396C46.9611 29.423 46.9222 29.2675 46.8057 29.1898C46.6891 29.0732 46.4948 29.0732 46.3782 28.9566C45.9897 28.5291 45.6788 28.0628 45.7177 27.4021ZM11.9127 23.6323C11.9904 23.5934 12.0681 23.5157 12.0681 23.4768C11.9904 23.2048 11.9904 22.8161 11.7961 22.6607C11.4464 22.4275 11.019 22.3109 10.5916 22.1943C10.5139 22.1554 10.3973 22.2332 10.3584 22.272C10.3196 22.3109 10.3584 22.4275 10.3973 22.4663C10.5916 22.6995 10.747 22.9716 10.9801 23.127C11.291 23.3602 11.6018 23.4768 11.9127 23.6323ZM69.1092 47.1061C68.7595 46.9895 67.5161 47.2227 67.2829 47.4559C67.2441 47.5336 67.2441 47.7279 67.3218 47.7668C67.9823 48.2332 68.876 47.8834 69.1092 47.1061ZM51.1576 42.7922C51.5073 43.9581 51.3907 45.1241 51.313 46.3677C51.9735 45.6293 51.857 43.3752 51.1576 42.7922ZM72.1011 26.9357C72.14 26.9746 72.14 27.0134 72.1788 27.0523C72.5285 26.8968 72.8782 26.7025 73.2668 26.5859C73.6554 26.4693 74.0828 26.4305 74.4713 26.3527C74.8599 26.275 75.1708 25.8864 75.2096 25.42C75.1708 25.42 75.093 25.42 75.0542 25.4589C74.7822 25.6143 74.5491 26.003 74.1216 25.7309C74.0828 25.6921 73.9662 25.8087 73.8885 25.8475C73.5776 26.0418 73.3056 26.275 72.9948 26.4305C72.7617 26.6248 72.4508 26.7803 72.1011 26.9357ZM70.8188 42.9088C70.8966 42.8699 70.9743 42.8699 71.052 42.8311C71.4017 42.5979 71.7514 42.3647 72.1011 42.1315C72.2177 42.0538 72.3731 42.0149 72.4897 41.9372C72.5674 41.8983 72.5674 41.7817 72.6062 41.6652C72.4897 41.6263 72.412 41.5097 72.3342 41.5486C72.0622 41.5874 71.8291 41.704 71.5571 41.7817C70.78 42.0149 70.8577 42.1315 70.8188 42.9088ZM46.8057 51.6532C46.9222 51.8475 46.9999 52.0418 47.1165 52.1973C47.2719 52.3916 47.4273 52.5859 47.6216 52.7803C47.6993 52.858 47.8548 52.8969 47.9713 52.9746C48.0102 52.8191 48.0879 52.6637 48.0491 52.5471C47.8548 52.1584 47.6216 51.7698 47.3885 51.42C47.3108 51.3034 47.1165 51.2646 46.9999 51.2646C46.9611 51.2646 46.8834 51.4977 46.8057 51.6532ZM33.2837 35.7578C33.1282 35.6412 32.9728 35.5635 32.8562 35.4469C32.7397 35.3692 32.6231 35.2526 32.5065 35.136C32.3511 34.9805 32.2345 34.7862 32.0791 34.6696C32.0014 34.5919 31.846 34.553 31.8071 34.5919C31.7294 34.6308 31.6517 34.7862 31.6517 34.864C31.6128 35.2526 32.118 35.9133 32.5065 35.9133C32.7397 35.9521 33.0505 36.1465 33.2837 35.7578ZM22.2096 24.565C22.2485 24.5261 22.3262 24.4873 22.365 24.4484C22.2485 24.1764 22.1319 23.9043 21.9765 23.6323C21.821 23.2825 21.5879 22.9716 21.4325 22.6607C21.3548 22.5052 21.3548 22.272 21.1216 22.3886C21.0439 22.4275 20.9662 22.6995 21.0051 22.7773C21.1993 23.1659 21.3936 23.5545 21.6268 23.9043C21.7822 24.1764 22.0153 24.3318 22.2096 24.565ZM12.4178 52.1973C12.6121 52.4693 12.7287 52.6637 12.8452 52.858C13.1172 53.2855 13.3892 53.713 13.6224 54.1405C13.6224 54.1405 13.6224 54.1794 13.6612 54.1794C13.7389 54.1794 13.8555 54.2182 13.9332 54.2182C13.9332 54.1405 13.9721 54.0239 13.9332 53.9462C13.7778 53.6741 13.6224 53.3632 13.4669 53.13C13.2338 52.8191 13.0007 52.5471 12.7675 52.2362C12.6898 52.1584 12.5732 52.1973 12.4178 52.1973ZM37.9464 9.48578C37.9464 9.44692 37.9853 9.36919 37.9853 9.33032C37.6356 9.21373 37.3247 9.05828 36.975 8.98055C36.4699 8.90282 35.9259 8.86396 35.3819 8.82509C35.0322 8.78623 34.6436 8.82509 34.2939 8.82509L34.2939 8.86396C35.4985 9.09714 36.7419 9.29146 37.9464 9.48578ZM73.5776 39.722C72.9559 39.5665 71.596 40.0717 71.2851 40.4992C72.1788 40.6158 72.8005 39.994 73.5776 39.722ZM23.2587 12.1674C23.9581 11.7788 24.6187 11.3512 25.3181 11.0015C25.5901 10.846 25.6678 10.6906 25.629 10.3408C24.7353 10.8849 23.9193 11.429 23.2587 12.1674ZM57.7631 26.9357C58.5791 28.1405 59.5505 29.3064 59.7448 30.8221C59.5894 29.2675 58.9288 27.9462 57.7631 26.9357ZM38.2573 41.0045C38.4127 42.1315 38.879 43.142 38.607 44.2302C39.0732 43.2197 38.9178 41.5874 38.2573 41.0045ZM7.91048 14.1106C7.87163 14.0717 7.83277 14.0717 7.79391 14.0329C7.52192 14.3826 7.21107 14.7324 6.97794 15.1211C6.86137 15.2765 6.86136 15.5097 6.8225 15.704C7.01678 15.5874 7.21107 15.4708 7.40535 15.3542C7.44421 15.3154 7.44421 15.2765 7.48306 15.2376C7.59963 14.849 7.75506 14.4604 7.91048 14.1106ZM16.3812 2.21821C16.0703 2.10162 15.7206 2.02389 15.4098 1.9073C15.3709 1.94617 15.3709 1.98503 15.332 2.02389C15.604 2.37367 15.876 2.68458 16.148 3.07322C16.3812 2.84004 16.6143 2.64572 16.8086 2.41253C16.7309 2.33481 16.692 2.29594 16.6143 2.21821C16.5366 2.41253 16.4589 2.56799 16.3812 2.76231C16.3423 2.72345 16.2646 2.68458 16.2257 2.64572C16.3034 2.56799 16.3034 2.41253 16.3812 2.21821ZM29.7477 9.136C30.9911 9.05828 32.1957 8.94168 33.4779 8.86396C32.7008 8.63077 30.1751 8.78623 29.7477 9.136ZM17.78 17.6083C17.9354 17.4529 18.2074 17.2974 18.2074 17.1808C18.1685 16.8311 18.052 16.4424 17.9354 16.0927C17.9354 16.0538 17.78 16.0149 17.7023 15.9761C17.6634 16.0538 17.6246 16.0927 17.6246 16.1704C17.6246 16.2481 17.6246 16.3258 17.6246 16.3647C17.4691 16.3647 17.3526 16.3258 17.2749 16.3647C17.236 16.4036 17.236 16.559 17.236 16.6756C17.3914 16.6756 17.5468 16.6756 17.78 16.6756C18.2851 16.9477 17.5468 17.2197 17.78 17.6083ZM11.7573 42.9477C11.7961 42.9088 11.835 42.8699 11.835 42.8311C11.7184 42.7145 11.563 42.5979 11.4464 42.4424C11.1744 42.1315 10.9413 41.8206 10.6304 41.5486C10.5527 41.4708 10.3973 41.5097 10.3196 41.4708C10.3196 41.5874 10.3196 41.7429 10.3584 41.8206C10.6693 42.1315 10.9801 42.4424 11.3298 42.7145C11.4853 42.8311 11.6407 42.8699 11.7573 42.9477ZM26.4061 7.34826L26.4449 7.34826C27.2998 6.68757 28.1546 6.02689 29.0095 5.3662C28.9706 5.32733 28.9706 5.28847 28.9317 5.24961C28.7375 5.3662 28.5043 5.44393 28.31 5.59938C27.8438 5.98802 27.3386 6.37666 26.9112 6.80416C26.7169 6.92076 26.5615 7.15394 26.4061 7.34826ZM23.0644 33.8146C23.0256 33.8535 22.8702 33.8924 22.8313 33.9701C22.7924 34.0478 22.8702 34.2421 22.909 34.3199C23.0644 34.4753 23.2199 34.6308 23.4141 34.7085C23.4919 34.7474 23.6861 34.6696 23.725 34.5919C23.8416 34.3587 23.453 33.8146 23.0644 33.8146ZM11.835 28.9955C11.7961 28.9178 11.7184 28.7623 11.6795 28.568C11.6407 28.3737 11.6795 28.1794 11.6795 28.0239C11.6407 28.0239 11.6018 28.0239 11.563 28.0239C11.563 28.9178 11.563 29.8116 11.563 30.7055C11.6018 30.7055 11.6018 30.7055 11.6407 30.7055C11.6795 30.1614 11.7573 29.6562 11.835 28.9955ZM31.6517 52.4693C32.0791 52.5859 32.4677 52.7025 32.8562 52.7803C32.9339 52.7803 33.0505 52.7025 33.0894 52.6248C33.1282 52.5859 33.0894 52.4305 33.0505 52.3916C32.8174 52.1196 31.9625 52.1196 31.6517 52.4693ZM20.5388 7.38712C19.8782 7.77576 19.2565 8.20327 18.7903 8.86396C19.3731 8.39759 20.1891 8.1644 20.5388 7.38712ZM40.5109 46.3288C40.2778 45.9402 40.0058 45.9013 38.6847 46.0568C38.5681 46.0568 38.4904 46.1734 38.4127 46.2511C39.151 46.29 39.8115 46.3288 40.5109 46.3288ZM63.0864 60.9028C63.0864 60.9417 63.0864 60.9806 63.0476 61.0194C63.203 61.0972 63.3196 61.2137 63.475 61.2526C63.747 61.2915 64.019 61.2915 64.291 61.2915C64.3687 61.2915 64.4464 61.2526 64.5241 61.2137C64.4853 61.136 64.4076 61.0194 64.3687 60.9806C64.019 60.9028 63.6693 60.864 63.2807 60.8251C63.2419 60.8251 63.1642 60.864 63.0864 60.9028ZM47.3885 6.72644C47.2331 6.57098 47.1554 6.41553 46.9999 6.29893C46.8834 6.18234 46.7279 6.06575 46.5725 5.98802C46.4948 5.94916 46.3782 5.94916 46.3005 5.94916C46.3005 6.02689 46.2617 6.10461 46.3005 6.18234C46.4171 6.68757 46.8445 6.88189 47.3885 6.72644ZM70.508 59.9701C70.2749 59.426 69.0703 58.843 68.4486 58.8819C69.148 59.2705 69.8086 59.5815 70.508 59.9701ZM32.5842 18.269C32.7785 17.9193 33.1282 17.6084 32.7785 17.1808C32.7008 17.0643 32.5842 16.9477 32.4677 16.8699C32.4288 17.0254 32.3511 17.1808 32.3511 17.3363C32.39 17.6472 32.5065 17.9581 32.5842 18.269ZM16.4977 58.1046C16.6143 57.7937 15.9149 57.0164 15.7206 57.0164C15.6817 57.0164 15.5652 57.0553 15.5652 57.0942C15.5263 57.1719 15.5263 57.2885 15.5652 57.3273C15.876 57.5605 16.1869 57.8326 16.4977 58.1046ZM37.3636 28.6069C36.8973 29.151 36.5087 29.7339 36.2367 30.5112C36.6641 30.2003 37.4413 28.8789 37.3636 28.6069ZM22.4039 24.8759C22.5982 25.1091 22.7536 25.3811 22.9867 25.5366C23.1422 25.6532 23.3753 25.4977 23.3364 25.2257C23.3364 25.0314 22.7536 24.6816 22.5593 24.7205C22.5205 24.7205 22.4816 24.7982 22.4039 24.8759ZM73.5776 24.293C74.3936 24.3318 75.2096 24.3707 76.0256 24.4095C76.0256 24.3707 76.0256 24.3318 76.0256 24.2541C75.2096 24.2152 74.3936 23.9432 73.5776 24.293ZM20.5776 21.4559C20.7719 21.3004 20.9662 21.1838 21.1605 21.0284C21.2382 20.9507 21.2771 20.7952 21.2382 20.6786C21.1993 20.6009 21.0439 20.5231 20.9662 20.5231C20.6165 20.5231 20.3445 21.1061 20.5776 21.4559ZM66.3892 24.3707C65.6121 25.2257 65.3013 26.2362 64.9515 27.2466C65.4178 26.275 65.8841 25.3423 66.3892 24.3707ZM74.1605 53.8296C74.1605 53.8684 74.1605 53.9073 74.1993 53.9462C74.7822 53.8296 75.4039 53.713 75.9867 53.5964C75.9867 53.5187 75.9479 53.4798 75.9479 53.4021C75.365 53.5187 74.7045 53.4409 74.1605 53.8296ZM11.4464 30.9387C11.5241 31.4051 11.563 31.7548 11.6018 32.1823C12.2235 31.716 12.1847 31.4051 11.4464 30.9387ZM15.4875 56.0448C15.9149 56.278 16.3812 56.4723 16.8086 56.7055C16.9251 56.2003 16.42 55.9282 15.4875 56.0448ZM16.8863 4.04482C16.8474 4.00596 16.8474 3.96709 16.8086 3.92823C16.1092 4.20028 15.332 4.20028 14.788 4.89983C15.5263 4.58892 16.2257 4.31687 16.8863 4.04482ZM72.2565 11.7399C72.3342 11.429 72.2954 11.2347 72.0622 11.1958C71.8291 11.1569 71.324 11.3901 71.2851 11.6233C71.5571 11.6622 71.9068 11.701 72.2565 11.7399ZM23.453 23.8266C23.4919 23.7877 23.5307 23.7489 23.5696 23.71C23.2587 23.3602 22.9479 23.0493 22.637 22.6995C22.5982 22.6607 22.5205 22.6995 22.5205 22.6995C22.4816 22.7384 22.4427 22.855 22.4816 22.855C22.7536 23.2436 23.0256 23.6711 23.453 23.8266ZM35.9259 1.40207C35.9647 1.40207 35.9647 1.44094 36.0036 1.44094C35.9259 1.63526 35.8482 1.79071 35.7316 1.98503C35.7705 2.0239 35.8093 2.06276 35.8482 2.10162C36.0424 1.9073 36.2367 1.75185 36.431 1.55753C36.2756 1.40207 36.1979 1.28548 36.0813 1.20775C35.8482 1.01343 35.5762 1.20775 35.615 1.55753C35.7316 1.51866 35.8482 1.4798 35.9259 1.40207ZM56.4809 25.8475C56.8694 26.1973 57.1803 26.5082 57.4911 26.7803C57.53 26.7414 57.53 26.7414 57.5688 26.7025C57.4523 26.2362 56.9471 25.8087 56.4809 25.8475ZM44.5131 12.284C44.5908 12.2063 44.6297 12.1674 44.7074 12.0897C44.7851 12.0119 44.9017 12.0119 44.9405 11.9342C45.0183 11.8565 45.0183 11.701 45.0571 11.5844C44.9405 11.5456 44.7851 11.4678 44.7074 11.5067C44.5131 11.5456 44.3966 12.0119 44.5131 12.284ZM23.4141 36.2242C23.3753 36.3019 23.3364 36.3408 23.3364 36.4185C23.4141 36.4574 23.5307 36.4962 23.6473 36.5351C23.5696 36.6517 23.4919 36.6906 23.453 36.7683C23.4142 36.8849 23.3753 37.0015 23.3364 37.0792C23.453 37.0403 23.5696 37.0403 23.6473 36.9626C23.8027 36.7683 23.9193 36.574 24.0747 36.3797C24.1136 36.4185 24.1524 36.4574 24.1524 36.4962C23.8804 36.3797 23.6473 36.3019 23.4141 36.2242ZM17.6634 11.4678C17.0806 11.5456 16.5754 11.5456 16.42 12.1674C16.7309 11.8176 17.3914 12.0508 17.6634 11.4678ZM18.2074 9.44691C17.6634 9.75783 17.0417 10.6128 17.0806 11.0403C17.508 10.4962 17.8577 9.95215 18.2074 9.44691ZM68.6429 5.87143C68.5263 6.02689 68.4486 6.10462 68.4486 6.18234C68.4486 6.29894 68.4875 6.49325 68.5652 6.57098C68.6818 6.64871 68.876 6.68757 69.0315 6.72644C68.9926 6.57098 68.9926 6.45439 68.9149 6.29893C68.8372 6.18234 68.7595 6.06575 68.6429 5.87143ZM13.2338 9.09714C13.1949 9.05828 13.1561 9.05828 13.1561 9.01941C12.7675 9.56351 12.1458 9.83556 11.8738 10.4574C11.9127 10.4962 11.9515 10.5351 11.9904 10.5351C12.4178 10.0687 12.8064 9.60237 13.2338 9.09714ZM20.1891 17.414C20.2279 17.414 20.2668 17.4529 20.3445 17.4529C20.5776 16.7533 20.8108 16.0538 21.0439 15.3931C21.0051 15.3931 20.9662 15.3542 20.9273 15.3542C20.6553 16.0149 20.4222 16.7145 20.1891 17.414ZM64.563 60.0867C64.291 59.8146 64.0967 59.5815 63.8636 59.3871C63.8247 59.426 63.747 59.426 63.7081 59.4649C63.747 59.6203 63.747 59.7758 63.8247 59.9312C63.9801 60.0867 64.1744 60.2421 64.563 60.0867ZM47.3496 55.151C47.5828 55.5007 47.8159 55.8116 48.0491 56.1226C48.1268 55.4619 47.8936 55.1121 47.3496 55.151ZM25.629 14.6158C25.085 14.849 24.7741 15.3542 24.9684 15.704C25.2015 15.3542 25.3958 15.0045 25.629 14.6158ZM60.7162 44.9686C60.4054 44.7354 59.7837 44.7743 59.4339 45.0463C59.8614 44.9297 60.2888 45.3184 60.7162 44.9686ZM90.7521 61.5247C90.5579 61.3303 90.3247 61.2137 90.0916 61.3692C90.0139 61.4081 90.0527 61.719 90.1304 61.7578C90.4413 61.991 90.5579 61.719 90.7521 61.5247ZM22.1707 60.6696C22.365 60.3976 22.4816 60.2033 22.637 59.9701C22.2873 59.9701 22.0542 59.9701 21.821 59.9701C21.9376 60.1644 22.0153 60.3587 22.1707 60.6696ZM10.0476 15.0433C10.5527 15.1988 11.019 14.8879 11.0967 14.4604C10.747 14.6936 10.3973 14.849 10.0476 15.0433ZM57.8797 48.3886C57.8408 48.4275 57.802 48.4275 57.7243 48.4664C57.8408 48.6218 57.9186 48.8161 58.074 48.9327C58.1905 49.0104 58.3848 49.0104 58.5791 49.0493C58.5791 48.8939 58.5403 48.855 58.5403 48.8161C58.3071 48.6995 58.1128 48.5441 57.8797 48.3886ZM33.9054 8.08668C34.4105 8.16441 34.9156 8.281 35.3819 8.35872C35.3819 8.31986 35.3819 8.281 35.3819 8.24213C34.9933 8.00895 34.2162 7.93122 33.9054 8.08668ZM55.354 27.8296C54.8878 27.9073 54.81 28.1016 55.082 28.4125C55.1598 28.4903 55.2763 28.4903 55.354 28.5291C55.3929 28.4514 55.4317 28.3348 55.3929 28.2571C55.4317 28.1405 55.3929 27.985 55.354 27.8296ZM33.4779 59.3094C33.5168 59.3094 33.5556 59.3094 33.5556 59.3094C33.5556 58.9208 33.6722 58.5321 33.2837 58.2989C33.2059 58.2601 33.0894 58.2989 32.9728 58.2989C33.0117 58.3767 33.0505 58.4933 33.0894 58.5321C33.3225 58.6487 33.4391 58.843 33.4002 59.1151C33.4391 59.1539 33.4779 59.2317 33.4779 59.3094ZM13.6612 49.71C13.7001 49.6323 13.7001 49.5545 13.7389 49.4768C13.3892 49.3602 13.0395 49.2436 12.6898 49.127C12.6898 49.1659 12.651 49.2436 12.651 49.2825C12.9618 49.438 13.3115 49.5545 13.6612 49.71ZM12.379 14.6158C12.5732 14.2272 12.7675 13.8385 12.9618 13.4499C12.4178 13.6831 12.3012 14.0717 12.379 14.6158ZM24.0358 24.6039C24.1136 24.3707 24.2301 24.2541 24.1913 24.1764C24.1136 24.0209 23.997 23.9432 23.8804 23.8266C23.8027 23.9043 23.6861 24.0209 23.725 24.0986C23.7639 24.2541 23.8804 24.3707 24.0358 24.6039ZM9.42588 12.8669C9.42588 12.8669 9.46474 12.8669 9.46474 12.9058C9.65902 12.8281 9.81444 12.6726 10.0087 12.6726C10.4361 12.6726 10.475 12.6726 10.3196 12.2063C10.0087 12.4394 9.73672 12.6338 9.42588 12.8669ZM55.4706 25.148C55.4706 25.1868 55.4318 25.2646 55.4318 25.3034C55.626 25.42 55.7815 25.5366 55.9757 25.6143C56.0534 25.6532 56.1312 25.5755 56.2477 25.5366C56.2089 25.4589 56.2089 25.3423 56.17 25.3423C55.9757 25.3034 55.7037 25.2257 55.4706 25.148ZM57.2191 20.4454C57.258 20.4066 57.258 20.3677 57.2969 20.3677C57.1026 20.1734 56.9083 19.9791 56.714 19.7847C56.6752 19.7459 56.5197 19.7459 56.442 19.7459C56.4809 19.8625 56.4809 19.9791 56.5197 20.0568C56.714 20.1734 56.986 20.29 57.2191 20.4454ZM67.9046 8.82509C67.9435 8.86396 67.9823 8.94169 68.0601 8.98055C68.2155 8.86396 68.4098 8.74737 68.5652 8.59191C68.4875 8.51418 68.4098 8.43645 68.332 8.35873C68.1766 8.51418 68.0212 8.66964 67.9046 8.82509ZM8.64875 15.9372C8.02705 15.9761 7.7162 16.2481 7.7162 16.6756C7.9882 16.4424 8.3379 16.2092 8.64875 15.9372ZM27.4941 49.982C27.3386 49.8266 27.1832 49.6711 27.0666 49.5545C26.9889 49.6323 26.8724 49.7489 26.8724 49.7877C26.9889 49.9432 27.1055 50.0598 27.2609 50.1764C27.2609 50.1764 27.3775 50.0598 27.4941 49.982ZM56.4032 29.4619C56.3643 29.5007 56.3643 29.5396 56.3254 29.5785C56.5974 29.7339 56.8306 29.8894 57.1414 30.0837C57.1414 29.6562 56.8306 29.423 56.4032 29.4619ZM32.1568 27.8296C32.3122 27.713 32.4288 27.713 32.4677 27.6353C32.5454 27.4798 32.5842 27.3243 32.6231 27.2078L32.4677 27.13C32.39 27.2466 32.2734 27.3632 32.2345 27.4798C32.1568 27.5187 32.1568 27.6353 32.1568 27.8296ZM67.0498 8.94169C66.9332 8.86396 66.8555 8.82509 66.7778 8.78623C66.7778 8.94169 66.7778 9.09714 66.8166 9.29146C67.3606 9.17487 67.3995 9.13601 67.3995 8.82509C67.2829 8.86396 67.1275 8.90282 67.0498 8.94169ZM85.7008 57.3662C85.5454 56.861 85.3122 56.7055 84.8071 56.7444C85.118 56.9776 85.4288 57.1719 85.7008 57.3662ZM11.9904 41.4708C12.0292 41.4708 12.0681 41.432 12.1458 41.432C12.0681 41.1599 11.9904 40.8879 11.8738 40.6158C11.8738 40.577 11.7573 40.577 11.7184 40.5381C11.6795 40.6158 11.6018 40.6936 11.6407 40.7324C11.7573 40.9656 11.8738 41.2377 11.9904 41.4708ZM12.7675 42.0538C12.9618 42.4036 13.1172 42.7145 13.2726 42.9865C13.5446 42.5979 13.4281 42.3647 12.7675 42.0538ZM70.0806 16.559C70.3526 16.7145 70.5469 16.8311 70.78 16.9865C70.8577 16.4813 70.6634 16.3647 70.0806 16.559ZM58.074 21.4559C58.1128 21.417 58.1517 21.3782 58.1905 21.3393C57.8797 21.1838 57.9574 20.6397 57.53 20.562C57.4911 20.6009 57.4523 20.6397 57.3746 20.6786C57.6077 20.9507 57.8408 21.2227 58.074 21.4559ZM59.8614 9.83556C59.9002 9.87442 59.9002 9.95215 59.9391 9.99101C60.2499 9.83556 60.5608 9.71897 60.8716 9.56351C60.8328 9.48578 60.8328 9.44692 60.7939 9.36919C60.4831 9.56351 60.1722 9.71896 59.8614 9.83556ZM45.7177 31.4828C45.6788 31.4828 45.64 31.4439 45.64 31.4439C45.4457 31.9103 45.2514 32.4155 45.0183 32.8819C45.0571 32.8819 45.096 32.9208 45.1348 32.9208C45.3291 32.4544 45.5234 31.988 45.7177 31.4828ZM23.4141 26.4693C23.4919 26.4693 23.5307 26.5082 23.6084 26.5082C23.6861 26.1196 23.8027 25.7698 23.8804 25.3811C23.8416 25.3811 23.8027 25.3423 23.7639 25.3423C23.6473 25.7309 23.5307 26.1196 23.4141 26.4693ZM31.4574 64.0897C32.2734 64.3617 32.4288 64.3617 32.5842 64.0897C32.1957 64.0897 31.846 64.0897 31.4574 64.0897ZM10.0476 41.432C10.1253 41.3931 10.1641 41.3542 10.2419 41.3154C10.2419 41.1988 10.2419 41.0433 10.1641 40.9267C10.1253 40.849 10.0087 40.7713 9.89216 40.7324C9.8533 40.7324 9.77559 40.8101 9.77559 40.8101C9.77559 40.8879 9.81444 41.0045 9.89216 41.0822C9.93101 41.1988 10.0087 41.3154 10.0476 41.432ZM16.5366 23.4768C16.3812 23.5157 16.2646 23.5157 16.2257 23.5545C16.148 23.6323 16.0703 23.7877 16.0314 23.9043C16.0314 23.9432 16.1092 23.982 16.148 24.0598C16.2257 23.982 16.3423 23.9043 16.42 23.8266C16.4589 23.71 16.4977 23.5934 16.5366 23.4768ZM10.6693 32.8042C10.6304 32.8042 10.5916 32.8042 10.5139 32.8042C10.2419 33.1928 10.7081 33.5037 10.747 33.8924C10.7081 33.5037 10.7081 33.1539 10.6693 32.8042ZM29.398 63.6233C29.6312 63.701 29.7866 63.7788 29.942 63.8176C29.9809 63.8176 30.0974 63.8176 30.0974 63.7788C30.1363 63.7399 30.1363 63.6622 30.0974 63.6233C30.0197 63.429 29.6312 63.429 29.398 63.6233ZM20.8108 20.1734C20.5776 20.2511 20.3834 20.2511 20.2668 20.3288C20.1891 20.4066 20.2668 20.6009 20.2668 20.7563C20.3056 20.7563 20.3445 20.7952 20.3834 20.7952C20.5388 20.6009 20.6553 20.4066 20.8108 20.1734ZM18.1685 17.7249C17.7411 17.7638 17.6634 17.8804 17.8966 18.5411C17.9743 18.2302 18.0908 17.997 18.1685 17.7249ZM15.604 9.48578C15.6429 9.52464 15.6429 9.52464 15.6817 9.56351C15.9926 9.29146 16.3034 9.05828 16.6532 8.78623C16.6143 8.74736 16.5754 8.7085 16.5366 8.66964C16.2257 8.94168 15.9149 9.21373 15.604 9.48578ZM15.5263 49.8655C15.3709 49.7877 15.2543 49.6711 15.1378 49.6711C15.06 49.6711 14.9823 49.7877 14.9046 49.8266C14.9823 49.9043 15.0989 50.0209 15.2155 50.0986C15.2543 50.0986 15.3709 49.982 15.5263 49.8655ZM11.3298 14.5381C11.3687 14.577 11.4076 14.6158 11.4464 14.6547C11.6407 14.4604 12.107 14.5381 12.0293 14.0329C11.7573 14.2272 11.563 14.3826 11.3298 14.5381ZM76.2976 53.4021C76.2976 53.4798 76.3364 53.5187 76.3364 53.5964C76.6084 53.5575 76.9193 53.4798 77.1913 53.4409C77.1913 53.4021 77.1913 53.3632 77.1524 53.3244C76.8804 53.3244 76.5696 53.3632 76.2976 53.4021ZM21.9376 22.6218C21.9765 22.6218 22.0153 22.6218 22.0542 22.6607C22.093 22.5441 22.2096 22.3886 22.1707 22.3109C22.093 22.1943 21.9376 22.0777 21.821 21.9611C21.7822 22 21.7433 22.0388 21.7433 22.0388C21.7822 22.2332 21.8599 22.4275 21.9376 22.6218ZM29.8254 8.24213C30.214 8.24213 30.4083 7.97008 30.4471 7.46485C30.2529 7.69804 30.0586 7.93122 29.8254 8.24213ZM39.4618 58.4544C39.3452 58.1435 39.2675 57.9103 39.1898 57.716C39.151 57.6383 39.1121 57.5994 39.0732 57.5605C39.0344 57.5605 38.9567 57.5994 38.9178 57.6383C38.9178 57.716 38.9178 57.7937 38.9567 57.8326C39.0732 58.0269 39.2287 58.1823 39.4618 58.4544ZM60.5219 27.7907C60.5608 27.7907 60.5996 27.7907 60.6385 27.7907C60.5996 27.4021 60.5219 27.0134 60.4831 26.5859C60.4442 26.5859 60.4054 26.5859 60.3665 26.5859C60.4054 26.9746 60.4442 27.4021 60.5219 27.7907ZM28.3489 63.2735C28.3878 63.2347 28.3878 63.1958 28.4266 63.1181C28.1546 63.0015 27.8826 62.9238 27.6106 62.8072C27.6106 62.846 27.5718 62.8849 27.5718 62.9238C27.8049 63.0792 28.0769 63.1958 28.3489 63.2735ZM15.2932 54.4903C15.2932 54.5291 15.2543 54.568 15.2543 54.6069C15.4486 54.6457 15.604 54.6846 15.7983 54.7235C15.7983 54.7235 15.8372 54.6069 15.8372 54.5291C15.6429 54.5291 15.4486 54.5291 15.2932 54.4903ZM60.3665 58.4155C60.3665 58.4544 60.4054 58.4933 60.4054 58.5321C60.7162 58.4544 61.0271 58.3767 61.3379 58.3378C61.3379 58.2989 61.2991 58.2212 61.2991 58.1824C60.9882 58.2601 60.6774 58.3378 60.3665 58.4155ZM31.03 19.0075C30.9523 18.7743 30.8357 18.5411 30.758 18.3079C30.6803 18.852 30.8746 19.0075 31.03 19.0075ZM68.7206 15.0822C68.6817 15.1211 68.6818 15.1599 68.6429 15.1988C68.7983 15.3931 68.9926 15.5874 69.2646 15.5486C69.3035 15.5097 69.3034 15.4708 69.3423 15.432C69.1092 15.3542 68.9149 15.2376 68.7206 15.0822ZM63.0864 31.4439C63.0476 31.4439 63.0087 31.4051 62.9699 31.4051C62.8533 31.6771 62.7367 31.9492 62.6202 32.2212C62.659 32.2601 62.7367 32.2601 62.7756 32.2989C62.8533 32.0269 62.9699 31.716 63.0864 31.4439ZM44.8628 33.3483C44.824 33.3094 44.824 33.3094 44.7851 33.2705C44.552 33.5814 44.3188 33.8535 44.0469 34.1644C44.0857 34.2033 44.1246 34.2033 44.1246 34.2421C44.3966 33.9312 44.6297 33.6203 44.8628 33.3483ZM17.9743 51.7309C17.9354 51.7698 17.8966 51.8475 17.8577 51.8864C17.9743 51.9641 18.1297 52.0807 18.2463 52.1584C18.2851 52.0807 18.3628 52.003 18.324 51.9641C18.2463 51.8864 18.0908 51.8087 17.9743 51.7309ZM76.181 34.5142C76.2199 34.553 76.2587 34.5531 76.2976 34.5919C76.6473 34.3976 76.6473 34.3587 76.4919 34.0478C76.3364 34.2421 76.2587 34.3976 76.181 34.5142ZM26.2507 3.34527C26.2507 3.30641 26.2118 3.26754 26.2118 3.22868C25.901 3.38413 25.629 3.50073 25.3181 3.65618C25.3181 3.69505 25.357 3.69505 25.357 3.73391C25.629 3.61732 25.9398 3.46186 26.2507 3.34527ZM69.1869 8.66964C69.4589 9.01941 69.5366 9.01941 69.7697 8.74737C69.5366 8.7085 69.3812 8.7085 69.1869 8.66964ZM38.1018 1.86844C38.0241 1.82958 37.9853 1.82958 37.9076 1.79071C37.8298 1.98503 37.7521 2.21822 37.6356 2.41254C37.6744 2.4514 37.7521 2.4514 37.791 2.49026C37.9076 2.29594 37.9853 2.10162 38.1018 1.86844ZM71.7125 56.8221C71.7125 56.7444 71.7125 56.6667 71.6737 56.6278C71.4794 56.6667 71.324 56.7055 71.1297 56.7444C71.1297 56.7832 71.1297 56.861 71.1686 56.8998C71.3628 56.861 71.5183 56.861 71.7125 56.8221ZM24.5798 26.6248C24.5798 26.6637 24.6187 26.7414 24.6187 26.7802C24.813 26.7025 25.0073 26.6637 25.2015 26.5859C25.2015 26.5471 25.1627 26.4693 25.1627 26.4305C25.0073 26.5082 24.813 26.5859 24.5798 26.6248ZM36.0813 55.9282C36.1202 55.9671 36.159 56.006 36.2367 56.0448C36.3533 55.8894 36.5087 55.7728 36.6253 55.6173C36.5864 55.5785 36.5087 55.5396 36.4699 55.5007C36.3533 55.6173 36.1979 55.7728 36.0813 55.9282ZM36.5087 63.9731C36.5476 64.0119 36.5864 64.0508 36.5864 64.1285C36.8196 64.1285 36.975 64.0119 37.0527 63.8176C37.0139 63.7788 37.0139 63.7399 36.975 63.701C36.8196 63.7788 36.6642 63.8565 36.5087 63.9731ZM24.1913 61.5635C24.1913 61.6412 24.1524 61.6801 24.1524 61.7578C24.3078 61.7967 24.5021 61.8356 24.6576 61.8356L24.6964 61.719C24.541 61.6801 24.3467 61.6024 24.1913 61.5635ZM43.3086 4.47233C43.464 4.55005 43.5417 4.62778 43.6583 4.66665C43.6971 4.66665 43.8137 4.55005 43.7749 4.51119C43.736 4.43346 43.6583 4.31687 43.5806 4.23914C43.5029 4.31687 43.464 4.3946 43.3086 4.47233ZM35.9647 45.5127C36.0036 45.5127 36.0424 45.5127 36.0813 45.5516C36.159 45.435 36.2367 45.2795 36.3144 45.1629C36.2756 45.1241 36.2756 45.1241 36.2367 45.0852C36.1202 45.1241 36.0036 45.124 35.9647 45.2018C35.9259 45.2406 35.9647 45.3961 35.9647 45.5127Z" fill="#610000"/>
</svg>
