<svg width="22" height="22" viewBox="0 0 22 22" fill="none" xmlns="http://www.w3.org/2000/svg">
<path d="M16.1513 14.6941C15.4683 14.0198 14.6156 14.0198 13.937 14.6941C13.4193 15.2074 12.9016 15.7207 12.3927 16.2428C12.2535 16.3863 12.136 16.4168 11.9663 16.3211C11.6314 16.1384 11.2747 15.9905 10.9527 15.7903C9.45192 14.8463 8.19471 13.6326 7.08105 12.2667C6.52857 11.588 6.037 10.8615 5.69333 10.0437C5.62373 9.8784 5.63678 9.76964 5.77164 9.63478C6.28931 9.13451 6.79394 8.62118 7.30291 8.10786C8.012 7.39442 8.012 6.55918 7.29856 5.84139C6.89399 5.43247 6.48942 5.03225 6.08485 4.62333C5.66723 4.20571 5.25396 3.78374 4.83199 3.37047C4.14901 2.70489 3.29636 2.70489 2.61773 3.37482C2.0957 3.88815 1.59543 4.41452 1.0647 4.91915C0.573128 5.38462 0.325165 5.9545 0.272963 6.62008C0.190309 7.70329 0.455672 8.72559 0.82979 9.72179C1.59543 11.7838 2.76129 13.6152 4.17511 15.2944C6.08485 17.5652 8.36437 19.3619 11.031 20.6582C12.2317 21.2412 13.4759 21.6892 14.8288 21.7632C15.7597 21.8154 16.5689 21.5805 17.2171 20.854C17.6608 20.3581 18.1611 19.9056 18.6309 19.4315C19.3269 18.7267 19.3313 17.8741 18.6396 17.1781C17.813 16.3472 16.9821 15.5206 16.1513 14.6941Z" fill="white"/>
<path d="M15.3201 11.227L16.9254 10.953C16.673 9.47824 15.977 8.14272 14.9199 7.08127C13.8019 5.96326 12.3881 5.25853 10.8307 5.04102L10.6045 6.65495C11.8095 6.82461 12.9058 7.36838 13.7715 8.23408C14.5893 9.05192 15.1244 10.0873 15.3201 11.227Z" fill="white"/>
<path d="M17.8309 4.24922C15.9777 2.39602 13.6329 1.22581 11.0446 0.864746L10.8184 2.47868C13.0544 2.79189 15.0816 3.80549 16.6825 5.40202C18.2007 6.92025 19.1969 8.8387 19.5579 10.9486L21.1632 10.6745C20.7412 8.22966 19.5884 6.01105 17.8309 4.24922Z" fill="white"/>
</svg>
