<svg width="42" height="42" viewBox="0 0 42 42" fill="none" xmlns="http://www.w3.org/2000/svg">
<path d="M9.90654 16.7837C9.90654 20.6209 13.0282 23.7426 16.8654 23.7426C17.77 23.7426 18.5028 24.4757 18.5028 25.38C18.5028 26.2846 17.77 27.0174 16.8654 27.0174C11.2226 27.0174 6.6317 22.4265 6.6317 16.7837C6.6317 11.1405 11.2226 6.54967 16.8654 6.54967C22.5086 6.54967 27.0994 11.1405 27.0994 16.7837C27.0994 17.688 26.3663 18.4211 25.462 18.4211C24.5577 18.4211 23.8246 17.688 23.8246 16.7837C23.8246 12.9465 20.7026 9.8245 16.8654 9.8245C13.0282 9.8245 9.90654 12.9465 9.90654 16.7837ZM11.1931 31.2663C6.99123 26.6652 3.36263 22.6912 3.35687 16.7677C3.36552 9.32783 9.42556 3.27483 16.8654 3.27483C24.3056 3.27483 30.3653 9.32783 30.3739 16.7677C30.3752 17.6716 31.108 18.4035 32.0114 18.4032H32.0133C32.9175 18.4022 33.65 17.6681 33.6488 16.7638C33.6436 12.2848 31.8957 8.07493 28.7266 4.90937C25.5575 1.74348 21.3451 0 16.8654 0C12.3861 0 8.17363 1.74348 5.00422 4.90937C1.83545 8.07493 0.0871582 12.2848 0.0820312 16.7673C0.0852356 20.0303 0.991423 23.0918 2.85282 26.1266C4.46429 28.7545 6.558 31.0472 8.77476 33.4748C10.9479 35.855 13.1955 38.3159 14.9902 41.1556C15.3017 41.6484 15.8326 41.9182 16.3758 41.9182C16.6751 41.9182 16.9776 41.8365 17.2493 41.6647C18.0135 41.1815 18.2417 40.1702 17.7584 39.4057C15.8089 36.3215 13.4624 33.7516 11.1931 31.2663ZM41.5709 32.052C41.2479 32.4055 40.8057 32.5846 40.3622 32.5846C39.9674 32.5846 39.5717 32.443 39.2576 32.1559L39.0526 31.9684V37.3866C39.0526 39.9306 36.9845 41.9999 34.4428 41.9999H25.2412C22.6995 41.9999 20.6315 39.9306 20.6315 37.3866V32.0434L20.5084 32.1559C19.8409 32.7663 18.8053 32.7198 18.1949 32.0524C17.5848 31.3849 17.6312 30.3489 18.2987 29.7388L26.7501 22.0119C28.5362 20.3793 31.2298 20.3793 33.0156 22.0119L38.4306 26.9629C38.4905 27.0103 38.5469 27.0619 38.5995 27.117L41.4674 29.7388C42.1348 30.3489 42.1813 31.3849 41.5709 32.052ZM35.7777 28.9743L30.8059 24.4289C30.2797 23.948 29.4863 23.948 28.9602 24.4289L23.9063 29.0489V37.3866C23.9063 38.1246 24.5052 38.7251 25.2415 38.7251H34.4428C35.1788 38.7251 35.7777 38.1246 35.7777 37.3866V28.9743Z" fill="white"/>
</svg>
