<svg width="34" height="37" viewBox="0 0 34 37" fill="none" xmlns="http://www.w3.org/2000/svg">
<circle cx="17" cy="18" r="17" fill="#ADE2E9"/>
<path d="M15.51 21.71C15.51 20.67 15.74 19.81 16.2 19.13C16.68 18.45 17.37 17.7 18.27 16.88C18.93 16.28 19.41 15.78 19.71 15.38C20.03 14.96 20.19 14.49 20.19 13.97C20.19 13.23 19.89 12.65 19.29 12.23C18.71 11.79 17.93 11.57 16.95 11.57C16.01 11.57 15.17 11.77 14.43 12.17C13.71 12.55 13.1 13.09 12.6 13.79L8.97 11.66C9.81 10.38 10.94 9.39 12.36 8.69C13.8 7.99 15.5 7.64 17.46 7.64C19.76 7.64 21.6 8.13 22.98 9.11C24.38 10.09 25.08 11.45 25.08 13.19C25.08 14.01 24.94 14.73 24.66 15.35C24.4 15.97 24.07 16.5 23.67 16.94C23.29 17.36 22.79 17.85 22.17 18.41C21.43 19.07 20.89 19.63 20.55 20.09C20.21 20.53 20.04 21.07 20.04 21.71H15.51ZM17.79 29.24C16.97 29.24 16.28 28.98 15.72 28.46C15.18 27.92 14.91 27.27 14.91 26.51C14.91 25.75 15.18 25.12 15.72 24.62C16.26 24.1 16.95 23.84 17.79 23.84C18.63 23.84 19.32 24.1 19.86 24.62C20.4 25.12 20.67 25.75 20.67 26.51C20.67 27.27 20.39 27.92 19.83 28.46C19.29 28.98 18.61 29.24 17.79 29.24Z" fill="white"/>
</svg>
