<svg width="55" height="55" viewBox="0 0 55 55" fill="none" xmlns="http://www.w3.org/2000/svg">
<path d="M51.9243 33.9616C42.3968 33.9616 33.0308 33.9616 23.5033 33.9616C23.5033 40.9117 23.5033 47.8618 23.5033 54.9736C17.044 53.923 11.6343 51.0944 7.35503 46.3263C2.26833 40.7501 -0.153916 34.1232 0.00756704 26.4458C6.06317 26.4458 11.9573 26.4458 17.9322 26.4458C17.9322 33.2343 17.9322 40.0228 17.9322 46.7304C14.1373 45.7606 8.00096 38.5681 6.95132 33.8808C7.59726 33.8808 8.16245 33.8 8.72763 33.8808C8.96986 33.9616 9.21208 34.2849 9.37357 34.6081C10.6654 37.8407 12.7647 40.4268 15.5907 42.6897C15.5907 37.9216 15.5907 33.3959 15.5907 28.7086C11.2306 28.7086 6.78984 28.7086 2.26833 28.7086C2.42981 33.5575 3.96389 38.0024 6.7091 41.9623C10.2617 47.0537 14.9447 50.3671 21.0003 52.0642C21.0003 42.528 21.0003 33.0726 21.0003 23.4556C14.0566 23.4556 7.11281 23.4556 0.00756704 23.4556C0.411274 20.5463 1.21869 17.9602 2.51055 15.5357C6.54762 7.61584 12.9262 2.60529 21.6463 0.665724C23.584 0.180832 25.6833 0.261648 27.7019 0.019202C28.267 -0.0616132 28.5093 0.100017 28.5093 0.746539C28.5093 6.32279 28.5093 11.899 28.5093 17.3945C28.5093 17.5561 28.4285 17.7986 28.4285 18.041C21.727 18.041 15.0255 18.041 8.0817 18.041C10.9884 12.6264 15.2677 8.9897 21.0003 6.96931C21.0811 7.13094 21.0811 7.21176 21.0811 7.29257C21.1618 9.07051 21.0811 9.07051 19.3855 9.79785C16.5595 11.0101 14.3795 12.9496 12.5225 15.2933C12.5225 15.4549 12.5225 15.6165 12.361 15.859C12.9262 15.859 13.4106 15.859 13.8951 15.859C17.6899 15.859 21.4848 15.859 25.3604 15.859C26.1678 15.859 26.41 15.6974 26.41 14.8084C26.3293 11.0101 26.3293 7.21176 26.41 3.33263C26.41 2.44366 26.1678 2.28203 25.2796 2.36284C15.0255 3.33263 6.14391 10.4444 3.15648 20.3038C3.07574 20.5463 3.07574 20.8695 2.995 21.1928C12.5225 21.1928 21.9692 21.1928 31.4967 21.1928C31.4967 14.2427 31.4967 7.21176 31.4967 0.100017C37.8753 1.15062 43.2849 3.97915 47.5642 8.66643C52.7317 14.2427 55.1539 20.9504 54.9924 28.547C48.9368 28.547 43.0427 28.547 36.9871 28.547C36.9871 21.7585 36.9871 15.0508 36.9871 8.26236C41.1049 9.63622 47.645 17.3137 47.8872 21.112C47.5642 21.112 47.322 21.112 46.999 21.1928C46.1109 21.3544 45.7072 20.9504 45.3842 20.1422C44.2538 17.0712 42.1546 14.6468 39.6516 12.6264C39.5708 12.5456 39.4094 12.5456 39.2479 12.3839C39.2479 17.0712 39.2479 21.5969 39.2479 26.2842C43.6886 26.2842 48.1294 26.2842 52.5702 26.2842C53.7813 17.6369 42.962 4.14078 33.8382 3.09018C33.8382 12.5456 33.8382 22.001 33.8382 31.5372C40.782 31.5372 47.8065 31.5372 54.7502 31.5372C53.2161 44.306 41.1049 55.6201 26.4907 54.9736C26.4907 48.9933 26.4907 43.0937 26.4907 37.0326C33.273 37.0326 39.9745 37.0326 46.8376 37.0326C43.9309 42.3664 39.6516 46.0031 33.8382 48.1043C33.8382 47.3769 33.7575 46.8112 33.8382 46.2455C33.9189 46.0031 34.2419 45.6798 34.5649 45.5182C37.7945 44.306 40.2975 42.2048 42.3968 39.5379C42.4775 39.457 42.4775 39.3762 42.5583 39.2146C37.8753 39.2146 33.273 39.2146 28.6708 39.2146C28.6708 43.6594 28.6708 48.1043 28.6708 52.5491C38.9249 52.6299 49.502 44.4676 51.9243 33.9616ZM23.4226 31.618C26.0063 31.618 28.5093 31.618 30.9315 31.618C31.093 31.618 31.4967 31.2139 31.4967 30.9714C31.4967 28.7086 31.4967 26.4458 31.4967 24.183C31.4967 23.9405 31.1737 23.5364 30.9315 23.5364C28.6708 23.4556 26.3293 23.5364 24.0685 23.5364C23.8263 23.5364 23.4226 23.9405 23.4226 24.1021C23.4226 26.5266 23.4226 29.0319 23.4226 31.618Z" fill="#FAEDDE"/>
</svg>
