<svg width="37" height="37" viewBox="0 0 37 37" fill="none" xmlns="http://www.w3.org/2000/svg">
<path d="M28.7167 10.7753L32.2903 7.17274C32.396 7.06603 32.4454 6.91582 32.4235 6.76727C32.4016 6.61865 32.3109 6.48904 32.1789 6.4175L20.4461 0.0582519C20.2605 -0.0422898 20.0309 -0.00903031 19.8816 0.140288L16.2797 3.74217L12.6781 0.140542C12.5884 0.0502391 12.4682 0 12.3417 0C12.2622 0 12.184 0.0202864 12.114 0.0585063L8.3455 2.10037C8.23358 2.16142 8.15218 2.2619 8.11593 2.384C8.07968 2.5061 8.09304 2.6352 8.15345 2.74712C8.2374 2.90102 8.39829 2.99711 8.57317 2.99711C8.65203 2.99711 8.73088 2.97676 8.8002 2.93924L12.2552 1.06647L15.4901 4.30142L4.6025 10.1863L1.3949 6.95251L7.12266 3.84799C7.23522 3.78758 7.31662 3.6871 7.35287 3.565C7.38912 3.4429 7.37576 3.31381 7.31471 3.20188C7.23141 3.04798 7.07051 2.95196 6.89563 2.95196C6.81677 2.95196 6.73855 2.97224 6.6686 3.00977L0.381214 6.41775C0.249575 6.48828 0.158 6.61935 0.136378 6.76752C0.114757 6.91499 0.164423 7.06635 0.269925 7.17261L3.84307 10.7754L0.269671 14.3778C0.163915 14.4846 0.114566 14.6348 0.136442 14.7833C0.158382 14.9319 0.249003 15.0615 0.381024 15.1331L4.03849 17.1154V25.7225C4.03843 25.7389 4.03925 25.7553 4.04091 25.7716C4.04161 25.7785 4.04294 25.7852 4.0439 25.7921C4.0451 25.8004 4.04606 25.8088 4.04771 25.817C4.04975 25.8273 4.05255 25.8374 4.05522 25.8475C4.05649 25.8521 4.05744 25.8568 4.05884 25.8615C4.06196 25.8717 4.06571 25.8817 4.06946 25.8918C4.07111 25.8962 4.07251 25.9007 4.07436 25.9051C4.07805 25.9141 4.08231 25.9227 4.0865 25.9314C4.08911 25.9368 4.09146 25.9422 4.09426 25.9475C4.09808 25.9546 4.10234 25.9614 4.10641 25.9683C4.11035 25.9748 4.1141 25.9814 4.1183 25.9878C4.1218 25.9931 4.12574 25.9981 4.12949 26.0033C4.1349 26.0107 4.14024 26.0183 4.14609 26.0256C4.14933 26.0296 4.15296 26.0332 4.15633 26.0371C4.16307 26.0449 4.16981 26.0526 4.17706 26.06C4.18081 26.0637 4.18495 26.0671 4.18883 26.0709C4.19608 26.0777 4.2032 26.0846 4.21089 26.0909C4.21833 26.0971 4.22622 26.1027 4.23398 26.1084C4.23856 26.1117 4.24282 26.1153 4.24752 26.1185C4.2612 26.1277 4.27538 26.1363 4.29 26.1442L16.0507 32.5014C16.0676 32.5107 16.0853 32.5187 16.1034 32.526C16.1074 32.5275 16.1114 32.5289 16.1154 32.5303C16.1286 32.5352 16.142 32.5395 16.1558 32.5431C16.1608 32.5445 16.1657 32.5458 16.1707 32.547C16.184 32.5501 16.1976 32.5526 16.2113 32.5545C16.216 32.5552 16.2206 32.5561 16.2253 32.5566C16.2432 32.5587 16.2614 32.56 16.2799 32.56C16.2984 32.56 16.3166 32.5587 16.3345 32.5566C16.3392 32.5561 16.3439 32.5552 16.3486 32.5545C16.3623 32.5526 16.3759 32.5501 16.3892 32.547C16.3941 32.5458 16.3991 32.5445 16.404 32.5431C16.4177 32.5395 16.4312 32.5352 16.4444 32.5303C16.4484 32.5289 16.4524 32.5275 16.4563 32.526C16.4744 32.5187 16.4921 32.5107 16.509 32.5014L28.2697 26.1442C28.2843 26.1363 28.2985 26.1277 28.3122 26.1185C28.3169 26.1153 28.3212 26.1117 28.3257 26.1084C28.3335 26.1026 28.3414 26.097 28.3488 26.0909C28.3565 26.0846 28.3636 26.0777 28.3709 26.0709C28.3747 26.0671 28.3789 26.0638 28.3826 26.06C28.3899 26.0526 28.3966 26.0449 28.4034 26.0371C28.4067 26.0332 28.4104 26.0296 28.4136 26.0256C28.4194 26.0184 28.4248 26.0108 28.4302 26.0033C28.4339 25.9981 28.4379 25.9931 28.4414 25.9878C28.4456 25.9814 28.4493 25.9749 28.4533 25.9683C28.4574 25.9614 28.4617 25.9546 28.4654 25.9475C28.4682 25.9422 28.4706 25.9368 28.4732 25.9314C28.4774 25.9227 28.4816 25.9141 28.4853 25.9051C28.4872 25.9007 28.4886 25.8962 28.4902 25.8918C28.494 25.8818 28.4977 25.8718 28.5008 25.8615C28.5022 25.8569 28.5032 25.8522 28.5045 25.8475C28.5071 25.8374 28.5099 25.8273 28.512 25.817C28.5136 25.8088 28.5146 25.8004 28.5158 25.7921C28.5167 25.7852 28.5181 25.7785 28.5188 25.7716C28.5204 25.7553 28.5213 25.7389 28.5212 25.7225V17.1154L32.1785 15.1332C32.3101 15.0619 32.4017 14.9309 32.4233 14.7834C32.4449 14.6352 32.3953 14.4839 32.2904 14.3777L28.7167 10.7753ZM20.3044 1.06653L31.1648 6.95283L27.9572 10.1864L17.0697 4.30123L20.3044 1.06653ZM4.74063 16.4111L1.39509 14.5978L4.60263 11.3641L15.4902 17.2494L12.2554 20.4841L4.7447 16.4132C4.74336 16.4125 4.74203 16.4118 4.74063 16.4111ZM15.803 31.2831L4.99233 25.4394V17.6324L12.1138 21.4923C12.1854 21.5311 12.2635 21.55 12.3409 21.55C12.4645 21.55 12.5866 21.502 12.6783 21.4103L15.803 18.2856V31.2831ZM16.28 16.5919L5.51946 10.7754L16.2802 4.95879L27.0407 10.7753L16.28 16.5919ZM27.8212 16.4101C27.8185 16.4114 27.816 16.4128 27.8135 16.4142L25.4373 17.7022C25.3247 17.7626 25.2433 17.8637 25.2071 17.9858C25.1708 18.108 25.1842 18.237 25.2446 18.349C25.3285 18.5029 25.4894 18.5983 25.6643 18.5983C25.7432 18.5983 25.822 18.5785 25.8913 18.5411L27.5675 17.6325V25.4395L16.7569 31.2832V18.2854L19.8819 21.4103C19.9722 21.5006 20.0917 21.5502 20.2189 21.5502C20.2978 21.5502 20.376 21.5299 20.4459 21.4923L24.2144 19.4498C24.3264 19.3894 24.4078 19.2882 24.444 19.1661C24.4803 19.044 24.4669 18.9156 24.4065 18.8037C24.3225 18.6491 24.1617 18.5537 23.9861 18.5537C23.9079 18.5537 23.8291 18.5734 23.7597 18.6116L20.3048 20.4837L17.0698 17.2494L27.9575 11.3639L31.1651 14.5976L27.8212 16.4101Z" fill="#FAEDDE"/>
<circle cx="29" cy="29" r="8" fill="#F40505"/>
</svg>
