<svg width="187" height="149" viewBox="0 0 187 149" fill="none" xmlns="http://www.w3.org/2000/svg">
<path d="M184 3.99999C182.5 3.69999 181 3.39999 179.6 3.09999C174.9 2.19999 170.1 1.29999 165.4 0.399993C164 0.099993 162.8 0.299994 161.6 1.19999C159.3 2.89999 157 4.59999 154.7 6.29999C148.7 10.7 142.7 15.1 136.7 19.5C136.4 19.7 135.9 19.9 135.6 19.8C135.4 19.7 135.2 19.1 135.2 18.7C135.2 17.1 135.2 15.5 135.2 14C135.2 12.3 134.7 11.7 133 11.3C131.3 11 129.5 10.6 127.8 10.3C123.2 9.39999 118.6 8.39999 114 7.49999C113 7.29999 112.2 7.49999 111.3 8.09999C103.9 13.2 96.4001 18.3 89.0001 23.4C88.4001 23.8 87.9001 24.2 87.4001 24.6C87.5001 24.7 87.5001 24.8 87.6001 24.9C88.1001 24.7 88.7001 24.4 89.2001 24.1C89.5001 24 89.7001 23.6 89.9001 23.6C91.2001 23.9 92.0001 23.2 92.8001 22.4C93.1001 22.1 93.6001 21.9 94.0001 21.8C95.7001 21.4 97.4001 21.1 99.1001 20.8L97.0001 22.8C96.4001 22.8 95.9001 22.9 95.4001 23.1C94.4001 23.5 94.1001 24.5 94.4001 25.3L91.5001 28.1C91.0001 28.1 90.5001 28 90.0001 28.1C89.5001 28.1 88.9001 28.1 88.6001 27.8C87.6001 27 86.8001 27.6 86.2001 28.3C85.5001 29.2 84.7001 29 83.9001 28.8C83.5001 28.7 83.3001 28.1 82.8001 27.5C71.7001 35.2 60.5001 42.9 49.3001 50.7C49.4001 50.8 49.4001 50.9 49.5001 51C50.5001 50.6 51.6001 50.3 52.6001 49.9C53.0001 49.8 53.3001 49.5 53.6001 49.3C54.5001 48.7 55.6001 48.4 56.3001 47.6C57.4001 46.4 58.5001 45.5 60.3001 45.2C62.0001 44.9 63.6001 43.7 65.1001 42.7C66.3001 41.9 67.4001 40.8 69.0001 40.5C69.2001 40.5 69.5001 40.3 69.6001 40.1C70.3001 38.8 71.7001 38.5 72.8001 37.8C74.1001 37.1 75.6001 36.5 76.2001 34.9C76.4001 34.4 76.8001 34.2 77.5001 34.3C77.9001 34.4 78.6001 34.3 78.9001 34C79.9001 33.3 80.7001 32.4 81.8001 31.8C83.1001 31 84.5001 29.6 86.1001 31.1C86.5001 30.7 86.8001 30.1 87.2001 30C87.8001 29.9 88.4001 30.1 89.2001 30.1C88.9001 30.3 88.7001 30.5 88.4001 30.7C88.1001 31 87.6001 31.2 87.4001 31.6C86.9001 32.3 86.5001 33.1 86.0001 33.7C85.5001 34.2 84.9001 34.6 84.4001 35.1C83.8001 35.6 83.2001 35.8 82.4001 35.2C82.4001 35.7 82.4001 36.1 82.3001 36.4C81.4001 36.7 80.6001 37 79.9001 37.3C79.5001 37.5 79.2001 38 78.9001 38.4C78.7001 38.7 78.5001 39.1 78.3001 39.3C77.5001 40 76.7001 40.5 75.9001 41.2C75.3001 41.7 74.6001 42 73.8001 41.7C73.3001 41.5 72.6001 41.6 72.3001 41.9C71.5001 42.7 70.8001 43.6 70.1001 44.5C69.7001 45.1 69.5001 45.8 69.0001 46.3C67.7001 47.8 66.3001 49.2 64.6001 50.3C63.6001 50.9 62.6001 51.6 61.6001 52.3C61.5001 52.2 61.4001 52.1 61.3001 52C61.6001 51.6 61.7001 51 62.1001 50.7C63.0001 49.6 64.0001 48.6 65.0001 47.6C65.8001 46.9 66.6001 46.2 67.4001 45.5C68.2001 44.8 68.9001 44 69.6001 43.2C69.7001 43.1 69.7001 42.8 69.7001 42.6C68.7001 42.8 67.8001 42.9 66.9001 43H66.8001C65.1001 43.3 64.0001 45 62.1001 45L62.0001 45.1C59.7001 46.6 57.4001 48 55.1001 49.4C54.4001 49.8 53.6001 50.2 52.8001 50.6C50.0001 52.2 47.2001 53.8 44.3001 55.4C44.1001 55.5 43.8001 55.6 43.5001 55.7C43.4001 55.6 43.4001 55.5 43.3001 55.4C45.1001 54 46.9001 52.7 48.8001 51.3C48.7001 51.2 48.7001 51.1 48.6001 51C43.6001 54.3 38.6001 57.7 33.6001 61C33.7001 61.1 33.8001 61.3 33.8001 61.4C34.5001 61 35.2001 60.7 36.0001 60.2C35.9001 60.5 35.9001 60.6 35.9001 60.6C33.6001 62.3 31.3001 63.9 28.9001 65.5C28.7001 65.6 28.4001 65.5 28.2001 65.5C29.3001 64.8 30.4001 64.2 31.1001 63.2C31.0001 63.1 30.9001 63 30.8001 62.9C29.1001 64.1 27.4001 65.3 25.7001 66.5C25.8001 66.6 25.8001 66.7 25.9001 66.8C26.6001 66.5 27.3001 66.2 28.2001 65.9C26.7001 67.6 24.7001 68.8 23.6001 68.8C23.2001 70 17.6001 74 16.1001 74C16.5001 73.6 16.8001 73.4 17.1001 73.2C17.3001 73 17.5001 72.7 17.7001 72.4C17.6001 72.4 17.6001 72.3 17.5001 72.3C14.8001 74.1 12.1001 75.9 9.2001 77.9C9.8001 78 10.2001 78 10.5001 78.1C11.6001 78.4 12.7001 78.7 13.8001 78.9C14.1001 79 14.4001 78.8 14.7001 78.7C15.3001 78.4 15.9001 78 16.6001 77.7C16.7001 77.8 16.8001 77.8 16.9001 77.9C16.7001 78.2 16.6001 78.6 16.3001 78.8C15.9001 79 15.5001 79 15.0001 79C15.0001 79.1 15.0001 79.2 15.0001 79.3C15.9001 79.5 16.8001 79.7 17.7001 79.9C17.7001 79.8 17.7001 79.7 17.8001 79.7C17.5001 79.6 17.2001 79.5 16.8001 79.4C17.2001 78.7 17.4001 78.1 18.1001 77.6C19.1001 77 20.5001 76.5 20.7001 75C20.7001 74.8 21.1001 74.6 21.3001 74.6C22.8001 74.3 23.8001 73.3 24.6001 72.1C24.1001 72.3 23.6001 72.5 22.9001 72.7C23.0001 72.3 23.0001 71.8 23.2001 71.7C24.1001 71 25.1001 70.3 26.1001 69.7C26.7001 69.3 27.3001 68.9 27.9001 68.6C28.6001 68.2 29.3001 67.7 30.1001 67.3C30.1001 67.9 28.9001 68.3 30.0001 69.1C30.4001 68.4 30.7001 67.9 31.0001 67.3C32.4001 66.9 33.9001 66.5 35.5001 66C34.8001 65.6 34.7001 65.2 35.4001 64.8C35.8001 64.5 36.1001 64.1 36.5001 63.8C36.4001 63.7 36.2001 63.6 35.9001 63.4C36.5001 63 37.0001 62.8 37.5001 63.4C38.1001 64.1 38.6001 64 39.1001 63.1C39.2001 62.9 39.3001 62.6 39.5001 62.4C39.9001 62.1 40.3001 61.9 40.8001 61.7C40.8001 62.1 40.7001 62.5 40.7001 63.1C41.1001 63 41.6001 62.9 42.2001 62.8C41.9001 64.4 39.7001 64.5 39.4001 66.2C39.1001 66.2 38.8001 66.1 38.3001 66.1C38.3001 66.7 38.3001 67.2 38.3001 67.9C37.0001 67.4 36.2001 68.1 35.6001 69.1C36.1001 68.9 36.5001 68.7 37.0001 68.5C37.1001 68.6 37.1001 68.7 37.2001 68.8C35.3001 70.1 33.4001 71.4 31.4001 72.8C31.4001 72.2 31.3001 71.9 31.3001 71.4C30.9001 71.9 30.6001 72.6 30.3001 72.6C29.0001 72.6 28.3001 73.6 27.4001 74.3C26.5001 75 25.7001 75.7 24.9001 76.4C24.8001 76.5 24.8001 76.6 24.8001 76.7C25.0001 76.8 25.2001 76.9 25.5001 77.2C24.5001 77.9 23.7001 78.7 22.8001 79.2C21.9001 79.7 20.9001 80 20.0001 80.3C20.0001 80.4 20.1001 80.5 20.1001 80.5C21.0001 80.8 21.8001 81.1 22.5001 81.3C22.9001 80.9 23.1001 80.5 23.4001 80.3C26.8001 77.8 30.1001 75.3 33.5001 72.8C35.9001 71.1 38.4001 69.4 40.8001 67.6C42.0001 66.7 43.2001 65.9 44.3001 65C44.7001 64.7 45.1001 64.4 45.5001 64.1C45.6001 64.2 45.7001 64.3 45.8001 64.4C45.6001 64.7 45.4001 65.1 45.1001 65.3C44.2001 66 43.3001 66.6 42.5001 67.3C41.9001 67.8 41.5001 68.5 40.9001 69.1C40.4001 69.6 39.9001 69.9 39.3001 70.3C39.3001 70.4 39.4001 70.4 39.4001 70.5C39.7001 70.5 39.9001 70.5 40.4001 70.4C38.1001 72 36.1001 73.5 34.0001 75C33.9001 74.7 33.8001 74.5 33.7001 74.2C32.7001 75.4 30.9001 75.6 30.6001 77.5C30.5001 77.9 29.9001 78.2 29.4001 78.5C28.3001 79.2 27.5001 80.5 26.0001 80.4C25.9001 80.4 25.8001 80.8 25.7001 81C25.3001 81.2 25.0001 81.3 24.6001 81.5C24.6001 81.6 24.6001 81.8 24.7001 81.9C25.4001 82 26.2001 82.2 26.9001 82.3C27.7001 82.7 28.5001 83.1 29.5001 83.2C31.1001 83.4 32.6001 83.9 34.1001 84.5C34.6001 84.7 35.2001 85.5 35.3001 86.1C35.4001 87.3 35.4001 88.6 35.4001 89.9C34.7001 90.3 34.1001 90.8 33.4001 91.2C33.1001 90.9 32.9001 90.6 32.9001 90.6C32.9001 90.6 33.8001 90.7 33.9001 90.5C34.0001 90.3 35.2001 86.4 32.7001 85.1C30.1001 83.8 9.3001 78.7 9.3001 78.7C9.3001 78.7 7.9001 100.3 8.6001 101.4C8.8001 101.8 11.6001 103.1 15.3001 104.8C15.1001 104.9 14.9001 104.9 14.7001 104.9C14.6001 105.8 8.9001 109.7 7.5001 109.8C7.9001 109.4 8.2001 109.2 8.5001 109C8.7001 108.8 8.9001 108.5 9.1001 108.2C9.0001 108.2 9.0001 108.1 8.9001 108.1C6.2001 109.9 3.5001 111.7 0.600098 113.7C1.2001 113.8 1.6001 113.8 1.9001 113.9C3.0001 114.2 4.1001 114.5 5.2001 114.7C5.5001 114.8 5.8001 114.6 6.1001 114.5C6.7001 114.2 7.3001 113.8 8.0001 113.5C8.1001 113.6 8.2001 113.6 8.3001 113.7C8.1001 114 8.0001 114.4 7.7001 114.6C7.4001 114.8 6.9001 114.8 6.5001 114.8C6.5001 114.9 6.5001 115 6.5001 115.1C7.4001 115.3 8.3001 115.5 9.2001 115.7C9.2001 115.6 9.2001 115.5 9.3001 115.5C9.0001 115.4 8.7001 115.3 8.3001 115.2C8.7001 114.5 8.9001 113.9 9.6001 113.4C10.6001 112.8 12.0001 112.3 12.2001 110.8C12.2001 110.6 12.6001 110.4 12.8001 110.4C14.3001 110.1 15.3001 109.1 16.1001 107.9C15.6001 108.1 15.1001 108.3 14.4001 108.5C14.5001 108.1 14.5001 107.6 14.7001 107.5C15.5001 106.9 16.4001 106.3 17.2001 105.7C18.8001 106.4 20.5001 107.1 22.2001 107.8C22.0001 108.1 21.8001 108.3 21.6001 108.3C20.3001 108.3 19.6001 109.3 18.7001 110C17.8001 110.7 17.0001 111.4 16.2001 112.1C16.1001 112.2 16.1001 112.3 16.1001 112.4C16.3001 112.5 16.5001 112.6 16.8001 112.9C15.8001 113.6 15.0001 114.4 14.1001 114.9C13.2001 115.4 12.2001 115.7 11.3001 116C11.3001 116.1 11.4001 116.2 11.4001 116.2C12.3001 116.5 13.1001 116.8 13.8001 117C14.2001 116.6 14.4001 116.2 14.7001 116C18.0001 113.6 21.2001 111.2 24.5001 108.8C25.3001 109.1 26.1001 109.4 26.9001 109.7C26.4001 110.1 25.9001 110.4 25.5001 110.8C25.4001 110.5 25.3001 110.3 25.2001 110C24.2001 111.2 22.4001 111.4 22.1001 113.3C22.0001 113.7 21.4001 114 20.9001 114.3C19.8001 115 19.0001 116.3 17.5001 116.2C17.4001 116.2 17.3001 116.6 17.2001 116.8C16.8001 117 16.5001 117.1 16.1001 117.3C16.1001 117.4 16.1001 117.6 16.2001 117.7C16.9001 117.8 17.7001 118 18.4001 118.1C19.2001 118.5 20.0001 118.9 21.0001 119C22.6001 119.2 24.1001 119.7 25.6001 120.3C26.1001 120.5 26.7001 121.3 26.8001 121.9C27.0001 123.3 26.9001 124.8 26.9001 126.4C27.0001 126.5 27.2001 126.6 27.3001 126.6C27.1001 126.9 26.9001 127.2 26.9001 127.4C26.9001 129 26.8001 130.6 26.9001 132.2C26.9001 133.8 27.1001 135.5 27.2001 137.1C27.2001 137.4 27.1001 137.8 27.1001 138.1C27.1001 139.4 27.3001 140.8 27.2001 142.1C27.1001 142.9 27.2001 143.5 27.8001 143.9C27.3001 144.8 26.7001 145.6 27.5001 146.7C27.6001 146.8 27.4001 147.2 27.3001 147.4C27.2001 147.6 26.9001 147.6 26.7001 147.8C26.8001 147.9 26.9001 148.1 27.1001 148.2C35.8001 141.6 44.4001 135 53.3001 128.2C53.4001 131.1 53.1001 133.7 54.3001 136.5C54.9001 136.8 55.9001 137.4 56.9001 137.7C59.2001 138.4 61.5001 138.9 63.7001 139.5C65.2001 139.9 66.6001 140.6 68.3001 140.4C68.5001 140.4 68.7001 140.6 68.9001 140.8C69.7001 141.4 70.8001 141.2 71.1001 140.2C71.2001 140.3 71.4001 140.4 71.5001 140.5C71.6001 141.5 72.2001 141.8 73.1001 141.9C73.3001 141.9 73.5001 142 73.8001 142C75.5001 142.4 77.1001 142.9 78.8001 143.3C79.5001 143.5 80.1001 143.3 80.2001 142.4C80.2001 142.2 80.4001 142 80.6001 141.7L80.7001 141.8C80.7001 142.2 80.6001 142.6 80.5001 143.2C81.0001 142.8 81.3001 142.7 81.5001 142.5C83.1001 141.1 84.8001 139.8 86.4001 138.4C92.7001 133.2 99.1001 128 105.4 122.8C110.5 118.6 115.5 114.3 120.6 110.1C130.8 101.7 141 93.3 151.1 84.9C158.8 78.5 166.3 72.1 174 65.8C175.9 64.3 176.7 62.6 176.7 60.2C176.8 54.3 177.2 48.5 177.5 42.6C177.6 40.8 177.2 40.2 175.4 39.8C174.2 39.5 173.1 39.3 171.9 39.1C175.5 36.1 179.1 33.1 182.7 30.1C184.6 28.6 185.4 26.9 185.4 24.5C185.5 18.6 185.9 12.8 186.2 6.89999C186.1 4.89999 185.8 4.39999 184 3.99999ZM43.2001 62C43.1001 62 42.5001 61.4 42.3001 61.1C43.5001 60.5 44.4001 60.1 45.3001 59.6C45.4001 59.7 45.5001 59.8 45.5001 59.9C44.8001 60.7 44.1001 61.4 43.2001 62ZM45.8001 73.5C46.5001 73.1 47.1001 72.7 47.7001 72.3C47.6001 72.6 47.6001 72.8 47.4001 73.1C47.1001 73.7 46.7001 74.1 45.8001 73.5ZM47.8001 72.3C48.3001 71.8 48.8001 71.4 49.4001 70.8C49.4001 71.9 49.0001 72.2 47.8001 72.3ZM51.4001 69.7C52.2001 68.6 53.3001 68 54.3001 67.2C54.0001 67.6 53.8001 68.1 53.4001 68.4C52.9001 68.9 52.2001 69.4 51.4001 69.7ZM54.4001 67.1C55.0001 66.6 55.7001 66.2 56.4001 65.6C56.3001 66.6 55.5001 67.2 54.4001 67.1ZM97.3001 27.1C98.2001 27.3 99.1001 27.4 100 27.3C99.5001 27.6 98.9001 28 98.4001 28.4C95.5001 29.6 92.8001 31.2 90.3001 33.2C89.9001 31.6 91.3001 31.2 91.9001 30.3C92.2001 29.9 92.6001 29.5 93.0001 29.2C94.1001 28.8 95.5001 28.2 97.3001 27.1ZM75.2001 106.8C75.1001 107 75.0001 107.3 74.8001 107.4C74.5001 107.7 74.2001 108 73.8001 108.3C73.7001 108.4 73.4001 108.4 73.2001 108.5C73.2001 108.3 73.2001 108 73.3001 107.9C73.8001 107.5 74.3001 107.1 74.8001 106.7C75.0001 106.7 75.1001 106.7 75.2001 106.8ZM72.6001 105C72.5001 104.9 72.5001 104.8 72.4001 104.7C72.6001 104.5 72.8001 104.2 73.0001 103.9C73.2001 104 73.5001 104.1 73.7001 104.1C73.3001 104.5 73.0001 104.8 72.6001 105ZM63.3001 77.6C62.7001 76.9 62.1001 76.2 61.5001 75.5C62.8001 75.4 63.7001 76.3 63.5001 77.5C63.4001 77.5 63.3001 77.5 63.3001 77.6ZM35.0001 104.8C35.2001 104.7 35.4001 104.6 35.6001 104.5C35.6001 104.7 35.6001 104.9 35.6001 105.1C35.2001 105.5 34.8001 105.9 34.4001 106.3C34.4001 105.9 34.4001 105.6 34.4001 105.1C34.6001 105 34.8001 104.9 35.0001 104.8ZM39.2001 97.6C38.9001 98.1 38.5001 98.5 38.2001 99.1C38.1001 99.1 37.9001 99.1 37.7001 99C37.8001 98.8 37.9001 98.7 38.0001 98.6C38.4001 98.3 38.8001 98 39.2001 97.6ZM38.1001 104.9C38.5001 104.7 38.9001 104.5 39.3001 104.3C38.8001 104.7 38.3001 105.1 37.8001 105.6C37.7001 105.5 37.6001 105.4 37.5001 105.3C37.8001 105.1 38.0001 105 38.1001 104.9ZM40.9001 96.3C40.9001 96.5 40.9001 96.8 40.8001 97C40.5001 97.4 40.1001 97.5 39.7001 97.2C40.0001 97 40.4001 96.7 40.9001 96.3C40.8001 96.4 40.8001 96.3 40.9001 96.3ZM36.7001 99.6C36.8001 99.7 36.9001 99.8 37.0001 99.9C37.0001 100 36.9001 100 36.9001 100.1C36.7001 100.2 36.4001 100.2 36.1001 100.2C36.1001 100.2 36.1001 100.1 36.0001 100.1C36.3001 99.9 36.5001 99.8 36.7001 99.6ZM93.3001 33.4C93.7001 32.8 94.2001 32.2 94.8001 31.7C94.4001 32.3 94.0001 32.9 93.7001 33.5C93.6001 33.5 93.5001 33.5 93.3001 33.4ZM102.7 24.3C102.6 24.1 102.4 23.9 102.3 23.8C102.5 23.7 102.6 23.6 102.8 23.4C103 23.8 103.1 24.2 103.3 24.6C103.2 24.6 103.1 24.7 103 24.7C102.8 24.7 102.8 24.5 102.7 24.3ZM103.6 23.6C103.5 23.4 103.3 23.3 103.2 23.1C103.4 22.9 103.7 22.7 103.9 22.5C104.3 23.2 104.6 23.8 104.6 24.5C104.3 24.7 104.1 24.9 103.8 25.1C104 24.5 104 24.1 103.6 23.6ZM105.2 24C104.8 23.4 104.6 22.8 105.1 21.8C105.4 22.4 105.7 22.8 106 23.3C105.8 23.6 105.5 23.8 105.2 24ZM106.6 21.9C106.4 21.8 106.3 21.6 106.1 21.4C106.3 21.3 106.5 21.1 106.7 21.1C106.8 21.1 107 21.3 107.3 21.5C106.9 21.8 106.7 22 106.6 21.9ZM84.1001 66.9C83.2001 67.5 82.3001 68.1 81.5001 68.8C82.2001 67.8 82.8001 66.9 84.1001 66.9ZM92.6001 66.7C93.1001 66.4 93.5001 66.1 93.9001 65.7C94.0001 65.5 94.4001 65.5 94.7001 65.5C94.4001 66.2 93.5001 66.8 92.6001 66.7ZM87.9001 68.3C87.8001 68.2 87.8001 68.1 87.7001 68C88.1001 67.8 88.4001 67.5 88.8001 67.3C88.9001 67.4 88.9001 67.5 89.0001 67.6C88.7001 67.8 88.3001 68 87.9001 68.3ZM91.7001 63.6C91.4001 63.5 91.2001 63.4 90.7001 63.2C90.8001 63.1 90.9001 63 91.1001 62.9C92.3001 62.8 93.4001 62.4 94.3001 61.5C94.4001 61.6 94.4001 61.6 94.5001 61.7C93.5001 62.3 92.6001 62.8 91.6001 63.4C91.7001 63.4 91.7001 63.5 91.7001 63.6ZM94.5001 60.3C94.4001 60.3 94.3001 60.4 94.2001 60.4C94.3001 60.3 94.4001 60.3 94.5001 60.3C94.5001 60.2 94.5001 60.2 94.5001 60.3ZM78.0001 75.3C77.3001 76.1 76.5001 76.9 75.7001 77.7C75.7001 77.5 75.7001 77.3 75.6001 77.1C75.6001 77 75.7001 76.7 75.9001 76.6C76.6001 76.1 77.3001 75.6 78.1001 75.1C78.1001 75.2 78.1001 75.3 78.0001 75.3ZM77.3001 74.7C76.2001 75.8 75.1001 77 74.1001 78C74.0001 77.9 74.0001 77.9 73.9001 77.8C75.0001 76.6 75.7001 75.3 77.3001 74.7ZM96.8001 61.3C96.6001 61.6 96.5001 61.8 96.3001 62.1C96.0001 62.3 95.7001 62.6 95.4001 62.8C94.4001 63.2 93.6001 63.7 92.9001 64.4C92.5001 64.6 92.2001 64.7 92.0001 64.7C93.4001 63.3 94.8001 62.2 96.3001 61.1C96.5001 61.2 96.7001 61.2 96.8001 61.3ZM35.3001 95.9C35.3001 96 35.3001 96.1 35.3001 96.3C35.3001 96.5 35.3001 96.7 35.3001 96.9C35.0001 97.1 34.7001 97.4 34.4001 97.6C34.4001 97.6 34.3001 97.5 34.2001 97.4C34.2001 97.1 34.2001 96.7 34.1001 96.4C34.6001 96.3 35.0001 96.1 35.3001 95.9ZM35.5001 100.5C35.6001 100.7 35.6001 101 35.6001 101.2C35.6001 101.3 35.6001 101.3 35.6001 101.4C35.2001 101.7 34.8001 102 34.4001 102.3C34.4001 102 34.4001 101.7 34.4001 101.4C34.8001 101.1 35.1001 100.8 35.5001 100.5ZM34.2001 108.6C34.3001 108.4 34.3001 108.1 34.4001 107.7C34.8001 107.4 35.2001 107.2 35.6001 106.9C35.6001 107.4 35.8001 107.8 36.3001 108.1C35.6001 108.7 34.8001 109.2 34.1001 109.8C33.9001 109.5 33.9001 109 34.2001 108.6ZM71.2001 111.7C71.7001 111.1 72.4001 110.6 73.3001 111.1C73.5001 111.9 73.2001 112.3 72.2001 112.4C71.9001 112.4 71.6001 112.6 71.2001 112.8C71.1001 112.4 71.0001 111.9 71.2001 111.7ZM73.3001 111.1C73.2001 110.9 73.0001 110.8 73.0001 110.7C73.8001 110 74.4001 109.3 75.2001 108.8C75.6001 108.5 76.1001 108.5 76.7001 108.4C76.7001 107.4 78.4001 106.2 80.0001 106.5C79.1001 107.1 78.3001 107.7 77.6001 108.3C77.5001 108.4 77.5001 108.7 77.4001 108.8C76.9001 109.2 76.4001 109.6 75.8001 109.9C75.5001 110.1 75.1001 110.2 74.9001 110.5C74.5001 111.3 74.0001 111.4 73.3001 111.1ZM123.6 44.2C124.2 44.6 124.2 45.1 123.7 45.5C123.3 45.8 122.9 46.2 122.5 46.5C122.1 46.4 121.6 46.3 121.2 46.2C121.8 45.7 122.4 45.3 123 44.8C123.1 44.7 123.3 44.4 123.6 44.2ZM86.2001 39C86.4001 38.9 86.7001 39 86.9001 39.1C86.8001 39.3 86.8001 39.6 86.7001 39.8C85.6001 41 84.4001 42.2 83.2001 43.5C82.8001 43.3 82.6001 43.1 82.1001 42.9C83.5001 41.5 84.3001 39.6 86.2001 39ZM74.5001 48.7C75.0001 48.1 75.4001 47.2 76.4001 47.7C76.0001 48.2 75.7001 48.7 75.4001 49.1C75.2001 49.4 74.9001 49.5 74.6001 49.7C74.5001 49.7 74.3001 49.6 74.3001 49.6C74.3001 49.3 74.3001 48.9 74.5001 48.7ZM71.9001 50.7C72.3001 51.7 69.8001 53.7 68.0001 53.7C69.3001 52.6 70.5001 51.7 71.9001 50.7ZM61.5001 58.5C61.6001 58.6 61.7001 58.7 61.8001 58.7C61.8001 58.9 61.8001 59.2 61.7001 59.3C60.9001 59.7 60.7001 61 59.5001 60.8C59.4001 60.8 59.2001 61 59.1001 61.1C58.4001 61.9 57.8001 62.7 57.0001 63.3C56.2001 64 55.1001 64.4 54.2001 64.9C54.1001 64.8 54.1001 64.8 54.0001 64.7C55.9001 62 59.0001 60.5 61.5001 58.5ZM50.8001 64.8C50.3001 65.2 49.8001 65.6 49.3001 66C48.8001 66.3 48.3001 66.6 47.6001 67C47.8001 66.2 54.0001 61.3 55.1001 60.8C55.6001 61.3 55.3001 61.8 54.8001 62.1C53.5001 63 52.1001 63.9 50.8001 64.8ZM53.2001 57.8C53.8001 57.3 54.5001 57.6 55.4001 58.3C54.4001 58.9 53.5001 59.3 52.7001 59.9C51.8001 60.6 51.0001 61.4 50.0001 62.3L49.9001 62.2C48.7001 62.9 47.6001 63.6 46.4001 64.2C46.3001 64.2 46.2001 64.1 46.2001 64.1C46.4001 63.7 46.5001 63.3 46.7001 63.1C48.9001 61.3 51.0001 59.5 53.2001 57.8ZM46.2001 57.6C46.3001 57.3 46.6001 56.9 46.8001 56.5C47.8001 57.9 47.8001 57.9 49.1001 58C48.8001 58.5 47.8001 58.8 45.9001 58.8C45.9001 58.4 46.0001 58 46.2001 57.6ZM46.7001 66.7C46.6001 67.3 46.7001 67.7 46.5001 67.8C46.1001 68.1 45.6001 68.3 45.1001 68.5C45.1001 68.4 45.0001 68.3 45.0001 68.2C45.5001 67.7 46.0001 67.3 46.7001 66.7ZM36.2001 74.7C38.1001 73.2 40.1001 71.8 42.0001 70.3C42.6001 69.9 43.1001 69.5 43.7001 69.1C44.0001 68.9 44.3001 68.8 44.6001 68.7C44.6001 68.8 44.7001 68.9 44.7001 68.9C43.7001 69.9 42.8001 70.8 41.8001 71.8C41.7001 71.9 41.5001 72.1 41.3001 72.1C40.7001 72.3 40.2001 72.6 39.6001 73.1C38.5001 74.1 37.1001 74.7 35.6001 75.3C35.9001 75.2 36.0001 74.9 36.2001 74.7ZM27.2001 81.4C29.0001 80.1 30.9001 78.8 32.7001 77.5C33.4001 77 34.0001 76.3 34.8001 75.8C34.7001 76.9 33.9001 77.2 33.2001 77.8C32.6001 78.3 32.0001 79 31.4001 79.6C30.7001 80.2 30.0001 80.6 29.2001 81.1C28.5001 81.5 27.7001 81.9 26.9001 82.3C27.0001 81.9 27.0001 81.5 27.2001 81.4ZM34.4001 79.6C34.3001 79.7 34.1001 79.7 34.1001 79.8C33.6001 81.2 32.1001 81.5 31.2001 82.4C30.6001 83 29.9001 82.8 29.2001 82.1C31.9001 80.2 34.6001 78.3 37.2001 76.4C39.8001 74.5 42.3001 72.4 45.1001 70.9C45.6001 70.4 46.0001 69.8 46.6001 69.5C47.3001 69 48.1001 68.8 48.9001 68.4C49.1001 68.3 49.3001 68.1 49.4001 68C50.7001 66.9 51.9001 65.9 53.2001 64.8C53.3001 64.7 53.5001 64.8 53.7001 64.8C53.7001 64.9 53.8001 65 53.7001 65.1C52.9001 66.1 52.1001 67.1 51.2001 68.1C51.0001 68.3 50.8001 68.4 50.6001 68.5C50.2001 68.7 49.7001 68.9 49.3001 69.2C48.3001 70 47.3001 70.8 46.3001 71.6C45.0001 72.6 43.7001 73.7 42.4001 74.6C41.9001 75 41.2001 75.1 40.6001 75.4C40.1001 75.6 39.7001 75.9 39.3001 76.2C37.6001 77.4 36.0001 78.5 34.4001 79.6ZM35.1001 81.7C35.0001 81.6 34.9001 81.5 34.9001 81.4C35.4001 81 36.0001 80.6 36.5001 80.3C36.6001 80.4 36.7001 80.5 36.8001 80.6C36.3001 81 35.7001 81.3 35.1001 81.7ZM35.4001 90.5C35.5001 90.6 35.7001 90.6 35.7001 90.7C35.6001 90.9 35.4001 91.1 35.4001 91.3C35.4001 91.3 35.3001 91.3 35.3001 91.4C35.1001 91.5 34.8001 91.6 34.5001 91.7C34.4001 91.6 34.4001 91.5 34.3001 91.4C34.7001 91.1 35.1001 90.8 35.4001 90.5ZM22.6001 108.3C22.6001 108.1 22.6001 108 22.6001 107.8C22.8001 107.9 22.9001 107.9 23.1001 108C22.8001 108.1 22.7001 108.2 22.6001 108.3ZM28.8001 110.3C28.2001 110.6 27.6001 110.8 27.0001 111.1C27.2001 110.8 27.3001 110.5 27.5001 110.3C27.7001 110.2 27.8001 110.1 28.0001 110C28.2001 110.1 28.5001 110.2 28.8001 110.3ZM18.5001 116.9C20.3001 115.6 22.2001 114.3 24.0001 113C24.7001 112.5 25.3001 111.8 26.1001 111.3C26.0001 112.4 25.2001 112.7 24.5001 113.3C23.9001 113.8 23.3001 114.5 22.7001 115.1C22.0001 115.7 21.3001 116.1 20.5001 116.6C19.8001 117 19.0001 117.4 18.2001 117.8C18.3001 117.4 18.3001 117.1 18.5001 116.9ZM25.6001 115.2C25.5001 115.3 25.3001 115.3 25.3001 115.4C24.8001 116.8 23.3001 117.1 22.4001 118C21.8001 118.6 21.1001 118.4 20.4001 117.7C23.1001 115.8 25.8001 113.9 28.4001 112C29.0001 111.6 29.5001 111.2 30.1001 110.7C30.5001 110.9 31.0001 111 31.3001 111.1C31.0001 111.3 30.7001 111.5 30.4001 111.7C28.8001 112.9 27.2001 114.1 25.6001 115.2ZM26.4001 117.3C26.3001 117.2 26.2001 117.1 26.2001 117C26.7001 116.6 27.3001 116.2 27.8001 115.9C27.9001 116 28.0001 116.1 28.1001 116.2C27.5001 116.5 27.0001 116.9 26.4001 117.3ZM27.4001 135.8C27.3001 135.7 27.3001 135.6 27.3001 135.6C27.5001 135.2 27.7001 134.7 28.1001 134.4C28.8001 133.9 29.6001 133.4 30.4001 133C30.4001 133.1 30.5001 133.2 30.5001 133.3C30.2001 133.8 29.8001 134.2 29.5001 134.8C29.4001 134.8 29.1001 134.7 28.8001 134.7C28.8001 135.6 28.2001 135.8 27.4001 135.8ZM27.6001 144.9C27.5001 144.8 27.5001 144.7 27.4001 144.6C28.4001 143.8 29.4001 143 30.4001 142.1C30.5001 142.2 30.6001 142.3 30.6001 142.4C29.6001 143.3 28.6001 144.1 27.6001 144.9ZM29.1001 141.1C29.0001 141 28.9001 140.9 28.8001 140.8C29.5001 140.2 30.2001 139.7 30.9001 139.1C31.0001 139.2 31.0001 139.2 31.1001 139.3C30.5001 140 29.8001 140.6 29.1001 141.1ZM32.0001 132.6C31.6001 133 31.2001 133.2 30.7001 132.6C31.2001 132.4 31.6001 132.2 32.2001 131.9C32.1001 132.1 32.1001 132.4 32.0001 132.6ZM54.7001 113.4C54.0001 112.6 53.4001 111.9 52.7001 111C54.2001 110.9 55.1001 112 54.7001 113.4ZM63.0001 111.7C63.6001 111.1 64.1001 110.6 64.7001 110.1C65.2001 109.7 65.3001 108.5 66.6001 109.3C65.6001 110.2 64.8001 111.1 63.8001 112C63.7001 112 63.4001 111.9 63.0001 111.7ZM64.5001 112.6C65.4001 111.1 67.8001 109.7 68.6001 110.3C67.5001 111.4 66.4001 112.6 65.4001 113.6C65.1001 113.3 64.8001 112.9 64.5001 112.6ZM66.7001 116C66.4001 115.9 66.2001 115.7 65.9001 115.5C66.1001 114.5 67.4001 113.9 66.9001 112.7C66.9001 112.6 67.0001 112.3 67.2001 112.2C68.1001 111.5 69.0001 110.9 69.9001 110.3C70.5001 111.1 69.8001 111.2 69.4001 111.4C68.8001 111.8 68.3001 112.2 68.4001 112.6C67.8001 113.9 67.3001 114.9 66.7001 116ZM68.7001 117.1C68.0001 117.3 68.0001 117.3 67.9001 116.5C67.9001 116.4 67.8001 116.2 67.6001 116C68.0001 116.1 68.3001 116.2 68.4001 116.2C68.8001 115.4 69.1001 114.6 69.5001 113.7C69.5001 113.7 69.3001 113.5 69.1001 113.2C69.5001 112.9 69.8001 112.6 70.1001 112.4C71.0001 113.1 71.2001 114.5 70.5001 115.7C70.2001 116.4 70.0001 117.5 68.7001 117.1ZM73.2001 119.3C72.9001 119.1 72.7001 118.7 72.4001 118.4C72.5001 118.3 72.5001 118.3 72.6001 118.2C72.8001 118.3 73.0001 118.3 73.0001 118.3C73.4001 116.9 73.7001 115.6 74.1001 114.3C74.3001 114.3 74.4001 114.2 74.6001 114.2C74.8001 114.7 75.2001 115.2 75.1001 115.7C74.9001 116.8 74.4001 117.8 74.0001 118.8C73.9001 119 73.4001 119.4 73.2001 119.3ZM75.0001 119.1C75.5001 119.6 75.3001 120 75.0001 120.5C74.4001 121.6 74.3001 121.7 73.5001 121.7C73.7001 121.2 73.8001 120.7 74.0001 120.1C74.1001 120.1 74.3001 120.1 74.5001 120.1C74.5001 119.7 74.0001 119 75.0001 119.1C74.9001 118.9 74.8001 118.6 74.9001 118.4C75.3001 117.5 75.7001 116.5 76.1001 115.6C76.2001 115.4 76.1001 115.1 76.2001 114.8C76.3001 115 76.6001 115.2 76.6001 115.3C76.4001 116.4 76.1001 117.6 75.8001 118.7C75.8001 118.9 75.3001 119 75.0001 119.1ZM76.4001 118.8C76.5001 118.8 76.6001 118.8 76.7001 118.8C76.9001 118.4 77.1001 118.1 77.3001 117.8C77.4001 117.6 77.6001 117.4 77.8001 117.1C77.9001 117.4 78.1001 117.6 78.2001 117.9C78.3001 118 78.3001 118.3 78.2001 118.4C77.9001 118.9 77.6001 119.4 77.3001 119.8C77.0001 119.5 76.7001 119.1 76.4001 118.8ZM76.6001 114.5C77.2001 114.1 77.6001 113.4 78.3001 113.4C78.3001 113.5 78.4001 113.6 78.4001 113.7C77.8001 114.1 77.3001 114.4 76.7001 114.8C76.7001 114.7 76.7001 114.6 76.6001 114.5ZM78.3001 121.5C78.1001 121.4 77.8001 121.2 77.9001 121.2C78.3001 119.9 78.8001 118.7 79.2001 117.4C79.3001 117.4 79.5001 117.5 79.6001 117.5C79.1001 118.8 78.7001 120.1 78.3001 121.5ZM80.3001 112.1C80.2001 112 80.1001 111.9 80.1001 111.9C80.5001 111.5 81.0001 111.2 81.4001 110.8C81.6001 111.1 81.4001 111.3 80.3001 112.1ZM81.7001 107.3C81.8001 108.1 78.3001 111 77.3001 110.9C77.0001 112.1 74.4001 113.9 73.1001 113.8C73.8001 115.2 72.9001 116.4 72.5001 117.6C72.4001 118 72.1001 118.3 71.8001 118.7C70.6001 120.3 70.3001 120.3 69.0001 118.8C69.6001 117.6 70.3001 119 71.1001 118.8C70.8001 118.3 70.5001 117.9 70.0001 117.3C70.5001 117.2 71.0001 117 71.4001 116.9C71.0001 116.2 71.4001 114.1 72.4001 113.3C73.8001 112.2 75.3001 111.1 76.8001 110C78.2001 109 79.6001 108.1 81.0001 107.1C81.4001 106.8 81.7001 106.6 82.0001 106.3C82.4001 106.4 82.8001 106.5 83.2001 106.6C82.7001 107 82.1001 107.3 81.7001 107.3ZM88.3001 108.2C87.1001 107.7 86.8001 109 86.1001 109.4C85.9001 109.5 85.7001 109.5 85.5001 109.6C85.6001 109.4 85.5001 109.2 85.7001 109.1C86.2001 108.6 86.8001 108.2 87.4001 107.8C87.5001 107.8 87.6001 107.7 87.7001 107.7C87.8001 107.7 87.9001 107.7 88.0001 107.7C88.2001 107.7 88.4001 107.7 88.6001 107.6C88.6001 107.7 88.7001 107.8 88.7001 107.9C88.5001 107.9 88.3001 108.2 88.3001 108.2Z" fill="#FDF2E5"/>
</svg>
