<svg width="167" height="227" viewBox="0 0 167 227" fill="none" xmlns="http://www.w3.org/2000/svg">
<g clip-path="url(#clip0)">
<path d="M50.0918 214.019C49.1765 214.019 48.3444 214.019 47.4291 214.019C47.1795 213.936 47.0131 213.936 46.7634 213.853C42.8526 213.104 39.6075 210.441 39.5243 206.031C39.5243 204.45 40.1067 202.786 40.3564 201.205C40.4396 200.872 40.4396 200.372 40.2732 200.123C39.2746 199.041 38.1929 197.959 37.1112 196.961C36.3623 196.295 36.0295 196.295 35.6135 197.294C34.9478 198.708 33.9493 199.707 32.5347 200.372C32.2851 200.539 32.1187 200.955 32.0355 201.288C31.9523 201.454 32.0355 201.704 32.0355 201.87C31.9523 201.87 31.8691 201.953 31.7859 201.953C30.0385 197.626 28.2911 193.299 26.4605 189.056C26.2941 189.056 26.2109 189.056 26.0445 189.056C25.6284 189.721 25.1292 190.47 24.7131 191.136C24.0474 192.301 23.465 193.549 22.7161 194.714C22.3001 195.38 21.7176 195.879 21.0519 196.295C20.3863 196.711 19.9702 196.545 19.6374 195.796C18.8885 194.298 18.1396 192.8 17.3907 191.302C15.893 188.307 15.1441 185.311 16.3922 182.066C16.3922 182.066 16.309 181.983 16.309 181.9C11.7325 182.981 11.7325 182.981 10.8172 182.316C12.315 181.484 12.3982 179.986 12.6478 178.571C12.731 177.822 12.8143 176.99 13.1471 176.324C14.6449 172.58 14.312 168.752 13.4799 165.008C12.315 159.599 10.9005 154.273 9.65233 148.948C8.90345 145.952 8.57061 142.957 9.15307 139.878C9.23628 139.295 9.15307 138.63 9.15307 138.047C9.23628 137.382 9.23628 136.633 9.48591 135.967C9.65232 135.385 10.1516 134.968 10.4844 134.469C10.6508 134.136 10.8172 133.637 10.6508 133.387C10.1516 132.472 10.318 131.64 10.8172 130.808C11.899 128.811 12.8975 126.897 13.9792 124.9C14.2288 124.484 14.4784 124.151 14.7281 123.818C15.0609 123.319 15.5601 122.903 15.893 122.404C16.7251 120.989 17.3907 119.574 18.1396 118.16C19.5542 115.497 20.9687 112.751 23.0489 110.421C27.1262 106.094 31.7026 102.433 36.4455 98.938C39.9403 96.3585 43.8511 94.5278 47.6787 92.5308C49.3429 91.6155 51.0071 90.6169 52.6713 89.6184C53.0873 89.3688 53.3369 88.7863 53.6698 88.4534C53.5866 88.3702 53.5866 88.2038 53.5033 88.1206C52.8377 88.2038 52.0888 88.2038 51.4231 88.3702C49.8422 88.8695 48.178 89.452 46.597 90.0344C44.6 90.7833 42.603 91.2826 40.4396 90.9498C39.3579 90.7833 38.5258 90.2841 37.8601 89.452C37.6937 89.2023 37.2776 89.0359 37.028 89.0359C34.9478 88.9527 32.9508 88.6199 31.037 87.7045C29.04 86.7892 27.9583 85.2914 28.0415 83.0447C28.0415 82.7951 27.7918 82.379 27.5422 82.2958C25.7116 81.3805 24.2139 80.2155 22.7993 78.8009C20.303 76.2214 18.6389 73.0594 17.5572 69.7309C16.9747 68.1499 16.7251 66.4025 16.309 64.7383C17.1411 65.4039 16.5587 66.6521 17.4739 67.2346C18.3892 66.8185 18.306 65.9864 18.306 65.3207C18.306 64.9047 17.9732 64.4886 17.89 64.0726C17.6404 62.1587 18.3892 60.4113 19.1381 58.6638C19.3045 58.331 19.471 57.9982 19.6374 57.5821C20.0534 56.75 20.303 55.8347 20.8855 55.169C21.6344 54.1704 22.6329 53.4215 23.5482 52.5062C23.6314 52.423 23.7146 52.423 23.7978 52.423C24.2139 52.1734 24.7131 52.007 25.1292 51.6741C25.2956 51.5909 25.462 51.2581 25.3788 51.1748C25.2124 50.842 24.8795 50.5092 24.6299 50.2595C24.6299 50.2595 24.2139 50.5092 24.0474 50.6756C23.881 50.842 23.7978 51.1748 23.7146 51.1748C22.6329 51.0916 22.3001 52.0902 21.6344 52.5062C21.3848 52.6726 20.8023 52.7559 20.8023 52.9223C20.7191 53.8376 20.0534 54.0872 19.471 54.4201C19.2213 54.5865 18.8885 54.9193 18.8053 55.2522C18.3892 56.1675 17.89 57.0828 17.6404 57.9982C17.2243 59.2463 16.7251 60.4945 16.8083 61.8259C16.8083 62.3251 16.7251 62.8244 16.7251 63.4069C16.5587 63.2405 16.3922 63.1572 16.4754 62.9908C16.5587 61.3266 16.3922 59.5792 16.7251 57.9149C18.5557 48.7617 26.8765 46.7647 32.6179 48.0128C38.2761 49.1778 43.4351 54.7529 43.9343 60.7441C44.0175 61.3266 44.2672 61.5762 44.7664 61.6594C45.0993 61.6594 45.5153 61.7427 45.8481 61.8259C48.178 62.1587 50.591 62.4083 53.0041 62.7412C53.1705 62.1587 53.8362 62.0755 54.3354 62.2419C55.0843 62.4916 55.75 62.9076 56.3324 63.3237C56.9149 63.6565 57.4142 64.1558 57.9134 64.5718C58.4127 64.9879 58.9119 65.4039 59.328 65.9032C60.2433 66.985 60.9089 68.2331 61.9074 69.3149C62.8227 70.3134 64.0709 71.0623 65.735 71.1455C65.4854 70.8959 65.4022 70.8127 65.319 70.7295C63.322 68.8156 61.8242 66.4857 60.7425 63.9062C60.4929 63.4069 60.6593 62.7412 60.5761 62.1587C60.5761 61.8259 60.6593 61.493 60.5761 61.1602C60.2433 60.0784 59.6608 59.0799 59.5776 57.9982C59.4112 56.0011 59.4944 54.004 59.4944 52.007C59.4944 51.5909 59.5776 51.2581 59.744 50.842C59.9104 50.3427 60.2433 50.2595 60.7425 50.5924C61.6578 51.1748 62.4899 51.8405 63.4884 52.2566C64.8197 52.9223 66.2343 53.3383 67.5656 54.004C69.0634 54.6697 70.0619 55.7515 70.5611 57.3325C70.6444 57.6653 70.894 57.9982 71.0604 58.2478C72.3917 57.4989 72.8078 57.4989 73.8895 58.4974C74.472 58.9967 75.0544 59.5792 75.4705 60.2449C76.6354 62.0755 77.8003 63.9061 78.9652 65.7368C79.2149 66.1528 79.5477 66.6521 79.8805 67.2346C80.6294 65.6536 81.3783 64.3222 81.9607 62.9908C83.0425 64.0726 83.8745 65.1543 84.9563 65.9032C86.2044 66.8185 87.1197 66.5689 87.9518 65.2375C88.3678 64.655 88.8671 64.3222 89.616 64.239C90.5312 64.1558 91.3633 64.0726 92.2786 63.9062C93.1107 63.7397 93.3603 63.2405 92.6947 62.658C92.1122 62.0755 91.3633 61.493 90.6145 60.9938C87.6189 59.2463 84.9563 57.0828 82.5432 54.5033C78.7988 50.2595 76.3858 45.4333 75.9697 39.7749C75.5537 34.9487 77.301 30.7049 80.3798 27.0436C80.5462 26.8772 80.7126 26.6276 80.879 26.6276C81.7943 26.794 82.1272 26.0451 82.6264 25.4626C83.7081 24.2144 84.7066 23.9648 86.038 24.6305C86.7869 24.9633 87.3693 25.5458 88.035 25.9619C88.3678 26.1283 88.7007 26.2115 89.1167 26.3779C90.032 26.6276 91.0305 26.7108 91.7794 27.1268C93.7764 28.2086 95.1077 29.8728 96.1062 31.8699C98.02 35.5311 98.1032 38.0275 95.2741 41.1895C93.61 43.1034 92.029 45.1004 90.7809 47.2639C88.7007 50.842 90.5312 53.0055 93.1939 54.5033C93.8596 54.9193 94.6085 55.3354 95.1909 55.8347C96.1894 56.6668 97.0215 57.6653 98.4361 57.8317C98.6025 57.8317 98.7689 57.9982 98.9353 58.0814C99.7674 58.7471 100.683 59.0799 101.764 59.2463C102.846 59.4127 103.429 60.0784 103.678 61.1602C103.845 61.8259 104.011 62.4916 104.344 63.1572C104.427 63.4069 104.677 63.5733 104.926 63.6565C106.591 64.1558 108.255 64.5718 109.919 65.1543C111.417 65.6536 112.665 66.6521 113.414 68.1499C113.497 68.3163 113.663 68.4828 113.746 68.4828C114.828 68.4828 115.244 69.3149 115.744 70.0638C116.16 70.7295 116.492 71.5616 116.992 72.2273C118.323 73.9747 119.654 75.6389 121.069 77.3031C121.235 77.4696 121.402 77.7192 121.568 77.8024C123.066 78.5513 124.231 79.7995 125.313 81.1309C127.31 83.7104 129.223 86.3732 131.22 88.9527C131.387 89.2023 131.72 89.452 132.052 89.7848C132.052 89.3688 132.136 89.1191 132.052 88.9527C131.72 87.6213 131.387 86.3732 130.971 85.125C128.058 75.8886 125.146 66.7353 123.316 57.2493C121.735 48.9281 120.486 40.607 121.735 32.1195C122.151 29.2071 122.899 26.3779 124.231 23.6319C127.809 16.0597 135.963 12.8977 142.703 14.0627C146.281 14.7284 149.193 16.3926 151.024 19.721C152.439 22.3006 152.522 25.0465 152.189 27.8757C152.023 29.5399 151.357 30.9545 150.275 32.2027C148.112 34.6158 144.534 34.1998 143.036 31.4538C143.785 31.0377 144.617 30.6217 145.283 30.1224C145.782 29.7896 146.364 29.2071 146.032 28.5414C145.782 28.0421 145.199 27.4597 144.7 27.3765C143.618 27.21 142.454 27.0436 141.372 27.2932C137.96 27.9589 135.298 29.956 133.134 32.6188C132.968 32.7852 132.885 33.0348 132.718 33.2844C132.468 33.7837 132.468 34.1166 133.217 34.283C134.216 34.4494 135.214 34.6158 136.213 34.8655C137.128 35.1151 137.877 35.6976 138.127 36.6961C138.46 38.1107 138.293 40.191 136.379 41.2727C135.797 41.6056 135.214 42.1048 134.715 42.6041C134.549 42.7705 134.465 43.1034 134.465 43.4362C134.382 43.9355 134.465 44.4347 134.299 44.8508C134.049 45.6829 133.633 46.4318 133.467 47.2639C133.301 48.0128 133.301 48.7617 133.217 49.5106C134.882 49.5938 136.379 49.5938 137.794 49.8435C138.959 50.0931 140.124 50.4259 141.122 51.0916C142.62 52.0902 142.454 54.0872 140.956 55.0858C140.623 55.3354 140.207 55.4186 139.957 55.7515C139.708 56.0011 139.541 56.4171 139.541 56.6668C139.541 56.9164 140.04 57.166 140.29 57.2493C140.789 57.4157 141.372 57.3325 141.871 57.4989C142.87 57.7485 143.286 58.2478 143.202 59.3295C143.119 60.1616 142.953 60.9938 142.703 61.7427C142.204 62.9908 141.705 64.239 141.039 65.4039C140.623 66.0696 140.04 66.985 139.375 67.1514C137.461 67.4842 136.13 68.566 135.298 70.2302C134.798 71.1455 134.465 72.2273 133.966 73.0594C133.467 73.9747 133.301 74.89 133.384 75.8885C133.467 76.3878 133.717 77.1367 134.049 77.3031C134.465 77.4696 135.214 77.2199 135.63 76.9703C136.546 76.2214 137.295 75.4725 138.46 75.0564C139.708 74.6404 140.956 74.3908 142.204 74.7236C143.202 74.9732 143.868 75.6389 144.118 76.6375C144.284 77.1367 144.201 77.5528 143.618 77.8856C141.954 78.8009 140.956 80.2155 140.29 81.963C139.042 85.2082 139.375 88.5366 140.04 91.8651C140.706 95.1103 141.954 98.1891 143.202 101.268C147.196 110.837 149.693 120.823 150.774 131.058C151.44 137.215 151.44 143.456 150.442 149.614C149.693 154.357 148.195 158.85 145.449 162.761C144.284 164.425 142.87 165.923 141.455 167.504C142.537 169.168 142.537 169.168 141.122 170.5C139.208 172.33 137.045 173.995 135.88 176.408C135.131 177.905 134.133 178.904 132.968 179.902C131.47 181.317 130.055 182.815 128.558 184.229C123.981 188.64 118.656 191.885 112.914 194.464C106.591 197.294 100.1 199.624 93.1939 200.539C84.7066 201.621 76.3025 201.454 67.9817 199.707C64.9029 199.041 61.8242 198.375 58.9951 196.878C57.9134 196.295 56.9981 195.629 55.8332 195.38C55.3339 195.297 54.9179 194.881 54.5019 194.548C53.9194 194.132 53.3369 193.632 52.6713 193.216C52.0056 192.8 51.2567 192.384 50.591 191.968C49.9254 191.552 49.3429 191.136 48.6772 190.72C48.178 190.47 47.5123 190.137 46.7634 190.72C47.2627 191.219 47.6787 191.635 48.0948 192.051C49.8422 193.716 51.6728 195.297 53.2537 197.127C55.6668 199.79 57.2477 202.786 57.0813 206.53C56.9981 210.025 55.0011 212.854 51.756 213.936C51.5063 213.686 50.7575 213.853 50.0918 214.019ZM60.7425 126.897C60.4097 126.897 59.9936 126.814 59.744 126.98C58.4959 127.646 57.2477 128.312 56.0828 129.06C55.8332 129.227 55.6668 129.643 55.6668 129.893C55.6668 130.891 55.75 131.973 56.4989 132.805C56.4989 132.389 56.4156 131.973 56.3324 131.557C56.0828 130.641 56.0828 130.558 56.9981 130.641C58.6623 130.725 60.4097 130.891 62.0738 131.141C64.3205 131.474 66.5671 132.139 68.5641 133.387C68.6473 133.387 68.7305 133.387 68.8138 133.387C68.5641 133.055 68.3145 132.805 67.9817 132.639C66.4839 131.89 64.9862 131.141 63.4052 130.558C62.5731 130.225 61.8242 129.809 60.7425 129.893C59.0783 130.059 58.7455 129.643 58.6623 128.145C59.5776 127.979 60.6593 128.228 60.7425 126.897C61.4082 126.98 62.2403 127.479 62.6563 127.23C63.4884 126.647 64.3205 126.814 65.1526 126.564C66.1511 126.231 67.316 126.148 68.3145 125.982C68.3145 125.898 68.3145 125.815 68.3145 125.732C68.1481 125.649 68.0649 125.566 67.8985 125.566C66.4839 125.649 64.9862 125.566 63.5716 125.815C62.5731 125.982 61.6578 126.564 60.7425 126.897ZM92.9443 116.662C93.0275 116.579 93.0275 116.412 93.1107 116.329C93.4436 116.412 93.8596 116.496 94.1924 116.745C94.6085 117.078 94.9413 117.494 95.3574 117.827C99.4346 121.155 102.43 125.399 104.677 130.059C105.176 131.058 105.176 131.058 106.258 130.725C106.424 129.643 106.507 128.644 106.757 127.646C107.007 126.647 107.672 125.898 108.92 125.566C108.005 126.564 108.005 126.564 108.172 127.063C109.42 126.148 110.751 125.316 112.498 125.815C112.249 125.732 112.082 125.566 111.833 125.482C112.166 124.401 113.164 123.735 114.246 123.985C115.327 124.234 116.492 124.65 117.491 125.15C120.403 126.814 122.899 129.06 125.063 131.64C125.229 131.89 125.396 132.056 125.729 132.389C126.061 130.725 125.895 129.227 125.313 127.896C124.231 125.233 123.066 122.736 121.984 120.074C121.152 117.91 119.738 116.496 117.741 115.663C117.075 115.414 116.908 114.998 117.075 114.332C117.241 113.666 117.241 112.918 116.576 112.501C115.411 111.753 114.329 111.087 113.164 110.338C111.666 109.423 110.169 109.256 108.421 109.839C107.173 110.255 105.842 110.588 104.427 110.837C103.096 111.087 102.763 110.754 102.347 109.589C102.264 109.339 102.014 109.007 101.764 108.923C101.016 108.507 100.183 108.258 99.4346 107.842C97.8536 106.926 97.8536 106.76 98.8521 105.262C98.8521 105.179 98.9353 105.179 98.9353 105.096C99.3514 104.596 99.2682 104.18 98.6857 103.764C97.188 102.599 95.4406 101.85 93.61 101.351C88.8671 100.269 84.041 99.6869 79.2149 99.6869C73.9727 99.6869 69.4794 101.601 65.9847 105.595C65.0694 106.677 64.3205 107.842 64.1541 109.256C64.0709 110.172 64.1541 111.087 64.9029 111.669C66.1511 112.834 67.732 112.751 69.4794 112.585C68.897 112.085 68.5641 111.753 68.2313 111.337C68.0649 111.087 67.8153 110.837 67.8153 110.588C67.8985 108.84 69.5626 107.426 71.31 107.592C73.2238 107.675 75.3872 109.423 75.8865 111.42C76.0529 112.085 75.9697 112.834 75.8033 113.5C75.6369 114.082 75.8033 114.249 76.2193 114.415C76.469 114.499 76.8018 114.582 77.1346 114.665C79.4645 114.998 81.7943 115.164 84.1242 115.58C86.454 115.913 88.7007 116.496 91.1137 116.912C90.3648 117.411 89.616 117.827 89.0335 118.243C87.4525 119.408 85.8716 120.573 84.3738 121.821C83.0425 122.986 82.6264 124.733 82.46 126.398C82.3768 126.897 82.6264 127.396 82.7928 127.896C82.876 127.896 83.0425 127.896 83.1257 127.896C83.2089 127.646 83.2921 127.313 83.2089 127.063C83.0425 125.316 83.7913 123.901 84.7898 122.653C85.2059 122.154 85.9548 122.071 86.454 121.655C87.1197 121.072 87.7854 120.823 88.6174 121.322C88.7007 121.405 88.9503 121.239 89.1999 121.155C89.1167 120.989 89.0335 120.823 88.8671 120.656C88.7007 120.49 88.451 120.49 88.2846 120.323C88.2846 120.24 88.3678 120.157 88.3678 120.074C88.8671 120.157 89.3663 120.24 89.9488 120.407C89.6992 119.242 89.9488 118.992 91.1137 119.325C91.7794 119.574 92.3618 119.658 92.5283 118.576C92.7779 118.992 92.8611 119.408 92.8611 119.741C92.8611 120.074 92.6115 120.323 92.445 120.656C92.2786 120.573 91.9458 120.323 91.4465 120.074C92.1122 120.989 92.6115 121.655 93.1107 122.404C93.1939 122.487 93.4436 122.57 93.61 122.57C93.6932 122.57 93.8596 122.32 93.8596 122.154C93.9428 120.906 93.9428 119.574 94.1092 118.326C94.1092 117.328 93.9428 116.828 92.9443 116.662ZM65.4854 99.5205C65.4854 99.4373 65.4022 99.3541 65.4022 99.2709C64.9862 99.2709 64.4869 99.1045 64.0709 99.1877C63.2388 99.3541 62.4067 99.5205 61.6578 99.8534C54.6683 102.516 48.594 106.593 43.1022 111.669C42.5198 112.252 42.0205 112.918 41.5213 113.5C41.022 114.082 40.8556 114.748 40.9388 115.58C41.022 116.08 41.022 116.912 40.6892 117.244C39.8571 118.077 39.6907 118.992 39.7739 120.074C39.8571 120.823 39.4411 121.155 38.7754 121.155C38.5258 121.155 38.2761 121.239 38.0265 121.239C37.3608 121.239 36.9448 121.571 36.7784 122.237C36.3623 123.402 35.9463 124.567 35.6135 125.815C34.9478 128.145 34.7814 130.558 35.9463 132.805C36.5288 133.887 37.2776 134.802 37.9433 135.801C38.3593 136.383 38.7754 136.966 39.025 137.631C39.2746 138.13 39.1082 138.63 38.3593 138.713C37.8601 138.796 37.4441 138.879 36.9448 139.046C36.4455 139.129 36.3623 139.379 36.5288 139.878C36.9448 140.96 37.6937 141.709 38.7754 141.875C40.0235 142.041 41.2717 141.875 42.5198 141.958C42.8526 141.958 43.1855 141.875 43.5183 142.041C46.5138 143.29 49.5925 144.538 52.5881 145.786C53.5033 146.202 53.753 145.952 53.753 144.954C53.6698 142.291 53.753 139.712 54.6683 137.215C55.0011 136.3 55.75 135.385 55.8332 134.469C55.9164 133.471 55.3339 132.472 55.1675 131.39C55.0843 130.725 54.9179 129.893 55.1675 129.31C55.75 128.062 56.5821 126.897 57.4142 125.815C58.9951 123.818 61.0753 122.404 63.322 121.239C63.9044 120.989 64.4037 120.656 64.9862 120.323C64.2373 119.574 63.4884 118.992 62.9059 118.409C58.9951 114.582 58.163 110.005 60.7425 105.345C61.741 103.598 63.2388 102.1 64.4869 100.436C64.9862 100.02 65.2358 99.7701 65.4854 99.5205ZM59.0783 183.481C59.5776 183.98 60.3265 184.313 60.4929 184.895C60.9921 186.143 61.9906 186.476 63.0724 186.726C68.3145 187.891 73.5567 187.641 78.7988 186.809C81.1287 186.393 83.2921 185.727 85.2059 184.313C87.1197 182.898 87.7021 181.067 87.0365 178.821C86.7036 177.573 85.8716 176.99 84.5402 176.99C83.2921 176.99 82.3768 177.739 82.1272 178.987C82.044 179.57 82.044 180.319 82.2104 180.901C82.3768 181.484 82.2104 181.65 81.7111 181.816C79.1316 182.732 76.9682 181.234 76.885 178.488C76.8018 175.659 78.7156 172.663 81.4615 171.498C81.7111 171.415 82.044 171.249 82.46 171.082C80.2134 170.333 78.1331 169.751 76.1361 168.835C74.6384 168.17 73.3902 168.17 71.9757 169.002C70.5611 169.834 69.3962 169.501 68.3145 168.253C67.9817 167.837 67.6488 167.421 67.2328 166.922C67.0664 167.254 66.9832 167.504 66.9 167.67C65.9847 169.418 65.0694 171.165 64.0709 172.83C63.2388 174.161 62.0738 174.993 60.3265 174.993C57.8302 174.993 55.4171 175.076 52.9209 175.076C51.1735 175.076 51.1735 175.076 50.6742 176.74C50.4246 177.573 50.5078 177.822 51.4231 177.905C52.588 178.072 53.753 178.155 54.9179 178.072C56.8317 177.905 58.5791 178.321 60.4097 178.987C61.741 179.486 62.9059 180.319 64.0709 181.317C62.4067 182.232 60.3265 181.983 59.0783 183.481ZM87.2029 171.082C88.3678 172.247 89.6992 173.329 90.6977 174.577C92.445 176.574 93.1107 178.904 91.9458 181.484C91.4465 182.648 90.7809 183.73 90.1984 184.812C90.032 185.145 89.8656 185.561 89.616 186.06C90.5312 185.727 91.2801 185.394 92.029 185.145C93.1939 184.812 93.8596 185.145 94.2756 186.227C94.4421 186.559 94.6085 186.892 94.7749 187.225C95.2741 188.307 96.023 188.39 96.8551 187.558C97.3544 186.975 97.7704 186.31 98.2697 185.727C99.185 184.562 100.1 184.479 101.265 185.561C101.432 185.727 101.681 185.977 101.848 186.143C102.43 186.892 102.846 186.892 103.429 186.06C103.595 185.81 103.761 185.561 103.928 185.228C104.843 183.647 105.925 182.149 107.506 181.234C108.671 180.568 109.087 179.486 109.42 178.405C109.503 178.155 109.586 177.905 109.586 177.656C109.919 175.492 110.335 173.412 110.585 171.249C110.751 170.167 110.169 169.251 109.17 168.752C108.504 168.419 107.839 168.087 107.173 167.67C105.093 166.339 103.595 164.592 102.763 162.179C102.68 161.929 102.597 161.596 102.513 161.18C101.848 161.43 101.265 161.596 100.766 161.929C98.6025 163.177 96.5223 164.508 94.4421 165.84C94.1924 166.006 94.026 166.339 93.9428 166.589C93.1939 167.754 92.5283 168.919 91.7794 170.167C91.5298 170.5 91.2801 170.749 90.7809 170.5C89.3663 169.501 88.1182 169.834 87.2029 171.082ZM23.6314 146.868C23.6314 146.618 23.7146 146.452 23.7146 146.202C23.7978 144.371 23.7978 142.541 24.0474 140.71C24.9627 133.138 26.8765 125.815 31.453 119.491C31.7859 119.075 31.7027 118.742 31.5362 118.243C31.3698 117.827 31.2034 117.244 31.3698 116.912C31.7027 116.246 32.2019 115.58 32.8676 115.247C33.6997 114.831 34.0325 114.332 34.2821 113.5C34.4485 113.001 34.9478 112.335 35.3638 112.252C36.0295 112.169 36.3623 111.919 36.7784 111.42C37.1944 110.92 37.6937 110.421 38.1929 110.005C41.6877 107.093 45.2657 104.097 48.7604 101.185C49.0101 101.018 49.3429 100.685 49.3429 100.436C49.4261 99.6869 49.3429 98.8548 49.3429 98.0227C49.0933 98.1059 48.9269 98.1059 48.8437 98.1891C48.2612 98.4388 47.6787 98.6052 47.0963 98.8548C40.9388 101.518 35.447 105.262 30.6209 109.839C26.7101 113.5 23.2986 117.661 21.0519 122.57C20.6359 123.402 20.303 124.317 20.2198 125.233C20.0534 126.315 20.1366 127.479 19.9702 128.644C19.7206 130.641 19.3878 132.639 18.2228 134.303C17.6404 135.218 17.474 136.05 18.0564 136.966C18.7221 138.047 18.5557 138.713 17.6404 139.628C17.474 139.795 17.3075 140.044 17.3075 140.211C17.3907 141.043 17.3075 141.958 17.5572 142.707C18.3892 145.037 21.3016 146.868 23.6314 146.868ZM132.552 145.786C132.136 147.367 131.553 148.948 131.22 150.529C130.305 155.355 129.223 160.181 127.559 164.841C126.145 168.752 124.314 172.33 121.235 175.243C120.32 176.075 119.488 177.073 118.656 178.072C118.489 178.238 118.406 178.654 118.489 178.904C118.656 179.902 118.822 180.901 119.072 181.9C119.155 182.149 119.405 182.482 119.654 182.565C121.152 182.981 122.483 182.648 123.482 181.484C123.898 181.067 124.148 180.485 124.564 180.069C124.98 179.653 125.479 179.237 125.978 179.154C127.226 178.987 128.391 178.654 128.974 177.323C129.473 176.241 130.471 175.409 130.971 174.411C132.468 171.332 133.883 168.253 135.298 165.091C135.63 164.425 135.797 164.092 136.546 164.592C137.128 165.008 137.461 164.841 137.711 164.176C138.792 160.598 139.708 157.019 140.207 153.358C140.54 151.111 140.623 148.865 139.874 146.701C139.375 145.203 138.46 144.122 136.962 143.622C135.464 143.123 134.465 144.122 134.715 145.619C134.798 145.869 134.798 146.036 134.882 146.452C133.966 146.036 133.301 145.869 132.552 145.786ZM110.917 76.8039C110.169 75.1397 109.503 73.5586 108.754 71.9776C108.671 71.728 108.588 71.4784 108.421 71.2287C108.005 70.3134 107.173 69.8974 106.091 70.147C104.344 70.4798 102.846 69.6477 101.432 68.7324C100.932 68.4828 100.433 68.1499 99.9338 67.9835C99.185 67.7339 98.4361 67.6506 97.7704 67.5674C97.1047 67.401 96.4391 67.0682 95.7734 67.1514C93.4436 67.401 91.1969 67.8171 88.8671 68.2331C87.9518 68.3995 87.5357 69.0652 87.3693 69.8973C87.2861 70.3966 87.3693 70.9791 87.2861 71.4784C87.2029 72.3105 87.6189 72.7265 88.3678 72.7265C89.0335 72.7265 89.3663 73.0594 89.6992 73.5586C90.6977 75.1397 91.7794 76.8039 92.8611 78.3849C94.8581 81.3805 96.8551 84.3761 99.6842 86.7892C100.183 87.2053 100.683 87.7045 101.515 87.4549C101.848 87.3717 102.264 87.6213 102.597 87.7877C102.846 87.871 103.096 88.0374 103.429 88.2038C103.512 87.7045 103.595 87.2885 103.595 86.8724C103.761 85.4578 103.928 84.1265 104.094 82.7119C104.261 81.6301 105.093 80.7148 105.675 80.798C107.09 78.6345 108.92 77.4696 110.917 76.8039ZM113.996 150.612C113.996 150.529 113.913 150.529 113.913 150.446C114.163 150.363 114.329 150.196 114.579 150.196C116.243 149.78 117.158 151.195 118.489 151.694C118.739 151.278 118.989 150.945 119.321 150.529C120.736 152.526 121.984 154.44 123.316 156.271C123.482 156.271 123.565 156.271 123.732 156.187C123.981 155.605 124.397 155.022 124.397 154.357C124.397 153.109 124.231 151.86 124.148 150.612C124.064 149.863 123.565 149.53 122.983 149.031C121.901 148.282 120.902 147.45 120.07 146.452C119.155 145.37 119.321 144.122 120.237 142.957C120.403 142.79 120.57 142.541 120.736 142.374C117.158 139.795 113.497 137.548 109.586 135.551C109.503 136.799 109.503 137.964 109.42 139.129C109.087 142.291 108.837 145.37 107.589 148.365C106.923 149.863 106.923 151.361 107.589 152.859C108.255 154.357 108.754 155.854 107.173 157.269C113.081 158.351 114.662 163.011 116.076 167.92C116.659 166.422 116.908 165.174 116.742 163.76C116.492 161.346 115.494 159.266 114.163 157.269C113.746 156.603 113.746 156.187 114.412 155.688C114.745 155.438 114.995 155.189 115.327 154.856C114.412 153.774 113.746 152.609 113.996 151.278C114.579 151.111 115.078 150.945 115.577 150.862C115.577 150.779 115.577 150.695 115.494 150.529C114.995 150.612 114.495 150.612 113.996 150.612ZM133.301 100.685C132.885 99.9366 132.635 99.1877 132.136 98.6884C131.304 97.7731 130.388 96.8578 129.473 96.0257C128.308 94.9439 127.06 93.9454 125.978 92.8636C125.645 92.5308 125.479 91.9483 125.229 91.5322C125.063 91.2826 125.063 90.8666 124.896 90.7833C123.732 90.0344 122.65 89.2023 121.402 88.6199C118.073 87.2053 115.494 85.0418 113.33 82.2126C111.999 80.4652 111.5 80.382 109.503 81.4637C109.17 81.6301 108.754 81.8798 108.504 82.2126C106.507 83.96 106.507 87.0388 108.588 88.7863C109.004 89.1191 109.503 89.3688 110.002 89.452C110.834 89.6184 111.666 89.3688 112.249 88.6199C112.748 87.9542 112.332 87.3717 112.082 86.7892C111.999 86.706 111.999 86.5396 111.916 86.3732C113.33 86.1235 114.329 86.5396 115.161 87.5381C116.409 88.9527 116.492 90.6169 115.744 92.2812C114.579 94.6943 112.415 94.8607 110.085 94.3614C110.917 95.9424 116.908 101.934 118.323 102.766C118.406 102.683 118.406 102.599 118.489 102.516C119.654 100.186 120.403 99.7701 122.983 100.269C123.898 100.436 124.48 99.7701 124.231 99.0212C123.898 98.1059 124.148 97.7731 125.146 97.9395C125.479 98.0227 125.895 98.0227 126.228 98.1891C127.726 98.938 129.223 99.6869 130.721 100.436C131.304 100.602 132.052 100.852 133.301 100.685ZM40.9388 163.676C40.606 164.092 40.0235 164.425 40.1067 164.592C40.1899 164.924 40.606 165.341 40.9388 165.507C42.6862 166.505 44.6 166.589 46.5138 166.006C48.3444 165.424 49.5093 164.009 50.4246 162.345C50.8407 161.513 51.2567 160.681 51.8392 159.932C52.0888 159.599 52.6713 159.516 53.0873 159.433C53.5033 159.349 54.0858 159.433 54.5019 159.349C55.2507 159.1 55.9164 159.1 56.4157 159.682C56.8317 160.181 57.2477 160.265 57.8302 160.181C58.4127 160.098 58.9119 160.181 59.2447 160.847C59.328 161.014 59.5776 161.18 59.8272 161.263C60.4097 161.346 61.0753 161.43 61.6578 161.513C61.741 161.43 61.8242 161.346 61.8242 161.346C61.4914 160.93 61.2418 160.514 60.9089 160.181C59.328 158.767 58.163 157.269 57.9966 155.022C57.9966 154.773 57.6638 154.44 57.4142 154.273C56.7485 153.941 55.9164 153.774 55.2507 153.441C53.3369 152.692 52.7545 151.527 53.0041 149.447C53.1705 148.615 53.3369 147.866 53.5033 147.034C53.4201 146.951 53.4201 146.868 53.3369 146.868C49.2597 149.447 45.016 151.694 39.7739 150.113C40.0235 150.446 40.1067 150.529 40.2732 150.612C41.7709 151.777 43.3519 152.692 45.1825 153.109C46.2642 153.358 46.7634 153.941 47.0963 154.856C47.3459 155.522 47.7619 156.187 48.0116 156.853C49.1765 159.349 48.7604 160.015 46.6802 160.847C45.1825 161.43 43.5183 161.762 41.9373 162.095C40.8556 162.345 40.6892 162.595 40.9388 163.676ZM47.9284 74.89C47.5123 74.3075 47.0131 73.7251 46.597 73.0594C46.181 72.3937 45.8481 71.728 45.5985 71.0623C45.1825 70.147 44.9328 69.1484 44.6 68.2331C44.4336 67.9003 44.184 67.5674 43.9343 67.1514C42.1037 68.8988 40.1899 70.147 37.8601 70.7295C35.031 71.4784 32.7844 70.3966 31.5362 67.7339C31.2034 66.985 30.9538 66.0696 30.7041 65.3207C30.6209 64.9879 30.5377 64.7383 30.3713 64.0726C29.7888 64.5718 29.2064 64.8215 29.04 65.2375C28.7903 65.9864 28.5407 66.8185 28.6239 67.5674C28.8736 70.563 30.6209 72.6433 33.1172 74.0579C33.8661 74.474 34.7814 74.8068 35.6967 75.2229C35.6967 74.8068 35.6967 74.7236 35.6967 74.5572C35.6967 73.4754 35.9463 73.2258 37.028 73.3922C37.7769 73.5586 38.5258 73.7251 39.2746 73.8915C41.2717 74.3075 43.2687 74.8068 45.2657 75.1397C46.2642 75.3061 47.2627 75.3061 47.9284 74.89ZM82.044 39.6085C82.2104 40.7734 82.2104 41.9384 82.5432 43.1034C82.7928 44.1019 83.2089 45.1836 83.7081 46.099C83.8745 46.4318 84.457 46.6814 84.7898 46.6814C85.0395 46.6814 85.3723 46.1822 85.5387 45.8493C85.7051 45.5165 85.7883 45.1004 85.8716 44.7676C86.3708 43.1034 87.2029 41.6056 88.7007 40.5238C89.616 39.8581 90.448 38.9428 91.1969 38.0275C92.029 37.0289 91.8626 36.28 90.8641 35.5311C89.8656 34.699 88.7839 34.0333 87.7021 33.2844C87.1197 32.9516 86.6204 32.9516 86.1212 33.3677C85.7051 33.7837 85.2059 34.1166 84.5402 33.8669C84.457 33.8669 84.1242 33.9501 84.041 34.0333C83.2921 35.864 81.5447 37.3618 82.044 39.6085ZM80.7958 49.3442C80.5462 48.8449 80.2966 48.5953 80.2134 48.3457C79.7973 47.0975 79.4645 45.8493 79.1316 44.6012C78.2163 41.4391 78.3828 38.2771 79.5477 35.2815C80.3798 33.2844 81.5447 31.7034 84.041 32.0363C85.3723 32.2027 86.5372 31.7034 87.5357 30.8713C88.7007 29.956 89.1167 27.9589 88.3678 27.1268C87.2861 25.8786 85.9548 25.213 84.2906 25.213C83.5417 25.213 83.0425 25.4626 82.6264 26.1283C82.2936 26.6276 81.9607 27.21 81.4615 27.3765C80.7958 27.6261 80.7958 27.9589 80.6294 28.5414C80.463 29.3735 80.2966 30.3721 79.7141 30.7881C79.0484 31.3706 78.7988 31.9531 78.466 32.6188C78.2996 32.9516 78.2164 33.3677 78.1331 33.7005C77.1346 36.3633 76.6354 39.026 77.3843 41.772C77.5507 42.4377 77.7171 43.0201 77.8003 43.6858C78.1331 45.6829 79.0484 47.4303 80.2134 49.0114C80.2966 49.1778 80.463 49.1778 80.7958 49.3442ZM137.045 126.647C136.379 126.398 135.88 126.231 135.381 125.982C134.465 125.482 133.467 125.066 132.635 124.401C131.304 123.319 131.553 121.821 133.051 120.989C133.55 120.739 134.133 120.49 134.715 120.323C135.547 120.074 136.379 119.907 137.378 119.658C136.463 118.992 135.797 118.243 134.715 118.243C133.217 118.243 133.051 118.16 132.552 116.745C132.302 116.163 132.052 115.996 131.47 116.329C129.806 117.161 128.142 117.494 126.311 117.328C126.228 117.328 126.145 117.411 126.228 117.328C127.726 121.322 129.307 125.233 130.804 129.144C131.72 128.728 132.718 128.228 133.717 127.812C134.715 127.479 135.797 127.147 137.045 126.647ZM33.5332 57.9149C34.3653 58.331 35.1974 58.5806 35.447 59.5792C35.447 59.7456 35.7799 59.7456 35.9463 59.912C36.3623 60.1616 36.7784 60.4945 37.1112 60.7441C37.3608 60.9105 37.6937 61.077 38.0265 61.3266C38.1929 61.493 38.4426 61.5762 38.609 61.7427C39.5243 62.658 39.6075 63.8229 39.025 64.9047C38.3594 66.0696 37.1112 66.5689 35.8631 66.1528C35.1974 65.9864 34.615 65.6536 33.9493 65.4872C33.6997 65.4039 33.3668 65.4039 32.8676 65.3207C33.45 65.9864 33.8661 66.5689 34.3653 67.0682C34.7814 67.4842 35.3638 67.8171 35.9463 67.9835C38.7754 68.8988 41.5213 66.8185 41.6045 63.6565C41.7709 59.6624 38.7754 54.8361 35.1974 53.2551C34.9478 53.1719 34.7814 53.0887 34.3653 52.9223C35.447 54.8361 35.6967 56.5004 33.5332 57.9149ZM27.3758 58.9967C28.5407 58.5806 29.6224 58.1646 31.037 57.6653C30.7041 57.4989 30.5377 57.4989 30.4545 57.4157C29.5392 56.5836 29.1232 55.5018 29.5392 54.2537C29.8721 53.0887 30.7041 52.423 31.9523 52.2566C32.1187 52.2566 32.2851 52.0902 32.4515 52.0902C33.2004 52.007 34.0325 51.7573 34.7814 51.9237C35.5303 52.007 36.2791 52.3398 36.9448 52.7559C38.3594 53.6712 39.6075 54.7529 40.4396 56.3339C40.8556 57.166 41.6045 57.7485 42.187 58.4142C42.187 57.9149 42.1037 57.4989 41.9373 57.0828C41.2717 55.585 40.9388 53.8376 39.025 53.3383C38.9418 53.3383 38.9418 53.1719 38.8586 53.0887C38.4426 52.6726 38.0265 52.1734 37.5273 51.9237C36.0295 51.1748 34.5317 50.5092 32.9508 49.8435C32.2851 49.5938 31.5362 48.7617 30.7041 49.677C30.7041 49.677 30.6209 49.677 30.5377 49.677C29.8721 49.1778 29.04 49.1778 28.2911 49.261C27.875 49.3442 27.459 49.261 27.2094 49.5106C26.6269 49.8435 26.1277 50.3427 25.6284 50.7588C25.7116 50.9252 25.7116 51.0084 25.7948 51.0084C26.5437 51.0084 27.3758 51.5077 28.0415 50.842C28.1247 50.7588 28.3743 50.6756 28.5407 50.7588C29.3728 50.842 30.1217 50.842 30.9538 51.0084C31.2034 51.0084 31.453 51.2581 31.7026 51.4245C31.7026 51.5077 31.6194 51.5909 31.6194 51.6741C28.0415 50.9252 25.3788 52.5894 22.9657 55.0858C26.1277 54.8361 26.9598 55.6682 27.3758 58.9967ZM137.794 19.0553C136.629 18.9721 135.714 19.5546 134.882 20.1371C131.886 22.3006 129.639 25.1297 128.225 28.5414C127.975 29.1239 127.809 29.7896 127.809 30.3721C127.726 30.9545 128.058 31.2042 128.641 30.9545C129.057 30.7049 129.473 30.3721 129.806 30.0392C131.137 28.5414 132.385 26.9604 133.8 25.4626C134.882 24.2976 136.213 23.5487 137.711 23.2991C138.127 23.2159 138.543 22.9663 139.125 22.7166C137.711 21.7181 137.378 20.5531 137.794 19.0553ZM133.467 140.544C134.798 140.294 135.963 140.044 137.128 139.795C137.128 139.462 137.128 139.212 137.128 138.713C138.46 138.713 139.791 138.713 141.289 138.713C141.039 138.13 140.873 137.798 140.623 137.548C139.874 136.549 138.792 136.217 137.627 136.05C137.128 135.967 136.629 135.801 136.213 135.551C135.214 134.885 134.216 134.136 133.217 133.471C132.801 133.221 132.302 133.138 131.636 132.888C131.636 133.471 131.636 133.804 131.636 134.136C131.553 134.968 131.47 135.717 132.385 136.217C132.635 136.3 132.635 136.799 132.718 137.132C132.968 138.297 133.217 139.379 133.467 140.544ZM68.6473 162.262C68.5641 162.678 68.3977 163.011 68.4809 163.343C68.6473 164.342 68.8138 165.341 69.0634 166.256C69.2298 166.755 69.3962 167.338 69.7291 167.67C69.8955 167.837 70.4779 167.421 70.894 167.338C71.0604 167.254 71.31 167.254 71.4764 167.171C71.6429 167.088 71.9757 166.838 71.9757 166.755C71.8093 165.84 72.5582 165.424 72.891 164.841C73.1406 164.176 72.9742 163.926 72.5582 163.593C72.1421 163.343 71.7261 163.177 71.31 162.927C71.0604 162.761 70.7276 162.345 70.7276 162.095C70.8108 161.346 70.894 160.514 71.1436 159.765C71.6429 158.184 72.1421 156.52 72.891 155.022C73.8063 153.109 75.0544 151.278 76.0529 149.447C76.2193 149.198 76.1361 148.948 76.2193 148.615C75.8865 148.698 75.6369 148.698 75.304 148.782C75.1376 148.865 74.9712 149.114 74.8048 149.364C74.3887 150.196 74.0559 151.111 73.0574 151.195C72.8078 152.11 72.6414 152.942 72.3917 153.691C72.2253 154.273 71.8925 154.939 71.1436 154.024C71.0604 153.857 70.6444 154.024 70.3947 153.941C70.3947 154.19 70.3947 154.44 70.4779 154.606C70.6443 155.106 71.0604 155.522 71.0604 156.021C71.0604 156.77 70.9772 157.519 70.7276 158.184C70.5611 158.517 70.0619 158.767 69.6458 159.1C69.6458 159.765 69.6458 160.514 69.6458 161.43C69.2298 161.43 68.6473 161.513 67.9817 161.513C68.3145 161.929 68.4809 162.095 68.6473 162.262ZM128.974 35.1983C128.89 35.1983 128.724 35.1151 128.641 35.1151C128.474 35.4479 128.308 35.7808 128.225 36.1968C127.975 37.6946 127.809 39.1924 127.559 40.7734C126.977 44.8508 126.977 48.9281 127.226 53.0055C127.476 56.5836 128.142 60.0784 128.558 63.6565C129.14 68.8988 130.804 73.8915 131.969 79.0506C131.969 79.217 132.136 79.3834 132.219 79.5498C132.302 79.5498 132.385 79.4666 132.385 79.4666C132.219 78.4681 131.969 77.4696 131.803 76.471C131.553 75.4725 131.304 74.3907 131.137 73.3922C131.137 73.2258 131.22 73.1426 131.22 72.9762C131.22 72.6433 131.137 72.3105 131.137 71.9776C131.054 71.4784 130.804 71.0623 130.721 70.563C130.638 70.0638 130.638 69.5645 130.555 68.982C130.139 67.1514 129.723 65.2375 129.39 63.4069C129.14 62.0755 128.974 60.7441 128.724 59.4127C128.558 58.331 128.391 57.2493 128.225 56.1675C128.058 54.9193 128.724 53.588 127.975 52.2566C127.809 52.007 127.975 51.6741 127.975 51.3413C127.975 50.9252 128.058 50.5092 128.058 50.0931C128.058 48.3457 128.058 46.6814 128.142 44.934C128.308 42.188 128.641 39.4421 128.89 36.7793C128.89 36.1136 128.89 35.6144 128.974 35.1983ZM75.0544 80.2155C75.0544 80.1323 75.1376 80.0491 75.1376 79.8827C74.8048 79.7995 74.472 79.633 74.1391 79.5498C73.8063 79.4666 73.4734 79.4666 73.1406 79.4666C70.9772 79.1338 68.7305 78.6345 66.5671 78.4681C63.322 78.2185 60.0768 78.052 56.8317 77.9688C54.7515 77.8856 52.6713 77.9688 50.591 77.8856C48.0116 77.8024 45.4321 77.8024 42.9358 77.636C41.4381 77.5528 39.9403 77.1367 38.4426 76.8871C34.6982 76.3878 31.7026 74.8068 29.3728 71.8112C29.2064 71.5616 28.7903 71.3951 28.5407 71.2287C28.4575 71.3119 28.3743 71.3951 28.2911 71.5616C28.7071 71.9776 29.1232 72.3105 29.5392 72.7265C30.8706 74.2243 32.3683 75.5557 34.3653 76.1382C35.8631 76.6375 37.3608 77.2199 38.8586 77.636C39.6075 77.8856 40.3564 77.9688 41.1052 78.052C42.187 78.2185 43.2687 78.3017 44.2672 78.4681C45.0993 78.5513 45.9313 78.7177 46.8466 78.7177C48.4276 78.7177 49.9254 78.6345 51.5063 78.5513C51.8392 78.5513 52.172 78.4681 52.5048 78.3849C52.8377 78.3849 53.0873 78.3849 53.4201 78.4681C53.753 78.4681 54.0858 78.6345 54.3354 78.5513C55.4171 78.4681 56.4989 78.2185 57.5806 78.3017C59.744 78.4681 61.9906 78.3849 64.1541 78.6345C66.4007 78.9674 68.7306 78.9674 70.9772 79.3834C71.3932 79.4666 71.8093 79.3834 72.2253 79.4666C73.1406 79.8827 74.1391 80.0491 75.0544 80.2155ZM53.753 151.777C54.3354 151.278 54.6683 150.779 55.1675 150.446C56.6653 149.614 58.163 148.948 59.6608 148.199C60.5761 147.783 61.4914 147.284 62.4899 146.868C63.4884 146.452 64.5701 146.036 65.5686 145.619C65.735 145.536 65.9014 145.287 65.9014 145.12C65.9014 145.037 65.5686 144.787 65.5686 144.787C64.7365 145.37 64.2373 144.704 63.5716 144.455C63.4052 144.371 63.1556 144.538 62.9891 144.621C62.4899 144.871 61.9906 145.12 61.4914 145.37C60.9089 145.703 60.2433 145.952 60.6593 146.868C59.1615 147.201 57.747 147.949 55.9996 147.783C56.6653 146.452 57.2477 145.12 57.9134 143.955C58.5791 142.79 59.4112 141.625 60.16 140.46C60.0768 140.377 59.9936 140.294 59.9104 140.294C59.328 140.96 58.7455 141.625 58.2462 142.291C57.1645 143.622 55.8332 144.871 55.0011 146.368C54.2522 147.783 54.0858 149.53 53.753 151.111C53.5033 151.195 53.6698 151.444 53.753 151.777ZM21.468 158.434C20.6359 158.351 20.3863 158.6 20.6359 159.349C21.5512 162.179 23.2154 164.508 25.878 166.006C26.2109 166.173 26.6269 166.173 26.9598 166.173C27.043 165.84 27.2094 165.424 27.1262 165.091C26.7933 163.843 26.3773 162.595 25.9612 161.346C25.2956 159.266 23.7146 158.351 21.468 158.434ZM101.598 191.136C101.681 191.219 101.764 191.302 101.764 191.386C102.597 191.219 103.262 190.72 103.761 190.054C105.01 188.39 106.174 186.726 107.423 185.062C107.922 184.313 108.671 183.98 109.503 183.897C110.085 183.813 110.585 184.396 110.252 184.812C109.752 185.727 109.17 186.643 108.504 187.475C107.755 188.39 106.757 189.139 105.925 189.971C105.758 190.137 105.842 190.637 105.842 190.97C106.091 190.886 106.507 190.97 106.674 190.803C107.423 190.137 108.255 189.472 108.92 188.723C110.169 187.308 111.25 185.727 110.751 183.647C110.501 182.648 109.336 181.733 108.671 182.149C107.755 182.815 107.007 183.564 106.174 184.313C106.008 184.479 105.758 184.729 105.758 184.978C105.758 185.894 105.093 186.476 104.594 187.142C103.595 188.473 102.597 189.805 101.598 191.136ZM42.2702 202.536C41.9373 203.368 41.6877 204.117 41.2717 204.699C40.6892 205.448 40.8556 206.031 41.3549 206.613C41.6045 206.946 42.1037 207.196 42.603 207.279C43.3519 207.362 43.5183 206.78 43.7679 206.114C44.184 204.866 45.6817 204.283 46.5138 205.115C47.2627 205.864 48.0948 205.864 48.9269 205.698C49.2597 205.615 49.5925 205.032 49.7589 204.699C49.8422 204.533 49.4261 204.034 49.2597 204.034C48.7604 203.951 48.178 203.951 47.6787 204.117C46.9299 204.283 46.8466 203.951 46.9299 203.368C46.9299 203.118 46.8466 202.702 46.6802 202.619C45.8481 202.453 44.8496 202.12 44.1008 202.453C43.3519 202.536 42.8526 202.702 42.2702 202.536ZM146.531 24.7137C147.113 23.9648 147.529 23.2991 148.112 22.7998C148.611 22.3838 148.611 22.0509 148.278 21.6349C147.113 19.9707 145.532 18.9721 143.535 18.5561C143.119 18.4729 142.703 18.4729 142.121 18.3896C143.119 19.6378 143.036 20.8028 142.287 22.0509C143.785 22.9663 145.283 23.8816 146.531 24.7137ZM20.9687 58.6638C20.8855 58.6638 20.7191 58.6638 20.6359 58.6638C20.3863 60.5777 19.9702 62.4916 19.887 64.4886C19.8038 65.82 20.9687 66.3193 22.0504 65.5704C23.5482 64.4886 24.0474 62.8244 24.7963 61.2434C22.7993 61.3266 21.6344 60.4113 20.9687 58.6638ZM65.319 102.017C64.9029 102.183 64.7365 102.266 64.5701 102.35C62.6563 103.681 61.6578 105.595 60.9089 107.675C60.2433 109.672 60.8257 111.586 61.325 113.5C61.4082 113.833 61.8242 114.166 62.2403 114.415C62.3235 114.499 62.7395 114.082 62.9891 113.833C63.4052 113.417 62.9891 113.167 62.7395 112.834C62.0738 111.836 61.5746 110.837 61.741 109.589C62.0738 107.259 63.2388 105.345 64.9029 103.681C65.1526 103.431 65.4022 103.182 65.5686 102.849C65.6518 102.683 65.4022 102.35 65.319 102.017ZM44.4336 209.609C44.3504 209.692 44.3504 209.775 44.2672 209.859C44.6 210.108 44.8496 210.441 45.1825 210.607C47.2627 211.606 49.3429 212.438 51.6728 211.19C52.3384 210.857 53.0873 210.607 53.6698 210.108C55.2507 208.61 55.3339 207.029 54.3354 205.115C54.2522 205.032 54.0858 205.032 53.9194 204.949C53.6698 207.279 52.7545 208.943 50.591 210.108C48.2612 211.19 46.4306 210.691 44.4336 209.609ZM70.4779 129.144C70.5611 129.144 70.6444 129.06 70.7276 129.06C70.6444 128.395 70.7276 127.563 70.4779 127.063C70.1451 126.481 70.0619 125.982 69.9787 125.399C69.8955 123.818 70.0619 122.82 71.6429 122.237C71.4764 121.155 71.5597 120.739 72.2253 120.157C72.6414 119.741 73.0574 119.408 73.5567 118.909C73.7231 118.992 73.9727 119.075 74.3055 119.242C73.8063 117.993 73.307 117.744 72.2253 118.16C71.7261 118.326 71.31 118.742 70.894 118.742C70.1451 118.742 69.8955 119.242 69.8123 119.824C69.6458 121.571 69.5626 123.319 69.2298 125.066C69.0634 126.731 70.2283 127.729 70.4779 129.144ZM89.6992 180.235C88.6174 182.399 87.4525 184.396 85.5387 185.894C83.5417 187.475 81.1287 187.808 78.882 188.723C79.2981 188.806 79.7141 188.806 80.0469 188.723C81.0454 188.473 82.044 188.14 83.1257 187.974C86.2044 187.308 88.2846 185.561 89.5327 182.732C89.7824 181.9 90.1984 181.151 89.6992 180.235ZM28.0415 64.3222C28.2079 64.0726 28.3743 63.9894 28.5407 63.7397C29.1232 62.7412 29.8721 62.2419 31.037 62.1587C31.8691 62.0755 32.0355 61.7427 31.7026 60.9938C31.6194 60.8273 31.7859 60.5777 31.7026 60.4113C31.5362 59.8288 31.3698 59.2463 31.037 58.8303C30.8706 58.6638 30.2049 58.6638 29.8721 58.8303C28.5407 59.1631 28.2911 60.4113 28.4575 61.6594C27.7086 61.8259 27.459 63.4901 28.0415 64.3222ZM78.0499 192.051C78.0499 191.968 78.0499 191.802 78.1331 191.718C77.3843 191.635 76.7186 191.552 75.9697 191.469C73.9727 191.469 71.8925 191.552 69.8955 191.386C68.0649 191.302 66.2343 190.97 64.3205 190.803C63.6548 190.72 62.9059 190.72 62.2403 190.637C62.2403 190.72 62.2403 190.803 62.2403 190.886C67.4824 192.467 72.7246 192.634 78.0499 192.051ZM21.9672 58.331C22.0504 58.4142 22.2168 58.9135 22.4665 58.9967C22.8825 59.1631 23.3818 59.0799 23.7978 58.9967C24.2971 58.9135 24.7963 58.6638 25.2124 58.4142C25.6284 58.1646 26.4605 57.6653 26.3773 57.4989C26.1277 56.9164 25.7948 56.0843 25.2956 55.8347C23.5482 55.0858 22.0504 56.1675 21.9672 58.331ZM33.3668 56.6668C33.9493 56.75 34.7814 56.0011 34.8646 55.169C35.031 54.4201 34.6982 54.004 33.8661 53.7544C33.6997 53.6712 33.5332 53.6712 33.45 53.588C32.7012 53.1719 31.8691 53.1719 31.3698 53.9208C30.9538 54.5033 30.7874 55.3354 30.8706 56.0011C30.9538 56.6668 31.7859 56.75 32.3683 56.75C32.7012 56.6668 33.034 56.6668 33.3668 56.6668ZM81.8775 175.076C81.1287 174.743 80.5462 174.244 80.2134 174.411C79.5477 174.743 78.7156 175.326 78.3828 175.992C78.0499 176.907 78.2996 177.989 78.882 178.904C78.9652 179.07 79.3813 179.32 79.5477 179.237C79.7973 179.237 80.0469 178.904 80.1302 178.654C80.463 177.24 81.2119 176.075 82.2936 174.993C82.044 174.577 81.7943 174.244 81.5447 173.911C81.4615 173.995 81.3783 173.994 81.2951 174.078C81.4615 174.327 81.6279 174.577 81.8775 175.076ZM83.0425 194.132C83.0425 194.215 83.1257 194.298 83.1257 194.381C83.7081 194.132 84.3738 193.882 84.8731 193.549C86.6204 192.634 88.2846 191.802 89.5327 190.137C90.6145 188.723 91.7794 187.308 92.9443 185.81C92.3618 185.561 91.8626 185.727 91.613 186.227C90.2816 188.64 88.2014 190.304 86.038 191.968C85.0395 192.8 84.041 193.466 83.0425 194.132ZM35.447 178.821C35.8631 179.57 37.5273 180.402 38.5258 180.485C39.1082 180.568 39.6907 180.735 40.2732 180.901C40.6892 180.984 41.1052 181.151 41.5213 181.151C43.019 181.151 44.5168 181.151 46.0146 181.067C46.6802 181.067 47.3459 180.984 47.7619 180.235C47.1795 179.986 46.6802 179.736 46.0978 179.403C45.9313 179.819 45.8481 180.069 45.7649 180.319C42.187 180.818 38.7754 180.152 35.447 178.821ZM29.5392 181.151C29.456 181.234 29.3728 181.317 29.3728 181.4C32.1187 184.812 35.7799 187.308 38.9418 190.304C39.025 190.221 39.1082 190.137 39.1914 190.054C38.6922 189.472 38.1097 188.806 37.6105 188.224C37.4441 188.14 37.5273 187.891 37.4441 187.808C36.8616 187.475 36.8616 186.559 35.9463 186.476C35.6135 186.476 35.2806 186.143 35.031 185.894C34.4485 185.394 33.9493 184.812 33.45 184.313C33.2836 184.146 33.034 184.063 32.7844 183.98C32.2851 183.647 31.8691 183.397 31.453 183.065C30.7874 182.399 30.2049 181.733 29.5392 181.151ZM93.5268 30.6217C93.1939 30.0392 92.9443 29.2071 92.5283 29.1239C91.7794 28.9575 91.613 28.5414 91.4465 27.9589C91.1969 27.2932 90.448 27.3765 89.8656 27.4597C89.6992 27.4597 89.4495 27.8757 89.4495 28.1254C89.3663 29.956 91.4465 31.3706 93.5268 30.6217ZM44.3504 96.3585C45.3489 96.5249 46.0146 96.3585 46.7634 95.8592C47.3459 95.4432 48.0116 95.1935 48.594 94.9439C49.0933 94.6943 49.1765 94.1118 48.6772 93.8622C48.4276 93.779 48.0948 93.8622 47.8451 93.9454C46.597 94.6111 45.4321 95.776 43.8511 95.6928C43.6847 95.6928 43.6015 95.8592 43.4351 95.8592C43.5183 96.1089 43.6015 96.3585 43.6847 96.6913C43.1855 96.6913 42.7694 96.6913 42.3534 96.7746C42.187 96.7746 41.9373 97.0242 41.9373 97.1906C41.9373 97.4402 42.0205 97.7731 42.187 98.0227C42.2702 98.1059 42.603 98.1059 42.7694 98.0227C43.3519 97.6899 43.8511 97.357 44.4336 96.941C44.4336 96.6913 44.3504 96.5249 44.3504 96.3585ZM92.8611 40.4406C92.7779 40.3574 92.7779 40.2742 92.6947 40.2742C92.5283 40.3574 92.3618 40.3574 92.2786 40.4406C91.3633 41.0231 90.448 41.6888 89.1999 41.8552C88.9503 41.8552 88.6174 42.188 88.5342 42.5209C88.2846 43.1034 88.2846 43.6858 88.1182 44.2683C88.035 44.6844 87.8686 45.0172 87.7021 45.4333C87.6189 45.4333 87.6189 45.4333 87.5357 45.3501C87.7021 45.8493 87.7854 46.2654 87.9518 46.8479C88.7007 45.5165 89.1999 44.2683 90.032 43.2698C90.6977 42.1048 91.8626 41.2727 92.8611 40.4406ZM122.567 44.3515C122.65 44.3515 122.733 44.3515 122.899 44.3515C122.983 44.0187 123.066 43.769 123.066 43.4362C123.066 43.1034 122.899 42.6873 122.899 42.3545C123.232 39.7749 123.565 37.1954 123.898 34.6158C124.064 33.6173 124.064 32.6188 124.231 31.4538C123.898 31.7034 123.648 31.7866 123.648 31.9531C123.482 32.6188 123.316 33.3677 123.149 34.1166C122.899 35.7808 122.816 37.445 122.567 39.1092C122.317 40.9399 122.4 42.6041 122.567 44.3515ZM111.583 133.387C110.917 133.304 110.335 133.221 109.669 133.138C109.503 133.138 109.336 133.221 109.253 133.387C109.253 133.554 109.253 133.804 109.42 133.887C109.836 134.303 110.335 134.552 111.084 134.469C112.831 134.136 114.579 133.887 116.409 134.303C116.992 134.386 117.491 134.552 118.073 134.719C118.073 134.636 118.073 134.636 118.073 134.552C116.492 133.887 114.911 133.304 113.247 132.639C113.164 132.805 113.081 133.055 112.998 133.304C112.498 133.138 111.999 132.971 111.5 132.805C111.5 133.138 111.5 133.387 111.583 133.387ZM116.409 177.822C115.744 176.408 114.329 176.408 113.746 177.157C113.081 177.989 112.665 178.904 112.748 179.986C112.748 180.319 112.665 180.651 112.582 181.067C112.249 182.232 112.415 183.397 112.831 184.729C113.081 183.813 113.414 183.065 113.497 182.316C113.663 181.317 113.58 180.319 113.663 179.32C113.83 177.822 114.828 177.24 116.16 177.905C116.243 177.905 116.326 177.905 116.409 177.822ZM134.882 60.9938C135.464 60.3281 136.046 59.7456 136.546 59.0799C136.629 58.9135 136.629 58.5806 136.546 58.4142C136.213 57.4989 135.63 56.75 134.549 56.5004C133.883 56.3339 133.467 56.5004 133.633 57.166C133.883 58.331 134.216 59.5792 134.549 60.7441C134.549 60.7441 134.715 60.8273 134.882 60.9938ZM69.1466 110.338C69.1466 110.421 69.2298 110.588 69.2298 110.671C70.4779 110.92 71.31 111.753 71.8093 112.668C72.0589 112.418 72.3085 112.085 72.4749 112.085C72.8078 112.085 73.1406 112.335 73.3902 112.418C73.4734 112.335 73.5567 112.252 73.6399 112.252C73.4734 111.919 73.3902 111.586 73.1406 111.337C72.7246 110.92 72.2253 110.588 71.8093 110.172C71.3932 109.755 71.0604 109.173 70.3947 109.339C69.8955 109.506 69.5626 110.005 69.1466 110.338ZM75.5537 143.706C75.6369 143.206 75.8033 142.79 75.8865 142.457C75.9697 142.041 75.8033 141.542 75.9697 141.209C76.8018 139.129 78.2996 137.714 80.5462 137.215C80.879 137.132 81.2951 137.049 81.6279 136.966C81.6279 136.882 81.6279 136.799 81.5447 136.716C80.6294 136.549 79.7141 136.549 78.7988 137.132C78.0499 137.631 77.301 138.131 76.6354 138.63C76.3025 138.879 75.8865 139.129 75.8033 139.462C75.5537 140.211 75.304 140.96 75.2208 141.792C75.1376 142.291 74.7216 143.04 75.5537 143.706ZM26.4605 71.5616C25.9612 68.6492 24.9627 65.9032 25.7116 62.9076C23.881 63.5733 24.7131 69.8973 26.4605 71.5616ZM67.2328 116.246C67.6488 116.828 68.3977 117.161 68.897 116.995C70.3115 116.496 71.4764 115.663 72.1421 114.249C72.2253 114.082 71.9757 113.666 71.8093 113.417C71.5597 113.583 71.2268 113.666 71.0604 113.916C70.8108 114.166 70.8108 114.582 70.5611 114.831C69.6458 115.663 68.6473 116.329 67.2328 116.246ZM59.1615 188.64C59.0783 188.473 58.9119 188.307 58.8287 188.307C58.2462 188.473 57.4142 188.473 57.0813 188.889C56.5821 189.638 56.3324 190.554 56.0828 191.469C55.9996 191.635 56.166 191.885 56.2492 191.968C56.3324 192.051 56.5821 191.968 56.6653 191.885C57.1645 191.469 57.747 191.136 58.0798 190.637C58.5791 189.971 58.8287 189.305 59.1615 188.64ZM109.42 66.1528C109.17 66.9017 109.669 69.5645 110.169 70.0638C110.335 70.147 110.751 70.147 110.834 69.9806C111.833 68.566 111.084 66.6521 109.42 66.1528ZM100.183 104.596C102.68 103.847 105.176 104.097 107.839 104.264C106.258 102.849 101.432 103.099 100.183 104.596ZM66.2343 59.7456C66.3175 59.6624 66.4007 59.6624 66.4839 59.5792C66.1511 58.8303 65.735 58.0814 65.4854 57.2493C65.2358 56.4171 65.1526 55.5018 64.9862 54.6697C64.8197 53.8376 63.9876 53.1719 62.9891 53.0887C62.9891 53.1719 62.9891 53.3383 63.0724 53.4215C63.4052 54.004 64.2373 54.5033 63.6548 55.4186C63.5716 55.5018 63.8212 55.7515 63.9044 55.9179C64.3205 56.5836 64.8197 57.166 65.1526 57.8317C65.5686 58.331 65.9015 58.9967 66.2343 59.7456ZM100.433 62.4916C100.35 62.3251 100.35 62.1587 100.267 61.9923C99.7674 61.2434 99.2682 60.4945 98.7689 59.7456C98.6025 59.496 98.5193 59.1631 98.3529 58.9135C98.2697 58.7471 98.02 58.7471 97.7704 58.6638C97.6872 58.9135 97.4376 59.0799 97.5208 59.2463C97.604 59.8288 97.8536 60.3281 98.02 60.9105C98.5193 62.5748 98.7689 62.4083 100.433 62.4916ZM119.155 113.916C119.571 113.666 119.987 113.5 120.32 113.25C120.736 112.918 121.152 112.585 121.568 112.169C121.735 112.002 121.818 111.669 121.984 111.42C121.651 111.336 121.318 111.17 121.069 111.253C120.237 111.669 119.405 112.169 118.656 112.668C118.406 112.834 118.323 113.25 118.323 113.5C118.323 113.583 118.822 113.75 119.155 113.916ZM85.1227 142.874C84.8731 143.206 84.7066 143.539 84.457 143.789C84.2906 144.038 84.041 144.288 83.7913 144.538C83.4585 144.871 83.0425 145.12 82.7928 145.453C82.6264 145.62 82.5432 145.952 82.6264 146.036C82.7096 146.202 83.0425 146.368 83.2089 146.368C84.041 146.452 85.4555 145.37 85.4555 144.538C85.5387 144.038 85.9548 143.373 85.1227 142.874ZM61.1586 166.589C61.0753 166.505 60.9921 166.339 60.9089 166.256C60.3265 166.505 59.744 166.755 59.1615 167.088C58.4127 167.421 57.747 167.92 57.0813 168.253C56.7485 168.419 56.2492 168.419 56.4989 168.919C56.5821 169.085 57.1645 169.251 57.3309 169.168C58.163 168.752 58.9951 168.336 59.744 167.837C60.3265 167.504 60.6593 167.005 61.1586 166.589ZM120.32 187.558C120.902 187.142 121.319 186.892 121.735 186.643C122.65 186.06 123.565 185.478 124.48 184.978C124.48 184.978 124.564 184.978 124.564 184.895C124.564 184.729 124.647 184.479 124.647 184.313C124.48 184.313 124.231 184.229 124.064 184.313C123.482 184.646 122.816 184.978 122.317 185.311C121.651 185.81 121.069 186.31 120.403 186.809C120.237 186.975 120.32 187.225 120.32 187.558ZM28.8736 132.888C28.7903 132.888 28.6239 132.805 28.5407 132.805C28.2911 133.554 27.9583 134.22 27.7918 134.968C27.6254 136.05 27.5422 137.215 27.459 138.38C27.3758 139.129 27.459 139.961 27.459 140.71H27.5422C28.0415 138.131 28.4575 135.468 28.8736 132.888ZM93.61 56.5836C93.2771 57.9149 94.3588 60.8273 95.2741 61.493C95.5238 59.5792 94.1924 58.2478 93.61 56.5836ZM34.615 164.342C33.7829 162.844 32.8676 161.43 32.1187 159.932C31.7859 159.349 31.453 159.183 30.7041 159.266C31.8691 161.18 33.034 162.927 34.615 164.342ZM66.2343 90.4505C68.8138 88.7031 71.31 86.6228 74.5552 86.2067C71.2268 86.5396 68.3977 87.9542 66.2343 90.4505ZM96.3559 132.222C98.7689 131.89 100.932 130.891 103.262 131.474C101.099 130.475 97.604 130.808 96.3559 132.222ZM38.7754 197.21C38.6922 197.294 38.6922 197.377 38.609 197.46C39.3579 198.043 40.1067 198.708 40.9388 199.207C41.2717 199.457 41.7709 199.457 42.187 199.54C41.9373 199.124 41.6877 198.708 41.4381 198.292C41.3549 198.209 41.2717 198.209 41.1884 198.126C40.3564 197.876 39.5243 197.543 38.7754 197.21ZM13.3135 179.07C13.0639 179.736 12.8975 180.485 12.6478 181.151C12.731 181.234 12.8143 181.234 12.8975 181.317C13.6463 180.735 14.312 180.152 15.1441 179.57C14.6449 179.07 14.2288 178.571 13.7296 178.155C13.5631 178.321 13.4799 178.405 13.3135 178.571C13.7296 178.738 14.0624 178.904 14.4784 179.07C14.3952 179.154 14.312 179.32 14.2288 179.403C14.0624 179.237 13.7296 179.237 13.3135 179.07ZM28.1247 150.446C27.9583 147.783 27.7086 145.203 27.5422 142.457C27.043 144.122 27.3758 149.53 28.1247 150.446ZM46.2642 176.075C45.9313 175.742 45.5985 175.159 45.3489 175.159C44.6 175.243 43.7679 175.492 43.019 175.742C42.9358 175.742 42.8526 176.075 42.7694 176.241C42.9358 176.324 43.019 176.408 43.1855 176.408C43.3519 176.408 43.5183 176.408 43.6015 176.408C43.6015 176.74 43.5183 176.99 43.6015 177.157C43.6847 177.24 44.0175 177.24 44.2672 177.24C44.2672 176.907 44.2672 176.574 44.2672 176.075C44.8496 174.993 45.4321 176.574 46.2642 176.075ZM100.516 188.973C100.433 188.889 100.35 188.806 100.267 188.806C100.017 189.056 99.7674 189.389 99.4346 189.638C98.7689 190.221 98.1032 190.72 97.5208 191.386C97.3544 191.552 97.4376 191.885 97.3544 192.051C97.604 192.051 97.9368 192.051 98.1032 191.968C98.7689 191.302 99.4346 190.637 100.017 189.888C100.267 189.555 100.35 189.222 100.516 188.973ZM24.2971 157.602V157.519C22.8825 155.688 21.468 153.857 20.0534 152.027C19.9702 152.11 19.887 152.11 19.8038 152.193C20.0534 152.609 20.2198 153.109 20.5527 153.525C21.3848 154.523 22.2168 155.605 23.1321 156.52C23.3818 156.936 23.881 157.269 24.2971 157.602ZM80.9622 164.758C81.0454 164.841 81.1287 165.174 81.2951 165.257C81.4615 165.341 81.8775 165.174 82.044 165.091C82.3768 164.758 82.7096 164.425 82.876 164.009C82.9593 163.843 82.7928 163.427 82.6264 163.343C82.1272 163.094 80.9622 163.926 80.9622 164.758ZM70.6444 188.806C70.4779 188.889 70.1451 189.056 69.7291 189.139C69.313 189.222 68.897 189.139 68.5641 189.139C68.5641 189.222 68.5641 189.305 68.5641 189.389C70.4779 189.389 72.3917 189.389 74.3055 189.389C74.3055 189.305 74.3055 189.305 74.3055 189.222C73.1406 189.139 72.0589 188.973 70.6444 188.806ZM120.902 146.368C121.152 145.453 121.402 144.621 121.568 143.789C121.568 143.622 121.402 143.373 121.235 143.29C121.152 143.206 120.819 143.29 120.736 143.373C120.154 143.872 120.154 145.703 120.902 146.368ZM24.3803 170.167C25.2124 171.581 26.1277 172.913 27.5422 173.911C26.5437 172.663 26.0445 170.916 24.3803 170.167ZM107.755 127.396C106.923 127.896 106.84 128.478 107.173 131.307C107.173 131.557 107.423 131.723 107.589 131.89C107.672 130.309 107.755 128.894 107.755 127.396ZM138.959 79.0506C139.042 79.0506 139.125 79.0506 139.208 79.1338C139.375 78.8009 139.624 78.5513 139.708 78.2185C139.791 77.636 139.791 77.0535 139.791 76.471C139.791 76.3046 139.708 76.1382 139.624 75.9718C139.458 76.055 139.208 76.2214 139.125 76.3046C138.959 77.0535 138.876 77.8024 138.792 78.6345C138.792 78.7177 138.876 78.8842 138.959 79.0506ZM22.9657 112.668C22.6329 113.001 22.3001 113.167 22.0504 113.5C21.8008 113.75 21.5512 114.082 21.3848 114.415C21.3016 114.582 21.3016 114.831 21.3016 114.998C21.468 114.998 21.6344 115.081 21.8008 114.998C22.8825 114.748 23.2986 113.833 22.9657 112.668ZM136.962 63.1572C135.797 63.6565 134.549 66.2361 134.632 67.5674C135.464 66.0696 136.13 64.655 136.962 63.1572ZM47.6787 144.371C46.9299 143.955 46.2642 143.206 45.3489 143.955C45.0993 144.122 44.8496 144.371 44.6832 144.621C45.0161 144.704 45.3489 144.871 45.6817 144.871C46.3474 144.787 47.0131 144.538 47.6787 144.371ZM132.968 178.821C132.302 178.571 130.638 180.069 130.638 180.485C130.638 180.568 130.721 180.818 130.804 180.818C130.971 180.901 131.22 180.901 131.304 180.818C131.803 180.152 132.385 179.486 132.968 178.821ZM69.8123 134.136C70.9772 135.135 72.2253 135.967 73.8895 136.549C73.2238 135.634 70.3947 133.97 69.8123 134.136ZM61.8242 166.173C62.3235 165.757 62.9059 165.424 63.2388 164.924C63.4884 164.592 63.1556 164.092 62.5731 164.176C62.1571 164.176 61.4082 165.424 61.4914 165.84C61.4914 165.923 61.6578 166.006 61.8242 166.173ZM60.5761 56.5836C60.6593 54.8361 60.7425 53.0887 60.8257 51.3413C60.7425 51.3413 60.6593 51.3413 60.4929 51.3413C60.4097 53.0887 59.8272 54.8361 60.5761 56.5836ZM54.5019 170.084C54.169 169.668 53.9194 169.251 53.5866 168.835C53.4201 168.669 53.0873 168.586 52.8377 168.669C52.6713 168.752 52.5048 169.085 52.5048 169.251C52.5048 170 53.753 170.583 54.5019 170.084ZM60.7425 71.9776C62.5731 73.6418 64.7365 74.3075 66.9 75.0564C64.8197 74.0579 62.8227 73.0594 60.7425 71.9776ZM123.815 55.3354C123.898 55.3354 123.981 55.3354 124.064 55.2522C123.815 54.004 123.565 52.6726 123.316 51.4245C123.149 51.4245 123.066 51.5077 122.899 51.5077C123.149 52.7559 122.983 54.1704 123.815 55.3354ZM74.8048 189.638C75.8033 189.472 76.5522 189.389 77.4675 189.305C76.469 187.974 75.8033 188.057 74.8048 189.638ZM128.558 180.984C129.057 180.069 129.473 179.07 129.972 178.155C128.89 177.905 128.308 178.987 128.558 180.984ZM17.2243 177.989C17.1411 178.072 17.0579 178.072 16.9747 178.155C17.5572 179.653 17.5572 181.317 19.0549 182.482C18.3892 180.901 17.8068 179.403 17.2243 177.989ZM33.6997 59.4127C33.034 59.2463 32.6179 59.3295 32.5347 59.8288C32.4515 60.3281 32.9508 61.4098 33.45 61.493C33.5332 60.9105 33.6165 60.1616 33.6997 59.4127ZM59.5776 163.926C59.4944 163.843 59.4112 163.76 59.328 163.676C58.5791 164.342 57.9134 165.008 57.1645 165.673C57.0813 165.757 57.1645 165.923 57.1645 165.923C57.2477 166.006 57.4974 166.089 57.4974 166.006C58.3295 165.424 59.2447 164.841 59.5776 163.926ZM11.5661 137.215C11.5661 137.132 11.6493 137.132 11.6493 137.049C12.0654 137.215 12.3982 137.382 12.8143 137.631C12.8975 137.548 12.9807 137.465 13.0639 137.382C12.6478 136.966 12.315 136.549 11.899 136.133C11.5661 136.466 11.3165 136.633 11.1501 136.882C10.734 137.382 11.1501 137.964 11.899 137.881C11.8158 137.631 11.7325 137.382 11.5661 137.215ZM63.9044 93.1965C64.6533 92.3644 65.319 91.6987 65.9014 91.033C65.8182 90.9498 65.8182 90.9498 65.735 90.8666C64.7365 91.1162 63.8212 92.1979 63.9044 93.1965ZM34.8646 118.826C34.6982 118.659 34.615 118.576 34.4485 118.409C34.2821 118.243 34.2821 117.993 34.1157 117.91C33.9493 117.744 33.6164 117.744 33.3668 117.661C33.2836 117.91 33.1172 118.243 33.2004 118.409C33.2836 118.826 34.2821 119.075 34.8646 118.826ZM86.1212 164.009C86.2876 164.092 86.3708 164.176 86.5372 164.176C86.6204 164.009 86.7036 163.76 86.7869 163.51C87.0365 163.676 87.1197 163.843 87.2861 163.926C87.5357 164.009 87.7854 164.092 87.9518 164.176C87.8686 163.926 87.8686 163.676 87.7021 163.51C87.2861 163.177 86.8701 162.927 86.454 162.595C86.5372 162.511 86.6204 162.428 86.7036 162.428C86.454 163.011 86.2876 163.51 86.1212 164.009ZM33.1172 176.324C33.2836 177.573 33.2836 178.654 34.615 178.987C33.8661 178.321 34.3653 176.907 33.1172 176.324ZM28.7903 175.159C29.456 176.324 31.2866 177.656 32.2019 177.573C31.037 176.657 29.8721 175.908 28.7903 175.159ZM21.1351 67.1514C21.468 67.401 21.6344 67.5674 21.8008 67.5674C22.0504 67.5674 22.4665 67.4842 22.6329 67.3178C22.7993 67.0682 22.8825 66.6521 22.9657 66.3193C22.6329 66.4025 22.3833 66.4025 22.0504 66.5689C21.8008 66.7353 21.5512 66.9017 21.1351 67.1514ZM28.0415 185.81C27.9583 185.894 27.9583 185.977 27.875 185.977C29.04 186.809 29.6224 188.14 30.9538 188.723C31.037 188.64 31.1202 188.556 31.1202 188.473C30.1217 187.558 29.1232 186.726 28.0415 185.81ZM45.8481 170.916C45.8481 170.832 45.9313 170.749 45.9313 170.583C44.4336 170.084 42.9358 169.584 41.5213 169.085C41.5213 169.168 41.4381 169.251 41.4381 169.335C42.8526 169.917 44.3504 170.416 45.8481 170.916ZM137.211 75.8885C136.629 76.471 136.13 76.8871 135.714 77.3864C135.797 77.4696 135.797 77.636 135.88 77.7192C136.213 77.636 136.546 77.636 136.879 77.4696C137.211 77.1367 137.544 76.7207 137.211 75.8885ZM126.644 112.751C127.393 112.252 128.058 111.753 128.724 111.253C127.31 111.087 126.561 111.586 126.644 112.751ZM39.8571 159.266C40.3564 160.431 41.4381 161.097 42.187 160.681C41.4381 160.181 40.6892 159.765 39.8571 159.266ZM104.843 84.1265C104.344 84.7921 104.427 86.1235 105.01 86.8724C104.76 85.9571 105.592 85.0418 104.843 84.1265ZM140.29 19.8042C139.874 20.2203 139.624 20.7196 139.957 21.2188C140.04 21.3852 140.706 21.302 140.789 21.1356C141.289 20.4699 140.706 20.2203 140.29 19.8042ZM138.46 166.672C137.877 166.256 137.461 166.006 136.962 165.673C136.962 166.422 136.962 166.922 136.962 167.421C137.378 167.171 137.794 167.005 138.46 166.672ZM40.7724 192.634C41.1052 191.552 40.4396 190.554 39.5243 190.387C40.0235 191.136 40.3564 191.885 40.7724 192.634ZM112.166 90.2009C112.249 90.2841 112.249 90.3673 112.332 90.5337C112.665 90.2841 113.081 90.1177 113.33 89.7848C113.497 89.5352 113.497 89.1191 113.58 88.7031C113.247 88.7031 113.164 88.7863 113.081 88.7863C112.831 89.2855 112.498 89.7016 112.166 90.2009ZM25.878 141.542C26.0445 140.46 26.2941 139.379 26.4605 138.38C26.3773 138.38 26.2941 138.38 26.2109 138.38C25.7116 139.212 25.5452 140.876 25.878 141.542ZM68.1481 95.6096C68.3145 96.6081 68.7306 96.7746 69.3962 96.1921C69.5626 96.0257 69.5626 95.776 69.6458 95.6096C69.4794 95.5264 69.2298 95.4432 69.0634 95.5264C68.8138 95.4432 68.4809 95.5264 68.1481 95.6096ZM135.547 142.457C135.547 142.374 135.547 142.291 135.547 142.291C134.715 142.291 133.883 142.041 133.384 142.874C133.301 143.04 133.384 143.29 133.384 143.539C133.55 143.456 133.8 143.373 133.883 143.29C134.133 142.79 134.549 142.541 135.131 142.624C135.214 142.541 135.381 142.457 135.547 142.457ZM114.995 184.895C114.828 184.812 114.662 184.812 114.495 184.729C114.246 185.478 113.996 186.227 113.746 186.975C113.83 186.975 113.996 187.059 114.079 187.059C114.412 186.393 114.662 185.644 114.995 184.895ZM39.8571 187.641C39.025 187.225 38.1929 186.809 37.3608 186.393C37.8601 187.558 38.6922 187.808 39.8571 187.641ZM61.2418 162.678C60.7425 162.511 60.4929 162.262 60.3265 162.345C59.9936 162.511 59.8272 162.761 59.5776 163.011C59.744 163.177 59.9936 163.427 60.16 163.343C60.4929 163.26 60.7425 163.011 61.2418 162.678ZM36.1127 193.965C36.1127 193.965 36.1127 193.882 36.1959 193.882C36.0295 193.466 35.6967 193.133 35.6967 192.717C35.6967 191.802 35.6967 191.718 34.6982 192.051C35.1974 192.717 35.6135 193.299 36.1127 193.965ZM62.4067 95.36C62.4899 95.36 62.6563 95.4432 62.7395 95.4432C62.9891 95.0271 63.2388 94.6943 63.4052 94.2782C63.4884 94.1118 63.322 93.9454 63.2388 93.6957C63.0724 93.7789 62.8227 93.779 62.8227 93.8622C62.7395 94.2782 62.5731 94.8607 62.4067 95.36ZM52.3384 91.6155C52.2552 91.5322 52.172 91.5322 52.172 91.449C51.756 91.8651 51.3399 92.2812 50.9239 92.6972C50.8407 92.7804 50.8407 93.1133 50.8407 93.2797C51.0903 93.1965 51.3399 93.1965 51.5063 93.1133C51.756 92.6972 52.0056 92.1147 52.3384 91.6155ZM27.459 68.7324C27.5422 68.6492 27.7086 68.566 27.7918 68.3995C27.5422 68.0667 27.2926 67.6506 26.9598 67.3178C26.7933 67.4842 26.6269 67.6506 26.4605 67.8171C26.7933 68.1499 27.1262 68.4828 27.459 68.7324ZM42.6862 195.629C42.7694 196.961 43.3519 197.626 44.2672 197.626C43.7679 197.044 43.2687 196.295 42.6862 195.629ZM115.577 155.272C115.244 155.605 114.911 155.938 114.662 156.187C114.828 156.354 115.078 156.603 115.161 156.603C115.494 156.354 115.744 156.104 115.993 155.771C115.993 155.771 115.744 155.522 115.577 155.272ZM71.6429 93.3629C71.7261 93.4461 71.8093 93.4461 71.8925 93.5293C72.2253 92.9468 72.5582 92.4476 72.9742 91.7819C72.0589 91.7819 71.5596 92.4476 71.6429 93.3629ZM68.1481 145.287C67.8985 144.954 67.8985 144.704 67.732 144.621C67.3992 144.455 67.0664 144.371 66.8167 144.288L66.6503 144.621C66.9 144.787 67.1496 145.037 67.3992 145.12C67.4824 145.287 67.732 145.287 68.1481 145.287ZM27.7086 70.563C27.5422 70.8127 27.459 70.9791 27.3758 71.1455C27.7086 71.1455 28.0415 71.1455 28.4575 71.0623C28.2079 69.8974 28.1247 69.8141 27.459 69.8141C27.5422 70.0638 27.6254 70.3966 27.7086 70.563ZM131.387 30.6217C130.305 30.9545 129.972 31.4538 130.055 32.5355C130.555 31.8699 130.971 31.2042 131.387 30.6217ZM97.3544 188.473C97.3544 188.39 97.2712 188.307 97.2712 188.14C96.6887 188.307 96.1062 188.473 95.5238 188.723C95.4406 188.723 95.4406 188.973 95.3574 189.056C95.5238 189.139 95.6902 189.305 95.7734 189.222C96.2727 188.973 96.8551 188.723 97.3544 188.473ZM98.6025 186.809C99.3514 186.393 100.017 186.06 100.6 185.727C99.7674 185.145 99.2682 185.394 98.6025 186.809ZM44.0175 64.0726C44.3504 63.4901 44.6 63.074 44.9328 62.5748C43.8511 62.4083 43.6015 62.8244 44.0175 64.0726ZM54.5019 89.7848C54.4186 89.7016 54.3354 89.6184 54.2522 89.5352C53.9194 90.2009 52.7545 90.0344 52.5881 90.9498C52.6713 91.033 52.7545 91.1162 52.8377 91.2826C53.4201 90.7833 54.0026 90.2841 54.5019 89.7848ZM29.6224 85.9571C29.7056 85.8739 29.8721 85.8739 29.9553 85.7907C29.6224 85.125 29.3728 84.4593 29.04 83.7936C28.8736 83.8768 28.7903 83.8768 28.6239 83.96C29.04 84.6257 29.3728 85.2914 29.6224 85.9571ZM75.9697 116.246C75.9697 116.329 75.8865 116.412 75.8865 116.412C76.885 116.828 77.9667 117.244 78.9652 117.744C78.9652 117.661 79.0484 117.577 79.0484 117.494C78.0499 117.078 77.0514 116.662 75.9697 116.246ZM65.2358 164.009C65.2358 163.843 65.319 163.76 65.319 163.593C64.4869 163.427 63.738 163.177 62.9059 163.011C62.9059 163.094 62.8227 163.177 62.8227 163.26C63.6548 163.51 64.4869 163.76 65.2358 164.009ZM145.782 146.784C146.364 145.037 146.364 144.704 145.782 144.371C145.782 145.203 145.782 145.952 145.782 146.784ZM97.2712 192.634C97.188 192.467 97.1047 192.384 97.0215 192.218C96.7719 192.218 96.4391 192.218 96.1894 192.384C96.023 192.467 95.8566 192.717 95.7734 192.967C95.7734 193.05 95.9398 193.216 95.9398 193.216C96.1062 193.216 96.3559 193.133 96.5223 192.967C96.7719 192.883 97.0215 192.717 97.2712 192.634ZM58.8287 178.738C58.9119 179.07 58.9119 179.32 58.9951 179.403C59.1615 179.57 59.4944 179.736 59.744 179.819C59.8272 179.819 59.9104 179.653 60.0768 179.57C59.9104 179.403 59.744 179.154 59.5776 178.987C59.328 178.904 59.0783 178.821 58.8287 178.738ZM78.7988 191.302C78.7988 191.386 78.7988 191.469 78.7988 191.635C79.6309 192.218 80.2966 191.219 81.1287 191.136C80.2966 191.219 79.5477 191.219 78.7988 191.302ZM144.783 151.195C144.95 150.695 145.116 150.363 145.199 150.03C145.199 149.946 145.199 149.697 145.116 149.697C145.033 149.614 144.867 149.614 144.783 149.697C144.367 149.863 144.367 150.695 144.783 151.195ZM51.756 169.584C51.9224 170.084 51.9224 170.5 52.0888 170.749C52.2552 170.916 52.6713 170.749 53.0041 170.749C53.0041 170.666 53.0873 170.583 53.0873 170.5C52.6713 170.167 52.2552 169.917 51.756 169.584ZM46.5138 175.243C46.597 176.158 46.8466 176.324 48.2612 175.825C47.5955 175.659 47.0963 175.409 46.5138 175.243ZM28.8736 180.735C28.9568 180.651 28.9568 180.651 29.04 180.568C28.4575 179.902 27.9583 179.237 27.3758 178.488C27.2926 178.571 27.2094 178.654 27.1262 178.738C27.7086 179.403 28.2911 180.069 28.8736 180.735ZM115.327 180.901C115.161 181.234 114.911 181.484 114.911 181.733C114.911 181.9 115.161 182.066 115.244 182.232C115.411 182.066 115.66 181.816 115.827 181.567C115.827 181.484 115.577 181.234 115.327 180.901ZM39.6907 189.888C39.7739 189.805 39.8571 189.721 39.9403 189.638C39.5243 189.222 39.6907 188.224 38.609 188.39C39.025 188.973 39.3579 189.389 39.6907 189.888ZM122.899 50.7588C123.066 50.7588 123.149 50.6756 123.316 50.6756C123.232 50.0931 123.066 49.4274 122.983 48.8449C122.899 48.8449 122.816 48.8449 122.733 48.9281C122.733 49.5106 122.816 50.1763 122.899 50.7588ZM56.9981 167.171C56.9981 167.088 56.9981 167.005 57.0813 166.922C56.8317 166.838 56.4989 166.589 56.3324 166.672C56.0828 166.838 55.8332 167.171 55.5836 167.421C55.6668 167.504 55.75 167.587 55.75 167.587C56.166 167.504 56.5821 167.338 56.9981 167.171ZM26.2109 150.279C26.2109 149.447 25.6284 149.031 24.5467 148.948C25.0459 149.364 25.5452 149.78 26.2109 150.279ZM133.717 129.643C133.051 129.893 132.552 130.059 132.136 130.225C131.969 130.309 131.886 130.392 131.803 130.475C131.803 130.558 131.886 130.725 131.969 130.808C132.136 130.808 132.302 130.808 132.385 130.725C132.801 130.475 133.134 130.142 133.717 129.643ZM68.0649 84.5425C68.0649 84.4593 68.0649 84.3761 68.0649 84.2929C67.2328 84.3761 66.4007 84.5425 65.4854 84.6257C65.4854 84.7089 65.4854 84.7921 65.4854 84.8754C66.3175 84.7921 67.2328 84.7089 68.0649 84.5425ZM144.035 153.441C143.951 153.358 143.868 153.358 143.702 153.275C143.452 153.857 143.286 154.44 143.036 155.022C143.119 155.022 143.202 155.106 143.286 155.106C143.618 154.606 143.868 154.024 144.035 153.441ZM125.229 181.4C125.313 181.4 125.396 181.484 125.479 181.484C125.562 181.067 125.645 180.735 125.729 180.319C125.729 180.319 125.479 180.235 125.313 180.235C125.313 180.651 125.313 181.067 125.229 181.4ZM133.633 84.8754C133.717 84.8754 133.8 84.7921 133.883 84.7921C133.717 84.1265 133.55 83.4608 133.467 82.7951C133.384 82.7951 133.217 82.8783 133.134 82.8783C133.301 83.544 133.467 84.2097 133.633 84.8754ZM49.2597 147.7C48.7604 147.866 48.2612 148.116 47.7619 148.282C48.9269 148.449 49.2597 148.033 49.2597 147.7ZM40.8556 66.985C40.9388 67.0682 41.022 67.0682 41.1052 67.1514C41.5213 66.8185 41.9373 66.4025 41.8541 65.82C41.7709 65.7368 41.6877 65.7368 41.6045 65.6536C41.4381 66.1529 41.1884 66.5689 40.8556 66.985ZM75.8865 79.0506C75.8865 79.1338 75.8033 79.217 75.8033 79.3002C76.3858 79.5498 76.9682 79.7995 77.5507 80.0491C77.6339 79.9659 77.6339 79.7995 77.7171 79.7163C77.1346 79.5498 76.469 79.3002 75.8865 79.0506ZM79.9637 118.077C79.8805 118.16 79.8805 118.16 79.7973 118.243C80.463 118.742 81.0454 119.242 81.7111 119.824C81.7943 119.741 81.7943 119.658 81.8775 119.658C81.2119 119.075 80.5462 118.576 79.9637 118.077ZM119.321 175.659C119.405 175.742 119.571 175.825 119.654 175.908C119.821 175.659 120.07 175.326 120.237 175.076C120.07 174.993 119.904 174.827 119.821 174.91C119.654 175.076 119.488 175.409 119.321 175.659ZM82.46 51.0084C82.5432 50.9252 82.5432 50.842 82.6264 50.7588C82.2104 50.0099 82.1272 50.0099 81.4615 50.3427C81.8775 50.6756 82.2104 50.842 82.46 51.0084ZM15.7266 157.935C15.6434 157.935 15.5601 158.018 15.4769 158.018C15.8098 158.684 16.0594 159.266 16.3922 159.932C16.4754 159.932 16.4754 159.849 16.5587 159.849C16.309 159.266 15.9762 158.6 15.7266 157.935ZM27.1262 65.9864C27.875 65.4039 27.875 65.2375 27.2926 64.7383C27.2094 65.2375 27.2094 65.5704 27.1262 65.9864ZM12.5646 132.555C12.4814 132.722 12.4814 132.805 12.3982 132.971C12.8143 133.138 13.3135 133.304 13.7296 133.554C13.8128 133.471 13.8128 133.304 13.896 133.221C13.4799 132.971 13.0639 132.805 12.5646 132.555ZM130.222 60.5777C130.055 60.5777 129.889 60.5777 129.806 60.6609C129.889 61.077 129.972 61.4098 130.055 61.8259C130.139 61.8259 130.305 61.8259 130.388 61.7427C130.305 61.3266 130.305 60.9938 130.222 60.5777ZM65.5686 161.513C65.6518 161.513 65.8182 161.43 65.9014 161.43C65.735 161.014 65.6518 160.598 65.4854 160.181C65.4022 160.181 65.2358 160.265 65.1526 160.265C65.319 160.598 65.4854 161.014 65.5686 161.513ZM128.308 136.882C128.391 136.799 128.474 136.716 128.558 136.549C128.225 136.3 127.975 135.967 127.642 135.717C127.559 135.801 127.476 135.967 127.393 136.05C127.642 136.3 127.975 136.633 128.308 136.882ZM145.532 135.967C145.615 135.884 145.699 135.801 145.865 135.801C145.865 135.301 145.615 134.968 145.199 134.802C145.116 134.885 145.033 134.885 144.95 134.968C145.116 135.301 145.283 135.634 145.532 135.967ZM140.373 162.345C140.54 162.345 140.623 162.428 140.789 162.428C140.873 162.095 140.956 161.679 140.956 161.346L140.706 161.263C140.623 161.596 140.457 162.012 140.373 162.345ZM18.1396 121.405C18.306 121.072 18.4725 120.906 18.5557 120.656C18.5557 120.573 18.306 120.323 18.2228 120.407C18.0564 120.49 17.8068 120.656 17.6404 120.823C17.8068 120.989 17.9732 121.072 18.1396 121.405ZM106.008 137.132C106.008 137.049 106.008 136.966 106.091 136.882C105.842 136.716 105.509 136.549 105.259 136.383C105.176 136.466 105.176 136.466 105.093 136.549C105.176 136.799 105.176 137.049 105.342 137.132C105.426 137.215 105.758 137.132 106.008 137.132Z" fill="#FDF2E5"/>
</g>
<defs>
<clipPath id="clip0">
<rect width="167" height="227" fill="white"/>
</clipPath>
</defs>
</svg>
