<svg width="124" height="181" viewBox="0 0 124 181" fill="none" xmlns="http://www.w3.org/2000/svg">
<path d="M123.536 77.1605C123.332 77.2629 123.23 77.3653 123.178 77.3653C120.675 77.519 120.727 77.519 120.675 80.2329C120.471 91.857 120.318 103.481 119.96 115.003C119.654 125.603 119.245 136.1 118.785 146.598C118.479 153.357 118.07 160.065 117.713 166.773C117.713 167.183 117.713 167.746 117.968 168.105C120.42 171.331 120.011 174.454 119.909 177.629C119.909 177.936 119.807 178.192 119.807 178.5C119.705 180.65 118.581 181.367 116.487 180.804C111.276 179.319 106.168 177.936 101.213 176.554C94.6747 174.761 88.3406 173.123 82.2107 171.433C71.7389 168.514 61.9312 165.749 52.6343 163.035C34.4491 157.709 18.3072 152.947 3.85101 148.697C3.5956 148.646 3.39128 148.595 3.13587 148.492C2.42072 148.185 1.96098 147.417 1.9099 146.341C1.85882 144.703 1.80774 143.013 1.9099 141.426C1.96098 140.657 2.42072 140.145 2.62505 139.429C2.77829 138.968 2.98262 138.404 2.93154 137.841C2.82937 133.745 2.72721 129.648 2.62505 125.551C2.4718 119.765 2.31856 113.927 2.21639 108.141C2.01206 97.8482 1.80774 87.5556 1.75665 77.3141C1.70557 66.7142 1.70557 56.0631 1.70557 45.412C1.70557 41.7251 1.75665 38.0382 1.80774 34.3513C1.80774 33.0199 1.50124 32.047 0.939343 31.1764C0.58177 30.6132 0.377442 29.7426 0.275278 28.9745C0.173114 27.9504 0.224196 26.875 0.224196 25.8509C0.224196 24.5707 0.683934 23.7002 1.50124 23.4954C2.57397 23.2393 3.69777 23.1369 4.82157 22.8809C11.1557 21.5495 17.7453 20.0645 24.6924 18.6307C33.3764 16.8384 42.6222 14.9437 52.4299 12.9979C58.049 11.8713 63.9234 10.8472 70.0021 9.6694C74.4463 8.79888 78.9415 7.82594 83.641 6.95542C88.9025 5.98248 94.3171 5.11196 99.9361 4.08782C106.066 2.96126 112.4 1.73228 118.99 0.452103C120.522 0.14486 121.544 0.861761 121.595 2.44918C121.646 4.6511 121.85 6.85301 121.544 9.00371C121.288 10.5911 120.522 12.2298 119.603 13.6636C118.888 14.7901 118.888 15.7119 118.888 16.7872C119.143 23.2393 119.501 29.6914 119.705 36.1435C119.96 43.3125 120.062 50.4816 120.216 57.7018C120.318 63.3858 120.42 69.0186 120.471 74.7026C120.522 77.1605 120.318 77.0581 122.719 77.1605C122.974 77.0581 123.178 77.1093 123.536 77.1605ZM11.8709 136.715C11.922 136.663 11.973 136.663 12.0752 136.612V136.663C12.0241 136.612 11.973 136.561 11.8709 136.51C11.8709 136.561 11.8709 136.663 11.8709 136.715ZM35.9816 140.401C36.0326 140.35 36.0837 140.248 36.1859 140.197C36.237 140.145 36.237 140.145 36.237 140.145C36.3902 139.428 36.5435 138.66 36.7478 137.841C36.3902 137.79 36.0837 137.739 35.7772 137.687C35.8283 138.507 35.8794 139.224 35.9305 139.941V139.889C35.9305 140.043 35.9305 140.248 35.9816 140.401ZM18.4094 45.412C18.3583 45.4632 18.3072 45.5145 18.205 45.5657C18.1029 45.7705 18.0007 45.9241 17.8985 46.0777C17.8475 46.385 17.7964 46.641 17.7453 46.8971C18.2561 46.9995 18.6648 47.1019 19.0734 47.2043C18.8691 46.4362 19.3288 45.3096 18.4094 45.412ZM77.8177 62.0544C77.7155 61.9008 77.6133 61.6959 77.5112 61.5423C77.5112 61.0302 77.409 60.5182 77.5112 60.0061C77.7155 58.982 77.2558 58.3163 76.6428 58.4699C76.5406 58.9307 76.3874 59.3916 76.4895 59.6989C76.6939 60.5694 77.0004 61.3887 77.3069 62.2592C75.9276 62.7201 77.0514 63.693 76.8982 64.5635C77.8688 63.9491 78.2263 63.1809 77.8177 62.0544ZM18.1029 49.7134C17.8985 50.7888 17.5921 51.8642 17.5921 52.8883C17.5921 53.4516 17.5921 54.5781 18.4604 54.5269C18.5115 54.5269 18.5626 54.7318 18.6137 54.8342C18.4094 54.9878 18.0007 55.0902 18.0007 55.3462C17.7964 56.5752 17.6942 57.8554 17.541 59.3916C17.8985 59.0332 18.0518 58.8795 18.3583 58.6235C18.1029 59.3916 17.8475 59.9037 17.7453 60.467C17.6431 61.2351 17.6942 62.0544 17.6942 62.8225C17.7453 67.6872 17.7453 72.5519 17.7964 77.4678C17.8475 81.5643 17.8985 85.7121 17.9496 89.8087C18.0007 92.9323 18.1029 96.1072 18.154 99.2308C18.154 99.5381 18.3072 99.8453 18.4094 100.101C18.4604 100.204 18.6648 100.204 18.7669 100.153C18.8691 100.101 18.9202 99.8965 18.9202 99.7941C18.8691 98.8724 18.7159 97.8994 18.7669 97.0289C18.8691 95.6463 18.5626 94.3149 18.7669 92.8811C19.0224 90.8841 18.818 88.7333 18.818 86.6339C18.818 83.5614 18.9202 80.489 18.9202 77.4165C18.9202 74.0369 18.8691 70.7084 18.8691 67.3287C18.8691 63.7954 18.9713 60.2621 18.9713 56.6776C18.9713 56.0631 19.1756 55.1926 18.5115 54.8854C18.6648 54.783 18.8691 54.6805 18.8691 54.6293C18.8691 53.7076 18.8691 52.7859 18.7669 51.9154C18.6648 51.3009 18.4094 50.7888 18.205 50.2767H18.154C18.3072 50.2255 18.5115 50.2255 18.5115 50.1231C18.7159 49.5598 18.8691 48.9453 18.9713 48.3821C18.9713 48.2796 18.5115 48.0748 18.205 47.9212C18.154 48.0236 18.1029 48.126 18.0007 48.1772C18.3072 48.6893 18.8691 49.2526 18.1029 49.7134ZM55.4438 51.8129C55.4438 51.6081 55.4949 51.4033 55.4949 51.1985C55.2905 51.2497 55.0862 51.3521 54.933 51.4033C54.8819 51.096 54.8819 50.7888 54.8308 50.4303L54.8819 50.3791C55.1373 50.1231 55.4438 49.8671 55.7503 49.5598C55.2395 49.099 54.933 48.8429 54.6265 48.5869C54.933 48.6381 55.1884 48.6381 55.4949 48.6893C55.5459 48.5357 55.597 48.4333 55.597 48.2796C55.1373 47.9212 54.6776 47.5627 54.2178 47.1531C54.1667 47.2043 54.0646 47.2555 54.0135 47.3067C54.2178 47.7164 54.4221 48.126 54.6265 48.5869C54.1667 49.4062 54.0135 50.1743 54.4732 50.9936C54.0135 52.1202 54.933 51.9666 55.2905 52.3762C54.4221 52.9395 54.0646 53.8612 54.32 54.9878C54.4732 55.6535 54.7797 56.2168 55.0351 56.8312C54.4732 56.6264 54.2178 56.7288 54.4221 57.5994C54.6775 58.6747 54.8308 59.8013 54.984 60.9278V60.8766C54.8308 62.0032 54.5754 63.1297 54.6265 64.2563C54.6265 65.0756 55.0862 65.8949 55.2905 66.663C55.0862 66.9191 54.6775 67.1751 54.6265 67.4824C54.5243 68.3017 54.5754 69.121 54.5754 69.9403C54.5754 72.6543 54.6265 75.3171 54.6775 78.031C54.7286 80.1305 54.8308 82.23 54.8819 84.3295C54.933 87.0947 54.984 89.8087 55.0862 92.5739C55.0862 92.8299 55.2905 93.0348 55.3927 93.2908C55.6481 92.8811 55.6992 92.5739 55.6992 92.2666C55.6992 90.7304 55.6992 89.1942 55.6992 87.7092C55.6992 83.459 55.597 79.2088 55.6481 74.9586C55.6481 73.6272 55.4949 72.347 55.6992 70.9644C55.9035 69.5818 55.6481 68.0968 55.6481 66.663C55.6481 65.178 55.6992 63.693 55.6992 62.208C55.6992 60.3645 56.1589 58.4699 55.0862 56.8825C55.2905 56.8313 55.6992 56.7288 55.6992 56.6776C55.597 55.2438 55.4438 53.8612 55.3416 52.4786C55.3416 52.2226 55.3927 52.0178 55.4438 51.8129ZM18.6648 101.074C18.1029 101.433 18.1029 101.433 18.6137 102.969C18.7669 102.918 19.0224 102.815 19.0734 102.764C18.9202 102.047 18.7669 101.535 18.6648 101.074C18.6648 101.074 18.6648 101.125 18.7159 101.125C18.6648 101.125 18.6648 101.074 18.6648 101.074ZM45.0741 41.8787C45.2274 41.6739 45.3806 41.5203 45.5339 41.3155C44.6655 40.2913 44.6655 40.2913 44.1547 40.5986C44.1036 40.5986 44.1036 40.701 44.0525 40.9058C44.2058 41.0082 44.4101 41.1106 44.5122 41.213C44.3079 41.6739 44.1547 42.0324 44.0014 42.3396C44.0525 42.3908 44.1036 42.4932 44.2057 42.5444C44.4101 42.3396 44.5633 42.186 44.7677 41.9812C44.8187 42.3908 44.9209 42.8517 44.8187 43.2613C44.6144 44.0294 44.8698 44.2343 45.4828 44.4391C45.5339 43.6198 45.585 42.9029 45.585 42.2372C45.585 42.0324 45.2274 41.9812 45.0741 41.8787ZM44.6655 48.2796C44.6144 48.6893 44.4612 49.099 44.5122 49.5086C44.5122 49.8671 44.7166 50.1743 44.8698 50.5328C44.1547 51.1985 44.0525 52.069 44.6655 52.5298C44.8187 53.2467 44.0014 54.1173 44.7677 54.783C44.5633 55.1926 44.2568 55.6535 44.2057 56.0631C44.1547 56.8825 44.2058 57.7018 44.2568 58.5211C44.359 61.0302 44.5122 63.4882 44.6144 65.9973C44.6655 67.8408 44.6655 69.6843 44.7166 71.5277C44.7677 73.6272 44.8187 75.7779 44.8698 77.8774C44.8698 78.5431 44.8187 79.26 44.8187 79.9257C44.8187 82.1788 44.8187 84.4319 44.8187 86.6851C44.972 86.7363 45.0741 86.7875 45.2274 86.8899C45.3806 86.5314 45.585 86.2242 45.636 85.8657C45.6871 84.0223 45.7382 82.1788 45.7382 80.3354C45.7382 79.4648 45.9425 78.3895 45.0231 77.9286C45.2274 78.031 45.4828 78.0823 45.636 78.1335C45.636 70.1451 45.6871 62.3616 45.6871 54.4245C45.3806 54.5781 45.1763 54.7318 44.972 54.8342C45.1252 54.5269 45.3296 54.2197 45.5339 53.9124C45.3296 53.554 45.0741 53.0419 44.8187 52.5298C45.1252 52.8371 45.3806 53.1443 45.6871 53.4516C45.9936 52.3762 45.8404 51.4545 45.1252 50.84C45.3296 50.2767 45.636 49.7134 45.7382 49.1502C45.7893 48.8429 45.4317 48.5357 45.2274 48.1772C46.1469 47.2043 45.3806 46.0777 45.585 45.156C45.0741 45.156 44.6655 45.156 44.1036 45.156C44.2057 45.6681 44.3079 46.1289 44.4101 46.5898C44.5122 47.2043 44.6144 47.8188 44.7677 48.4333L44.6655 48.2796ZM65.9667 91.4473C66.0177 91.4985 66.0688 91.5498 66.1199 91.601H66.2221C66.3242 90.8328 66.4264 90.0135 66.5286 89.0918C66.1199 89.143 65.8645 89.1942 65.6602 89.2454C66.9372 88.4261 66.6307 86.7875 66.6307 85.5073C66.7329 81.0523 66.6307 76.546 66.5796 72.091C66.5796 70.8108 66.5796 69.4794 66.4775 68.1992C66.4264 67.8408 66.0177 67.5336 65.7623 67.3287C65.6602 67.2775 65.4048 67.5848 65.2004 67.6872C65.3537 67.9944 65.558 68.3017 65.7113 68.5577C65.2004 69.2234 65.1494 69.9915 65.2004 70.9132C65.3537 73.2176 65.4048 75.5219 65.3537 77.8262C65.3026 78.9528 65.2515 79.9257 66.0688 80.2842C65.8645 80.745 65.558 81.1035 65.558 81.4619C65.5069 83.8175 65.4558 86.173 65.4558 88.4773C65.4558 88.6821 65.6602 88.887 65.7623 89.0918C65.6602 89.9623 65.0472 90.8328 65.9667 91.4473C65.8645 91.8058 65.5069 92.1642 65.6091 92.4715C65.9667 93.9565 65.4048 95.3903 65.6602 96.8241C65.6602 96.9777 65.8134 97.0801 66.0688 97.3874C66.2731 95.2879 66.6307 93.3932 65.9667 91.4473ZM21.27 25.2364C22.0362 25.9021 22.2916 25.7997 22.7003 24.6219C22.1383 24.4171 21.6275 24.2635 21.27 25.2364C21.0145 24.5707 20.7081 25.0316 20.4016 25.39C20.1972 25.5948 19.9418 25.7997 19.5843 26.1581C19.7886 26.4654 20.044 26.7726 20.2994 27.0799C20.5037 26.363 21.4743 26.363 21.27 25.2364ZM65.8134 64.2563C65.6091 64.3075 65.2004 64.3587 65.2004 64.3587C65.2004 65.1268 65.2515 65.8437 65.3026 66.663C66.6818 65.7925 66.784 65.2292 65.9156 64.4099C66.6818 63.1297 66.6307 60.7742 65.8134 59.238C66.0177 58.5723 66.2221 57.9066 66.4264 57.2921C65.9156 57.0361 65.6091 56.8313 65.2004 56.6264C64.7918 57.5994 65.0983 58.2138 65.7113 58.6747C65.6091 58.7771 65.4048 58.8795 65.4048 58.982C65.3026 60.1597 65.2004 61.3887 65.1493 62.5665C65.1493 63.1809 64.9961 64.0515 65.8134 64.2563ZM60.3476 64.9732C59.939 64.8196 59.4282 64.8196 59.1217 64.5123C58.4065 63.7954 58.1511 64.2051 58.049 65.0756C57.9979 65.6901 58.049 66.3046 58.049 66.9703C58.6619 66.663 59.1217 66.2534 59.5303 66.2534C60.2455 66.2022 60.2966 65.6389 60.3476 64.9732C61.165 65.6389 61.2671 67.4311 62.7485 66.8679C62.6974 65.6389 62.6463 64.3587 62.5952 63.0785C61.829 63.5394 61.216 63.8979 60.6541 64.3075C60.4498 64.4099 60.3987 64.7684 60.3476 64.9732ZM35.1132 49.5086C35.0621 50.6352 35.011 51.7617 35.011 52.8883C35.011 53.1955 35.2664 53.5028 35.4707 54.0149C35.4707 54.1685 35.4707 54.6805 35.4707 55.1414C34.9599 55.2438 34.9088 55.3462 35.0621 56.0119C35.1642 56.5752 35.3686 57.1897 35.3686 57.8042C35.3686 58.7771 35.1132 59.8013 35.1132 60.7742C35.1132 62.8737 35.2664 64.9732 35.2664 67.0727C35.2664 69.7867 35.2153 72.4495 35.2153 75.1634C35.2664 79.7721 35.3686 84.4319 35.4197 89.0406C35.4707 92.3691 35.4197 95.6975 35.4197 99.026C35.5729 99.0772 35.6751 99.1284 35.8283 99.1796C36.237 98.77 36.1859 98.0019 36.1859 97.3362C36.1859 93.5468 36.0837 89.8087 36.0837 86.0194C36.0837 84.5856 36.237 83.1518 36.237 81.718C36.1859 77.775 36.0837 73.8833 36.0837 69.9403C36.0837 66.3046 36.288 62.6689 36.288 59.0332C36.288 57.9066 35.9816 56.8313 35.8283 55.7047C35.9816 55.5511 36.237 55.4487 36.237 55.295C36.288 53.6052 36.3391 51.9154 36.237 50.2767C36.1348 49.5598 35.8283 48.8429 35.1132 49.5086C35.2664 49.3038 35.4197 48.9965 35.624 48.7917C36.1859 48.2796 36.3391 47.5627 36.237 46.7946C36.1348 45.9241 35.6751 45.5657 35.0621 45.2072C35.1132 45.6169 35.0621 45.7705 35.1132 45.9241C35.5218 46.8458 35.5729 47.6652 34.9088 48.5357C34.8067 48.6381 35.011 49.1502 35.1132 49.5086ZM6.45619 66.6118C6.40511 66.4582 6.35403 66.2022 6.30295 66.0998C5.94537 65.7413 5.5878 65.4853 5.17914 65.1268C5.17914 66.5094 5.17914 67.892 5.17914 69.3258C5.23023 69.3258 5.28131 69.377 5.33239 69.377C5.53672 68.8137 5.79213 68.2505 6.04754 67.5848C6.25187 67.636 6.25187 67.636 6.40511 66.663C6.45619 67.1239 6.30295 67.892 6.86485 67.8408C7.47783 67.7896 8.09082 67.6872 8.60163 68.5577C8.65272 67.3287 8.7038 66.3046 8.7038 65.4853C8.34623 65.5877 7.93757 65.6901 7.52891 65.8949C7.17134 66.151 6.81377 66.407 6.45619 66.6118ZM10.0319 60.8766C10.5938 60.2109 10.9003 59.4428 10.7982 58.3163C10.696 57.4969 10.8492 56.6776 10.9003 55.6535C10.8492 55.5511 10.6449 55.2438 10.4406 54.9366C11.2068 53.8612 10.7471 52.5811 10.9003 51.2497C10.5938 51.5569 10.4406 51.7617 10.3384 51.8129C10.3895 52.325 10.4406 52.7347 10.4917 53.1955C9.98085 53.0419 9.77652 53.1955 9.87868 54.0149C9.92976 54.3221 9.72544 54.7318 10.083 54.8342C9.62327 55.4999 9.98085 55.7559 10.2873 56.1144C10.3384 56.1656 10.2873 56.524 10.1852 56.6776C9.67435 57.8042 9.67436 58.6747 10.1341 59.6989C10.083 59.6989 9.98085 59.7501 9.92976 59.7501C9.98085 60.0573 10.0319 60.467 10.0319 60.8766C9.98085 61.9008 9.8276 62.9249 9.8276 64.0003C9.8276 66.3558 9.8276 68.7113 9.87868 71.0669C9.87868 71.5277 10.0319 72.0398 10.1341 72.5007C10.0319 72.7567 9.87868 73.0127 9.87868 73.2688C9.87868 75.9315 9.87868 78.5431 9.87868 81.2059C9.92976 83.2542 10.0319 85.2513 10.0319 87.2995C10.083 91.9082 10.1341 96.5169 10.1852 101.074C10.1852 101.33 10.3384 101.535 10.4406 101.791C10.5938 97.7458 10.6449 93.8029 10.5938 89.8599C10.5938 88.4261 10.2363 86.9411 10.4406 85.6097C10.7982 83.3566 10.1341 81.0523 10.5938 78.7991C10.7471 78.031 10.5427 77.1093 10.4917 76.29C10.3895 74.9586 10.2873 73.6272 10.1852 72.2958C10.2873 71.835 10.4917 71.3229 10.5427 70.862C10.5938 69.5819 10.5427 68.3017 10.5427 67.0215C10.5427 65.4341 10.3895 63.8466 10.5938 62.3104C10.8492 61.2863 10.6449 60.979 10.0319 60.8766ZM78.1242 88.7334C78.1752 87.3508 78.2263 85.9682 78.2263 84.5856C78.2263 82.1276 78.2774 79.6697 78.0731 77.2629C77.9709 76.034 77.9709 74.9074 78.1752 73.6784C78.3285 72.7567 78.022 71.7838 77.9709 70.8108C77.9198 70.0427 77.7666 69.1722 77.9709 68.5577C78.4817 67.2263 77.4601 66.407 77.409 65.2804C77.409 65.178 76.9493 65.1268 76.6939 65.0244C76.6939 65.7413 76.6428 66.3046 76.6939 66.8679C76.8471 68.8137 77.1025 70.7596 77.1536 72.7055C77.2047 75.3171 76.8471 77.9286 77.7155 80.489C77.7666 80.5914 77.6644 80.745 77.6644 80.8474C77.5112 81.4107 77.3069 81.9228 77.3069 82.4861C77.2558 84.1247 77.3579 85.7633 77.3069 87.402C77.3069 88.1189 77.5623 88.5285 78.1752 88.6309C77.409 88.9894 76.8982 89.5015 77.5112 90.5768C77.6133 90.7304 77.4601 91.0889 77.4601 91.3449C77.4601 92.7275 77.4601 94.0589 77.4601 95.4415C77.5623 95.4415 77.6644 95.4927 77.7666 95.4927C77.9198 95.0318 78.1242 94.6222 78.1752 94.1613C78.2263 92.9836 78.1752 91.7546 78.1752 90.5768C78.1752 90.0135 78.1242 89.3478 78.1242 88.7334ZM26.3271 63.181C26.276 63.4882 26.1738 63.7442 26.1738 64.0515C26.1738 66.663 26.2249 69.2746 26.2249 71.9374C26.2249 74.7026 26.2249 77.519 26.276 80.2842C26.3271 83.5614 26.4292 86.8387 26.4292 90.1159C26.4803 92.9323 26.4292 95.7999 26.4292 98.6163C26.5314 98.6675 26.6336 98.7188 26.7357 98.77C26.889 98.4115 27.0933 98.1043 27.0933 97.7458C27.1444 95.7487 27.0933 93.7517 27.0933 91.8058C27.0933 89.143 27.0933 86.429 27.0933 83.7663C27.0933 81.3083 27.0422 78.8503 27.0422 76.3924C27.0422 74.7538 27.0422 73.1664 27.0422 71.5277C27.0422 69.5306 27.0933 67.5336 27.0933 65.5365C27.0933 64.6147 26.9911 63.693 26.9401 62.7713C27.0422 60.5182 27.2976 58.2651 27.2976 56.0631C27.2976 53.9636 27.0422 51.9154 27.2465 49.8159C27.3487 48.8941 26.7357 48.1772 25.9695 48.2796C25.9695 48.7405 26.0206 49.1502 26.0206 49.5598C26.0717 49.611 26.1738 49.611 26.2249 49.6622C26.276 49.4574 26.3271 49.2526 26.3782 48.9965C26.5314 49.611 26.6336 50.0207 26.6846 50.3791C25.5608 50.7376 26.276 51.9154 26.1738 52.6835C25.8673 54.1685 25.9695 55.7559 26.3271 57.3945C26.0206 59.1356 26.0717 61.1839 26.3271 63.181ZM47.6793 147.724C47.7815 149.004 47.3728 150.233 48.4966 151.309C49.7737 152.538 51.5105 152.486 51.7659 151.053C51.9191 150.182 51.9702 149.209 52.0213 148.287C52.0724 145.317 52.0724 142.347 52.0213 139.377C51.9702 132.003 51.9702 124.681 51.868 117.307C51.817 114.9 52.0724 112.596 51.817 110.138C51.5616 107.68 51.9702 105.222 51.9702 102.764C51.9702 100.613 51.817 98.4115 51.817 96.2608C51.817 94.0589 51.9191 91.857 51.9191 89.6551C51.9191 86.429 51.868 83.203 51.868 79.9769C51.868 78.8503 51.817 77.7238 51.817 76.6484C51.817 75.2658 51.868 73.8833 51.868 72.5007C51.868 70.606 51.817 68.7113 51.817 66.8167C51.817 64.666 51.9702 62.464 51.9702 60.3133C51.9702 59.1868 51.817 58.009 51.817 56.8825C51.7659 52.4786 51.7659 48.126 51.7659 43.7222C51.7659 40.7522 51.7148 37.7822 51.7148 34.8121C51.7148 33.8392 51.7659 32.8151 51.7659 31.8421C51.7148 30.0499 51.5616 28.2576 51.5616 26.4654C51.5105 24.7755 50.9486 23.9562 49.7737 24.1098C48.2923 24.3147 47.3728 25.3388 47.3728 27.0287C47.3728 28.4112 47.3728 29.7938 47.3728 31.1764C47.4239 34.7609 47.5261 38.2942 47.5261 41.8787C47.5261 46.1801 47.475 50.4816 47.475 54.783C47.475 60.0573 47.4239 65.2804 47.4239 70.5548C47.475 78.8504 47.5772 87.1971 47.6282 95.4927C47.6282 100.357 47.5261 105.171 47.5261 109.984C47.5261 114.849 47.6793 119.714 47.7815 124.527C47.8326 127.241 47.7815 129.955 47.7304 132.669C47.6793 137.687 47.6793 142.757 47.6793 147.724ZM30.0561 143.013C30.005 143.013 29.9539 143.013 29.9028 143.013C30.005 143.832 30.005 144.652 30.1582 145.471C30.4136 146.598 31.282 147.673 32.1504 147.57C32.7123 147.519 33.4785 147.11 33.6829 146.495C33.9894 145.266 34.0915 143.832 34.0915 142.45C34.0915 139.326 33.8872 136.202 33.8361 133.079C33.8361 131.543 33.9383 130.058 33.9383 128.521C33.9383 126.627 33.8361 124.732 33.785 122.837C33.734 121.148 33.5807 119.406 33.5807 117.717C33.5807 113.671 33.6829 109.575 33.6829 105.529C33.6829 103.635 33.5296 101.74 33.5296 99.8453C33.5296 97.541 33.6318 95.2879 33.6318 92.9836C33.6318 88.6821 33.5296 84.3295 33.4785 80.0281C33.4785 79.4136 33.4275 78.7991 33.3764 78.1847C33.3253 77.2629 33.2742 76.29 33.2742 75.3683C33.3253 73.4224 33.5296 71.4253 33.4785 69.4794C33.4275 65.4341 33.2742 61.4399 33.2231 57.3945C33.1721 54.8342 33.2231 52.325 33.2231 49.7647C33.2231 46.3338 33.2231 42.9029 33.2231 39.472C33.2231 36.1947 33.121 32.9687 33.121 29.6914C33.121 28.104 32.4569 27.1311 31.4353 27.2847C30.3625 27.4383 29.5452 28.6161 29.4942 30.1011C29.4942 31.4325 29.4942 32.8151 29.4431 34.1465C29.4431 35.529 29.392 36.8604 29.4431 38.243C29.4431 41.2643 29.5452 44.2343 29.5452 47.2555C29.5452 49.4574 29.4431 51.7105 29.4431 53.9124C29.4431 57.2409 29.4942 60.6206 29.5452 63.9491C29.5452 65.7413 29.4431 67.5336 29.4431 69.3258C29.4942 73.9345 29.5963 78.5431 29.5963 83.1518C29.5963 86.1218 29.5452 89.0918 29.5452 92.0618C29.5452 94.571 29.6474 97.0801 29.6474 99.5893C29.6985 103.327 29.7496 107.066 29.7496 110.804C29.8006 115.207 29.7496 119.611 29.8006 124.015C29.9028 130.314 29.9539 136.663 30.0561 143.013ZM72.3519 24.2635C72.3519 24.0586 72.403 23.3929 72.3519 22.7785C72.1987 21.2934 71.2792 20.5765 70.0532 20.8838C68.4697 21.2422 67.8567 22.1128 67.8567 23.8026C67.8567 25.1852 67.8567 26.619 67.8567 28.0016C67.8567 35.0682 67.9078 42.186 67.9078 49.2526C67.9078 56.4216 67.9589 63.5394 67.9589 70.7084C67.9589 90.4232 67.9078 110.087 67.8567 129.699C67.8567 133.949 67.7545 138.2 67.7034 142.399C67.6524 146.034 67.6524 149.721 67.4991 153.306C67.448 155.098 68.3164 156.532 70.1043 157.146C71.177 157.505 72.1987 156.378 72.2497 154.791C72.3008 150.131 72.403 145.522 72.4541 140.862C72.5051 135.895 72.5051 130.928 72.5562 126.012C72.6073 122.684 72.7095 119.355 72.7095 115.976C72.7095 114.235 72.5562 112.442 72.5562 110.65C72.5562 108.755 72.8116 106.861 72.8116 104.966C72.8627 97.9506 72.9138 90.884 72.9138 83.8175C72.9138 82.7421 72.8116 81.718 72.8116 80.6426C72.8116 77.1093 72.8627 73.576 72.8627 70.0939C72.8116 62.3616 72.7095 54.5781 72.6584 46.8458C72.6584 43.9782 72.6073 41.1106 72.6073 38.1918C72.6073 36.502 72.7095 34.8121 72.6584 33.1223C72.6584 30.4083 72.5051 27.5407 72.3519 24.2635ZM16.5193 37.9358C16.5193 35.8363 16.5704 33.6856 16.5193 31.5861C16.4683 30.2547 16.0085 29.7426 15.038 29.9475C13.9142 30.1523 13.4033 30.818 13.4033 32.1494C13.3523 35.6827 13.3523 39.2672 13.3523 42.8005C13.3523 47.4603 13.3012 52.1202 13.3012 56.8312C13.3012 60.8766 13.2501 64.922 13.3012 68.9674C13.3523 72.2958 13.5055 75.6755 13.5055 79.004C13.5566 81.5643 13.4544 84.0735 13.5055 86.6339C13.5566 90.628 13.6077 94.6734 13.6587 98.6675C13.7098 102.354 13.6587 106.093 13.7098 109.78C13.812 115.361 13.9142 120.943 14.0163 126.575C14.1185 131.235 14.2717 135.946 14.425 140.606C14.4761 142.091 15.038 143.013 16.0085 143.269C16.928 143.474 17.6431 142.655 17.5921 141.221C17.541 138.456 17.4388 135.69 17.3877 132.925C17.3366 130.109 17.2856 127.292 17.2345 124.527C17.1834 120.431 17.2345 116.385 17.1834 112.289C17.1323 109.114 17.0812 105.939 17.0302 102.764C16.9791 99.4869 16.8769 96.2608 16.8258 92.9836C16.7747 91.1401 16.8769 89.2966 16.8258 87.402C16.8258 84.8928 16.7747 82.3837 16.7237 79.8745C16.7237 76.3412 16.7237 72.7567 16.6726 69.2234C16.6215 64.5635 16.5193 59.9037 16.4683 55.2438C16.5193 52.8883 16.5193 50.584 16.5193 48.2284C16.5193 44.7976 16.5193 41.3667 16.5193 37.9358ZM92.2228 52.7859C92.1717 52.7859 92.1717 52.7859 92.1206 52.7859C92.1206 55.3974 92.0695 57.9578 92.1206 60.5694C92.1717 70.0939 92.2739 79.6185 92.2739 89.143C92.2228 98.9748 92.0695 108.807 91.9163 118.638C91.8652 123.349 91.8652 128.061 91.8141 132.72C91.6609 139.633 91.5076 146.546 91.3033 153.459C91.2522 155.712 91.099 158.017 91.099 160.27C91.099 160.731 91.2522 161.345 91.5587 161.704C92.6825 163.086 95.1345 162.779 95.3388 161.192C95.6964 158.785 96.0028 156.378 96.1561 153.869C96.3604 149.875 96.4115 145.829 96.4115 141.784C96.4626 135.025 96.4626 128.214 96.5647 121.404C96.6158 118.382 96.7691 115.361 96.8202 112.34C96.8712 107.629 96.8202 102.867 96.8712 98.1555C96.9223 93.2908 97.1266 88.4261 97.1777 83.5614C97.1777 80.7962 96.9734 77.9798 96.9734 75.2146C96.9734 69.2234 97.0245 63.1809 96.9734 57.1897C96.9734 53.8612 96.8202 50.5328 96.8202 47.2043C96.8202 44.9 96.9223 42.5956 96.8712 40.3425C96.7691 35.7339 96.5647 31.1764 96.4626 26.619C96.4115 24.4683 96.4626 22.2664 96.4626 20.0645C96.4626 19.3988 96.3093 18.7331 96.105 18.1698C95.7474 17.0944 94.4704 16.8384 93.0401 17.2993C91.8652 17.6577 91.8652 18.5795 91.8652 19.5524C91.9163 21.3959 91.9163 23.2393 91.9163 25.0828C91.9163 34.3513 92.0695 43.5686 92.2228 52.7859ZM40.5279 107.731C41.9581 107.731 42.52 107.373 42.52 105.888C42.5711 101.945 42.5201 97.9507 42.469 94.0077C42.469 92.2154 42.3157 90.4232 42.3668 88.5797C42.3668 86.9411 42.52 85.3537 42.52 83.715C42.5711 81.5131 42.5201 79.3112 42.469 77.1093C42.4179 75.061 42.3668 73.0127 42.3157 71.0156C42.2646 69.4794 41.4984 68.7113 40.2724 68.7625C39.1486 68.8137 38.2802 69.8379 38.2802 71.1693C38.2802 73.4736 38.2802 75.8291 38.2802 78.1335C38.2802 80.4378 38.4335 82.7421 38.4335 84.9952C38.4335 88.8358 38.3824 92.7275 38.3824 96.5681C38.3824 99.282 38.4335 101.996 38.3824 104.659C38.3313 106.553 39.0976 107.731 40.5279 107.731ZM61.4204 27.2335H61.4714C61.4714 26.363 61.4204 25.4924 61.4714 24.6219C61.5736 23.2905 60.9606 22.676 60.1433 22.3176C58.6619 21.7031 57.0784 23.2905 57.0784 25.39C57.0784 28.8721 57.1806 32.3542 57.2316 35.8363C57.2316 39.2672 57.2316 42.6981 57.2316 46.0777C57.2316 50.7376 57.2316 55.3975 57.2827 60.1085C57.2827 61.952 58.2533 63.0785 59.7857 63.0785C60.8585 63.0785 62.0844 61.7984 62.0844 60.6206C62.0844 57.9066 62.0333 55.1926 61.9823 52.4786C61.9312 50.4816 61.7269 48.4845 61.7269 46.4874C61.7269 42.9029 61.8801 39.2672 61.829 35.6827C61.7779 32.8663 61.5736 30.0499 61.4204 27.2335ZM42.52 125.91C42.5711 125.91 42.6222 125.91 42.6733 125.961C42.6733 125.039 42.6733 124.118 42.6733 123.196C42.6733 120.687 42.7244 118.178 42.7244 115.668C42.7244 113.774 42.0603 112.954 40.5789 112.801C39.0976 112.647 38.4335 113.364 38.4846 115.156C38.4846 116.488 38.5357 117.87 38.5357 119.202C38.5867 124.015 38.5867 128.777 38.6378 133.591C38.6378 137.892 38.6889 142.143 38.6378 146.444C38.6378 147.417 38.7911 148.134 39.353 148.851C39.9149 149.568 41.3452 150.284 41.8049 149.772C42.2136 149.363 42.3668 148.441 42.5711 147.673C42.6733 147.366 42.6222 146.905 42.6222 146.546C42.6222 144.754 42.6733 143.013 42.6733 141.221C42.6733 139.941 42.52 138.66 42.52 137.38C42.469 133.54 42.52 129.699 42.52 125.91ZM62.0334 71.9374C62.0334 71.5789 62.0334 71.2205 62.0334 70.9132C61.9312 69.6331 60.9606 68.4041 60.0412 68.3529C58.7641 68.2505 57.9468 68.9162 57.7935 70.5036C57.5892 72.9615 57.4871 75.4707 57.436 77.9286C57.3849 81.7692 57.5381 85.6097 57.5381 89.4502C57.5381 91.7546 57.436 94.0589 57.436 96.4144C57.436 99.7429 57.4871 103.071 57.436 106.4C57.436 107.782 58.1 109.421 59.0706 109.728C60.7563 110.24 61.6758 109.626 61.829 107.629C61.9823 104.659 62.0334 101.689 62.0334 98.6675C62.0334 96.5168 61.8801 94.3149 61.8801 92.1642C61.9312 87.914 62.0333 83.715 62.0844 79.4648C62.0333 76.9045 62.0334 74.3953 62.0334 71.9374ZM57.2827 134.717C57.2316 140.248 57.2316 145.778 57.2316 151.309C57.2316 151.872 57.2827 152.589 57.5892 153.05C58.2533 154.227 59.2238 154.637 60.2455 154.432C61.165 154.279 61.6247 153.459 61.6758 152.333C61.829 149.619 61.9312 146.905 61.9312 144.14C61.9823 138.302 61.9823 132.464 62.0334 126.575C62.0334 123.81 62.0844 121.045 62.0844 118.229C62.0844 116.18 61.3693 115.259 59.8879 115.105C58.5087 114.951 57.3338 116.129 57.3338 117.614C57.2827 123.349 57.2827 129.033 57.2827 134.717ZM25.4587 117.205H25.4076C25.4076 116.539 25.4076 115.822 25.4076 115.156C25.4076 114.491 25.5098 113.774 25.3565 113.108C25.2033 112.34 24.9479 111.418 24.4881 110.957C23.2111 109.626 21.7297 110.548 21.7297 112.647C21.6786 114.849 21.7808 117.102 21.7808 119.304C21.8319 121.813 21.8829 124.322 21.934 126.832C21.9851 130.621 22.0873 134.359 22.1383 138.148C22.1894 139.889 22.2405 141.682 22.3427 143.423C22.3427 143.781 22.547 144.191 22.7513 144.447C23.8241 146.137 25.3054 145.932 25.5098 143.935C25.7652 141.733 25.7652 139.377 25.7652 137.073C25.7652 134.205 25.5608 131.235 25.5098 128.368C25.4076 124.63 25.4587 120.943 25.4587 117.205ZM42.1114 31.8933C42.0603 31.8933 42.0603 31.8933 42.0092 31.8933C42.0092 30.4595 42.0603 28.9745 42.0092 27.5407C41.9581 25.9533 40.9365 25.134 39.8127 25.5948C38.74 26.0045 38.2802 26.7726 38.2802 28.2064C38.2802 30.1523 38.3824 32.0982 38.3824 33.9928C38.3313 39.1648 38.2292 44.3879 38.2292 49.5598C38.2292 53.4516 38.3824 57.3433 38.4846 61.1839C38.5357 62.464 39.2508 63.7442 40.0681 63.7954C41.4473 63.8466 42.3157 62.8737 42.3668 61.1839C42.3668 59.6989 42.3668 58.2138 42.3157 56.7288C42.2646 55.0902 42.1625 53.4516 42.1625 51.8129C42.1625 49.9695 42.2646 48.126 42.2646 46.2826C42.2646 43.6198 42.1625 40.957 42.1625 38.2942C42.0603 36.1947 42.1114 34.044 42.1114 31.8933ZM25.2033 100.357C25.1011 100.357 25.05 100.357 24.9479 100.306C24.9479 97.4386 24.9479 94.5198 24.9479 91.6522C24.9479 87.6068 24.9479 83.5102 24.9479 79.4648C24.9479 76.8533 24.9479 74.2417 24.9479 71.6301C24.9479 70.6572 24.3349 69.6331 23.6708 69.4282C22.7003 69.121 21.8829 69.5306 21.6786 70.6572C21.4743 71.6813 21.5254 72.7567 21.5254 73.832C21.5254 78.3383 21.6275 82.7933 21.6275 87.2995C21.6275 91.7546 21.6275 96.2096 21.6275 100.665C21.6275 101.689 21.5764 102.662 21.6275 103.686C21.6786 104.71 22.3938 105.581 23.1089 105.683C24.0284 105.837 24.8457 105.273 24.9479 104.198C25.1011 102.918 25.1522 101.586 25.2033 100.357ZM21.3721 53.9636C21.4232 53.9636 21.4232 53.9636 21.3721 53.9636C21.3721 56.5752 21.3721 59.1356 21.4232 61.7471C21.4232 62.464 21.6786 63.2322 21.934 63.7954C22.3938 64.7684 23.2111 64.5123 23.8241 64.1539C24.2327 63.8978 24.7435 63.0785 24.7435 62.464C24.8457 59.5964 24.7946 56.7288 24.7946 53.8612C24.7946 50.2255 24.7946 46.641 24.7435 43.0053C24.6924 38.8575 24.6414 34.7609 24.6414 30.6132C24.6414 29.1281 24.0284 28.36 22.9557 28.5137C21.8319 28.6673 21.27 29.6402 21.27 31.1252C21.27 34.8634 21.321 38.6015 21.321 42.3908C21.4232 46.2314 21.3721 50.1231 21.3721 53.9636ZM9.41895 80.5914C9.36786 80.5914 9.31678 80.5914 9.21462 80.5914C9.21462 77.6214 9.21462 74.7026 9.21462 71.7326C9.21462 70.4524 8.7038 69.7355 7.78432 69.6843C6.86485 69.6331 6.30295 70.2988 6.30295 71.5789C6.30295 76.034 6.30295 80.5402 6.35403 84.9952C6.40511 89.0918 6.50728 93.1372 6.55836 97.2337C6.60944 98.8212 6.55836 100.46 6.7116 102.047C6.81377 103.379 7.42675 103.993 8.29514 103.993C9.06137 103.993 9.52111 103.276 9.52111 102.047C9.52111 99.3332 9.47003 96.6705 9.41895 93.9565C9.41895 89.5015 9.41895 85.0464 9.41895 80.5914ZM79.1969 141.272C79.1969 141.272 79.1458 141.272 79.1969 141.272C79.1458 143.423 79.1458 145.625 79.1458 147.775C79.0947 151.001 79.0436 154.176 78.9415 157.351C78.8904 158.324 79.299 158.99 80.0653 159.451C82.0064 160.526 83.8453 159.348 83.8964 156.993C83.9475 154.535 84.1008 152.077 84.1008 149.619C84.2029 140.094 84.254 130.518 84.254 120.943C84.254 120.226 83.7943 119.15 83.2324 118.69C81.5977 117.205 79.6055 118.28 79.4523 120.635C79.3501 122.376 79.248 124.118 79.248 125.91C79.1969 131.031 79.1969 136.151 79.1969 141.272ZM9.16354 47.7676C9.16354 47.7676 9.11245 47.7676 9.16354 47.7676C9.16354 42.9029 9.16354 38.0382 9.16354 33.1223C9.16354 32.3542 9.11245 31.5861 8.55055 31.3301C7.58 30.8692 6.40511 31.9958 6.35403 33.5832C6.30295 35.017 6.35403 36.4508 6.35403 37.8334C6.30295 42.4932 6.30295 47.1531 6.25186 51.8129C6.25186 55.3462 6.25186 58.8283 6.20078 62.3616C6.20078 63.7442 6.55836 64.666 7.32459 64.8708C8.34622 65.1268 9.21462 64.0515 9.21462 62.5153C9.16354 57.5994 9.16354 52.6835 9.16354 47.7676ZM84.3051 27.2847C84.2029 27.2847 84.1007 27.2847 84.0497 27.3359C84.0497 25.39 84.1007 23.4441 84.0497 21.4983C83.9986 19.5524 83.1302 18.7331 81.4956 19.0403C79.912 19.3476 79.299 20.2181 79.299 22.164C79.4012 28.0016 79.5545 33.788 79.6055 39.6256C79.6566 46.3338 79.6566 52.9907 79.7077 59.6989C79.7077 61.2351 80.2185 61.952 81.4956 62.2592C82.6705 62.5665 83.5388 62.1056 84.0497 60.6718C84.3051 60.0061 84.2029 59.1868 84.2029 58.4699C84.254 52.8883 84.254 47.3067 84.254 41.7251C84.254 36.9628 84.254 32.1494 84.3051 27.2847ZM9.67435 113.006C9.67435 112.34 9.72544 111.623 9.67435 110.957C9.62327 109.319 8.85704 108.192 7.73324 108.243C6.81377 108.295 6.40511 109.267 6.55836 110.855C6.66052 111.879 6.76268 112.903 6.76268 113.927C6.86485 117.512 6.86485 121.096 6.96701 124.681C7.01809 127.907 7.17134 131.133 7.2735 134.308C7.32459 135.946 7.37567 137.585 7.47783 139.224C7.52891 139.633 7.73324 140.299 7.93757 140.453C8.44839 140.811 9.01029 141.067 9.52111 141.067C10.083 141.016 10.3384 140.248 10.3384 139.377C10.2873 137.431 10.2873 135.486 10.2363 133.54C10.0319 126.678 9.8276 119.816 9.67435 113.006ZM79.6055 89.9623H79.6566C79.6566 96.4656 79.6055 102.969 79.6055 109.472C79.6055 110.65 79.8609 111.674 80.9847 112.135C82.3129 112.647 83.3345 112.237 83.7432 110.855C83.9475 110.138 84.1008 109.37 84.1008 108.602C84.1518 105.324 84.0497 101.996 84.1008 98.7188C84.1008 95.9024 84.254 93.1372 84.254 90.3208C84.254 87.2996 84.1518 84.2271 84.1518 81.2059C84.1518 77.519 84.2029 73.8833 84.1008 70.1963C84.0497 68.5577 83.2324 67.892 81.6488 67.9944C80.4229 68.0456 79.6566 69.0186 79.6566 70.4524C79.6566 76.9557 79.6566 83.459 79.6055 89.9623ZM105.657 42.8005C105.759 42.8005 105.913 42.8005 106.015 42.7493C106.015 48.2284 105.964 53.7588 105.964 59.238C105.964 59.8525 106.321 60.8766 106.73 60.979C107.394 61.1839 108.365 61.0302 108.875 60.5182C109.488 59.9549 109.999 58.9307 109.999 58.1114C110.153 53.2467 110.153 48.3309 110.153 43.4662C110.101 38.3454 109.948 33.2247 109.846 28.104C109.795 26.5166 109.846 24.9292 109.744 23.3929C109.591 20.935 109.437 18.4258 109.131 16.0191C108.978 14.995 107.445 14.5853 106.424 15.0462C105.504 15.4558 104.84 16.0191 104.891 17.1969C105.044 20.2181 105.147 23.1881 105.249 26.2093C105.351 31.7397 105.504 37.2701 105.657 42.8005ZM104.278 157.709C104.227 157.709 104.176 157.658 104.125 157.658C104.023 159.553 103.921 161.396 103.869 163.291C103.869 163.752 103.921 164.469 104.227 164.827C105.606 166.415 108.16 165.954 108.365 164.059C108.569 161.652 108.824 159.194 108.875 156.737C109.029 152.23 109.131 147.673 109.233 143.115C109.335 137.227 109.488 131.338 109.591 125.449C109.591 124.732 109.591 123.862 109.233 123.247C108.875 122.53 108.16 121.66 107.547 121.506C106.526 121.301 105.606 121.813 105.555 123.145C105.504 124.066 105.453 124.988 105.453 125.91C105.044 136.561 104.636 147.161 104.278 157.709ZM105.913 91.4985C105.862 91.4985 105.811 91.4985 105.811 91.4985C105.759 98.6675 105.759 105.785 105.708 112.903C105.708 114.388 106.372 115.054 107.65 114.695C108.875 114.388 109.693 113.671 109.693 112.135C109.693 110.599 109.846 109.114 109.846 107.578C109.948 98.5651 109.999 89.5015 110.101 80.489C110.101 77.2117 110.153 73.9857 110.101 70.7084C110.101 69.1722 108.722 67.892 107.19 68.0456C105.657 68.148 105.964 69.4794 105.964 70.5036C105.964 77.4678 105.964 84.4831 105.913 91.4985ZM2.98262 61.3887C2.88046 62.0032 2.57397 62.8737 2.72721 63.1297C3.23803 64.0003 2.77829 64.666 2.67613 65.3829C2.62505 65.6389 2.57396 66.0998 2.62505 66.151C3.13587 66.5094 2.88046 66.8679 2.67613 67.2775C2.62505 67.4312 2.4718 67.6872 2.52288 67.8408C2.77829 68.8649 2.42072 69.8891 2.52288 70.862C2.67613 72.2446 2.21639 73.6272 2.77829 74.9586C2.82938 75.0098 2.82938 75.2146 2.77829 75.2658C2.26747 75.7779 2.4718 76.4948 2.52288 77.2117C2.57397 79.8233 2.52288 82.4349 2.52288 85.0464C2.52288 86.1218 2.4718 87.1971 2.52288 88.3237C2.57397 89.3478 2.72721 90.372 2.77829 91.3961C2.82938 92.5227 2.88046 93.6492 2.93154 94.7758C3.0337 94.7758 3.08478 94.7758 3.18695 94.827C3.23803 94.2125 3.28911 93.6492 3.28911 93.0348C3.28911 92.2666 3.23803 91.5497 3.23803 90.7816C3.23803 88.2213 3.28911 85.6097 3.28911 83.0493C3.28911 80.9499 3.23803 78.8504 3.28911 76.7509C3.28911 74.9586 3.34019 73.1664 3.39128 71.3741C3.39128 70.9644 3.54452 70.5036 3.49344 70.1451C3.18695 68.4553 3.34019 66.8167 3.44236 65.1268C3.49344 63.7954 3.69777 62.5153 2.98262 61.3887ZM38.0248 67.636C38.8421 67.3287 39.5573 66.8167 40.3235 66.8167C41.0898 66.8167 41.856 67.3287 42.6733 67.636C42.6733 66.4582 42.6733 65.0244 42.6733 63.5394C40.7322 65.2804 39.4551 65.3316 38.0759 63.7442C38.0248 65.178 38.0248 66.5094 38.0248 67.636ZM20.7591 69.0186C21.5764 67.2775 22.6492 67.2775 23.773 67.6872C24.0284 67.7896 24.2838 67.7896 24.5903 67.892C24.6414 67.3287 24.6924 66.7142 24.6924 66.151C24.6414 65.6901 24.4881 65.2804 24.386 65.0244C23.8751 65.2292 23.2111 65.6901 22.5981 65.6901C21.9851 65.6901 21.3721 65.2292 20.7591 64.9732C20.7591 66.2022 20.7591 67.4824 20.7591 69.0186ZM89.4644 90.628C89.6176 90.6792 89.8219 90.7816 89.9752 90.8328C90.0773 90.4232 90.2306 89.9623 90.2817 89.5527C90.3838 88.3749 90.3838 87.2483 90.486 86.0706C90.5371 85.0976 90.7414 84.1247 90.6903 83.203C90.6392 81.4107 90.6392 79.6185 90.3327 77.9286C90.2306 77.4678 90.8436 75.9827 89.4644 76.1876C89.5154 81.0011 89.5154 85.8145 89.4644 90.628ZM44.9209 98.0019C45.0741 98.0019 45.1763 98.0019 45.3296 98.0531C45.9936 94.4686 45.4828 90.7816 45.5339 86.9923C45.2274 87.0947 44.8698 87.2483 44.8187 87.5556C44.7166 88.0677 44.8187 88.6309 44.8187 89.1942C44.8698 91.2425 44.9209 93.342 44.972 95.3903C44.972 96.2608 44.9209 97.1313 44.9209 98.0019ZM22.9557 107.885C22.9557 108.704 24.1305 109.728 24.6414 109.626C24.6414 108.807 24.6414 108.038 24.6414 107.219C23.2622 108.346 22.1894 107.424 21.1167 106.246C21.1678 107.526 21.934 108.243 22.9557 107.885ZM55.5459 93.5468C55.4438 93.5468 55.3927 93.5468 55.2905 93.5468C55.2395 93.598 55.1884 93.6492 55.1884 93.7004C55.0862 96.4144 54.984 99.1284 54.933 101.842C54.933 102.047 55.2905 102.354 55.5459 102.662C55.4949 99.4357 55.5459 96.4656 55.5459 93.5468ZM27.1444 99.0772C27.0933 98.9748 27.0422 98.9236 26.9401 98.8212C26.7868 99.0772 26.4803 99.3332 26.4803 99.5893C26.4292 100.665 26.4803 101.74 26.5825 102.815C26.5825 103.071 26.8379 103.276 26.9911 103.532C27.0422 103.481 27.0933 103.43 27.1444 103.379C27.1444 101.945 27.1444 100.511 27.1444 99.0772ZM66.3242 52.7859C66.171 52.7347 66.0688 52.6835 65.9156 52.6323C65.6091 53.2467 65.1493 53.9124 65.1493 54.5269C65.1493 55.039 65.7113 55.5511 65.9667 56.0631C66.0688 56.0119 66.171 55.9607 66.3242 55.9095C66.3242 54.8342 66.3242 53.81 66.3242 52.7859ZM90.8436 95.7487C89.3622 96.7217 89.26 98.1043 90.2306 99.0772C90.0773 99.5381 89.9752 99.8965 89.8219 100.255C90.3327 100.204 90.7925 99.9989 90.7925 99.6917C90.8436 98.4627 90.7925 97.1825 90.8436 95.7487ZM65.6602 112.954C65.7623 112.954 65.8645 113.006 65.9667 113.006C65.9667 112.237 65.9667 111.469 65.9667 110.65C65.9667 109.728 65.9667 108.807 66.0177 107.936C66.0688 107.168 66.1199 106.4 66.171 105.632C66.0177 105.632 65.8134 105.581 65.6602 105.581C65.6602 108.038 65.6602 110.496 65.6602 112.954ZM7.47783 105.99C8.03973 106.349 8.55055 106.605 9.16354 106.963C9.11245 106.553 9.01029 106.195 8.90813 105.734C8.44839 106.041 7.8354 105.273 7.47783 105.99ZM26.9911 46.0777C26.9911 45.4632 26.9911 44.8488 26.9911 44.0807C26.5825 44.3367 26.2249 44.5927 25.8162 44.8488C26.276 45.3608 26.6336 45.6681 26.9911 46.0777ZM19.3799 135.025C19.3799 134.82 19.431 134.615 19.431 134.41C19.1245 134.205 18.8691 134.001 18.5626 133.796C18.5115 134.154 18.4094 134.461 18.3583 134.82C18.7159 134.871 19.0224 134.922 19.3799 135.025ZM89.1068 68.8649C90.486 68.8137 90.486 68.6601 89.3622 66.3558C89.26 67.2263 89.1579 68.0456 89.1068 68.8649ZM45.8404 144.805C45.8404 144.652 45.8915 144.549 45.8915 144.396C45.3806 144.088 44.8698 143.832 44.2057 143.474C44.4101 144.242 44.5633 144.652 44.7166 145.113C45.1252 145.01 45.4828 144.908 45.8404 144.805ZM88.8003 60.7742C88.9025 61.7471 88.9535 62.5665 89.0557 63.6418C90.0263 61.1839 90.0263 61.1839 88.8003 60.7742ZM77.5623 99.1284C78.4817 97.6946 78.3285 96.4144 77.3579 96.1072C77.4601 97.0801 77.5112 98.1043 77.5623 99.1284ZM3.18695 57.2921C3.28911 57.2921 3.34019 57.2409 3.44236 57.2409C3.39128 56.3704 3.34019 55.4999 3.34019 54.6293C3.23803 54.6293 3.13587 54.6805 3.0337 54.6805C3.08478 55.5511 3.13587 56.4216 3.18695 57.2921ZM89.2089 71.8862C89.26 72.7567 89.3111 73.6784 89.3622 74.549C90.5371 73.9857 90.5882 73.4224 89.2089 71.8862ZM35.7772 141.835C36.237 142.757 35.7262 143.679 36.6456 144.191C36.5945 143.525 36.5435 142.962 36.4924 142.194C36.4924 142.194 36.288 142.091 35.7772 141.835ZM118.326 88.3749C118.275 87.6068 118.275 87.0947 118.121 86.5826C117.968 86.0706 117.713 85.6097 117.457 85.1488C117.355 85.2001 117.253 85.2513 117.151 85.3025C117.559 86.2754 116.793 87.658 118.326 88.3749ZM27.1444 47.1019C26.6846 47.0507 26.3781 46.9995 26.0717 46.9483C25.9184 48.3309 26.889 47.6652 27.3487 48.0748C27.2465 47.6652 27.1955 47.3067 27.1444 47.1019ZM42.1625 153.306C41.4473 153.101 40.8343 152.947 40.1192 152.742C40.7833 153.767 41.6006 153.971 42.1625 153.306ZM40.1192 22.1128C40.5789 21.9591 40.9365 21.8567 41.2941 21.7031C41.3452 21.6007 41.3452 21.4471 41.3962 21.3447C41.0898 21.191 40.7322 21.0374 40.3746 20.8326C40.2724 21.3959 40.1703 21.7031 40.1192 22.1128ZM35.7772 43.5174C35.8283 43.415 35.8794 43.3125 35.9305 43.2101C35.8794 43.1589 35.7772 43.1077 35.7261 43.1077C35.6751 43.1077 35.624 43.2101 35.5729 43.3125C35.6751 43.3638 35.7261 43.415 35.7772 43.5174ZM35.7772 111.111L35.8283 111.162C35.8283 111.111 35.8794 111.111 35.8794 111.06L35.8283 111.008C35.7772 111.06 35.7772 111.06 35.7772 111.111ZM18.6137 43.7734L18.6648 43.7222H18.6137V43.7734ZM76.7449 56.3704L76.6939 56.4728H76.7449V56.3704ZM18.6137 106.912V106.963V106.912Z" fill="#FDF2E5"/>
</svg>
