<svg width="282" height="208" viewBox="0 0 282 208" fill="none" xmlns="http://www.w3.org/2000/svg">
<g clip-path="url(#clip0)">
<path d="M139.556 37.6846C138.196 38.343 137.139 37.6339 135.93 36.9248C135.678 37.33 135.325 37.7352 135.124 38.1404C134.872 38.6976 134.771 39.3561 134.519 39.9132C134.267 40.4704 134.519 40.8249 134.922 41.0782C135.93 41.686 136.987 42.2938 137.995 42.9016C138.448 43.1549 138.851 43.4082 139.254 43.7121C140.211 44.3199 140.262 44.8264 139.405 45.6368C139.607 45.6875 139.808 45.6875 140.111 45.7381C139.808 45.8901 139.607 46.0927 139.456 46.042C138.801 45.9407 138.196 46.194 137.844 46.8018C138.599 46.5992 138.146 47.207 138.297 47.4603C138.448 47.7642 138.65 48.0174 138.801 48.3213C138.045 48.4226 137.995 48.5239 138.196 49.233C137.844 49.4863 137.491 49.7396 137.189 49.9928C137.189 50.0435 137.239 50.0941 137.239 50.0941C137.441 50.0435 137.693 50.0435 137.894 49.9928C138.348 51.3604 138.297 51.715 137.693 52.0189C137.693 51.4617 137.693 50.8539 137.693 50.2967C137.34 50.4487 137.088 51.2591 137.189 51.715C137.441 52.6773 137.088 53.4877 136.232 53.9943C135.678 54.2982 135.124 54.7034 134.721 55.1592C134.267 55.6658 133.764 55.9697 133.31 55.8177C132.857 56.4255 132.454 56.8814 132.001 57.4385C131.9 57.1346 131.799 56.9827 131.749 56.7294C131.295 57.4385 130.943 58.0464 130.489 58.6542C130.137 59.11 129.734 59.4646 129.18 58.8568C128.777 59.3126 128.374 59.7685 127.971 60.1737C128.122 59.6165 128.273 59.0594 128.021 58.4516C127.87 59.0087 127.971 59.6672 127.114 59.6672C127.467 60.2244 127.467 60.2244 127.971 60.1737C127.719 60.5283 127.467 60.8828 127.114 61.288C126.913 60.9335 127.568 60.427 126.762 60.4776C126.762 61.1361 126.51 61.6426 125.805 61.7945C125.251 61.9465 124.747 62.0985 124.193 62.2504C124.646 61.7439 125.15 61.1867 125.553 60.7309C125.452 60.4776 125.351 60.2244 125.2 59.9205C124.999 60.0218 124.797 60.1737 124.545 60.3257C124.747 60.4776 124.898 60.5789 124.999 60.6802C124.848 60.7815 124.697 60.8322 124.545 60.9335C124.294 61.0854 124.092 61.2374 123.84 61.3387C123.891 61.3893 123.891 61.44 123.941 61.4906C124.092 61.44 124.193 61.3387 124.344 61.288C124.243 61.5919 124.193 61.8959 124.092 62.1998C124.092 62.3517 124.092 62.5037 124.092 62.605C123.991 62.605 123.79 62.605 123.74 62.6556C123.538 62.9089 123.387 63.1621 123.185 63.4154C123.135 63.3647 123.085 63.3141 123.085 63.2634C123.135 63.466 123.185 63.6686 123.185 63.8713C123.488 63.4154 123.79 62.9595 124.092 62.5543C124.243 62.9595 124.142 63.3141 123.79 63.5673C123.488 63.8206 123.286 64.1245 122.984 64.3271C122.782 64.4791 122.531 64.4791 122.228 64.5297C122.077 65.3401 121.422 65.7453 120.667 65.3908C120.163 66.3532 119.458 67.1636 118.652 67.5688C118.299 67.822 118.047 68.0247 117.796 68.1766C117.241 68.5818 116.436 68.7338 116.133 69.5442C116.033 69.7468 115.68 70 115.428 70C114.773 70 114.572 70.3546 114.421 70.9118C114.32 71.165 114.068 71.317 113.917 71.4689C113.766 71.2663 113.715 71.1144 113.615 70.9624C113.514 71.1144 113.363 71.2663 113.363 71.4183C113.363 71.9754 112.758 72.4819 112.053 72.3806C112.204 72.8365 111.952 72.8365 111.6 72.9885C111.146 73.1404 110.844 73.7482 110.441 74.0521C109.484 74.8626 108.477 75.5717 107.52 76.3821C107.217 76.6354 106.915 76.9393 106.613 77.1925C106.462 77.3445 106.21 77.3445 106.008 77.4458C105.857 77.4964 105.706 77.5977 105.605 77.699C105.152 78.1549 104.749 78.6107 104.296 79.1173C104.145 79.2692 103.994 79.3705 103.792 79.5731C103.842 79.1679 103.842 78.9147 103.842 78.6107C103.691 79.0666 102.885 79.1173 103.036 79.877C103.087 80.0796 102.533 80.3835 102.23 80.6368C101.223 81.4979 100.266 82.4096 99.0066 82.8655C98.9059 82.9161 98.9059 83.1694 98.7548 83.2707C98.251 83.6759 97.6466 84.0304 97.1428 84.4356C96.9917 84.5369 96.891 84.6889 96.7902 84.8915C96.4376 85.398 95.9843 85.7526 95.5309 85.7526C94.4227 87.0189 93.4657 88.3358 91.7026 88.4877C91.8034 88.6903 91.8537 88.8929 91.9545 89.0956C90.5944 89.4501 89.7885 90.5138 88.8818 91.4255C88.781 91.2229 88.7306 91.1216 88.6803 91.0203C88.6299 91.0203 88.5795 91.0203 88.5292 91.0203C88.5292 91.2736 88.4788 91.4762 88.4788 91.7294C88.4284 91.6788 88.4284 91.6281 88.378 91.6281C87.7736 92.1853 87.1691 92.7424 86.5143 93.4009L86.3631 93.249C85.3557 94.2113 84.3482 95.1737 83.2904 96.1867C83.1393 95.8828 83.0386 95.7309 82.9378 95.5283C82.6859 95.6296 82.4845 95.6802 82.3333 95.7815C82.0815 95.4776 81.8296 95.2243 81.6281 94.9204C81.5777 94.8191 81.6785 94.6672 81.6785 94.5659C81.6785 94.3126 81.7289 94.0087 81.6281 93.7555C81.5777 93.6035 81.3259 93.5529 81.1244 93.4516C81.074 93.6542 80.9733 93.8061 80.9733 94.0087C80.9733 94.1607 81.1244 94.3633 81.074 94.4139C80.671 95.0217 80.671 95.6296 80.9229 96.3387C80.9733 96.3387 81.074 96.3893 81.3259 96.44C81.074 96.5413 80.9733 96.5919 80.7718 96.6426C81.0237 96.7945 81.2251 96.9465 81.6281 97.2504C81.1244 97.4024 80.7214 97.5543 80.3688 97.6556C80.2681 96.7945 80.1673 96.0348 80.1169 95.275C80.1169 95.0724 80.1169 94.8191 80.1169 94.6165C80.1169 94.4139 80.117 94.2113 80.0162 94.0087C79.8651 93.7555 79.6132 93.5022 79.311 93.1476C79.2102 94.0087 79.6636 94.8698 78.9584 95.427C79.1095 95.9335 79.2606 96.44 79.4117 96.9465C76.339 94.8191 73.367 92.5905 70.4958 90.2099C70.5462 90.1592 70.5462 90.0579 70.5966 90.0073C70.7477 90.0073 70.8988 90.0579 71.1507 90.0579C70.7477 89.1969 69.841 89.3995 69.2869 88.9943C69.3372 88.6903 69.5891 88.2345 68.8335 88.4877C68.5817 88.589 68.1787 88.3358 67.8261 88.2345C68.0276 87.8799 68.1787 87.6267 68.3298 87.3734C67.6246 87.4747 67.1712 87.5254 67.1209 86.6136C67.0705 86.1071 66.6675 86.4617 66.466 86.7149C65.7608 86.1578 65.0052 81.3966 65.4586 80.5355C65.6097 80.5862 65.8112 80.6875 65.9623 80.7381C65.9623 80.7381 66.0127 80.6875 66.0127 80.6368C65.8615 80.3835 65.66 80.0796 65.4586 79.8264C64.8037 78.9653 65.3074 78.4588 66.3149 78.0029C67.0201 77.699 67.6246 77.0912 68.2794 76.6354C68.4305 76.5341 68.632 76.3821 68.7831 76.2808C68.8335 76.3315 68.8839 76.3821 68.9343 76.3821C68.9343 76.1795 68.9343 76.0275 68.9846 75.7236C69.2869 75.673 69.5891 75.6223 69.8913 75.521C70.0425 75.4704 70.3447 75.3691 70.3447 75.2171C70.4454 74.4574 71.1506 74.3561 71.604 74.0015C71.7047 73.9002 71.9566 74.0015 72.2085 74.0521C72.2085 73.3937 72.7122 73.1911 73.3167 73.0898C73.4174 73.0898 73.4678 73.0391 73.5182 72.9378C73.8204 72.482 74.173 72.0261 74.8782 72.2287C74.979 72.2287 75.2308 71.9248 75.2812 71.7222C75.3819 71.165 75.6842 70.8105 76.3894 70.7092C76.339 70.9118 76.339 71.1144 76.2886 71.317C76.339 71.317 76.3894 71.3676 76.4398 71.3676C76.6413 70.9624 76.7924 70.5572 77.0442 70.152C77.145 70 77.2457 69.8987 77.3968 69.7974C78.6561 68.9364 79.8651 68.0247 81.1748 67.1636C81.9807 66.6064 82.7867 66.1506 83.5926 65.644C84.0964 65.2895 84.5497 64.783 85.1038 64.4284C85.5572 64.1245 86.1113 63.9725 86.615 63.7193C86.8669 63.618 87.0684 63.4154 87.2195 63.2128C87.3706 63.0608 87.3706 62.8076 87.5217 62.7063C88.2773 62.1998 89.0833 61.6932 89.8892 61.1867C89.99 61.1361 90.1411 61.0854 90.2418 60.9841C90.6952 60.4776 91.2493 60.2244 91.8034 59.9205C92.3071 59.6672 92.8612 59.4646 93.3145 59.11C93.4153 59.0087 93.6168 58.9074 93.6671 58.8061C93.7679 58.097 94.1205 58.249 94.5739 58.6035C94.8761 58.1983 95.1783 57.7931 95.4806 57.3879C95.682 57.1853 95.9339 57.0333 96.1858 56.8307C96.2361 56.7801 96.3873 56.7294 96.3873 56.7294C96.3369 55.6658 97.3947 55.919 97.8481 55.7164C98.3518 55.5138 98.251 55.0073 98.654 54.8553C99.1074 54.7034 99.46 54.3488 99.863 54.0956C100.216 53.893 100.619 53.7917 100.971 53.5891C101.173 53.4371 101.324 53.1838 101.425 52.9306C101.727 52.3734 102.18 52.2721 102.785 52.4241C102.785 52.576 102.734 52.7786 102.684 53.1838C103.036 52.9306 103.389 52.8293 103.49 52.6267C103.893 51.9176 103.994 51.8669 104.951 52.2215C104.85 51.8669 104.749 51.6137 104.648 51.3097C104.699 51.2591 104.85 51.2084 105.051 51.0565C105.102 51.2084 105.202 51.411 105.253 51.563C106.059 50.9552 106.008 50.8539 105.102 50.1954C105.253 49.6383 106.26 50.2967 106.109 49.385C107.016 49.6383 107.771 49.4356 107.771 48.8278C107.771 48.0681 108.225 47.8655 108.729 47.5616C109.232 47.2576 109.686 46.9031 110.189 46.6498C110.391 46.5485 110.592 46.4979 110.794 46.3966C111.046 46.2446 111.449 46.2953 111.7 46.2446C112.053 46.042 112.456 45.8394 112.708 45.5355C112.96 45.1809 113.061 44.7251 113.715 45.029C113.564 43.864 114.37 43.9147 115.075 43.9147C115.075 43.6614 115.025 43.4588 115.075 43.3575C115.327 43.0536 115.982 43.0536 116.385 43.2056C116.385 43.3575 116.385 43.5095 116.385 43.6614C116.385 43.7121 116.436 43.7627 116.486 43.9653C116.788 43.7121 116.99 43.4588 117.241 43.2562C117.292 43.2056 117.393 43.0536 117.443 43.0536C118.098 43.0029 118.299 42.5471 118.4 41.9899C118.45 41.686 118.753 41.4834 119.055 41.2808C119.055 41.4328 119.055 41.5847 119.055 41.7367C119.055 41.9393 119.105 42.1419 119.105 42.3445C119.357 42.2432 119.609 42.1419 119.76 41.9899C120.062 41.7367 120.365 41.1288 120.616 41.1288C121.12 41.1795 121.422 40.9262 121.725 40.6223C121.775 40.5717 121.422 40.1158 121.221 39.7613C121.523 39.508 121.825 39.2548 122.128 39.0521C122.228 39.0015 122.379 38.9508 122.379 38.9002C122.43 38.343 122.732 38.3937 123.185 38.495C123.639 38.5963 124.042 38.1404 123.991 37.5326C124.142 37.482 124.243 37.482 124.445 37.4313C124.394 37.2287 124.344 37.0768 124.294 36.8741C125.301 36.3676 126.258 36.165 127.266 36.9248C127.719 37.2794 128.273 37.482 128.726 37.7352C128.978 37.8872 129.28 38.0898 129.482 38.343C130.187 39.3561 131.799 39.3054 132.353 38.1911C132.555 37.8365 132.655 37.4313 132.907 37.0767C133.814 35.9118 134.217 34.7974 133.31 33.3792C132.907 32.7207 132.756 31.8597 133.562 31.0999C133.965 32.1636 133.663 33.3792 134.519 34.2909C134.922 34.0883 135.124 33.8351 134.973 33.3286C134.872 32.9234 134.922 32.4675 134.872 32.0623C135.325 32.0116 135.678 32.0116 136.081 31.961C136.131 31.7584 136.232 31.5558 136.282 31.3025C136.635 31.4545 136.987 31.6064 137.39 31.809C137.39 31.6064 137.441 31.4545 137.441 31.0493C138.146 31.8597 138.902 32.4168 139.254 33.2273C139.708 34.139 139.859 35.2027 140.06 36.2157C140.111 36.4689 139.808 36.8235 139.708 37.1274C140.111 36.1144 139.909 34.7974 139.153 34.0377C139.153 34.2909 139.103 34.4429 139.153 34.5948C139.456 35.7092 139.708 36.8235 138.65 37.7859C139.053 37.7352 139.305 37.7352 139.556 37.6846ZM109.081 69.2403C108.88 69.2909 108.678 69.3416 108.527 69.4429C107.923 69.8481 107.318 70.304 106.714 70.7598C106.411 71.0131 106.109 71.2663 105.807 71.5196C105.857 71.5702 105.908 71.6209 105.958 71.6715C106.764 71.1144 107.62 70.5066 108.426 69.8987C108.678 69.6961 108.88 69.4429 109.081 69.2403C109.585 68.8857 110.089 68.4805 110.643 68.1259C110.592 68.0246 110.492 67.974 110.441 67.8727C109.937 68.2779 109.333 68.5818 109.081 69.2403ZM84.1467 88.589C84.6001 88.3864 85.0031 88.1838 85.5068 87.9306C84.9023 87.576 84.449 87.8799 84.046 88.2851C84.046 88.2851 84.1467 88.4877 84.1467 88.589C83.0889 88.9942 82.1822 89.6527 81.2755 90.5644C81.074 90.5644 80.7214 90.6151 80.4192 90.5644C79.8147 90.4125 79.1599 90.2605 78.5554 89.9566C78.1524 89.754 77.9006 89.3488 77.548 89.0449C76.7924 88.3864 75.7849 88.0319 75.1804 87.1202C74.979 86.7656 74.3745 86.6643 73.9715 86.411C73.9211 86.4617 73.9211 86.5123 73.8708 86.563C74.4249 87.0189 74.979 87.4747 75.5331 87.9306C76.2383 88.4877 76.9939 89.0956 77.6991 89.6527C78.505 90.3618 79.311 91.0709 79.311 92.2866C79.311 92.3879 79.311 92.5905 79.4117 92.6411C79.5629 92.7931 79.7643 92.9957 79.9658 92.9957C80.117 92.9957 80.2681 92.7424 80.4192 92.5398C80.3688 92.4892 80.3688 92.4892 80.3184 92.4385C80.1673 92.5398 80.0162 92.6411 79.8651 92.7931C79.8147 92.7424 79.7643 92.7424 79.714 92.6918C79.8651 92.2359 80.0162 91.7294 80.1673 91.2229C80.0162 91.071 79.8147 90.9697 79.5125 90.767C80.0162 90.8177 80.3688 90.8177 80.671 90.8177C80.671 91.071 80.5703 91.4255 80.671 91.4762C80.9733 91.6281 81.3259 91.7294 81.6281 91.8307C81.2251 92.1853 80.9733 92.5905 81.1244 93.2996C81.477 93.0463 81.7289 92.8944 82.0815 92.6411C81.3763 92.5905 81.7289 92.2866 81.7289 92.084C81.7289 91.9827 81.7289 91.8814 81.7289 91.7801C81.6785 91.7801 81.6281 91.8307 81.5778 91.8307C81.88 91.3242 82.1822 90.767 82.5348 90.1592C82.6859 90.5138 82.7867 90.6657 82.8371 90.8177C82.5348 89.8047 83.1897 89.3995 83.8445 88.9436C83.9956 88.9436 84.046 88.741 84.1467 88.589ZM119.559 45.9914C119.206 46.194 118.853 46.4472 118.551 46.6498C117.191 47.5109 116.184 48.7265 114.723 49.4863C113.514 50.0941 112.456 51.0058 111.348 51.8163C109.585 53.0319 107.822 54.2475 106.059 55.5138C105.202 56.1216 104.447 56.8307 103.54 57.3372C102.482 57.9451 101.475 58.7555 100.518 59.4646C99.2081 60.4776 97.9488 61.5413 96.6391 62.5037C95.0272 63.6686 93.4153 64.8336 91.753 65.9479C91.1989 66.3532 90.7455 66.7077 91.1485 67.4675C91.1989 67.5181 91.0982 67.6194 91.0478 67.822C90.2922 67.1129 89.7381 67.5181 89.184 68.0246C88.5795 68.5312 87.9751 69.0377 87.3202 69.4429C85.3557 70.8105 83.2904 72.0767 81.3259 73.495C78.6561 75.4197 76.0368 77.4458 73.4174 79.4212C72.8129 79.877 72.2085 80.3329 71.5536 80.8394C72.6115 81.7005 73.5685 82.4602 74.576 83.22C74.6767 83.2707 74.9286 83.1187 75.0797 83.0174C75.3819 82.7641 75.5834 82.4096 75.8857 82.1563C77.5983 80.9407 79.3614 79.7251 81.074 78.5094C82.9378 77.1925 84.7512 75.7743 86.5646 74.4574C90.8463 71.3676 95.1783 68.2779 99.5104 65.1882C103.137 62.5543 106.764 59.9205 110.441 57.2866C114.471 54.3995 118.501 51.5124 122.581 48.6252C124.042 47.5616 125.503 46.4979 127.014 45.4342C127.467 45.1303 127.568 44.6744 127.316 44.2692C127.064 43.864 126.611 43.8134 126.157 44.0666C126.006 44.1679 125.805 44.0666 125.603 44.016C125.351 43.9653 125.15 43.864 124.898 43.7627C124.948 43.7121 124.999 43.5601 125.1 43.4082C123.941 43.4588 123.941 43.4588 123.991 43.0536C122.48 44.016 121.019 44.9277 119.559 45.9914C119.609 45.9914 119.609 45.9407 119.559 45.9914ZM96.6895 74.9639C95.4302 74.0015 94.322 73.0898 93.113 72.178C93.0123 72.0767 92.6597 72.1274 92.5086 72.2287C89.7885 74.1028 87.0683 75.9769 84.3482 77.851C83.4415 78.4588 82.5852 79.0666 81.6785 79.7251C83.0386 80.7887 84.2979 81.8524 85.5572 82.8655C85.6075 82.8148 85.6579 82.7642 85.7083 82.7135C85.6076 82.5616 85.5068 82.4096 85.4061 82.207C85.4564 82.1057 85.6076 81.9537 85.7083 81.7511C85.809 81.9537 85.9098 82.1057 86.0609 82.3589C89.6373 79.9277 93.113 77.4964 96.6895 74.9639ZM109.786 64.0739C108.577 63.2634 107.368 62.4024 106.16 61.5919C106.059 61.4906 105.757 61.5919 105.605 61.6932C104.296 62.605 102.986 63.5167 101.676 64.4791C101.072 64.8843 100.518 65.3401 99.863 65.796C101.223 66.7584 102.432 67.6194 103.691 68.5312C105.656 67.0623 107.671 65.5934 109.786 64.0739ZM114.572 62.5037C115.781 61.9465 116.939 61.5919 117.493 60.3257C116.889 60.1231 115.982 60.5789 115.982 61.0854C115.831 61.0348 115.73 60.9335 115.529 60.8828C115.478 61.1361 115.478 61.288 115.428 61.4906C115.227 61.4906 115.025 61.44 114.874 61.44C114.773 61.7945 114.723 62.0985 114.572 62.5037ZM136.635 36.4689C137.038 36.6209 137.39 36.8235 137.793 36.9754C138.045 37.0768 138.348 37.0767 138.65 37.0767C138.751 37.0767 138.902 36.7728 138.902 36.7728C138.599 36.4689 138.297 36.0131 137.894 35.8611C137.441 35.6585 136.786 35.6079 136.635 36.4689ZM123.387 58.249C123.034 58.1477 119.71 60.5789 119.407 61.3387C120.163 60.8322 120.969 60.3257 121.473 59.9711C122.228 59.262 122.782 58.7555 123.387 58.249ZM101.475 72.7352C101.475 71.8235 102.281 72.482 102.633 72.0261C102.583 71.7728 102.482 71.5196 102.382 71.2157C101.676 71.5702 101.072 71.8741 100.518 72.178C100.518 72.2287 100.467 72.33 100.467 72.3806C100.719 72.4819 101.072 72.5833 101.475 72.7352ZM95.1783 76.9393C95.8835 77.8003 96.3873 76.7873 96.9917 76.9393C96.9414 76.6353 96.8406 76.3821 96.6895 76.2301C96.6391 76.1795 96.3873 76.2301 96.2361 76.2808C96.0347 76.3315 95.8332 76.4328 95.682 76.5341C95.4806 76.686 95.3294 76.838 95.1783 76.9393ZM132.404 51.0565C131.346 51.3604 130.892 52.3734 130.137 53.0319C131.195 52.728 131.799 51.8669 132.404 51.0565ZM114.672 64.8843C114.622 64.8336 114.622 64.8336 114.572 64.783C114.118 65.0869 113.615 65.3908 113.161 65.7453C112.708 66.0999 112.305 66.5051 111.902 66.8597C111.952 66.9103 111.952 66.961 112.003 67.0116C112.406 66.809 113.061 66.7077 113.161 66.3532C113.363 65.796 113.816 65.6947 114.118 65.3908C114.37 65.2388 114.521 65.0869 114.672 64.8843ZM101.878 79.2692C101.727 79.2692 101.626 79.2692 101.475 79.2692C101.324 79.6238 101.173 79.9783 101.072 80.3329C101.425 80.3329 101.827 80.3329 102.18 80.3329C102.079 79.9277 101.979 79.5731 101.878 79.2692ZM92.8612 78.5601C92.8612 78.9147 92.8612 79.2186 92.8612 79.5731C93.1634 79.4718 93.5664 79.4212 93.6168 79.2692C93.7175 78.9653 93.5664 78.5601 93.516 78.1549C93.2642 78.3068 93.0123 78.4588 92.8612 78.5601ZM131.9 53.8423C131.698 53.9943 131.497 54.1462 131.295 54.3488C131.295 54.1969 131.295 54.0956 131.295 53.9943C131.195 54.3488 130.238 53.9436 130.641 54.754C130.842 54.7034 131.044 54.6527 131.195 54.6021C131.195 54.754 131.245 54.906 131.245 55.0579C131.698 54.754 132.303 54.6021 131.9 53.8423ZM108.225 72.1274C107.52 72.178 107.318 72.482 107.217 73.6976C107.268 73.7482 107.318 73.7482 107.368 73.7989C107.62 73.2924 107.923 72.7352 108.225 72.1274ZM124.697 58.9581C124.797 58.6035 124.848 58.2996 124.948 57.9957C124.898 57.9957 124.797 57.9451 124.747 57.9451C124.545 58.6035 124.344 59.262 124.142 59.9205C124.193 59.9711 124.193 59.9711 124.243 60.0218C124.596 59.6165 124.948 59.262 125.251 58.8568C125.2 58.8061 125.2 58.8061 125.15 58.7555C124.999 58.8061 124.898 58.8568 124.697 58.9581ZM89.99 84.0811C89.99 84.0304 89.9396 84.0304 89.9396 83.9798C89.2847 84.4863 88.5795 84.9928 87.9247 85.4993C88.1262 85.6513 88.378 85.7526 88.4284 85.6513C88.9825 85.1954 89.4862 84.6382 89.99 84.0811ZM103.691 70.7598C103.641 70.8105 103.591 70.8611 103.54 70.9118C103.641 71.0637 103.792 71.2157 103.893 71.3676C104.094 71.1144 104.396 70.9118 104.447 70.6585C104.497 70.4559 104.195 70.2026 104.044 70C103.994 70.0507 103.994 70.0507 103.943 70.1013C103.994 70.3546 104.044 70.5572 104.145 70.8611C103.943 70.8105 103.842 70.7598 103.691 70.7598ZM68.3802 82.6628C69.0854 83.1187 69.6898 83.4733 70.2439 83.8278C70.2943 83.7772 70.2943 83.7265 70.3447 83.6759C69.8913 83.2707 69.3876 82.8655 68.8839 82.4602C68.8335 82.4096 68.632 82.5615 68.3802 82.6628ZM122.782 62.8076C122.984 62.453 123.135 62.1998 123.387 61.8452C123.387 62.1998 123.387 62.3011 123.387 62.453C123.437 62.453 123.538 62.5037 123.588 62.5037C123.689 62.1998 123.79 61.8958 123.941 61.5919C123.236 61.7945 122.682 61.9465 122.782 62.8076ZM98.6036 77.4964C98.5533 77.4458 98.5533 77.3951 98.5029 77.3445C97.7977 77.9016 97.0421 78.4588 96.3369 79.0666C96.3873 79.1173 96.4376 79.1679 96.488 79.2186C97.1932 78.6107 97.8984 78.0536 98.6036 77.4964ZM101.324 75.1158C101.374 75.1665 101.425 75.2171 101.475 75.2678C102.029 74.8119 102.583 74.3054 103.137 73.8495C103.087 73.7989 103.036 73.6976 102.936 73.6469C102.382 74.1534 101.827 74.66 101.324 75.1158ZM130.641 49.9928C130.741 49.9422 130.892 49.8915 131.044 49.8409C130.993 49.6889 130.943 49.537 130.892 49.3343C130.691 49.4863 130.439 49.6383 130.338 49.8409C130.288 49.9928 130.439 50.1954 130.54 50.398C130.59 50.4487 130.741 50.398 130.842 50.398C130.741 50.2461 130.691 50.1448 130.641 49.9928ZM112.909 46.9537C112.96 47.0044 112.96 47.055 113.01 47.1057C113.564 46.7005 114.118 46.2953 114.622 45.8901C114.572 45.8394 114.521 45.7888 114.521 45.7381C114.018 46.1433 113.464 46.5485 112.909 46.9537ZM128.021 54.6021C127.971 54.5514 127.92 54.4501 127.87 54.3995C127.467 54.754 127.064 55.0579 126.661 55.4125C126.711 55.4631 126.762 55.5644 126.812 55.6151C127.215 55.2605 127.618 54.9566 128.021 54.6021ZM135.325 51.5123C135.275 51.4617 135.224 51.411 135.174 51.3604C134.922 51.4617 134.67 51.6137 134.318 51.7656C134.368 51.9682 134.469 52.1202 134.57 52.3734C134.872 52.0189 135.073 51.7656 135.325 51.5123ZM90.5441 81.0927C90.5944 81.1433 90.6448 81.1433 90.6952 81.194C90.947 81.0927 91.1485 81.042 91.4004 80.9407C91.4004 80.8901 91.4004 80.8394 91.4508 80.7888C91.2493 80.7381 90.9974 80.5861 90.8463 80.6368C90.7455 80.6368 90.6448 80.8901 90.5441 81.0927ZM91.2493 79.5225C91.35 79.877 91.4004 80.1303 91.5011 80.4848C91.753 80.1809 91.9041 79.9783 92.1056 79.6744C91.8034 79.6238 91.6019 79.6238 91.2493 79.5225ZM131.144 55.7671C131.094 55.6657 130.993 55.6151 130.943 55.5138C130.59 55.8177 130.238 56.1723 129.885 56.4762C129.935 56.5268 129.986 56.5775 130.036 56.6788C130.439 56.3749 130.792 56.071 131.144 55.7671ZM105.908 69.3416C105.404 69.3416 105.001 69.3416 104.497 69.3416C104.648 69.5948 104.749 69.7468 104.85 69.8481C105.202 69.6961 105.454 69.5442 105.908 69.3416ZM130.187 53.9943C129.835 54.2475 129.532 54.3995 129.28 54.6021C129.331 54.7034 129.381 54.754 129.482 54.8553C129.583 54.4501 130.338 54.906 130.187 53.9943ZM121.171 56.5775C121.422 56.9827 121.523 57.1853 121.725 57.5398C121.825 57.2359 121.876 56.9827 121.976 56.7801C121.775 56.7294 121.523 56.6788 121.171 56.5775ZM122.581 59.4646C122.883 59.6672 122.984 59.7685 123.135 59.9205C123.286 59.6165 123.387 59.4139 123.488 59.2113C123.437 59.1607 123.387 59.11 123.337 59.0594C123.185 59.1607 122.984 59.3126 122.581 59.4646ZM112.406 72.2287C113.262 71.8741 113.363 71.6715 112.96 71.2663C112.809 71.5196 112.658 71.8235 112.406 72.2287ZM119.055 61.6426C119.005 61.5919 118.904 61.4906 118.853 61.44C118.602 61.6932 118.35 61.9465 118.098 62.1998C118.148 62.2504 118.199 62.3011 118.249 62.3517C118.551 62.1491 118.803 61.8958 119.055 61.6426ZM114.32 67.3155C113.967 67.5688 113.715 67.7714 113.413 67.974C113.967 68.3286 114.068 68.2779 114.32 67.3155Z" fill="#FDF2E5"/>
<path d="M141.873 30.2895C141.722 29.9856 141.622 29.631 141.47 29.3271C140.564 29.3778 139.909 29.0739 139.657 28.2128C139.607 28.1115 139.456 28.0608 139.355 28.0102C138.851 27.9089 138.448 27.8076 138.247 27.2504C138.247 27.1998 137.894 27.2504 137.592 27.2504C137.541 27.1491 137.441 26.9972 137.29 26.7439C138.196 26.7439 139.002 26.7439 139.808 26.7439C139.808 26.7945 139.758 26.8959 139.707 26.9972C140.161 27.1491 140.665 27.2504 141.118 27.4024C141.118 28.1621 141.219 28.2128 142.377 27.9595C142.075 28.1621 141.924 28.2634 141.873 28.2634C142.428 29.2258 143.032 30.0869 143.536 31.0492C144.09 32.1129 144.191 33.2273 144.039 34.3922C143.989 34.3922 143.888 34.3922 143.838 34.3922C143.838 34.139 143.788 33.8351 143.788 33.5818C143.687 32.974 143.737 32.3662 143.133 31.961C143.082 31.961 143.183 31.809 143.133 31.7077C142.881 31.2012 142.679 30.644 142.377 30.1375C142.276 30.1882 141.974 30.2895 141.873 30.2895Z" fill="white"/>
<path d="M156.935 9.62374C158.245 9.01593 159.454 9.31984 160.612 10.029C162.325 11.042 163.483 12.5615 164.138 14.4356C164.491 15.398 164.441 16.411 164.189 17.424C164.088 13.7265 160.663 9.57309 156.935 9.62374Z" fill="white"/>
<path d="M158.799 8.00293C160.26 7.34446 162.526 8.00293 163.836 9.42116C166.002 11.7511 166.808 14.0811 165.901 15.8539C166.204 13.7265 165.247 12.055 163.937 10.5355C162.627 9.0666 160.965 8.05358 158.799 8.00293Z" fill="white"/>
<path d="M154.114 15.8032C154.971 14.4863 155.877 13.22 156.734 11.9031C156.935 11.5992 157.086 11.2446 157.388 10.9913C157.691 10.6874 158.043 10.4342 158.396 10.2316C157.036 12.1563 155.625 14.0304 154.265 15.9552C154.215 15.9045 154.165 15.8539 154.114 15.8032Z" fill="white"/>
<path d="M157.237 14.5876C157.59 14.1824 157.993 13.7772 158.345 13.3719C158.446 13.4733 158.497 13.5239 158.597 13.6252C158.446 13.7772 158.245 13.8785 158.094 14.0304C157.942 14.233 157.791 14.4863 157.691 14.6889C157.741 14.7395 157.791 14.7902 157.842 14.7902C158.094 14.6382 158.396 14.5369 158.648 14.385C158.698 14.4356 158.698 14.5369 158.748 14.5876C158.396 14.6889 158.043 14.8915 157.64 14.9421C157.489 15.0434 157.338 14.7395 157.237 14.5876C157.237 14.5876 157.187 14.5876 157.237 14.5876Z" fill="white"/>
<path d="M157.237 14.5876C157.237 14.5876 157.187 14.5876 157.237 14.5876C156.834 14.8915 156.431 15.246 156.028 15.6006L155.978 15.5499C156.129 15.3473 156.23 15.1954 156.381 14.9928C156.33 14.9421 156.33 14.9421 156.28 14.8915C155.927 15.246 155.524 15.6006 155.172 15.9045C155.575 15.0941 156.23 14.5876 157.136 14.4356C157.136 14.4863 157.187 14.5876 157.237 14.5876Z" fill="white"/>
<path d="M150.537 22.1346C149.983 22.5905 149.429 22.9957 148.875 23.4515C148.825 23.4009 148.774 23.3502 148.774 23.2996C149.329 22.8437 149.883 22.3879 150.386 21.9827C150.437 22.0333 150.487 22.084 150.537 22.1346Z" fill="white"/>
<path d="M161.67 13.4733C161.368 13.7266 161.065 13.9798 160.763 14.2331C160.763 13.8785 160.763 13.5746 160.763 13.2707C161.116 13.3213 161.317 13.372 161.67 13.4733Z" fill="white"/>
<path d="M157.439 13.2706C156.985 13.5745 157.136 14.4862 156.179 14.3849C156.582 13.9291 156.985 13.5239 157.338 13.1693C157.388 13.1693 157.439 13.22 157.439 13.2706Z" fill="white"/>
<path d="M139.557 37.6845L165.901 15.8538C165.901 15.8538 157.892 23.6541 151.797 29.1751C145.652 34.6454 139.557 37.6845 139.557 37.6845Z" fill="white"/>
<path d="M133.613 31.3531L158.849 8.20551C158.849 8.20551 150.336 15.4486 143.738 20.3618C133.613 28.0101 133.613 31.3531 133.613 31.3531Z" fill="white"/>
</g>
<g clip-path="url(#clip1)">
<path d="M189.7 74.4C187 75.7 184.9 74.3 182.5 72.9C182 73.7 181.3 74.5 180.9 75.3C180.4 76.4 180.2 77.7 179.7 78.8C179.2 79.9 179.7 80.6 180.5 81.1C182.5 82.3 184.6 83.5 186.6 84.7C187.5 85.2 188.3 85.7 189.1 86.3C191 87.5 191.1 88.5 189.4 90.1C189.8 90.2 190.2 90.2 190.8 90.3C190.2 90.6 189.8 91 189.5 90.9C188.2 90.7 187 91.2 186.3 92.4C187.8 92 186.9 93.2 187.2 93.7C187.5 94.3 187.9 94.8 188.2 95.4C186.7 95.6 186.6 95.8 187 97.2C186.3 97.7 185.6 98.2 185 98.7C185 98.8 185.1 98.9 185.1 98.9C185.5 98.8 186 98.8 186.4 98.7C187.3 101.4 187.2 102.1 186 102.7C186 101.6 186 100.4 186 99.3C185.3 99.6 184.8 101.2 185 102.1C185.5 104 184.8 105.6 183.1 106.6C182 107.2 180.9 108 180.1 108.9C179.2 109.9 178.2 110.5 177.3 110.2C176.4 111.4 175.6 112.3 174.7 113.4C174.5 112.8 174.3 112.5 174.2 112C173.3 113.4 172.6 114.6 171.7 115.8C171 116.7 170.2 117.4 169.1 116.2C168.3 117.1 167.5 118 166.7 118.8C167 117.7 167.3 116.6 166.8 115.4C166.5 116.5 166.7 117.8 165 117.8C165.7 118.9 165.7 118.9 166.7 118.8C166.2 119.5 165.7 120.2 165 121C164.6 120.3 165.9 119.3 164.3 119.4C164.3 120.7 163.8 121.7 162.4 122C161.3 122.3 160.3 122.6 159.2 122.9C160.1 121.9 161.1 120.8 161.9 119.9C161.7 119.4 161.5 118.9 161.2 118.3C160.8 118.5 160.4 118.8 159.9 119.1C160.3 119.4 160.6 119.6 160.8 119.8C160.5 120 160.2 120.1 159.9 120.3C159.4 120.6 159 120.9 158.5 121.1C158.6 121.2 158.6 121.3 158.7 121.4C159 121.3 159.2 121.1 159.5 121C159.3 121.6 159.2 122.2 159 122.8C159 123.1 159 123.4 159 123.6C158.8 123.6 158.4 123.6 158.3 123.7C157.9 124.2 157.6 124.7 157.2 125.2C157.1 125.1 157 125 157 124.9C157.1 125.3 157.2 125.7 157.2 126.1C157.8 125.2 158.4 124.3 159 123.5C159.3 124.3 159.1 125 158.4 125.5C157.8 126 157.4 126.6 156.8 127C156.4 127.3 155.9 127.3 155.3 127.4C155 129 153.7 129.8 152.2 129.1C151.2 131 149.8 132.6 148.2 133.4C147.5 133.9 147 134.3 146.5 134.6C145.4 135.4 143.8 135.7 143.2 137.3C143 137.7 142.3 138.2 141.8 138.2C140.5 138.2 140.1 138.9 139.8 140C139.6 140.5 139.1 140.8 138.8 141.1C138.5 140.7 138.4 140.4 138.2 140.1C138 140.4 137.7 140.7 137.7 141C137.7 142.1 136.5 143.1 135.1 142.9C135.4 143.8 134.9 143.8 134.2 144.1C133.3 144.4 132.7 145.6 131.9 146.2C130 147.8 128 149.2 126.1 150.8C125.5 151.3 124.9 151.9 124.3 152.4C124 152.7 123.5 152.7 123.1 152.9C122.8 153 122.5 153.2 122.3 153.4C121.4 154.3 120.6 155.2 119.7 156.2C119.4 156.5 119.1 156.7 118.7 157.1C118.8 156.3 118.8 155.8 118.8 155.2C118.5 156.1 116.9 156.2 117.2 157.7C117.3 158.1 116.2 158.7 115.6 159.2C113.6 160.9 111.7 162.7 109.2 163.6C109 163.7 109 164.2 108.7 164.4C107.7 165.2 106.5 165.9 105.5 166.7C105.2 166.9 105 167.2 104.8 167.6C104.1 168.6 103.2 169.3 102.3 169.3C100.1 171.8 98.1998 174.4 94.6998 174.7C94.8998 175.1 94.9998 175.5 95.1998 175.9C92.4998 176.6 90.8998 178.7 89.0998 180.5C88.8998 180.1 88.7998 179.9 88.6998 179.7C88.5998 179.7 88.4998 179.7 88.3998 179.7C88.3998 180.2 88.2998 180.6 88.2998 181.1C88.1998 181 88.1998 180.9 88.0998 180.9C86.8998 182 85.6998 183.1 84.3998 184.4L84.0998 184.1C82.0998 186 80.0998 187.9 77.9998 189.9C77.6998 189.3 77.4998 189 77.2998 188.6C76.7998 188.8 76.3998 188.9 76.0998 189.1C75.5998 188.5 75.0998 188 74.6998 187.4C74.5998 187.2 74.7998 186.9 74.7998 186.7C74.7998 186.2 74.8998 185.6 74.6998 185.1C74.5998 184.8 74.0998 184.7 73.6998 184.5C73.5998 184.9 73.3998 185.2 73.3998 185.6C73.3998 185.9 73.6998 186.3 73.5998 186.4C72.7998 187.6 72.7998 188.8 73.2998 190.2C73.3998 190.2 73.5998 190.3 74.0998 190.4C73.5998 190.6 73.3998 190.7 72.9998 190.8C73.4998 191.1 73.8998 191.4 74.6998 192C73.6998 192.3 72.8998 192.6 72.1998 192.8C71.9998 191.1 71.7998 189.6 71.6998 188.1C71.6998 187.7 71.6998 187.2 71.6998 186.8C71.6998 186.4 71.6998 186 71.4998 185.6C71.1998 185.1 70.6998 184.6 70.0998 183.9C69.8998 185.6 70.7998 187.3 69.3998 188.4C69.6998 189.4 69.9998 190.4 70.2998 191.4C64.1998 187.2 58.2998 182.8 52.5998 178.1C52.6998 178 52.6998 177.8 52.7998 177.7C53.0998 177.7 53.3998 177.8 53.8998 177.8C53.0998 176.1 51.2998 176.5 50.1998 175.7C50.2998 175.1 50.7998 174.2 49.2998 174.7C48.7998 174.9 47.9998 174.4 47.2998 174.2C47.6998 173.5 47.9998 173 48.2998 172.5C46.8998 172.7 45.9998 172.8 45.8998 171C45.7998 170 44.9998 170.7 44.5998 171.2C43.1998 170.1 41.6998 160.7 42.5998 159C42.8998 159.1 43.2998 159.3 43.5998 159.4C43.5998 159.4 43.6998 159.3 43.6998 159.2C43.3998 158.7 42.9998 158.1 42.5998 157.6C41.2998 155.9 42.2998 154.9 44.2998 154C45.6998 153.4 46.8998 152.2 48.1998 151.3C48.4998 151.1 48.8998 150.8 49.1998 150.6C49.2998 150.7 49.3998 150.8 49.4998 150.8C49.4998 150.4 49.4998 150.1 49.5998 149.5C50.1998 149.4 50.7998 149.3 51.3998 149.1C51.6998 149 52.2998 148.8 52.2998 148.5C52.4998 147 53.8998 146.8 54.7998 146.1C54.9998 145.9 55.4998 146.1 55.9998 146.2C55.9998 144.9 56.9998 144.5 58.1998 144.3C58.3998 144.3 58.4998 144.2 58.5998 144C59.1998 143.1 59.8998 142.2 61.2998 142.6C61.4998 142.6 61.9998 142 62.0998 141.6C62.2998 140.5 62.8998 139.8 64.2998 139.6C64.1998 140 64.1998 140.4 64.0998 140.8C64.1998 140.8 64.2998 140.9 64.3998 140.9C64.7998 140.1 65.0998 139.3 65.5998 138.5C65.7998 138.2 65.9998 138 66.2998 137.8C68.7998 136.1 71.1998 134.3 73.7998 132.6C75.3998 131.5 76.9998 130.6 78.5998 129.6C79.5998 128.9 80.4998 127.9 81.5998 127.2C82.4998 126.6 83.5998 126.3 84.5998 125.8C85.0998 125.6 85.4998 125.2 85.7998 124.8C86.0998 124.5 86.0998 124 86.3998 123.8C87.8998 122.8 89.4998 121.8 91.0998 120.8C91.2998 120.7 91.5998 120.6 91.7998 120.4C92.6998 119.4 93.7998 118.9 94.8998 118.3C95.8998 117.8 96.9998 117.4 97.8998 116.7C98.0998 116.5 98.4998 116.3 98.5998 116.1C98.7998 114.7 99.4998 115 100.4 115.7C101 114.9 101.6 114.1 102.2 113.3C102.6 112.9 103.1 112.6 103.6 112.2C103.7 112.1 104 112 104 112C103.9 109.9 106 110.4 106.9 110C107.9 109.6 107.7 108.6 108.5 108.3C109.4 108 110.1 107.3 110.9 106.8C111.6 106.4 112.4 106.2 113.1 105.8C113.5 105.5 113.8 105 114 104.5C114.6 103.4 115.5 103.2 116.7 103.5C116.7 103.8 116.6 104.2 116.5 105C117.2 104.5 117.9 104.3 118.1 103.9C118.9 102.5 119.1 102.4 121 103.1C120.8 102.4 120.6 101.9 120.4 101.3C120.5 101.2 120.8 101.1 121.2 100.8C121.3 101.1 121.5 101.5 121.6 101.8C123.2 100.6 123.1 100.4 121.3 99.1C121.6 98 123.6 99.3 123.3 97.5C125.1 98 126.6 97.6 126.6 96.4C126.6 94.9 127.5 94.5 128.5 93.9C129.5 93.3 130.4 92.6 131.4 92.1C131.8 91.9 132.2 91.8 132.6 91.6C133.1 91.3 133.9 91.4 134.4 91.3C135.1 90.9 135.9 90.5 136.4 89.9C136.9 89.2 137.1 88.3 138.4 88.9C138.1 86.6 139.7 86.7 141.1 86.7C141.1 86.2 141 85.8 141.1 85.6C141.6 85 142.9 85 143.7 85.3C143.7 85.6 143.7 85.9 143.7 86.2C143.7 86.3 143.8 86.4 143.9 86.8C144.5 86.3 144.9 85.8 145.4 85.4C145.5 85.3 145.7 85 145.8 85C147.1 84.9 147.5 84 147.7 82.9C147.8 82.3 148.4 81.9 149 81.5C149 81.8 149 82.1 149 82.4C149 82.8 149.1 83.2 149.1 83.6C149.6 83.4 150.1 83.2 150.4 82.9C151 82.4 151.6 81.2 152.1 81.2C153.1 81.3 153.7 80.8 154.3 80.2C154.4 80.1 153.7 79.2 153.3 78.5C153.9 78 154.5 77.5 155.1 77.1C155.3 77 155.6 76.9 155.6 76.8C155.7 75.7 156.3 75.8 157.2 76C158.1 76.2 158.9 75.3 158.8 74.1C159.1 74 159.3 74 159.7 73.9C159.6 73.5 159.5 73.2 159.4 72.8C161.4 71.8 163.3 71.4 165.3 72.9C166.2 73.6 167.3 74 168.2 74.5C168.7 74.8 169.3 75.2 169.7 75.7C171.1 77.7 174.3 77.6 175.4 75.4C175.8 74.7 176 73.9 176.5 73.2C178.3 70.9 179.1 68.7 177.3 65.9C176.5 64.6 176.2 62.9 177.8 61.4C178.6 63.5 178 65.9 179.7 67.7C180.5 67.3 180.9 66.8 180.6 65.8C180.4 65 180.5 64.1 180.4 63.3C181.3 63.2 182 63.2 182.8 63.1C182.9 62.7 183.1 62.3 183.2 61.8C183.9 62.1 184.6 62.4 185.4 62.8C185.4 62.4 185.5 62.1 185.5 61.3C186.9 62.9 188.4 64 189.1 65.6C190 67.4 190.3 69.5 190.7 71.5C190.8 72 190.2 72.7 190 73.3C190.8 71.3 190.4 68.7 188.9 67.2C188.9 67.7 188.8 68 188.9 68.3C189.5 70.5 190 72.7 187.9 74.6C188.7 74.5 189.2 74.5 189.7 74.4ZM129.2 136.7C128.8 136.8 128.4 136.9 128.1 137.1C126.9 137.9 125.7 138.8 124.5 139.7C123.9 140.2 123.3 140.7 122.7 141.2C122.8 141.3 122.9 141.4 123 141.5C124.6 140.4 126.3 139.2 127.9 138C128.4 137.6 128.8 137.1 129.2 136.7C130.2 136 131.2 135.2 132.3 134.5C132.2 134.3 132 134.2 131.9 134C130.9 134.8 129.7 135.4 129.2 136.7ZM79.6998 174.9C80.5998 174.5 81.3998 174.1 82.3998 173.6C81.1998 172.9 80.2998 173.5 79.4998 174.3C79.4998 174.3 79.6998 174.7 79.6998 174.9C77.5998 175.7 75.7998 177 73.9998 178.8C73.5998 178.8 72.8998 178.9 72.2998 178.8C71.0998 178.5 69.7998 178.2 68.5998 177.6C67.7998 177.2 67.2998 176.4 66.5998 175.8C65.0998 174.5 63.0998 173.8 61.8998 172C61.4998 171.3 60.2998 171.1 59.4998 170.6C59.3998 170.7 59.3998 170.8 59.2998 170.9C60.3998 171.8 61.4998 172.7 62.5998 173.6C63.9998 174.7 65.4998 175.9 66.8998 177C68.4998 178.4 70.0998 179.8 70.0998 182.2C70.0998 182.4 70.0998 182.8 70.2998 182.9C70.5998 183.2 70.9998 183.6 71.3998 183.6C71.6998 183.6 71.9998 183.1 72.2998 182.7C72.1998 182.6 72.1998 182.6 72.0998 182.5C71.7998 182.7 71.4998 182.9 71.1998 183.2C71.0998 183.1 70.9998 183.1 70.8998 183C71.1998 182.1 71.4998 181.1 71.7998 180.1C71.4998 179.8 71.0998 179.6 70.4998 179.2C71.4998 179.3 72.1998 179.3 72.7998 179.3C72.7998 179.8 72.5998 180.5 72.7998 180.6C73.3998 180.9 74.0998 181.1 74.6998 181.3C73.8998 182 73.3998 182.8 73.6998 184.2C74.3998 183.7 74.8998 183.4 75.5998 182.9C74.1998 182.8 74.8998 182.2 74.8998 181.8C74.8998 181.6 74.8998 181.4 74.8998 181.2C74.7998 181.2 74.6998 181.3 74.5998 181.3C75.1998 180.3 75.7998 179.2 76.4998 178C76.7998 178.7 76.9998 179 77.0998 179.3C76.4998 177.3 77.7998 176.5 79.0998 175.6C79.3998 175.6 79.4998 175.2 79.6998 174.9ZM150 90.8C149.3 91.2 148.6 91.7 148 92.1C145.3 93.8 143.3 96.2 140.4 97.7C138 98.9 135.9 100.7 133.7 102.3C130.2 104.7 126.7 107.1 123.2 109.6C121.5 110.8 120 112.2 118.2 113.2C116.1 114.4 114.1 116 112.2 117.4C109.6 119.4 107.1 121.5 104.5 123.4C101.3 125.7 98.0998 128 94.7998 130.2C93.6998 131 92.7998 131.7 93.5998 133.2C93.6998 133.3 93.4998 133.5 93.3998 133.9C91.8998 132.5 90.7998 133.3 89.6998 134.3C88.4998 135.3 87.2998 136.3 85.9998 137.1C82.0998 139.8 77.9998 142.3 74.0998 145.1C68.7998 148.9 63.5998 152.9 58.3998 156.8C57.1998 157.7 55.9998 158.6 54.6998 159.6C56.7998 161.3 58.6998 162.8 60.6998 164.3C60.8998 164.4 61.3998 164.1 61.6998 163.9C62.2998 163.4 62.6998 162.7 63.2998 162.2C66.6998 159.8 70.1998 157.4 73.5998 155C77.2998 152.4 80.8998 149.6 84.4998 147C92.9998 140.9 101.6 134.8 110.2 128.7C117.4 123.5 124.6 118.3 131.9 113.1C139.9 107.4 147.9 101.7 156 96C158.9 93.9 161.8 91.8 164.8 89.7C165.7 89.1 165.9 88.2 165.4 87.4C164.9 86.6 164 86.5 163.1 87C162.8 87.2 162.4 87 162 86.9C161.5 86.8 161.1 86.6 160.6 86.4C160.7 86.3 160.8 86 161 85.7C158.7 85.8 158.7 85.8 158.8 85C155.8 86.9 152.9 88.7 150 90.8C150.1 90.8 150.1 90.7 150 90.8ZM104.6 148C102.1 146.1 99.8998 144.3 97.4998 142.5C97.2998 142.3 96.5998 142.4 96.2998 142.6C90.8998 146.3 85.4998 150 80.0998 153.7C78.2998 154.9 76.5998 156.1 74.7998 157.4C77.4998 159.5 79.9998 161.6 82.4998 163.6C82.5998 163.5 82.6998 163.4 82.7998 163.3C82.5998 163 82.3998 162.7 82.1998 162.3C82.2998 162.1 82.5998 161.8 82.7998 161.4C82.9998 161.8 83.1998 162.1 83.4998 162.6C90.5998 157.8 97.4998 153 104.6 148ZM130.6 126.5C128.2 124.9 125.8 123.2 123.4 121.6C123.2 121.4 122.6 121.6 122.3 121.8C119.7 123.6 117.1 125.4 114.5 127.3C113.3 128.1 112.2 129 110.9 129.9C113.6 131.8 116 133.5 118.5 135.3C122.4 132.4 126.4 129.5 130.6 126.5ZM140.1 123.4C142.5 122.3 144.8 121.6 145.9 119.1C144.7 118.7 142.9 119.6 142.9 120.6C142.6 120.5 142.4 120.3 142 120.2C141.9 120.7 141.9 121 141.8 121.4C141.4 121.4 141 121.3 140.7 121.3C140.5 122 140.4 122.6 140.1 123.4ZM183.9 72C184.7 72.3 185.4 72.7 186.2 73C186.7 73.2 187.3 73.2 187.9 73.2C188.1 73.2 188.4 72.6 188.4 72.6C187.8 72 187.2 71.1 186.4 70.8C185.5 70.4 184.2 70.3 183.9 72ZM157.6 115C156.9 114.8 150.3 119.6 149.7 121.1C151.2 120.1 152.8 119.1 153.8 118.4C155.3 117 156.4 116 157.6 115ZM114.1 143.6C114.1 141.8 115.7 143.1 116.4 142.2C116.3 141.7 116.1 141.2 115.9 140.6C114.5 141.3 113.3 141.9 112.2 142.5C112.2 142.6 112.1 142.8 112.1 142.9C112.6 143.1 113.3 143.3 114.1 143.6ZM101.6 151.9C103 153.6 104 151.6 105.2 151.9C105.1 151.3 104.9 150.8 104.6 150.5C104.5 150.4 104 150.5 103.7 150.6C103.3 150.7 102.9 150.9 102.6 151.1C102.2 151.4 101.9 151.7 101.6 151.9ZM175.5 100.8C173.4 101.4 172.5 103.4 171 104.7C173.1 104.1 174.3 102.4 175.5 100.8ZM140.3 128.1C140.2 128 140.2 128 140.1 127.9C139.2 128.5 138.2 129.1 137.3 129.8C136.4 130.5 135.6 131.3 134.8 132C134.9 132.1 134.9 132.2 135 132.3C135.8 131.9 137.1 131.7 137.3 131C137.7 129.9 138.6 129.7 139.2 129.1C139.7 128.8 140 128.5 140.3 128.1ZM114.9 156.5C114.6 156.5 114.4 156.5 114.1 156.5C113.8 157.2 113.5 157.9 113.3 158.6C114 158.6 114.8 158.6 115.5 158.6C115.3 157.8 115.1 157.1 114.9 156.5ZM96.9998 155.1C96.9998 155.8 96.9998 156.4 96.9998 157.1C97.5998 156.9 98.3998 156.8 98.4998 156.5C98.6998 155.9 98.3998 155.1 98.2998 154.3C97.7998 154.6 97.2998 154.9 96.9998 155.1ZM174.5 106.3C174.1 106.6 173.7 106.9 173.3 107.3C173.3 107 173.3 106.8 173.3 106.6C173.1 107.3 171.2 106.5 172 108.1C172.4 108 172.8 107.9 173.1 107.8C173.1 108.1 173.2 108.4 173.2 108.7C174.1 108.1 175.3 107.8 174.5 106.3ZM127.5 142.4C126.1 142.5 125.7 143.1 125.5 145.5C125.6 145.6 125.7 145.6 125.8 145.7C126.3 144.7 126.9 143.6 127.5 142.4ZM160.2 116.4C160.4 115.7 160.5 115.1 160.7 114.5C160.6 114.5 160.4 114.4 160.3 114.4C159.9 115.7 159.5 117 159.1 118.3C159.2 118.4 159.2 118.4 159.3 118.5C160 117.7 160.7 117 161.3 116.2C161.2 116.1 161.2 116.1 161.1 116C160.8 116.1 160.6 116.2 160.2 116.4ZM91.2998 166C91.2998 165.9 91.1998 165.9 91.1998 165.8C89.8998 166.8 88.4998 167.8 87.1998 168.8C87.5998 169.1 88.0998 169.3 88.1998 169.1C89.2998 168.2 90.2998 167.1 91.2998 166ZM118.5 139.7C118.4 139.8 118.3 139.9 118.2 140C118.4 140.3 118.7 140.6 118.9 140.9C119.3 140.4 119.9 140 120 139.5C120.1 139.1 119.5 138.6 119.2 138.2C119.1 138.3 119.1 138.3 119 138.4C119.1 138.9 119.2 139.3 119.4 139.9C119 139.8 118.8 139.7 118.5 139.7ZM48.3998 163.2C49.7998 164.1 50.9998 164.8 52.0998 165.5C52.1998 165.4 52.1998 165.3 52.2998 165.2C51.3998 164.4 50.3998 163.6 49.3998 162.8C49.2998 162.7 48.8998 163 48.3998 163.2ZM156.4 124C156.8 123.3 157.1 122.8 157.6 122.1C157.6 122.8 157.6 123 157.6 123.3C157.7 123.3 157.9 123.4 158 123.4C158.2 122.8 158.4 122.2 158.7 121.6C157.3 122 156.2 122.3 156.4 124ZM108.4 153C108.3 152.9 108.3 152.8 108.2 152.7C106.8 153.8 105.3 154.9 103.9 156.1C104 156.2 104.1 156.3 104.2 156.4C105.6 155.2 107 154.1 108.4 153ZM113.8 148.3C113.9 148.4 114 148.5 114.1 148.6C115.2 147.7 116.3 146.7 117.4 145.8C117.3 145.7 117.2 145.5 117 145.4C115.9 146.4 114.8 147.4 113.8 148.3ZM172 98.7C172.2 98.6 172.5 98.5 172.8 98.4C172.7 98.1 172.6 97.8 172.5 97.4C172.1 97.7 171.6 98 171.4 98.4C171.3 98.7 171.6 99.1 171.8 99.5C171.9 99.6 172.2 99.5 172.4 99.5C172.2 99.2 172.1 99 172 98.7ZM136.8 92.7C136.9 92.8 136.9 92.9 137 93C138.1 92.2 139.2 91.4 140.2 90.6C140.1 90.5 140 90.4 140 90.3C139 91.1 137.9 91.9 136.8 92.7ZM166.8 107.8C166.7 107.7 166.6 107.5 166.5 107.4C165.7 108.1 164.9 108.7 164.1 109.4C164.2 109.5 164.3 109.7 164.4 109.8C165.2 109.1 166 108.5 166.8 107.8ZM181.3 101.7C181.2 101.6 181.1 101.5 181 101.4C180.5 101.6 180 101.9 179.3 102.2C179.4 102.6 179.6 102.9 179.8 103.4C180.4 102.7 180.8 102.2 181.3 101.7ZM92.3998 160.1C92.4998 160.2 92.5998 160.2 92.6998 160.3C93.1998 160.1 93.5998 160 94.0998 159.8C94.0998 159.7 94.0998 159.6 94.1998 159.5C93.7998 159.4 93.2998 159.1 92.9998 159.2C92.7998 159.2 92.5998 159.7 92.3998 160.1ZM93.7998 157C93.9998 157.7 94.0998 158.2 94.2998 158.9C94.7998 158.3 95.0998 157.9 95.4998 157.3C94.8998 157.2 94.4998 157.2 93.7998 157ZM173 110.1C172.9 109.9 172.7 109.8 172.6 109.6C171.9 110.2 171.2 110.9 170.5 111.5C170.6 111.6 170.7 111.7 170.8 111.9C171.6 111.3 172.3 110.7 173 110.1ZM122.9 136.9C121.9 136.9 121.1 136.9 120.1 136.9C120.4 137.4 120.6 137.7 120.8 137.9C121.5 137.6 122 137.3 122.9 136.9ZM171.1 106.6C170.4 107.1 169.8 107.4 169.3 107.8C169.4 108 169.5 108.1 169.7 108.3C169.9 107.5 171.4 108.4 171.1 106.6ZM153.2 111.7C153.7 112.5 153.9 112.9 154.3 113.6C154.5 113 154.6 112.5 154.8 112.1C154.4 112 153.9 111.9 153.2 111.7ZM156 117.4C156.6 117.8 156.8 118 157.1 118.3C157.4 117.7 157.6 117.3 157.8 116.9C157.7 116.8 157.6 116.7 157.5 116.6C157.2 116.8 156.8 117.1 156 117.4ZM135.8 142.6C137.5 141.9 137.7 141.5 136.9 140.7C136.6 141.2 136.3 141.8 135.8 142.6ZM149 121.7C148.9 121.6 148.7 121.4 148.6 121.3C148.1 121.8 147.6 122.3 147.1 122.8C147.2 122.9 147.3 123 147.4 123.1C148 122.7 148.5 122.2 149 121.7ZM139.6 132.9C138.9 133.4 138.4 133.8 137.8 134.2C138.9 134.9 139.1 134.8 139.6 132.9Z" fill="#FDF2E5"/>
<path d="M194.3 59.8C194 59.2 193.8 58.5 193.5 57.9C191.7 58 190.4 57.4 189.9 55.7C189.8 55.5 189.5 55.4 189.3 55.3C188.3 55.1 187.5 54.9 187.1 53.8C187.1 53.7 186.4 53.8 185.8 53.8C185.7 53.6 185.5 53.3 185.2 52.8C187 52.8 188.6 52.8 190.2 52.8C190.2 52.9 190.1 53.1 190 53.3C190.9 53.6 191.9 53.8 192.8 54.1C192.8 55.6 193 55.7 195.3 55.2C194.7 55.6 194.4 55.8 194.3 55.8C195.4 57.7 196.6 59.4 197.6 61.3C198.7 63.4 198.9 65.6 198.6 67.9C198.5 67.9 198.3 67.9 198.2 67.9C198.2 67.4 198.1 66.8 198.1 66.3C197.9 65.1 198 63.9 196.8 63.1C196.7 63.1 196.9 62.8 196.8 62.6C196.3 61.6 195.9 60.5 195.3 59.5C195.1 59.6 194.5 59.8 194.3 59.8Z" fill="#FDF2E5"/>
<path d="M224.2 19C226.8 17.8 229.2 18.4 231.5 19.8C234.9 21.8 237.2 24.8 238.5 28.5C239.2 30.4 239.1 32.4 238.6 34.4C238.4 27.1 231.6 18.9 224.2 19Z" fill="#FDF2E5"/>
<path d="M227.9 15.8C230.8 14.5 235.3 15.8 237.9 18.6C242.2 23.2 243.8 27.8 242 31.3C242.6 27.1 240.7 23.8 238.1 20.8C235.5 17.9 232.2 15.9 227.9 15.8Z" fill="#FDF2E5"/>
<path d="M218.6 31.2C220.3 28.6 222.1 26.1 223.8 23.5C224.2 22.9 224.5 22.2 225.1 21.7C225.7 21.1 226.4 20.6 227.1 20.2C224.4 24 221.6 27.7 218.9 31.5C218.8 31.4 218.7 31.3 218.6 31.2Z" fill="#FDF2E5"/>
<path d="M224.8 28.8C225.5 28 226.3 27.2 227 26.4C227.2 26.6 227.3 26.7 227.5 26.9C227.2 27.2 226.8 27.4 226.5 27.7C226.2 28.1 225.9 28.6 225.7 29C225.8 29.1 225.9 29.2 226 29.2C226.5 28.9 227.1 28.7 227.6 28.4C227.7 28.5 227.7 28.7 227.8 28.8C227.1 29 226.4 29.4 225.6 29.5C225.3 29.7 225 29.1 224.8 28.8C224.8 28.8 224.7 28.8 224.8 28.8Z" fill="#FDF2E5"/>
<path d="M224.8 28.8C224.8 28.8 224.7 28.8 224.8 28.8C224 29.4 223.2 30.1 222.4 30.8L222.3 30.7C222.6 30.3 222.8 30 223.1 29.6C223 29.5 223 29.5 222.9 29.4C222.2 30.1 221.4 30.8 220.7 31.4C221.5 29.8 222.8 28.8 224.6 28.5C224.6 28.6 224.7 28.8 224.8 28.8Z" fill="#FDF2E5"/>
<path d="M211.5 43.7C210.4 44.6 209.3 45.4 208.2 46.3C208.1 46.2 208 46.1 208 46C209.1 45.1 210.2 44.2 211.2 43.4C211.3 43.5 211.4 43.6 211.5 43.7Z" fill="#FDF2E5"/>
<path d="M233.6 26.6C233 27.1 232.4 27.6 231.8 28.1C231.8 27.4 231.8 26.8 231.8 26.2C232.5 26.3 232.9 26.4 233.6 26.6Z" fill="#FDF2E5"/>
<path d="M225.2 26.2C224.3 26.8 224.6 28.6 222.7 28.4C223.5 27.5 224.3 26.7 225 26C225.1 26 225.2 26.1 225.2 26.2Z" fill="#FDF2E5"/>
<path d="M189.7 74.4L242 31.3C242 31.3 226.1 46.7 214 57.6C201.8 68.4 189.7 74.4 189.7 74.4Z" fill="#FDF2E5"/>
<path d="M177.9 61.9L228 16.2C228 16.2 211.1 30.5 198 40.2C177.9 55.3 177.9 61.9 177.9 61.9Z" fill="#FDF2E5"/>
</g>
<defs>
<clipPath id="clip0">
<rect width="142" height="105" fill="white" transform="translate(44)"/>
</clipPath>
<clipPath id="clip1">
<rect width="281.9" height="207.3" fill="white"/>
</clipPath>
</defs>
</svg>
