<svg width="146" height="206" viewBox="0 0 146 206" fill="none" xmlns="http://www.w3.org/2000/svg">
<path d="M144.285 162.053C142.755 161.705 141.226 161.218 139.696 160.871C138.514 160.593 137.958 159.689 137.888 158.577C137.819 156.422 137.819 154.267 137.958 152.112C138.028 150.583 138.792 150.166 140.252 150.791C141.295 151.278 142.408 151.695 143.52 152.112C144.563 152.529 145.05 152.182 144.98 151C144.841 147.594 144.702 144.187 144.633 140.781C144.633 139.53 144.076 139.113 143.103 138.765C141.991 138.348 140.948 137.931 139.835 137.444C138.375 136.819 137.541 135.846 137.541 134.038C137.61 128.477 137.471 122.916 137.402 117.355C137.402 112.419 137.471 107.484 137.541 102.548C137.541 100.671 138.028 100.254 139.766 100.602C140.878 100.81 142.06 101.019 143.59 101.297C143.173 99.6981 142.895 98.3773 142.616 97.126C142.547 96.9175 142.616 96.709 142.616 96.5699C142.755 94.8321 143.034 93.0247 142.964 91.2868C142.825 88.5758 140.183 90.1051 139.001 89.2014C138.514 88.8538 137.819 88.2282 137.819 87.6721C137.68 82.667 137.61 77.7315 137.68 72.7265C137.68 69.2507 137.819 69.2507 141.087 68.6251C141.921 68.4861 142.269 68.208 142.269 67.2348C142.06 61.2566 141.852 55.2783 141.643 49.3696C141.643 48.5354 141.365 48.1879 140.531 48.3269C139.001 48.5354 137.332 49.3001 135.872 48.883L135.803 46.7281C137.471 48.1184 139.627 46.2415 141.573 46.9366C141.434 42.4877 141.365 38.4558 141.156 34.424C141.156 34.0764 140.392 33.7289 139.974 33.7289C137.819 33.6593 137.749 33.7289 137.68 31.5044C137.541 29.558 136.706 28.3762 135.316 28.0982C77.8856 -33.7002 23.9318 27.6116 14.8236 39.012C14.615 39.29 14.4064 39.5681 14.1978 39.7766C14.1978 39.7766 14.1978 39.7766 14.1978 39.8461C13.5721 40.6803 13.2244 41.1669 13.2244 41.1669C12.5291 42.0706 11.9034 42.9743 11.2776 43.878C9.19179 46.9366 7.245 50.0648 5.29821 53.1929C4.39435 54.5832 3.62954 56.182 2.93425 57.7113C2.65614 58.2675 2.51709 59.1016 2.37803 59.7968C2.16944 61.3261 2.03039 62.8554 1.89133 64.5238C1.40463 64.3847 1.8218 67.6519 1.19605 67.5129C1.19605 104.217 0.222656 137.653 0.222656 175.33C0.778882 176.72 1.68275 176.859 2.44756 177.346C3.42095 177.971 4.46388 178.041 5.5068 178.388C5.71538 178.458 5.92397 178.527 6.13255 178.458C7.245 178.041 8.28793 179.014 9.26132 180.057C9.74802 180.613 10.0261 180.96 10.1652 179.987C10.4433 180.057 10.6519 180.126 10.8605 180.126C11.5558 180.196 12.251 180.196 12.9463 180.404C13.2244 180.474 13.5025 180.891 13.7111 181.239C13.9892 181.795 14.1978 181.934 14.4759 181.378C14.5455 181.239 14.754 181.03 14.8236 181.1C15.4493 181.864 16.0056 181.308 16.5618 181.378C17.3266 181.447 18.0914 181.586 18.8562 181.725C20.2468 181.934 21.6373 182.073 23.0279 182.42C24.0708 182.629 25.1137 183.185 26.1567 183.324C29.2854 183.811 32.4142 184.645 35.682 185.409C36.0992 185.479 36.5164 185.757 36.9335 185.896C37.6984 186.105 38.4632 186.313 39.228 186.452C39.7842 186.591 40.3404 186.869 40.9662 186.939C41.4529 187.008 41.87 186.73 42.3567 186.8C44.0949 187.147 45.8332 187.564 47.5714 187.981C48.7533 188.26 49.9353 188.677 51.0478 188.955C51.3954 188.885 51.743 188.816 52.0907 188.885C53.5508 189.233 55.0804 189.65 56.61 189.997C58.4873 190.414 60.3645 190.832 62.3113 191.318C63.98 191.735 65.7182 192.222 67.4564 192.639C69.1251 192.986 70.7938 193.265 72.4625 193.682C73.7835 194.029 75.1741 194.516 76.4951 194.863C81.4316 196.115 86.5767 197.435 91.8608 198.756C92.6256 198.965 93.46 199.312 94.2248 199.521C98.0488 200.355 101.942 201.12 105.975 201.954C109.521 202.719 113.067 203.553 116.752 204.387C119.603 205.012 122.523 205.708 125.234 204.734C126.277 204.387 127.598 204.387 128.294 203.622C129.754 202.023 131.561 201.745 133.717 201.815C136.915 201.884 138.306 200.216 138.306 196.671C138.306 193.195 138.097 189.65 138.028 186.174C137.958 184.019 138.792 183.115 140.809 183.324C142.13 183.393 143.381 183.602 144.702 183.88C145.606 184.019 145.954 183.811 145.884 182.768C145.606 176.303 145.398 169.908 145.258 163.512C145.328 162.47 144.98 162.192 144.285 162.053ZM8.70509 101.992C8.63557 101.436 8.56604 100.88 8.56604 100.324C8.63557 100.254 8.77462 100.254 8.84415 100.185C8.91368 100.741 8.98321 101.297 9.05274 101.784C8.98321 101.853 8.84415 101.923 8.70509 101.992ZM85.3947 36.0924C85.4642 36.4399 85.1861 36.9265 85.1166 37.1351C84.4908 36.9265 84.0041 36.718 83.5174 36.6485C82.8917 36.579 82.4745 36.9265 82.3355 37.8997C82.1964 39.0815 81.7792 39.2205 81.0839 38.6644C80.5973 38.3168 80.041 38.0388 79.4153 37.8997C79.4848 38.7339 79.6934 39.3595 80.3887 39.6376C80.6668 39.7766 81.0144 40.1242 81.0144 40.4718C81.084 40.8193 80.8058 41.3755 80.6668 41.723C80.4582 42.2096 80.041 42.6962 79.9715 43.1133C79.8324 44.2255 79.0676 43.9475 78.6505 44.2255C78.3723 44.3646 77.9552 44.2255 77.7466 44.017C77.538 43.8085 77.4685 43.2523 77.6075 42.9743C78.0247 41.584 77.399 40.8888 76.9123 40.1242C76.8427 40.0547 76.7037 40.0547 76.4256 40.0547C76.4256 40.5413 76.4951 40.9584 76.4951 41.5145C75.7998 41.7925 75.1045 42.0011 74.4092 42.3487C73.9921 42.5572 73.5749 43.0438 73.1577 43.3914C73.0882 42.8353 73.0882 42.2791 73.0187 41.723C73.0187 41.6535 72.9492 41.584 72.9492 41.5145C72.532 41.1669 72.0453 40.8193 71.6281 40.4718C71.6281 41.0974 71.6281 41.723 71.6976 42.3487C71.8367 43.5999 72.3929 44.156 73.4358 44.2255C73.9225 44.2951 74.2702 45.0597 74.6178 45.6853C74.8959 46.1719 74.9655 46.8671 75.174 47.5622C75.174 47.5622 75.3826 47.2842 75.5217 47.1451C75.7303 47.0061 76.217 46.7281 76.2865 46.7976C76.4256 47.0756 76.5646 47.6317 76.4951 47.8403C75.6608 49.1611 76.4256 49.7172 76.9123 50.3428C77.399 51.038 78.0247 51.5246 78.5809 52.2197C78.9286 52.7063 79.2067 53.3319 79.5543 54.0271C79.7629 53.6795 79.9715 53.3319 80.1801 52.9844C80.2496 52.9844 80.3191 52.9844 80.3887 52.9844C80.7363 53.61 81.084 54.2356 81.3621 54.8613C80.7363 55.1393 80.1106 55.3479 79.5543 55.6259C79.5543 55.6954 79.4848 55.7649 79.4848 55.8345C79.8324 55.904 80.1801 55.9735 80.5277 56.043C80.8058 56.182 81.1535 56.3906 81.5706 56.6686C80.3191 57.5723 80.5973 58.2675 80.9449 59.2407C81.5011 60.9785 81.8488 62.7859 82.3355 64.5933C82.405 64.8713 82.6831 65.2189 82.8917 65.2884C83.5174 65.497 83.6565 66.0531 83.3784 66.7482C82.8222 68.1385 82.6831 69.1812 84.0041 69.6678C84.0737 69.7373 84.1432 69.9459 84.2822 70.224C83.8651 70.4325 83.5174 70.5715 83.0307 70.8496C83.0307 71.6142 83.0307 72.3789 83.1003 73.2131C83.1003 74.8119 82.8917 75.1595 81.5706 75.2985C77.538 75.8546 73.5749 76.3412 69.7508 76.8278C68.4993 76.9669 67.3174 77.1059 66.1354 77.2449C64.8839 77.3839 64.7448 77.2449 64.7448 75.7156C64.7448 69.8764 64.7448 64.1067 64.7448 58.2675C64.7448 56.3211 64.7448 54.3051 64.7448 52.3587C64.7448 52.0112 64.9534 51.5941 65.0229 51.2465C65.301 51.316 65.5792 51.316 65.7877 51.5246C67.0393 52.3587 68.3603 53.1234 69.5423 54.0966C70.4461 54.8613 71.2805 55.904 72.0453 56.9467C73.6444 59.0321 74.6874 61.8127 75.6607 64.5238C75.8693 65.2189 76.356 65.9141 75.4522 66.5397C74.4788 67.2348 73.4359 66.9568 73.0187 66.1226C72.1843 64.3847 71.4195 62.5774 70.5157 60.9785C70.029 60.0748 69.2642 59.4492 68.6384 58.7541C68.3603 58.476 68.0126 58.476 67.665 58.337C67.5259 58.8236 67.3174 59.3797 67.2478 59.8663C67.1783 61.1176 67.1783 62.3688 67.2478 63.6201C67.2478 66.3311 67.3174 69.0422 67.3174 71.8228C67.3174 72.935 67.665 73.4216 68.5689 73.2826C71.0719 72.8655 73.5749 72.4484 76.1475 72.1008C76.9818 71.9618 77.7466 72.0313 78.5809 72.1008C79.8324 72.1703 80.1106 71.8228 79.9715 70.2935C79.3457 64.2457 77.538 59.0321 74.5483 54.7917C71.6976 50.8989 68.2212 48.3964 64.1886 47.2147C63.98 47.1451 63.7019 47.0756 63.4933 47.0756C62.659 46.9366 62.2418 47.3537 62.2418 48.4659C62.2418 52.7758 62.3113 57.1552 62.3113 61.4651C62.3113 67.3043 62.2418 73.1436 62.1723 79.0523C62.1723 80.095 62.4504 80.4426 63.1457 80.3035C65.9268 79.956 68.7079 79.5389 71.6281 79.1913C73.4359 78.9828 75.2436 78.7742 77.1208 78.4962C78.5809 78.2876 80.1106 78.1486 81.6402 77.94C82.0573 77.8705 82.4745 77.94 82.9612 77.94C82.405 82.3195 81.3621 86.4903 79.7629 90.3831C76.5646 97.9602 71.9062 103.521 66.1354 106.928C63.0066 108.804 59.6693 109.778 56.4014 109.847C55.3585 109.847 55.2195 109.639 55.2195 108.179C55.2195 101.784 55.2195 95.3882 55.2195 88.9929C55.2195 88.0892 55.3585 87.6026 56.1233 87.533C58.1396 87.394 60.156 87.1855 62.2418 86.9769C65.6487 86.6294 69.1251 86.2818 72.7406 85.8647C73.2968 85.7952 73.7835 85.6562 74.3397 85.6562C74.8264 85.6562 75.174 85.7952 74.8264 86.6989C72.1843 92.6076 68.7079 97.4041 64.1191 100.324C63.98 100.393 63.841 100.532 63.7019 100.602C63.1457 100.81 62.5199 101.714 62.1028 100.602C61.6161 99.4895 62.0332 98.0993 62.9371 97.6126C65.162 96.3614 67.1088 94.3455 68.847 91.982C69.1251 91.6344 69.1251 91.0088 69.2642 90.5917C68.9165 90.4527 68.5689 90.2441 68.2212 90.2441C65.0925 90.4527 61.9637 90.7307 58.9045 91.0088C57.653 91.1478 57.5834 91.2173 57.5834 92.7466C57.5139 96.6394 57.5139 100.532 57.4444 104.425C57.4444 106.232 57.5834 106.302 58.974 106.093C63.1457 105.468 66.9697 103.313 70.4461 99.7676C74.4092 95.8053 77.2599 90.6612 78.9981 84.4744C79.4848 82.667 79.2762 82.3195 77.7466 82.4585C69.4032 83.2927 61.477 84.1268 54.0375 84.961C53.1336 85.0305 52.9946 85.3086 52.9946 86.7684C52.925 93.5808 52.925 100.393 52.8555 107.206C52.8555 109.847 52.786 109.986 50.9087 109.361C47.4323 108.248 44.3035 106.302 41.6615 103.243C38.1851 99.42 35.9602 94.554 34.6391 88.8538C33.9438 85.7952 33.8048 82.528 33.7352 79.2608C33.7352 78.5657 34.0134 78.3571 34.4305 78.2181C35.682 77.9401 37.0031 77.7315 38.3241 77.523C41.3138 77.0364 44.3731 76.6193 47.5018 76.1327C48.6838 75.9937 48.6143 75.9936 48.5448 77.801C48.4752 81.7633 48.4752 85.7952 48.4752 89.7575C48.4752 92.8161 48.4057 95.8053 48.4057 98.8639C48.4057 99.281 48.2666 99.7676 48.1276 100.185C47.8495 100.046 47.5018 100.046 47.2237 99.8371C43.3997 96.987 40.8966 92.7466 39.367 87.3245C39.0194 86.0732 39.0889 85.8647 40.0623 85.6562C40.3404 85.5866 40.6185 85.4476 40.8271 85.4476C41.0357 85.4476 41.3138 85.6562 41.3833 85.9342C41.731 88.0892 42.7739 89.549 43.6083 91.2173C44.095 92.1905 44.7207 93.0247 45.3465 93.8589C45.4855 94.0674 45.7636 94.276 45.9027 94.2064C46.0417 94.1369 46.2503 93.6503 46.2503 93.3723C46.3199 89.41 46.3198 85.5171 46.3198 81.6243C46.3198 80.0255 46.0417 79.7474 44.8598 79.8865C42.0786 80.1645 39.367 80.5121 36.725 80.8597C35.8906 80.9292 35.682 81.3463 35.8906 82.4585C36.3078 84.7525 36.7945 87.0464 37.2812 89.3404C37.4898 90.3136 37.8374 91.2173 38.1851 92.1905C39.0889 94.693 40.4795 96.709 41.87 98.7249C43.9559 101.714 46.6675 103.452 49.4486 105.051C49.5877 105.12 49.7267 105.259 49.7963 105.329C50.4915 105.815 50.8392 105.607 50.8392 104.425C50.8392 102.548 50.8392 100.602 50.8392 98.7249C50.8392 90.7307 50.8392 82.8061 50.8392 74.8814C50.8392 73.3521 50.7697 73.2131 49.6572 73.3521C46.3894 73.7692 43.1911 74.2558 40.0623 74.6729C38.3241 74.8814 36.5859 75.1595 34.9172 75.368C34.0829 75.4375 33.9438 75.229 34.0829 74.0472C35.4039 65.0104 38.8108 57.5028 44.3731 51.3855C45.3465 50.3428 46.3894 49.3696 47.3628 48.3964C47.5018 48.2574 47.6409 48.0488 47.7799 47.8403C47.7799 47.7708 47.7104 47.6317 47.7104 47.5622C47.4323 47.7013 47.1542 47.8403 46.9456 47.9793C47.0847 47.0756 47.5018 46.6585 48.0581 47.0061C48.6838 47.3537 49.1705 47.0756 49.7963 46.7281C51.6735 45.7549 53.5508 44.7817 55.4976 43.7389C55.7757 43.5999 56.0538 43.1133 56.3319 42.8353C56.5405 42.6962 56.7491 42.5572 56.9577 42.4182C57.1662 42.2791 57.4444 42.2791 57.4444 42.0706C57.5139 41.8621 57.3748 41.584 57.3053 41.3755C57.2358 41.0279 57.0967 40.6803 56.9577 40.3327C57.4444 40.4718 57.9311 40.6108 58.4873 40.7498C58.3482 41.0974 58.2092 41.445 58.0006 42.0706C58.8349 42.0011 59.5997 41.9316 60.3645 41.8621C60.4341 41.723 60.4341 41.5145 60.5036 41.3755C60.0169 41.1669 59.5997 41.0279 59.113 40.8888C59.8083 38.5949 60.0864 38.3863 61.6856 38.5254C62.659 38.5949 62.9371 38.3863 63.1457 36.996C63.0761 36.996 62.9371 36.9265 62.9371 36.996C61.7551 38.4558 60.7122 37.7607 59.6693 37.5522C59.3216 37.4826 58.974 37.6217 58.5568 37.6217C58.1396 37.6217 57.6529 37.7607 57.3053 37.6217C56.7491 37.4826 56.9577 36.9265 57.0272 36.3009C57.0272 36.0924 56.8186 35.8143 56.61 35.6753C56.471 35.6057 56.1929 35.7448 56.0538 35.6058C55.8452 35.4667 55.7062 35.2582 55.4976 35.0496C55.7062 34.8411 55.9147 34.4935 56.1233 34.3545C56.8881 34.0069 57.5834 33.7984 58.0701 32.6861C58.2092 32.4081 58.2787 32.13 58.4178 31.852C58.7654 30.4617 59.3216 30.1836 59.9474 31.0178C60.295 31.5739 60.5731 31.4349 61.0598 30.9483C61.7551 30.1836 62.5894 29.419 63.3543 30.1836C63.4238 30.2531 63.9105 30.1141 63.98 29.9056C64.3972 28.9324 65.0925 28.8629 65.6487 28.8629C66.2049 28.7933 66.6916 28.7238 67.2478 28.6543C65.2315 31.4349 66.4135 31.2959 67.8041 31.5739C69.2642 31.852 63.4933 31.7825 65.301 33.3813C67.1088 34.9801 66.9002 34.6325 70.8633 33.1032C74.9655 31.5739 75.3131 35.6753 75.3131 35.6753C75.3131 35.6753 74.6874 27.8201 76.5646 30.1836C78.4419 32.6166 82.405 35.5362 82.1964 33.0337C82.0574 31.0873 81.6402 29.836 82.1964 29.0714C84.1432 29.419 86.09 29.9751 88.0368 30.5312C88.3844 30.6007 88.593 31.2959 88.8711 31.7129C88.5235 31.9215 88.1758 32.2691 87.8282 32.3386C85.7423 33.0337 85.0471 34.285 85.3947 36.0924ZM85.5338 42.4877C84.908 42.5572 84.3518 42.6267 83.6565 42.6962C84.5604 41.2364 84.6994 41.2364 85.5338 42.4877ZM83.1003 59.8663C83.0307 59.9358 82.9612 60.0053 82.8222 60.1444C82.3355 59.7968 81.9183 59.3797 81.4316 58.9626C81.7097 58.6845 81.9183 58.4065 82.405 57.9199C82.6831 58.615 82.8917 59.2407 83.1003 59.8663ZM31.6494 128.408C32.5533 126.878 33.5962 127.712 34.2219 128.894C33.3876 128.686 32.5533 128.547 31.6494 128.408ZM32.0666 133.413C30.8151 133.204 30.1893 131.883 30.6065 130.771C31.0932 131.605 31.5103 132.37 32.0666 133.413ZM47.7799 44.9902C48.1971 43.6694 48.5448 43.4609 49.9353 43.878C49.24 44.2951 48.5448 44.6426 47.7799 44.9902ZM52.0212 42.6267C52.2297 42.3487 52.3688 41.8621 52.5774 41.7925C53.8289 41.3755 55.0804 40.9584 56.3319 40.6108C56.471 40.5413 56.5405 40.5413 56.6796 40.5413C55.4976 42.5572 53.8984 42.2791 52.5079 42.9743C52.3688 43.0438 52.1602 42.7657 52.0212 42.6267ZM118.977 61.5346C118.977 62.0908 118.977 62.6469 118.977 63.1335C118.977 66.6787 119.046 70.2935 118.977 73.8387C118.907 78.8437 118.699 83.7793 118.699 88.7843C118.629 99.3505 118.629 109.847 118.629 120.483C118.629 125.766 118.629 131.049 118.699 136.332C118.699 144.604 118.768 152.877 118.768 161.218C118.768 166.432 118.768 171.646 118.699 176.79C118.699 177.346 118.212 178.18 117.795 178.249C116.126 178.527 114.457 178.875 112.789 178.667C109.66 178.249 106.531 177.485 103.472 176.929C99.2308 176.164 95.0591 175.469 91.0265 174.774C86.229 173.94 81.5706 173.175 77.0513 172.41C69.4032 171.089 62.1723 169.838 55.2195 168.656C51.1173 167.961 47.1542 167.405 43.3301 166.78C41.1748 166.432 39.0194 166.015 36.9335 165.667C33.9438 165.181 31.0236 164.764 28.2425 164.277C24.0013 163.582 19.8296 162.887 15.8665 162.192C14.4064 161.914 12.9463 161.705 11.5558 161.496C11.1386 161.427 10.8605 161.149 10.7909 160.523C10.7214 159.689 10.6519 158.785 10.6519 157.951C10.6519 155.31 10.6519 152.599 10.7214 149.957C10.7909 144.257 10.93 138.626 10.9995 132.996C11.0691 127.851 11.1386 122.707 11.2081 117.563C11.2776 112.628 11.4167 107.692 11.4862 102.757C11.4862 100.949 11.4167 99.2115 11.4862 97.4041C11.5558 90.8697 11.6253 84.4049 11.6948 77.94C11.7643 73.1435 11.7643 68.2775 11.8339 63.481C11.8339 62.0212 12.251 60.8395 12.9463 59.7968C15.0322 56.8772 17.0485 53.8881 19.2734 50.9684C20.6639 49.0916 22.1936 47.3537 23.7232 45.6853C23.9318 45.4073 24.2099 45.1987 24.4185 44.9207C24.488 44.8512 24.5575 44.7817 24.6271 44.7121C24.8356 44.5036 25.0442 44.2951 25.1833 44.0865C26.2957 42.9743 27.4777 41.8621 28.6597 40.8193C30.676 39.012 32.7619 37.3436 34.9172 35.8143C38.1155 33.5203 41.3138 31.1568 44.7902 29.4885C46.1113 28.8628 47.3628 28.0982 48.7533 27.4726C49.9353 26.9164 51.1173 26.4994 52.2993 26.0823C52.5079 26.0128 52.7164 25.9432 52.8555 25.7347C53.3422 24.97 53.8289 25.0396 54.3851 25.1091C55.1499 25.1786 55.5671 24.97 55.7062 24.2054C55.8452 24.1359 55.9843 24.1359 56.1233 24.0664C56.2624 24.2749 56.4014 24.4834 56.61 24.4834C57.5834 24.3444 58.6263 23.9968 59.6693 23.7188C59.4607 23.5102 59.3216 23.3017 59.2521 23.1627C59.4607 23.0931 59.6693 23.0236 59.8778 23.0236C60.295 23.2322 60.7122 23.5102 61.1294 23.7188C61.1294 23.5798 61.1294 23.4407 61.1294 23.3017C61.2684 23.0931 61.3379 22.8846 61.477 22.6761C61.7551 22.6065 62.1028 22.537 62.3809 22.4675C62.659 22.6761 62.9371 23.0236 63.2847 23.0236C64.3972 22.9541 65.5096 22.8846 66.6221 22.7456C66.344 23.4407 66.344 24.1359 66.9002 24.4139C68.2908 25.1091 69.4727 25.1786 68.4994 26.986C65.0925 27.264 61.6856 27.8201 58.3482 28.5153C52.1602 29.9056 46.2503 32.0605 40.6881 35.5362C35.8211 38.5254 31.3713 42.1401 27.1996 46.2415C22.6107 50.6904 18.5781 55.6954 14.9626 61.3261C14.5455 62.0212 14.0588 62.6469 14.0588 63.7591C14.0588 65.0799 14.0588 66.4007 14.0588 67.7909C13.9892 72.657 13.9892 77.523 13.9197 82.389C13.8502 86.4903 13.8502 90.5222 13.7807 94.6235C13.7111 98.5858 13.6416 102.548 13.5721 106.51C13.5025 112.628 13.433 118.815 13.3635 125.001C13.294 130.354 13.1549 135.637 13.0854 140.99C13.0158 146.064 12.9463 151.069 12.8768 156.144C12.8768 157.326 13.5721 158.577 14.2674 158.716C15.3798 158.924 16.4923 159.133 17.6742 159.272C20.7335 159.689 23.7927 160.106 26.991 160.593C31.7189 161.288 36.5859 162.122 41.5919 162.887C44.234 163.304 46.9456 163.512 49.6572 163.929C54.107 164.555 58.6263 165.181 63.3543 165.876C67.9431 166.571 72.671 167.405 77.538 168.17C85.0471 169.421 92.9733 170.742 101.247 172.132C101.247 172.202 101.247 172.202 101.247 172.271C104.863 172.758 108.548 173.314 112.302 173.8C113.832 174.009 114.457 173.522 114.597 171.924C114.736 170.186 114.736 168.448 114.666 166.71C114.597 163.929 114.318 161.149 114.318 158.368C114.249 152.39 114.318 146.412 114.318 140.434C114.318 128.13 114.249 115.825 114.249 103.591C114.249 97.1956 114.179 90.8697 114.179 84.5439C114.179 77.2449 114.179 70.0154 114.249 62.7859C114.249 57.2247 114.249 51.5941 114.318 46.0329C114.318 44.3646 113.901 43.1133 112.719 42.3487C109.451 40.1242 106.462 37.6912 103.124 35.8143C99.0918 33.5898 94.9896 31.5044 90.8179 30.0446C89.2883 29.4885 87.7587 29.0714 86.229 28.7238C87.411 28.7238 88.2454 28.6543 87.8977 27.8896C87.2024 26.3603 88.6625 25.0396 91.6522 26.4298C94.3638 27.7506 100.83 32.13 98.8136 27.5421C99.1613 27.6811 99.5784 27.8201 99.9261 27.8896C102.777 28.8628 105.349 30.3227 107.922 32.0605C109.104 32.8252 110.355 33.4508 111.607 34.1459C111.676 34.0069 111.746 33.9374 111.815 33.7984C111.746 33.5898 111.746 33.2423 111.607 33.2423C110.494 33.1727 110.008 32.2691 109.451 31.5044C109.312 31.2959 109.104 31.2263 108.826 31.1568C107.088 31.0873 106.114 29.6275 104.793 28.8629C103.055 27.8896 101.386 26.8469 99.5089 26.1518C98.9527 25.9432 98.3965 25.8737 97.7707 25.7347C97.7012 25.5957 97.6317 25.5262 97.5621 25.3871C110.425 29.9056 118.351 36.4399 118.351 36.4399L118.977 61.5346ZM93.3209 35.3277C93.1123 35.1887 93.0428 34.8411 92.9037 34.563C93.2514 34.424 93.6685 34.0764 93.9467 34.0764C94.2943 34.1459 94.5724 34.4935 94.9201 34.7021C95.4068 34.9106 96.0325 34.7716 96.5887 34.7716C97.4926 34.7021 98.3965 35.1191 99.2308 35.5362C100.552 36.1619 101.873 36.9265 103.194 37.6912C104.098 38.1778 104.515 38.9424 103.959 40.3327C103.82 40.6803 103.82 41.0974 103.75 41.5145C103.889 41.584 104.028 41.584 104.167 41.6535C104.306 41.2364 104.445 40.7498 104.584 40.3327C104.654 39.9852 104.724 39.6376 104.863 39.29C105.141 39.3595 105.419 39.429 105.697 39.4986L105.766 39.5681C106.948 40.0547 107.574 41.0974 107.574 42.9048C106.253 42.5572 104.932 43.1133 103.75 44.5036C103.681 44.3646 103.611 44.2255 103.542 44.0865C103.82 43.7389 104.098 43.3914 104.515 42.8353C104.098 42.6962 103.75 42.4877 103.402 42.5572C102.36 42.6962 101.386 42.9048 100.413 43.1828C100.204 43.2523 100.065 43.5304 99.9261 43.6694C100.065 43.878 100.204 44.156 100.413 44.2255C102.499 44.6426 102.429 44.5731 102.012 47.2147C101.942 47.5622 102.151 47.9098 102.151 48.1184C101.595 48.6049 101.108 49.0916 100.621 49.3696C100.274 49.5086 99.8566 49.3696 99.5089 49.2306C99.3699 49.1611 99.4394 48.6745 99.3699 48.3269C99.787 48.1879 100.135 48.1183 100.899 47.9098C100.274 47.5622 99.8566 47.3537 99.4394 47.1451C98.9527 46.9366 98.466 46.8671 97.9098 46.6585C99.3699 45.1292 99.3699 44.7121 98.6051 43.2523C98.3269 42.7657 98.1879 42.0706 98.0488 41.5145C98.1184 41.445 98.2574 41.3059 98.327 41.2364C98.1184 41.2364 97.8403 41.1669 97.7012 41.3059C96.7278 41.9316 95.8239 41.6535 95.5458 40.6108C95.3372 39.4986 95.1982 38.3863 93.6685 39.29C93.3904 39.429 92.9037 38.8729 92.6256 38.5949C92.6256 38.5949 92.9037 37.9692 93.1123 37.6912C93.599 37.1351 94.0857 36.579 94.7115 35.8143C94.0162 35.4667 93.599 35.5362 93.3209 35.3277ZM110.147 46.8671C110.912 47.2842 110.772 48.0488 109.938 48.4659C109.104 48.883 108.478 49.0916 107.783 48.1184C107.157 47.2147 106.462 46.45 106.462 45.1292C106.462 44.8512 106.601 44.5731 106.601 44.2951C106.879 44.3646 107.227 44.3646 107.366 44.5731C107.783 44.9902 108.13 45.4768 108.478 45.8939C108.548 45.8244 108.687 45.7549 108.756 45.6158C108.756 45.1987 108.826 44.7817 108.826 44.3646C108.965 44.2951 109.104 44.2255 109.243 44.156C109.382 44.5731 109.73 44.9902 109.59 45.3378C109.312 46.1719 109.521 46.589 110.147 46.8671ZM104.863 47.0756C104.793 47.4232 104.515 47.7013 104.306 48.0488C104.098 47.8403 103.75 47.7013 103.681 47.4232C103.611 47.2842 103.959 46.8671 104.167 46.3805C104.515 46.7281 104.863 46.8671 104.863 47.0756ZM98.2574 49.5782C98.0488 49.8562 97.9098 50.1343 97.7012 50.3428C97.5621 50.4818 97.3535 50.6209 97.2145 50.7599C97.0754 50.4123 96.8669 50.1343 96.8669 49.7867C96.8669 49.5782 97.284 49.0916 97.4231 49.0916C97.7012 49.0916 97.9793 49.3696 98.2574 49.5782Z" fill="#FDF2E5"/>
</svg>
