<svg width="139" height="132" viewBox="0 0 139 132" fill="none" xmlns="http://www.w3.org/2000/svg">
<path d="M109.749 41.3669L123.469 27.5366C123.875 27.127 124.064 26.5503 123.98 25.98C123.896 25.4094 123.548 24.9119 123.041 24.6372L77.9953 0.223633C77.2826 -0.162354 76.4009 -0.034668 75.8279 0.538574L61.999 14.3665L48.1711 0.539551C47.8269 0.192871 47.3654 0 46.8796 0C46.5744 0 46.274 0.0778809 46.0055 0.224609L31.5369 8.06348C31.1072 8.29785 30.7947 8.68359 30.6555 9.15234C30.5163 9.62109 30.5676 10.1167 30.7996 10.5464C31.1218 11.1372 31.7396 11.5061 32.411 11.5061C32.7138 11.5061 33.0165 11.428 33.2826 11.2839L46.5475 4.09424L58.9676 16.5134L17.1663 39.1057L4.8512 26.6912L26.842 14.7727C27.2742 14.5408 27.5867 14.155 27.7259 13.6863C27.865 13.2175 27.8138 12.7219 27.5794 12.2922C27.2595 11.7014 26.6418 11.3328 25.9704 11.3328C25.6676 11.3328 25.3673 11.4106 25.0987 11.5547L0.959322 24.6382C0.453916 24.9089 0.102328 25.4121 0.0193148 25.981C-0.0636989 26.5471 0.126988 27.1282 0.532046 27.5361L14.2505 41.3674L0.53107 55.1975C0.125035 55.6072 -0.0644314 56.1838 0.0195589 56.7542C0.103793 57.3247 0.451718 57.8223 0.95859 58.0969L15.0008 65.7073V98.7502C15.0006 98.8135 15.0038 98.8765 15.0101 98.9387C15.0128 98.9653 15.0179 98.9912 15.0216 99.0176C15.0262 99.0496 15.0299 99.0815 15.0362 99.113C15.0441 99.1528 15.0548 99.1914 15.0651 99.2302C15.0699 99.248 15.0736 99.2661 15.079 99.2839C15.0909 99.3232 15.1053 99.3616 15.1197 99.4001C15.1261 99.4172 15.1315 99.4346 15.1385 99.4514C15.1527 99.4861 15.1691 99.519 15.1852 99.5522C15.1952 99.573 15.2042 99.5938 15.215 99.614C15.2296 99.6414 15.246 99.6675 15.2616 99.6938C15.2767 99.719 15.2911 99.7444 15.3073 99.769C15.3207 99.7893 15.3358 99.8086 15.3502 99.8284C15.371 99.8569 15.3915 99.886 15.414 99.9138C15.4264 99.9292 15.4403 99.9434 15.4533 99.9583C15.4791 99.988 15.505 100.018 15.5329 100.046C15.5473 100.06 15.5631 100.073 15.578 100.088C15.6059 100.114 15.6332 100.14 15.6628 100.165C15.6913 100.188 15.7216 100.21 15.7514 100.232C15.769 100.245 15.7853 100.258 15.8034 100.271C15.8559 100.306 15.9103 100.339 15.9665 100.369L61.1198 124.775C61.1848 124.811 61.2526 124.842 61.3222 124.869C61.3374 124.875 61.3527 124.881 61.3681 124.886C61.4189 124.905 61.4704 124.921 61.5234 124.935C61.5424 124.94 61.5612 124.946 61.5803 124.95C61.6316 124.962 61.6836 124.971 61.7363 124.979C61.7544 124.981 61.772 124.985 61.79 124.987C61.8589 124.995 61.9287 125 61.9998 125C62.0708 125 62.1406 124.995 62.2095 124.987C62.2276 124.985 62.2454 124.981 62.2634 124.979C62.3162 124.971 62.3682 124.962 62.4192 124.95C62.4383 124.946 62.4573 124.94 62.4761 124.935C62.5288 124.921 62.5806 124.905 62.6311 124.886C62.6465 124.881 62.6619 124.875 62.6771 124.869C62.7464 124.842 62.8143 124.811 62.8792 124.775L108.033 100.369C108.089 100.339 108.143 100.306 108.196 100.271C108.214 100.258 108.23 100.244 108.248 100.232C108.278 100.21 108.308 100.188 108.336 100.165C108.366 100.14 108.393 100.114 108.421 100.088C108.436 100.073 108.452 100.061 108.466 100.046C108.494 100.018 108.52 99.988 108.546 99.9583C108.559 99.9434 108.573 99.9292 108.585 99.9138C108.608 99.8862 108.628 99.8572 108.649 99.8284C108.663 99.8086 108.678 99.7893 108.692 99.769C108.708 99.7444 108.722 99.7192 108.737 99.6938C108.753 99.6675 108.77 99.6414 108.784 99.614C108.795 99.5938 108.804 99.573 108.814 99.5522C108.83 99.519 108.846 99.4861 108.86 99.4514C108.868 99.4346 108.873 99.4172 108.879 99.4001C108.894 99.3618 108.908 99.3235 108.92 99.2839C108.925 99.2664 108.929 99.2483 108.934 99.2302C108.944 99.1914 108.955 99.1528 108.963 99.113C108.969 99.0815 108.973 99.0496 108.977 99.0176C108.981 98.9912 108.986 98.9653 108.989 98.9387C108.995 98.8762 108.998 98.8132 108.998 98.7502V65.7073L123.04 58.0972C123.545 57.8237 123.897 57.3208 123.98 56.7544C124.063 56.1855 123.872 55.6045 123.469 55.1968L109.749 41.3669ZM77.4513 4.09448L119.148 26.6924L106.833 39.1064L65.0322 16.5127L77.4513 4.09448ZM17.6966 63.0032L4.85193 56.0417L17.1668 43.6277L58.9678 66.2214L46.5485 78.6396L17.7122 63.0115C17.7071 63.0085 17.702 63.0059 17.6966 63.0032ZM60.1688 120.098L18.663 97.6636V67.6921L46.0047 82.5105C46.2794 82.6592 46.5792 82.7317 46.8766 82.7317C47.351 82.7317 47.8198 82.5476 48.1721 82.1956L60.1688 70.1997V120.098ZM62 63.6975L20.6868 41.3674L62.001 19.0371L103.314 41.3672L62 63.6975ZM106.31 62.9995C106.3 63.0046 106.291 63.01 106.281 63.0154L97.158 67.96C96.7258 68.1919 96.4133 68.5801 96.2741 69.0488C96.135 69.5178 96.1862 70.0132 96.4182 70.4431C96.7405 71.0339 97.3582 71.4001 98.0296 71.4001C98.3324 71.4001 98.6351 71.3242 98.9013 71.1804L105.337 67.6924V97.6641L63.8312 120.098V70.1987L75.8289 82.1956C76.1758 82.5422 76.6346 82.7327 77.1229 82.7327C77.4256 82.7327 77.726 82.6545 77.9945 82.5105L92.4631 74.6689C92.8928 74.437 93.2053 74.0488 93.3445 73.5801C93.4837 73.1113 93.4324 72.6182 93.2004 72.1885C92.8782 71.5952 92.2604 71.229 91.5866 71.229C91.2862 71.229 90.9835 71.3047 90.7174 71.4512L77.4525 78.6382L65.0324 66.2217L106.834 43.6267L119.149 56.0413L106.31 62.9995Z" fill="#610000"/>
<rect x="96.2139" y="85.0851" width="60.5084" height="5.62869" rx="2.81434" transform="rotate(45 96.2139 85.0851)" fill="#610000"/>
<rect x="139" y="88.0702" width="60.5084" height="5.62869" rx="2.81434" transform="rotate(135 139 88.0702)" fill="#610000"/>
</svg>
